<svg width="283" height="270" viewBox="0 0 283 270" fill="none" xmlns="http://www.w3.org/2000/svg">
<path d="M99.01 36.3027C99.01 36.3027 109.92 57.6427 111.26 67.5227C111.35 68.2088 111.25 68.9068 110.98 69.5436C110.71 70.1805 110.27 70.7328 109.72 71.1427C105.19 74.4527 92.05 86.1427 84.04 99.0327C83.63 99.6771 83.04 100.185 82.34 100.492C81.64 100.798 80.87 100.889 80.12 100.753C74.12 99.7527 56.74 97.1227 45.12 103.173C44.25 103.596 43.27 103.694 42.34 103.45C41.41 103.205 40.6 102.635 40.06 101.843C35.72 95.5127 25.3 74.6327 27.81 65.0127C31.08 52.4527 99.01 36.3027 99.01 36.3027Z" fill="#9D412C"/>
<path d="M1.81011 69.0125C2.29011 68.3125 29.1401 38.6725 45.6501 19.5325C46.1201 18.7513 46.81 18.1179 47.62 17.7029C48.44 17.288 49.3501 17.1078 50.2701 17.1825H50.5601C70.3901 17.6625 94.4 19.4125 114.23 19.9025C114.66 19.912 115.1 19.9724 115.53 20.0825C118.24 20.5725 120.22 22.8725 118.53 25.7325C118.26 26.4805 117.81 27.1461 117.21 27.6625C107.55 42.2025 92.35 60.7625 80.21 75.9325C79.69 76.9357 78.86 77.7382 77.84 78.2125C77.01 78.6372 76.1001 78.8438 75.1801 78.8125C43.1801 79.4625 32.8 78.8125 5.60002 75.6625C3.97002 75.4725 2.69009 75.1925 1.92009 74.3525C0.420092 73.0825 -0.0398932 71.0125 1.81011 69.0125Z" fill="#DC5629"/>
<path d="M58.38 48.3628C52.84 51.6148 47.5 55.1841 42.38 59.0528C37.79 62.5628 31.38 66.7028 28.09 71.4528C23.93 77.4528 29.36 86.1728 31.94 92.3628C34.32 98.0628 36.69 103.756 39.07 109.443C39.54 110.563 37.82 111.333 37.35 110.213L27.48 86.5728C25.9 82.7929 22.38 77.7128 23.97 73.5228C25.97 68.2328 33.6901 63.5728 37.9001 60.1828C44.1301 55.2079 50.71 50.6831 57.59 46.6428C58.59 46.0228 59.39 47.7528 58.36 48.3628H58.38Z" fill="#EDBA00"/>
<path d="M38.08 109.293C41.51 108.463 43.99 113.713 44.72 116.293C45.05 117.463 43.18 117.733 42.86 116.583C42.44 115.093 40.4 110.663 38.37 111.153C37.19 111.443 36.91 109.573 38.08 109.293Z" fill="#EDBA00"/>
<path d="M39.61 110.733C40.92 112.889 42 115.174 42.85 117.553C43.25 118.683 41.53 119.463 41.13 118.323C40.28 115.943 39.19 113.657 37.88 111.503C37.25 110.503 38.98 109.713 39.61 110.733Z" fill="#EDBA00"/>
<path d="M38.9 110.893C39.61 113.408 40.47 115.879 41.48 118.293C41.95 119.413 40.23 120.183 39.76 119.063C38.69 116.492 37.78 113.861 37.03 111.183C36.71 110.013 38.57 109.743 38.9 110.893Z" fill="#EDBA00"/>
<path d="M38.14 111.552C36.74 112.362 38.99 117.252 39.43 118.242C39.51 118.466 39.5 118.712 39.41 118.931C39.32 119.15 39.15 119.327 38.93 119.424C38.71 119.522 38.47 119.534 38.24 119.457C38.02 119.381 37.8299 119.222 37.7199 119.012C36.6599 116.622 34.32 111.592 37.38 109.832C38.43 109.222 39.19 110.952 38.15 111.552H38.14Z" fill="#EDBA00"/>
<path d="M58.93 42.4725C59.84 42.0743 60.88 42.0501 61.81 42.4051C62.75 42.76 63.5 43.4661 63.93 44.3725L64.14 44.8325C64.34 45.2849 64.4499 45.7727 64.4599 46.268C64.4799 46.7634 64.39 47.2566 64.22 47.7195C64.04 48.1824 63.77 48.6059 63.43 48.9659C63.09 49.3259 62.68 49.6152 62.23 49.8175C61.78 50.0197 61.29 50.1308 60.79 50.1446C60.3 50.1583 59.8099 50.0743 59.3399 49.8974C58.8799 49.7205 58.46 49.4542 58.1 49.1136C57.74 48.773 57.45 48.3649 57.25 47.9125C57.18 47.7625 57.11 47.6025 57.05 47.4525C56.64 46.5416 56.62 45.5095 56.97 44.5783C57.32 43.647 58.02 42.8909 58.93 42.4725Z" fill="#7B569A"/>
<path d="M102.72 49.7725C105.31 55.6894 107.49 61.785 109.22 68.0125C109.22 68.2125 108.92 68.3225 108.86 68.1125C106.86 61.9725 104.86 55.8925 102.62 49.8325C102.62 49.7825 102.69 49.7425 102.71 49.8325L102.72 49.7725Z" fill="white"/>
<path d="M38.95 96.6727C39.42 97.8492 40.17 98.8998 41.12 99.7427C42.18 100.523 43.1201 100.363 44.3101 100.273C44.3401 100.262 44.37 100.264 44.4 100.278C44.43 100.291 44.46 100.315 44.47 100.345C44.49 100.376 44.49 100.411 44.48 100.443C44.47 100.476 44.4501 100.504 44.4301 100.523C43.6001 101.353 42.11 100.953 41.23 100.403C39.99 99.5146 39.13 98.2053 38.8 96.7227C38.8 96.6327 38.91 96.6027 38.95 96.7227V96.6727Z" fill="white"/>
<path d="M62.08 43.8525C62.59 44.193 62.9801 44.6977 63.1801 45.2854C63.3701 45.8731 63.36 46.5096 63.16 47.0925C62.84 48.0925 61.44 49.5925 60.29 49.0925C60.27 49.0824 60.26 49.0689 60.25 49.0532C60.24 49.0376 60.24 49.0202 60.24 49.0025C60.24 48.9849 60.24 48.9675 60.25 48.9518C60.26 48.9362 60.27 48.9227 60.29 48.9125C60.63 48.7337 60.98 48.5832 61.35 48.4625C61.95 48.1724 62.4201 47.6753 62.6801 47.0625C63.1701 45.9025 62.69 44.9025 62.09 43.9125L62.08 43.8525Z" fill="white"/>
<path d="M58 44.5824C57.85 44.9873 57.83 45.4243 57.93 45.8424C57.93 45.8653 57.93 45.8894 57.92 45.9105C57.91 45.9316 57.89 45.9484 57.87 45.958C57.85 45.9675 57.82 45.9692 57.8 45.9627C57.78 45.9562 57.76 45.942 57.75 45.9224C57.59 45.7116 57.51 45.4483 57.54 45.185C57.56 44.9217 57.69 44.678 57.89 44.5024C57.94 44.4524 58.03 44.5024 58 44.5824Z" fill="white"/>
<path d="M110.65 27.0626C105.49 35.2126 100.05 43.1826 94.65 51.1626C90.06 57.9226 85.86 65.1626 79.53 70.4526C79.5 70.4738 79.4701 70.4842 79.4301 70.4814C79.4001 70.4786 79.37 70.4628 79.35 70.4376C79.33 70.4124 79.3199 70.3798 79.3199 70.347C79.3199 70.3142 79.34 70.2838 79.37 70.2626C86.09 64.0126 90.72 55.9526 95.72 48.3926C100.52 41.1726 105.32 33.9226 110.34 26.8626C110.47 26.6726 110.75 26.8626 110.63 27.0626H110.65Z" fill="white"/>
<path d="M46.79 22.2331C34.33 38.2331 21.47 54.4431 7.93001 69.5631C7.79001 69.7131 7.54 69.5631 7.67 69.3831C19.87 53.1531 33.24 37.3831 46.56 22.0731C46.67 21.9331 46.9 22.0731 46.79 22.2331Z" fill="white"/>
<path d="M117.3 228.462C115.77 227.172 111.75 228.752 109.82 228.232C107.89 227.712 105.82 226.423 105.68 224.423C105.67 223.791 105.77 223.162 105.97 222.563L107.43 217.143C107.6 216.143 108.05 215.215 108.75 214.473C109.93 213.473 111.75 213.663 113.26 214.033C115.48 214.581 117.66 215.283 119.79 216.132" fill="#94401E"/>
<path d="M119.32 225.163C117.77 224.293 115.98 223.943 114.22 224.163C113.01 224.253 110.31 225.103 109.62 223.813C109.3 223.203 111.46 217.373 111.33 217.433C111.2 217.493 113.9 218.213 114.33 218.353C115.79 218.783 117.22 219.303 118.64 219.853C123.28 221.663 125.45 214.233 120.83 212.433C117.14 211.003 112.09 208.793 108.14 210.433C103.89 212.163 103.14 217.543 102.21 221.503C101.28 225.463 102.44 228.853 106.11 230.943C107.56 231.769 109.2 232.216 110.88 232.243C111.83 232.2 112.79 232.106 113.74 231.963C114.13 231.963 115.48 231.963 115.24 231.813C119.51 234.353 123.55 227.813 119.24 225.203L119.32 225.163Z" fill="#94401E"/>
<path d="M188.97 250.372L209.43 246.412L195.61 231.732L178.01 235.262L188.97 250.372Z" fill="#F1CB26"/>
<path d="M119.83 233.333C119.83 233.333 164.03 245.513 188.97 250.333L185.97 244.753L191.15 240.203L189.57 234.203L195.57 231.663C195.57 231.663 129.91 212.033 123.12 215.473L119.83 233.333Z" fill="#DB4E19"/>
<mask id="mask0_7_330" style="mask-type:luminance" maskUnits="userSpaceOnUse" x="119" y="215" width="77" height="36">
<path d="M119.83 233.333C119.83 233.333 164.03 245.513 188.97 250.333L185.97 244.753L191.15 240.203L189.57 234.203L195.57 231.663C195.57 231.663 129.91 212.033 123.12 215.473L119.83 233.333Z" fill="white"/>
</mask>
<g mask="url(#mask0_7_330)">
<path d="M123.42 215.303C138.68 219.863 154.22 223.463 169.8 226.803C178.05 228.583 186.33 230.283 194.65 231.733" fill="#D8A44B"/>
<path d="M122.32 219.013C145.75 225.756 169.53 231.241 193.55 235.443C198.4 236.313 200.65 228.903 195.74 228.023C171.72 223.821 147.94 218.336 124.51 211.593C119.74 210.193 117.51 217.593 122.32 219.013Z" fill="#94401E"/>
</g>
<path d="M122.72 233.352C125.06 227.637 126.82 221.701 127.97 215.632C128.67 212.002 123.11 210.312 122.41 213.992C121.25 220.061 119.49 225.997 117.15 231.712C115.74 235.162 121.31 236.782 122.72 233.352Z" fill="#F1CB26"/>
<path d="M119.46 232.263C121.8 226.548 123.56 220.612 124.72 214.543C125.41 210.913 119.85 209.233 119.15 212.903C117.99 218.97 116.23 224.906 113.9 230.623C112.49 234.073 118.06 235.693 119.46 232.263Z" fill="white"/>
<path d="M115.72 231.553C118.06 225.837 119.82 219.9 120.98 213.833C121.67 210.203 116.11 208.513 115.41 212.193C114.25 218.259 112.49 224.195 110.16 229.913C108.74 233.363 114.32 234.983 115.72 231.553Z" fill="#84B693"/>
<path d="M205.91 246.822C206.99 247.043 208.11 246.899 209.11 246.412C208.48 245.658 207.77 244.986 206.98 244.412C206.86 244.311 206.72 244.248 206.57 244.232C206.25 244.232 206.07 244.592 205.97 244.892C205.72 245.642 205.62 246.702 206.36 246.962" fill="#262626"/>
<path d="M205.87 246.903C206.81 247.573 208.29 247.123 209.27 246.733C209.31 246.706 209.36 246.669 209.39 246.624C209.42 246.579 209.44 246.527 209.45 246.472C209.46 246.417 209.46 246.361 209.44 246.307C209.43 246.254 209.4 246.204 209.37 246.163C208.79 245.453 207.12 243.093 205.97 244.083C205.75 244.301 205.58 244.561 205.47 244.847C205.36 245.133 205.32 245.439 205.33 245.745C205.35 246.051 205.43 246.351 205.57 246.624C205.7 246.897 205.9 247.139 206.14 247.333C206.61 247.603 207.06 246.883 206.58 246.613C205.92 246.223 206.14 244.673 206.96 244.923C207.6 245.133 208.39 246.163 208.85 246.653L208.94 246.093C207.94 246.593 206.94 246.413 205.89 246.733C205.87 246.739 205.85 246.75 205.84 246.766C205.83 246.781 205.83 246.799 205.83 246.818C205.83 246.836 205.83 246.855 205.84 246.87C205.85 246.885 205.87 246.897 205.89 246.903H205.87Z" fill="#262626"/>
<path d="M314.72 129.212C314.98 128.866 315.15 128.455 315.2 128.022C315.26 127.588 315.19 127.148 315.02 126.748C314.85 126.347 314.57 126 314.22 125.742C313.86 125.485 313.45 125.326 313.02 125.282C302.96 124.132 278.32 121.282 268.94 119.372C264.76 118.532 254.6 117.372 249.94 116.812C249.29 116.736 248.65 116.913 248.13 117.308C247.62 117.702 247.28 118.282 247.2 118.922L234.02 218.652C233.94 219.185 234.04 219.726 234.3 220.198C234.56 220.669 234.96 221.045 235.45 221.269C235.93 221.494 236.48 221.555 237.01 221.444C237.53 221.333 238.01 221.055 238.37 220.652C248.91 208.762 272 182.652 281.07 171.802C288.45 162.892 307.62 138.312 314.72 129.212ZM261.17 135.282L283.17 138.182C283.6 138.237 284.02 138.407 284.36 138.676C284.71 138.944 284.98 139.302 285.15 139.71C285.31 140.119 285.36 140.563 285.29 140.998C285.23 141.433 285.04 141.842 284.77 142.182L258.19 173.952C257.84 174.367 257.37 174.66 256.85 174.786C256.33 174.912 255.78 174.865 255.28 174.652C254.79 174.439 254.38 174.072 254.11 173.605C253.84 173.138 253.73 172.597 253.8 172.062L258.38 137.382C258.46 136.739 258.81 136.157 259.32 135.763C259.84 135.37 260.49 135.197 261.14 135.282H261.17Z" fill="#DC5629"/>
<path d="M253.3 126.233L247.12 125.413C246.76 125.391 246.42 125.504 246.15 125.728C245.87 125.952 245.7 126.271 245.65 126.62C245.61 126.969 245.69 127.322 245.9 127.609C246.1 127.895 246.41 128.093 246.76 128.163L252.94 128.983C253.29 129.004 253.63 128.892 253.91 128.668C254.18 128.444 254.35 128.125 254.4 127.776C254.44 127.427 254.36 127.073 254.15 126.787C253.95 126.5 253.64 126.302 253.3 126.233Z" fill="white"/>
<path d="M251.25 141.802L245.06 140.992C244.88 140.969 244.69 140.981 244.52 141.028C244.34 141.075 244.18 141.156 244.03 141.266C243.74 141.489 243.55 141.819 243.51 142.182C243.48 142.362 243.49 142.545 243.54 142.72C243.59 142.895 243.67 143.06 243.78 143.204C243.89 143.348 244.03 143.468 244.18 143.559C244.34 143.65 244.52 143.709 244.7 143.732L250.88 144.552C251.23 144.578 251.58 144.468 251.85 144.245C252.13 144.022 252.31 143.702 252.35 143.351C252.4 143 252.31 142.645 252.11 142.357C251.9 142.069 251.59 141.871 251.25 141.802Z" fill="white"/>
<path d="M249.19 157.383L243 156.563C242.63 156.515 242.26 156.613 241.97 156.837C241.68 157.06 241.49 157.389 241.45 157.753C241.4 158.116 241.5 158.483 241.72 158.774C241.94 159.065 242.27 159.255 242.64 159.303L248.83 160.123C249.01 160.146 249.19 160.134 249.36 160.087C249.54 160.04 249.7 159.959 249.85 159.849C249.99 159.738 250.11 159.6 250.2 159.443C250.29 159.286 250.35 159.112 250.38 158.933C250.4 158.753 250.39 158.57 250.34 158.395C250.29 158.219 250.21 158.055 250.1 157.911C249.99 157.767 249.85 157.646 249.7 157.556C249.54 157.465 249.37 157.406 249.19 157.383Z" fill="white"/>
<path d="M247.13 172.953L240.95 172.133C240.59 172.107 240.24 172.217 239.97 172.44C239.69 172.663 239.51 172.983 239.47 173.334C239.42 173.684 239.51 174.04 239.71 174.328C239.92 174.616 240.23 174.814 240.58 174.883L246.77 175.693C246.95 175.716 247.13 175.704 247.3 175.657C247.48 175.61 247.64 175.529 247.79 175.419C247.93 175.308 248.05 175.17 248.14 175.013C248.23 174.856 248.29 174.682 248.32 174.503C248.34 174.323 248.33 174.14 248.28 173.965C248.23 173.789 248.15 173.625 248.04 173.481C247.93 173.337 247.79 173.216 247.64 173.126C247.48 173.035 247.31 172.976 247.13 172.953Z" fill="white"/>
<path d="M245.08 188.523L238.89 187.713C238.52 187.665 238.15 187.764 237.86 187.987C237.57 188.21 237.38 188.54 237.34 188.903C237.29 189.266 237.39 189.634 237.61 189.924C237.83 190.215 238.16 190.405 238.53 190.453L244.71 191.273C245.06 191.299 245.41 191.189 245.68 190.965C245.96 190.742 246.14 190.423 246.18 190.072C246.23 189.721 246.14 189.366 245.94 189.078C245.73 188.79 245.42 188.592 245.08 188.523Z" fill="white"/>
<path d="M243.02 204.102L236.83 203.282C236.46 203.235 236.09 203.333 235.8 203.556C235.51 203.779 235.32 204.109 235.28 204.472C235.23 204.836 235.33 205.203 235.55 205.494C235.77 205.784 236.1 205.975 236.47 206.022L242.66 206.842C243.02 206.89 243.39 206.791 243.68 206.568C243.97 206.345 244.16 206.016 244.21 205.652C244.25 205.289 244.15 204.922 243.93 204.631C243.71 204.34 243.38 204.15 243.02 204.102Z" fill="white"/>
<path d="M264.09 259.313C263.82 260.962 263.21 262.537 262.29 263.93C261.37 265.324 260.16 266.505 258.75 267.393C255.87 269.282 252.37 269.958 249.01 269.272C244.51 268.459 241.39 266.402 239.63 263.102C237.87 259.812 237.41 255.873 238.23 251.313C239.43 244.713 242.3 239.539 246.85 235.792C251.39 232.046 256.92 230.762 263.42 231.942C264.41 232.056 265.37 232.398 266.21 232.942C266.48 233.144 266.71 233.399 266.88 233.691C267.05 233.983 267.16 234.307 267.21 234.643C267.29 235.491 267.24 236.348 267.07 237.182C266.94 237.99 266.71 238.778 266.38 239.522C266.16 239.986 265.87 240.406 265.51 240.762C265.18 241.036 264.77 241.204 264.35 241.242C263.32 241.316 262.29 241.239 261.29 241.012C259.88 240.763 258.44 240.763 257.04 241.012C255.81 241.182 254.64 241.59 253.58 242.212C252.15 243.006 250.95 244.149 250.09 245.533L249.7 246.212C251 245.86 252.36 245.798 253.7 246.033C256.97 246.563 259.91 248.359 261.88 251.033C262.81 252.178 263.49 253.508 263.87 254.936C264.25 256.363 264.32 257.855 264.09 259.313ZM250.34 260.733C253 261.212 254.54 260.296 254.96 257.983C255.09 257.151 254.91 256.299 254.46 255.593C254.14 255.143 253.74 254.769 253.26 254.496C252.79 254.223 252.26 254.058 251.72 254.012C250.63 253.74 249.47 253.887 248.49 254.423C248.14 254.595 247.83 254.841 247.58 255.143C247.34 255.445 247.16 255.796 247.07 256.173C246.97 256.676 246.92 257.189 246.93 257.703C246.97 258.124 247.06 258.537 247.22 258.932C247.58 259.822 248.61 260.423 250.34 260.733Z" fill="#84B693"/>
<g opacity="0.5">
<path d="M66.62 149.603C69.7 151.994 72 155.245 73.23 158.945C74.47 162.645 74.58 166.628 73.55 170.39C72.52 174.151 70.3899 177.523 67.4499 180.079C64.4999 182.634 60.86 184.259 56.99 184.747C53.12 185.235 49.1999 184.565 45.7099 182.821C42.2199 181.077 39.33 178.337 37.39 174.949C35.46 171.561 34.58 167.676 34.85 163.786C35.13 159.895 36.5499 156.174 38.9499 153.093C40.5299 151.047 42.51 149.333 44.76 148.051C47.01 146.768 49.49 145.941 52.06 145.617C54.63 145.293 57.23 145.478 59.73 146.162C62.23 146.846 64.57 148.015 66.62 149.603Z" fill="white"/>
</g>
<path d="M98.28 185.493C90.65 180.837 82.7899 176.591 74.7199 172.773C73.4899 172.193 71.4799 173.403 71.3499 174.923C70.9599 179.573 75.95 181.663 79.04 183.923C84.47 187.754 90.19 191.161 96.15 194.113C97.54 194.813 99.7499 193.663 100.36 192.113C100.73 191.386 100.94 190.589 100.98 189.774C101.02 188.958 100.89 188.144 100.6 187.383C100.47 186.859 100.17 186.391 99.75 186.051C99.33 185.71 98.81 185.514 98.28 185.493Z" fill="#413E54"/>
<path d="M73.7199 180.013C70.7799 183.802 66.7799 186.634 62.2299 188.152C57.6799 189.67 52.79 189.805 48.16 188.54C43.54 187.275 39.39 184.666 36.25 181.045C33.11 177.423 31.11 172.951 30.51 168.193C29.91 163.436 30.73 158.608 32.88 154.319C35.02 150.03 38.39 146.474 42.56 144.1C46.72 141.725 51.5 140.64 56.28 140.98C61.06 141.321 65.64 143.072 69.43 146.013C74.5 149.957 77.7999 155.752 78.5999 162.126C79.3999 168.5 77.6499 174.932 73.7199 180.013ZM40.7199 154.423C38.5899 157.158 37.3299 160.463 37.0799 163.918C36.8299 167.373 37.6199 170.823 39.3299 173.832C41.0499 176.841 43.6199 179.274 46.7199 180.823C49.8099 182.371 53.2999 182.966 56.7399 182.533C60.1799 182.099 63.41 180.656 66.02 178.386C68.64 176.116 70.5199 173.121 71.4399 169.78C72.3499 166.439 72.25 162.902 71.16 159.617C70.06 156.331 68.01 153.445 65.28 151.323C61.6 148.487 56.9499 147.224 52.3499 147.81C47.7399 148.397 43.5599 150.786 40.7199 154.453V154.423Z" fill="#5F5C7B"/>
<path d="M56.64 159.332C58.2 156.769 57.38 153.429 54.82 151.873C52.26 150.318 48.92 151.135 47.36 153.699C45.8 156.262 46.62 159.602 49.19 161.158C51.75 162.714 55.09 161.896 56.64 159.332Z" fill="white"/>
<path d="M179.13 141.012C182.33 150.612 184.79 160.44 186.5 170.412C186.6 170.982 187.5 170.742 187.37 170.172C185.66 160.2 183.2 150.372 180 140.772C179.82 140.222 179 140.462 179.13 141.012Z" fill="#3F2C32"/>
<path d="M187.41 170.313C188.61 159.879 188.64 149.345 187.52 138.903C187.46 138.333 186.52 138.323 186.62 138.903C187.74 149.345 187.7 159.879 186.51 170.313C186.44 170.893 187.34 170.883 187.41 170.313Z" fill="#3F2C32"/>
<path d="M219.72 139.502C217.62 149.443 216.28 159.529 215.72 169.672C215.72 170.252 216.59 170.252 216.63 169.672C217.18 159.61 218.49 149.604 220.57 139.742C220.68 139.182 219.82 138.942 219.7 139.502H219.72Z" fill="#3F2C32"/>
<path d="M216.6 169.602C214.74 161.658 213.58 153.567 213.13 145.422C213.01 143.122 212.94 140.822 212.92 138.522C212.92 138.403 212.87 138.288 212.78 138.204C212.7 138.12 212.58 138.072 212.47 138.072C212.35 138.072 212.23 138.12 212.15 138.204C212.06 138.288 212.02 138.403 212.02 138.522C212.07 146.736 212.83 154.929 214.3 163.012C214.72 165.312 215.2 167.612 215.73 169.892C215.86 170.452 216.73 170.212 216.6 169.652V169.602Z" fill="#3F2C32"/>
<path d="M192.72 139.013L199.08 169.613C199.2 170.173 200.08 169.933 199.95 169.373L193.59 138.773C193.47 138.203 192.59 138.443 192.72 139.013Z" fill="#3F2C32"/>
<path d="M204.72 138.562C202.96 148.829 201.2 159.096 199.45 169.362C199.35 169.932 200.22 170.172 200.32 169.602C202.07 159.329 203.82 149.062 205.58 138.802C205.68 138.232 204.81 137.992 204.72 138.562Z" fill="#3F2C32"/>
<path d="M257.03 68.9425C251.19 110.013 216.12 137.163 216.12 137.163L183.06 137.753C174.57 131.233 166.97 123.647 160.43 115.183C151.65 104.013 142.94 88.9325 139.72 71.0125C133.03 33.5425 154.55 0.762544 197.12 0.0125437C208.6 -0.187456 218.64 2.01254 227.06 6.01254C249.9 16.9425 260.93 41.4225 257.03 68.9425Z" fill="#EDC30D"/>
<path d="M197.14 0.0123304C166.72 0.56233 151.55 33.2323 156.52 70.7323C161.94 111.632 187.79 137.672 187.79 137.672L199.59 137.462L211.39 137.252C211.39 137.252 236.3 110.302 240.26 69.2523C243.88 31.5823 227.53 -0.51767 197.14 0.0123304Z" fill="white"/>
<path d="M197.14 0.0130502C183.24 0.26305 176.6 32.773 179.23 70.313C182.11 111.313 194.23 137.543 194.23 137.543L199.63 137.453L205.03 137.353C205.03 137.353 216.17 110.653 217.58 69.633C218.84 32.0131 211.04 -0.22695 197.14 0.0130502Z" fill="#EDC30D"/>
<g style="mix-blend-mode:multiply" opacity="0.24">
<path d="M257.03 68.9427C251.19 110.013 216.12 137.163 216.12 137.163L183.06 137.753C174.57 131.234 166.97 123.648 160.43 115.183C176.88 118.382 193.93 115.504 208.43 107.083C216.81 102.056 224.04 95.3047 229.63 87.2766C235.21 79.2486 239.03 70.1261 240.83 60.5127C242.48 50.9721 242.11 41.1897 239.75 31.8005C237.38 22.4113 233.06 13.6253 227.08 6.0127C249.9 16.9427 260.93 41.4227 257.03 68.9427Z" fill="#3F4068"/>
</g>
<path d="M218.53 135.133C205.98 134.623 193.41 134.863 180.89 135.853C176.63 136.193 176.7 142.173 181 141.853C193.51 140.872 206.08 140.635 218.63 141.143C222.93 141.293 222.81 135.313 218.53 135.133Z" fill="#EDC30D"/>
<g style="mix-blend-mode:soft-light" opacity="0.5">
<path d="M188.48 47.6518C194.53 31.4891 191.27 15.3279 181.19 11.555C171.12 7.78198 158.04 17.8259 151.99 33.9886C145.94 50.1514 149.2 66.3125 159.27 70.0855C169.35 73.8585 182.42 63.8146 188.48 47.6518Z" fill="white"/>
</g>
<path d="M222.5 188.133C222.5 189.783 222.5 191.373 222.5 192.863C222.5 192.983 222.5 193.103 222.5 193.213V193.763V194.193C222.41 195.377 222.26 196.556 222.05 197.723C222.05 197.833 222 197.943 221.98 198.043C221.81 199.021 221.47 199.961 220.98 200.823C220.61 201.293 220.14 201.675 219.61 201.943C219.47 202.021 219.32 202.091 219.18 202.153C216.68 203.208 214.06 203.915 211.38 204.253L210.7 204.353C209.18 204.573 207.56 204.753 205.89 204.873L205.08 204.933L204.08 204.983C202.98 205.043 201.87 205.083 200.75 205.083H200.02C197.92 205.083 195.84 204.983 193.86 204.783L193.19 204.703C191.5 204.523 189.83 204.225 188.19 203.813C187.84 203.733 187.51 203.633 187.19 203.533C186.44 203.313 185.71 203.045 185 202.733L184.57 202.533C183.52 202.057 182.59 201.377 181.82 200.533C181.42 200.08 181.09 199.579 180.82 199.043C180.69 198.783 180.57 198.523 180.46 198.243C179.99 197.061 179.65 195.83 179.46 194.573L179.4 194.263C179.22 193.083 179.1 191.895 179.05 190.703C179.05 190.553 179.05 190.393 179.05 190.233C179.05 190.073 179.05 189.913 179.05 189.753C179.05 189.593 179.05 189.543 179.05 189.433C179.05 187.853 179.05 186.253 179.12 184.673C179.12 184.563 179.12 184.453 179.12 184.343C179.12 184.233 179.12 183.823 179.12 183.573C179.12 183.323 179.12 183.273 179.12 183.123C179.21 181.793 179.33 180.513 179.46 179.313C179.46 179.193 179.46 179.073 179.46 178.963C179.55 178.123 179.65 177.323 179.74 176.593C179.74 176.443 179.74 176.283 179.8 176.133C180.16 173.583 180.47 171.913 180.47 171.913C180.98 171.833 181.47 171.763 182.08 171.693H182.43C183.92 171.513 185.57 171.373 187.34 171.253H187.64H188.02C189.93 171.123 191.96 171.023 194.02 170.943H194.46H195.04C197.14 170.873 199.29 170.813 201.38 170.783H201.88H203.25H203.72C205.85 170.783 207.91 170.783 209.79 170.783H211.34C213.9 170.783 216.08 170.783 217.65 170.783H218.06H220.28C220.55 171.783 220.82 172.923 221.06 174.253C221.06 174.383 221.06 174.523 221.14 174.663C221.27 175.363 221.39 176.103 221.5 176.873C221.5 176.993 221.5 177.123 221.55 177.253C221.71 178.343 221.85 179.483 221.97 180.653C221.98 180.796 221.98 180.94 221.97 181.083C222.03 181.563 222.08 182.083 222.12 182.543C222.12 182.663 222.12 182.773 222.12 182.893C222.24 184.323 222.33 185.763 222.39 187.193C222.39 187.333 222.39 187.473 222.39 187.613V187.883C222.49 187.883 222.49 188.013 222.5 188.133Z" fill="#EDC30D"/>
<g style="mix-blend-mode:multiply">
<path d="M222 187.932L222.41 188.092H222.5C222.5 187.962 222.5 187.842 222.5 187.722L222.29 187.652L222.49 187.462C222.49 187.322 222.49 187.182 222.49 187.042L221.96 187.532C220.33 186.912 218.72 186.246 217.13 185.532C218.41 184.452 219.66 183.322 220.85 182.152L222.22 182.732C222.22 182.612 222.22 182.502 222.22 182.382L221.11 181.912C221.44 181.582 221.76 181.262 222.11 180.912C222.12 180.769 222.12 180.626 222.11 180.482C221.71 180.922 221.3 181.342 220.87 181.772C219.35 181.102 217.87 180.382 216.37 179.632C217.56 178.532 218.72 177.392 219.81 176.192L221.69 177.082C221.69 176.952 221.69 176.822 221.64 176.702L220.04 175.932C220.46 175.462 220.88 174.982 221.28 174.492C221.28 174.352 221.23 174.212 221.2 174.082C220.73 174.662 220.2 175.232 219.74 175.792C219.07 175.452 218.39 175.122 217.74 174.792C217.09 174.462 216.25 173.982 215.52 173.572C216.46 172.572 217.36 171.572 218.21 170.572H217.72C216.9 171.572 216.04 172.482 215.15 173.392C213.75 172.599 212.38 171.769 211.04 170.902C211.17 170.787 211.29 170.663 211.41 170.532H210.96C210.9 170.592 210.83 170.652 210.77 170.722L210.48 170.522H209.86L210.51 170.942C209.51 171.882 208.51 172.782 207.44 173.652L206.84 174.122C205.7 173.362 204.57 172.592 203.47 171.772L202.84 171.302C203.1 171.112 203.36 170.922 203.61 170.712L203.79 170.562H203.28L202.58 171.102L201.91 170.582H201.41L201.95 171.002L202.33 171.292C201.05 172.292 199.73 173.242 198.39 174.172C197.12 173.166 195.89 172.106 194.71 170.992L195.07 170.742H194.49H194.05L194.23 170.912C192.91 171.792 191.57 172.642 190.23 173.442C189.65 172.832 189.06 172.222 188.51 171.582L188.06 171.052H187.68C188.4 171.912 189.16 172.752 189.95 173.572C188.59 174.372 187.2 175.122 185.8 175.842L185.63 175.652C184.47 174.349 183.42 172.966 182.47 171.512H182.12C183.14 173.072 184.28 174.559 185.52 175.962C184.14 176.662 182.74 177.342 181.32 177.962C180.81 177.302 180.32 176.632 179.84 175.962C179.84 176.112 179.84 176.272 179.78 176.422C180.18 177.002 180.6 177.562 181.03 178.122L179.5 178.792C179.5 178.902 179.5 179.022 179.5 179.142L181.26 178.372C182.25 179.627 183.31 180.826 184.44 181.962C183.44 182.392 182.52 182.812 181.55 183.212L179.94 183.852C179.69 183.562 179.44 183.282 179.2 182.992C179.2 183.142 179.2 183.292 179.2 183.442L179.68 184.012L179.15 184.212C179.15 184.322 179.15 184.432 179.15 184.542L179.92 184.262C181 185.484 182.14 186.649 183.35 187.752C181.94 188.312 180.52 188.822 179.08 189.302C179.08 189.412 179.08 189.512 179.08 189.622C180.6 189.122 182.1 188.579 183.59 187.992C184.85 189.152 186.16 190.252 187.5 191.292C185.83 191.972 184.13 192.602 182.42 193.192C181.27 192.192 180.15 191.192 179.1 190.102C179.1 190.262 179.1 190.422 179.1 190.572C180.04 191.522 181.03 192.432 182.05 193.302C181.19 193.592 180.32 193.872 179.45 194.132L179.51 194.442C180.45 194.152 181.39 193.852 182.32 193.542C183.12 194.212 183.93 194.872 184.75 195.542C185.32 195.982 185.92 196.402 186.5 196.832C184.7 197.472 182.87 198.052 181.03 198.582L180.5 198.142C180.61 198.422 180.73 198.682 180.86 198.942H180.95L181.87 199.662C183.01 200.542 184.17 201.392 185.37 202.212L184.59 202.442L185.02 202.642L185.71 202.442C186.21 202.772 186.71 203.112 187.21 203.442C187.54 203.542 187.87 203.642 188.21 203.722C187.49 203.272 186.77 202.802 186.07 202.332C187.97 201.739 189.84 201.089 191.69 200.382C193.31 201.402 194.97 202.366 196.69 203.272C195.54 203.742 194.38 204.192 193.22 204.612L193.89 204.692C194.95 204.292 195.99 203.882 197.04 203.452C198.04 203.982 199.04 204.502 200.04 204.992H200.77C199.69 204.482 198.62 203.992 197.57 203.392L197.41 203.302C199.23 202.542 201.04 201.712 202.8 200.842C204.58 201.702 206.37 202.509 208.19 203.262C207.19 203.812 206.19 204.332 205.11 204.842L205.92 204.782C206.81 204.342 207.7 203.882 208.58 203.412C209.29 203.702 210.01 203.992 210.73 204.262L211.41 204.162C210.58 203.862 209.76 203.542 208.94 203.162C209.55 202.822 210.18 202.492 210.79 202.162C211.85 201.552 212.9 200.922 213.93 200.262C215.67 200.912 217.43 201.512 219.21 202.042C219.35 201.981 219.5 201.91 219.64 201.832C217.84 201.292 216.05 200.696 214.28 200.042C215.85 199.042 217.38 197.999 218.88 196.912C219.88 197.272 220.98 197.612 222.04 197.912C222.04 197.812 222.04 197.702 222.11 197.592C221.11 197.302 220.17 196.992 219.21 196.662C220.12 195.982 221.02 195.292 221.91 194.582L222.56 194.062V193.632C221.33 194.632 220.08 195.632 218.8 196.532C217.03 195.912 215.27 195.232 213.54 194.532C215.02 193.526 216.46 192.472 217.87 191.372C218.46 191.612 219.06 191.852 219.66 192.072C220.66 192.442 221.6 192.782 222.59 193.072C222.59 192.962 222.59 192.842 222.59 192.722C221.1 192.232 219.59 191.722 218.14 191.122L218.84 190.592C219.88 189.786 220.94 188.899 222 187.932ZM220.52 182.012C219.32 183.192 218.07 184.312 216.79 185.382C215.21 184.672 213.65 183.922 212.13 183.122L212.65 182.712C213.78 181.802 214.9 180.862 215.98 179.882C217.47 180.682 218.99 181.382 220.52 182.012ZM211.52 183.172C210.17 184.222 208.79 185.242 207.37 186.172C205.85 185.332 204.35 184.449 202.88 183.522C204.3 182.592 205.7 181.632 207.07 180.622C208.55 181.582 210.04 182.412 211.54 183.212L211.52 183.172ZM207.36 180.442C208.11 179.882 208.87 179.312 209.6 178.722C210.16 178.272 210.73 177.812 211.28 177.342C212.72 178.182 214.17 178.972 215.66 179.732C214.93 180.392 214.18 181.032 213.43 181.662C212.89 182.102 212.34 182.522 211.79 182.962C210.3 182.202 208.83 181.352 207.38 180.482L207.36 180.442ZM198.15 186.442L198.48 186.262C199.88 185.462 201.23 184.612 202.59 183.742C204.05 184.676 205.53 185.562 207.05 186.402C205.61 187.396 204.13 188.342 202.63 189.242C201.12 188.422 199.63 187.509 198.17 186.502L198.15 186.442ZM202.31 189.442C200.76 190.352 199.18 191.212 197.57 192.042C196.07 191.102 194.57 190.112 193.16 189.042C194.74 188.262 196.3 187.452 197.84 186.582C199.32 187.652 200.81 188.602 202.33 189.492L202.31 189.442ZM202.6 183.382C201.17 182.472 199.77 181.512 198.39 180.522C199.8 179.632 201.19 178.692 202.55 177.722C203.93 178.682 205.34 179.599 206.78 180.472C205.43 181.522 204.05 182.502 202.62 183.432L202.6 183.382ZM202.31 183.582C200.85 184.512 199.37 185.402 197.85 186.262C196.85 185.552 195.76 184.822 194.74 184.072L193.67 183.272C194.26 182.942 194.86 182.622 195.45 182.272C196.34 181.762 197.22 181.272 198.09 180.692C199.48 181.732 200.89 182.712 202.33 183.632L202.31 183.582ZM193.41 183.072C192.09 182.072 190.8 180.982 189.57 179.862C190.57 179.362 191.48 178.862 192.42 178.292C192.91 178.012 193.42 177.722 193.87 177.432C194.6 178.052 195.35 178.652 196.11 179.232C196.67 179.672 197.24 180.082 197.82 180.492C196.39 181.442 194.92 182.312 193.43 183.122L193.41 183.072ZM193.1 183.232C191.59 184.042 190.1 184.812 188.5 185.542C187.23 184.482 185.99 183.362 184.82 182.192C186.32 181.512 187.82 180.792 189.27 180.022C190.52 181.189 191.8 182.276 193.12 183.282L193.1 183.232ZM193.36 183.442C194.72 184.442 196.13 185.442 197.55 186.442C196.01 187.312 194.45 188.122 192.87 188.902C192.53 188.662 192.19 188.432 191.87 188.182C190.81 187.412 189.78 186.602 188.78 185.772C190.34 185.082 191.88 184.302 193.38 183.492L193.36 183.442ZM197.25 192.202C195.61 193.042 193.94 193.826 192.25 194.552C191.14 193.812 190.04 193.052 188.97 192.262L187.9 191.472C189.57 190.772 191.21 190.052 192.82 189.262C194.27 190.329 195.75 191.326 197.27 192.252L197.25 192.202ZM197.55 192.402C199.1 193.402 200.69 194.272 202.29 195.142C200.63 196.029 198.95 196.872 197.24 197.672C195.66 196.752 194.1 195.782 192.58 194.762C194.27 194.069 195.93 193.299 197.57 192.452L197.55 192.402ZM197.89 192.222C199.11 191.592 200.32 190.942 201.51 190.222L202.61 189.572C204.16 190.472 205.74 191.342 207.35 192.142C205.81 193.122 204.24 194.049 202.64 194.922C201.05 194.142 199.47 193.242 197.91 192.272L197.89 192.222ZM204.54 194.222C205.6 193.612 206.65 192.972 207.68 192.322C209.32 193.142 210.99 193.912 212.68 194.632C211.15 195.632 209.59 196.632 207.99 197.632C206.35 196.882 204.72 196.102 203.13 195.262C203.05 195.23 202.98 195.193 202.92 195.152C203.5 194.882 204.04 194.602 204.56 194.302L204.54 194.222ZM206.04 191.122C204.98 190.562 203.94 189.982 202.92 189.382C204.42 188.482 205.92 187.552 207.37 186.552C208.92 187.402 210.5 188.202 212.09 188.962C210.66 190.002 209.19 191.002 207.69 191.962L206.04 191.122ZM208.93 187.022C208.51 186.802 208.09 186.562 207.68 186.332C209.09 185.332 210.47 184.332 211.83 183.332C213.36 184.132 214.92 184.902 216.49 185.612C215.17 186.702 213.8 187.742 212.42 188.762C211.24 188.282 210.09 187.712 208.95 187.102L208.93 187.022ZM215.13 173.762C216.52 174.552 217.94 175.302 219.37 176.012C218.27 177.212 217.12 178.352 215.92 179.452L214.72 178.912C213.65 178.362 212.6 177.762 211.56 177.162C212.8 176.102 213.99 175.012 215.15 173.842L215.13 173.762ZM210.72 171.192C212.05 172.052 213.42 172.879 214.84 173.672C213.69 174.832 212.48 175.942 211.25 176.992C209.82 176.162 208.43 175.282 207.06 174.382C208.33 173.362 209.56 172.302 210.72 171.192ZM206.79 174.592C208.15 175.512 209.55 176.386 210.98 177.212L210.4 177.712C209.32 178.612 208.2 179.472 207.07 180.312C205.63 179.432 204.22 178.532 202.83 177.582C204.1 176.672 205.36 175.742 206.57 174.772L206.79 174.592ZM202.52 171.592C203.82 172.572 205.15 173.516 206.52 174.422C205.23 175.462 203.92 176.462 202.58 177.422C201.89 176.942 201.2 176.422 200.52 175.972C199.84 175.522 199.22 174.972 198.58 174.492C199.94 173.532 201.25 172.562 202.54 171.572L202.52 171.592ZM198.99 175.212C200.07 176.042 201.18 176.832 202.29 177.612C200.93 178.612 199.52 179.502 198.1 180.382C197.95 180.272 197.78 180.172 197.63 180.052C196.44 179.179 195.28 178.269 194.15 177.322C195.56 176.472 196.95 175.592 198.31 174.662L198.99 175.212ZM194.36 171.282C195.55 172.396 196.78 173.456 198.05 174.462C196.69 175.382 195.31 176.282 193.91 177.122C192.67 176.072 191.47 174.962 190.33 173.812C191.71 172.992 193.06 172.142 194.38 171.262L194.36 171.282ZM189.36 174.382L190.02 173.982C191.17 175.142 192.36 176.246 193.6 177.292C192.18 178.142 190.75 178.942 189.29 179.712C188.1 178.612 186.96 177.472 185.88 176.272C187.11 175.642 188.26 175.012 189.41 174.362L189.36 174.382ZM182.6 179.922C182.18 179.442 181.78 178.922 181.38 178.452C182.8 177.812 184.21 177.132 185.59 176.452C186.67 177.652 187.81 178.792 188.99 179.892C187.53 180.652 186.06 181.382 184.56 182.062C183.94 181.332 183.28 180.632 182.65 179.902L182.6 179.922ZM179.98 184.312C181.5 183.722 182.98 183.072 184.48 182.402C185.66 183.582 186.88 184.692 188.15 185.752C186.91 186.332 185.66 186.892 184.4 187.412L183.4 187.802C182.27 186.672 181.11 185.512 180.03 184.292L179.98 184.312ZM183.72 188.012C185.32 187.372 186.91 186.682 188.47 185.952C189.09 186.472 189.72 186.952 190.35 187.472C190.98 187.992 191.81 188.562 192.55 189.102C190.94 189.882 189.31 190.622 187.65 191.302C186.3 190.262 184.98 189.162 183.72 188.012ZM186.1 196.412C184.87 195.502 183.67 194.562 182.5 193.572C184.21 192.992 185.91 192.342 187.59 191.652C189 192.742 190.45 193.762 191.92 194.762L190.51 195.372C189.25 195.882 187.98 196.372 186.7 196.832L186.1 196.412ZM185.59 202.182C184.79 201.632 184 201.082 183.22 200.502C182.44 199.922 181.84 199.502 181.16 198.932C183 198.402 184.83 197.822 186.63 197.172C188.13 198.252 189.63 199.282 191.21 200.262C189.35 200.962 187.48 201.602 185.59 202.182ZM187 197.042C188.77 196.402 190.51 195.722 192.24 194.972C193.77 195.972 195.33 196.972 196.92 197.882C195.8 198.392 194.67 198.882 193.54 199.352C192.89 199.622 192.24 199.872 191.54 200.132C190.02 199.152 188.5 198.112 187 197.012V197.042ZM196.89 203.202C195.21 202.302 193.54 201.342 191.89 200.332C193.69 199.666 195.46 198.909 197.21 198.062C198.87 199.022 200.53 199.922 202.21 200.762C200.52 201.632 198.72 202.452 196.89 203.202ZM200.28 199.382C199.38 198.902 198.49 198.382 197.6 197.902C199.31 197.109 200.98 196.262 202.6 195.362C204.26 196.242 205.93 197.092 207.65 197.862C206 198.862 204.33 199.732 202.65 200.582C201.86 200.192 201.07 199.802 200.28 199.382ZM208.41 203.152C206.57 202.412 204.77 201.612 202.99 200.752C204.54 199.972 206.08 199.162 207.59 198.292C207.74 198.202 207.89 198.102 208.04 198.022C209.8 198.816 211.58 199.552 213.4 200.232C211.77 201.262 210.1 202.242 208.41 203.152ZM216.63 196.282C217.2 196.492 217.77 196.702 218.35 196.892C216.84 197.982 215.35 199.022 213.75 200.022C211.94 199.356 210.15 198.619 208.38 197.812C209.98 196.872 211.54 195.902 213.08 194.812C214.25 195.352 215.44 195.832 216.63 196.282ZM213.05 194.502C211.35 193.772 209.68 193.012 208.05 192.182C209.55 191.236 211.03 190.236 212.47 189.182C214.1 189.952 215.76 190.672 217.47 191.342C216 192.456 214.53 193.509 213.05 194.502ZM217.68 191.132C216.01 190.462 214.37 189.742 212.74 188.982C213.74 188.252 214.74 187.512 215.68 186.742C216.07 186.432 216.45 186.122 216.84 185.792C218.43 186.512 220.05 187.182 221.67 187.792C220.96 188.432 220.24 189.062 219.51 189.662C218.78 190.262 218.29 190.652 217.72 191.132H217.68Z" fill="#EAD6E6"/>
</g>
<g style="mix-blend-mode:multiply">
<path d="M220.83 200.823C219.43 202.923 212.02 204.583 203.93 204.993C206.62 203.658 208.89 201.611 210.5 199.073C212.5 195.593 213.5 191.626 213.39 187.613C213.31 183.58 212.86 179.564 212.06 175.613C202.93 174.262 193.67 173.953 184.48 174.693C185.09 173.31 186.06 172.113 187.29 171.223C200.63 170.293 220.29 170.653 220.29 170.653C222.35 177.853 223.81 196.373 220.83 200.823Z" fill="#EAD6E6"/>
</g>
<path d="M180.64 173.783C179.91 174.241 179.3 174.86 178.85 175.591C178.4 176.322 178.13 177.145 178.05 177.999C177.97 178.853 178.09 179.713 178.39 180.515C178.69 181.316 179.18 182.038 179.81 182.623C180.45 183.202 181.22 183.626 182.06 183.862C182.89 184.097 183.77 184.139 184.63 183.983C186.45 183.539 188.02 182.397 189.01 180.803C190.45 178.653 190.86 176.023 191.25 173.523C191.28 173.408 191.26 173.284 191.2 173.18C191.14 173.076 191.05 173 190.93 172.968C190.81 172.936 190.69 172.951 190.59 173.01C190.48 173.07 190.41 173.168 190.38 173.283C189.74 175.533 189.95 177.937 190.95 180.047C191.96 182.157 193.7 183.829 195.85 184.753C198.04 185.638 200.49 185.671 202.71 184.844C204.93 184.017 206.76 182.39 207.85 180.283C208.43 179.113 208.77 177.839 208.85 176.535C208.93 175.231 208.74 173.924 208.31 172.693C208.27 172.579 208.2 172.483 208.1 172.424C207.99 172.365 207.87 172.35 207.76 172.38C207.64 172.41 207.54 172.484 207.48 172.585C207.42 172.687 207.41 172.808 207.44 172.923C208.03 176.923 209.89 181.103 213.88 182.723C214.73 183.082 215.65 183.262 216.57 183.252C217.5 183.242 218.41 183.041 219.26 182.663C220.05 182.318 220.76 181.795 221.33 181.135C221.89 180.475 222.3 179.694 222.52 178.853C223.07 176.373 221.85 173.963 220.71 171.853C220.43 171.343 219.65 171.803 219.93 172.313C220.83 173.983 221.82 175.823 221.75 177.783C221.71 178.625 221.44 179.441 220.98 180.145C220.52 180.849 219.87 181.415 219.12 181.783C215.9 183.473 212.21 181.503 210.37 178.703C209.25 176.876 208.55 174.829 208.31 172.703L207.44 172.933C208.16 174.924 208.14 177.112 207.37 179.088C206.61 181.065 205.15 182.694 203.27 183.673C201.34 184.607 199.13 184.787 197.08 184.179C195.02 183.57 193.27 182.216 192.17 180.383C191.56 179.36 191.18 178.225 191.02 177.048C190.87 175.871 190.96 174.675 191.29 173.533L190.42 173.293C189.89 176.703 189.21 180.793 185.87 182.603C183.03 184.143 179.14 182.283 178.94 178.943C178.88 178.085 179.06 177.229 179.45 176.462C179.83 175.694 180.42 175.042 181.14 174.573C181.63 174.263 181.14 173.483 180.68 173.793L180.64 173.783Z" fill="white"/>
<path d="M220.39 167.763C206.87 167.104 193.32 167.542 179.88 169.073C176.09 169.503 176.16 175.473 179.99 175.073C193.43 173.547 206.97 173.109 220.49 173.763C224.33 173.923 224.21 167.943 220.39 167.763Z" fill="#CA7C0D"/>
<g style="mix-blend-mode:soft-light" opacity="0.5">
<path d="M182.4 196.193C183.26 197.988 184.73 199.423 186.55 200.253C187.8 200.894 189.23 201.074 190.61 200.763C191.45 200.536 192.18 200.023 192.68 199.313C193.19 198.604 193.43 197.741 193.37 196.873C193.19 195.409 192.71 193.999 191.94 192.737C191.18 191.475 190.16 190.389 188.95 189.553C187.03 188.213 183.56 186.873 181.79 189.163C181.41 189.679 181.21 190.297 181.21 190.933C181.17 192.757 181.58 194.562 182.4 196.193Z" fill="white"/>
</g>
</svg>
