<svg width="260" height="163" viewBox="0 0 260 163" fill="none" xmlns="http://www.w3.org/2000/svg">
<path d="M274.56 20.348C265.16 9.93802 248.01 11.678 235.56 18.138C223.11 24.598 212.68 34.758 199.56 39.818C188.73 44.018 176.85 44.408 165.5 46.868C154.15 49.328 142.38 54.708 137.19 65.098C134.47 70.548 133.83 76.888 130.93 82.248C119.69 103.038 84.6099 96.498 70.2099 115.248C67.7399 118.508 66.0399 122.348 63.1899 125.348C48.7299 140.44 17.52 122.988 4.48995 139.35C-0.690048 145.86 -0.280024 155.04 0.389976 163.35C90.76 164.75 178.39 167.52 268.77 168.92C266.35 144.25 263.93 119.585 261.5 94.918C259.22 71.628 264.53 41.468 274.56 20.348Z" fill="#F8EDDD"/>
<path d="M94.04 87.349C103.98 87.349 112.04 80.185 112.04 71.349C112.04 62.512 103.98 55.349 94.04 55.349C84.1 55.349 76.04 62.512 76.04 71.349C76.04 80.185 84.1 87.349 94.04 87.349Z" fill="#F8EDDD"/>
<path d="M189.74 23.104C197.6 21.573 202.99 15.279 201.78 9.04403C200.56 2.81003 193.21 -1.00296 185.35 0.528043C177.49 2.05904 172.1 8.35404 173.31 14.588C174.53 20.822 181.88 24.635 189.74 23.104Z" fill="#F8EDDD"/>
<path d="M111.48 137.849C114.46 136.221 117.32 134.383 120.04 132.349L120.15 132.259L120.58 131.919L121.12 131.469L121.51 131.129C121.76 130.919 122.01 130.679 122.26 130.449C124.38 132.449 126.46 134.519 128.54 136.749C131.16 139.57 133.54 142.28 135.77 144.84C135.95 145.05 136.05 145.32 136.03 145.6C135.7 149.11 134.75 152.53 133.21 155.7C133.15 155.84 133.1 155.92 133.08 155.97C133.08 155.97 137.39 154.07 140.3 152.69L140.93 152.39C141.24 152.23 141.55 152.08 141.82 151.92C146.82 157.84 150.91 162.7 153.89 167.04C153.95 167.12 153.99 167.22 154.02 167.32C155.26 171.05 155.45 175.05 154.57 178.88C155.66 178.43 156.7 177.9 157.71 177.29C157.85 177.2 158.01 177.15 158.17 177.14C158.34 177.13 158.5 177.15 158.65 177.22C158.81 177.28 158.94 177.38 159.05 177.5C159.16 177.62 159.24 177.77 159.28 177.93C160.12 181.05 160.3 184.31 159.81 187.5C159.32 190.69 158.17 193.74 156.44 196.47C156.35 196.61 156.23 196.73 156.08 196.81C155.94 196.89 155.78 196.94 155.61 196.95C153.61 197.03 145.89 196.95 131.86 195.95C131.68 195.93 131.51 195.87 131.36 195.77C131.21 195.67 131.09 195.54 131.01 195.38C130.92 195.22 130.88 195.04 130.89 194.86C130.9 194.68 130.95 194.5 131.04 194.35C132.09 192.82 133.04 191.23 133.88 189.59C133.98 189.38 134.01 189.13 133.96 188.9C133.91 188.67 133.79 188.46 133.61 188.31C133.42 188.16 133.2 188.07 132.96 188.06C132.72 188.06 132.49 188.13 132.3 188.27C128.89 190.68 125.3 192.82 121.57 194.7C121.37 194.8 121.14 194.84 120.92 194.81C112.47 193.54 103.24 190.99 94.9201 185.35C94.7901 185.26 94.68 185.14 94.6 184.99C94.52 184.85 94.47 184.7 94.47 184.53C94.46 184.37 94.4901 184.21 94.5501 184.06C94.6201 183.91 94.72 183.78 94.84 183.68C102.62 177.16 111.66 165.56 106.03 170.8L105.72 171.09C100.92 175.36 92.8101 178.52 88.5001 179.68C88.3301 179.73 88.14 179.73 87.97 179.69C87.79 179.65 87.6301 179.57 87.5001 179.45C85.6801 177.78 83.87 175.96 82.08 174.03C80.49 172.32 78.96 170.61 77.48 168.92C77.31 168.73 77.22 168.5 77.22 168.25C77.22 168 77.31 167.76 77.48 167.58C79.05 165.51 80.4401 163.31 81.6401 161C81.7501 160.8 81.7901 160.56 81.7501 160.34C81.7201 160.11 81.61 159.9 81.44 159.74C81.28 159.59 81.06 159.49 80.83 159.46C80.61 159.43 80.3801 159.48 80.1801 159.6C77.6801 160.99 74.9001 161.79 72.0501 161.96C71.8901 161.97 71.73 161.94 71.59 161.87C71.45 161.81 71.32 161.71 71.22 161.59C65.82 155.22 60.75 149.46 56.47 144.02C56.34 143.84 56.2701 143.62 56.2701 143.4C56.2701 143.18 56.34 142.96 56.47 142.78C57.78 140.88 61.54 133.949 59.34 136.319C57.84 137.929 54.6 139.7 53.22 139.26C53.04 139.12 52.8701 138.989 52.6801 138.859C50.4101 135.621 48.5101 132.143 47.0001 128.489C46.9501 128.352 46.9301 128.207 46.9301 128.062C46.9401 127.916 46.9801 127.774 47.0401 127.644C47.1101 127.513 47.2001 127.397 47.3101 127.304C47.4201 127.21 47.55 127.14 47.69 127.099C48.37 126.858 48.9901 126.472 49.5101 125.969C49.6801 125.84 49.8 125.662 49.86 125.461C49.92 125.26 49.91 125.045 49.84 124.847C49.77 124.649 49.64 124.477 49.47 124.358C49.3 124.238 49.0901 124.175 48.8801 124.179C47.4701 123.877 46.1601 123.251 45.0401 122.349L44.9001 122.219C38.2801 115.219 36.78 108.869 36.33 106.699C36.29 106.466 36.3301 106.227 36.4301 106.018C36.5401 105.808 36.7201 105.64 36.9301 105.539C39.6101 104.319 48.5601 100.649 53.9301 102.539C54.1101 102.605 54.2701 102.721 54.3801 102.874C54.5001 103.026 54.56 103.208 54.58 103.399C54.79 105.299 55.04 107.579 55.19 109.809C55.21 110.038 55.31 110.254 55.47 110.422C55.63 110.59 55.8401 110.701 56.0601 110.739C56.2901 110.777 56.52 110.738 56.73 110.63C56.93 110.521 57.09 110.349 57.19 110.139C57.72 108.879 58.31 107.369 58.85 105.689C58.89 105.552 58.9501 105.424 59.0401 105.315C59.1301 105.205 59.24 105.115 59.37 105.052C59.5 104.988 59.6301 104.953 59.7801 104.947C59.9201 104.941 60.06 104.966 60.19 105.019C61.04 105.309 61.9401 105.619 62.8801 105.919C63.0801 105.978 63.2501 106.094 63.3801 106.253C63.5101 106.411 63.6 106.604 63.62 106.809C63.75 107.964 63.8001 109.127 63.7801 110.289C63.7701 110.515 63.84 110.738 63.97 110.925C64.09 111.111 64.2801 111.251 64.5001 111.323C64.7101 111.395 64.9401 111.395 65.1601 111.324C65.3701 111.253 65.56 111.115 65.69 110.929C66.12 110.309 66.5801 109.619 67.0301 108.849L67.46 108.109C67.56 107.895 67.74 107.725 67.96 107.629C68.18 107.534 68.4201 107.52 68.6501 107.589C70.8801 108.179 73.3001 108.769 75.8901 109.379L76.6701 110.159C77.1401 112.019 77.22 115.159 76.22 119.719C78.11 117.636 79.79 115.368 81.22 112.949C81.32 112.801 81.41 112.648 81.49 112.489C81.65 112.219 81.8 111.939 81.95 111.649C82.05 111.436 82.23 111.265 82.44 111.163C82.66 111.061 82.9001 111.035 83.1301 111.089C86.3501 111.879 89.7201 112.759 93.1301 113.829C93.3601 113.891 93.56 114.034 93.69 114.23C93.82 114.426 93.88 114.663 93.86 114.899C93.63 120.495 92.39 126.003 90.2 131.159L89.99 131.619L90.1601 131.479C94.1701 128.094 97.68 124.15 100.57 119.769C100.59 119.729 100.61 119.691 100.64 119.659L100.97 119.129L101.66 117.989C101.79 117.762 102 117.591 102.24 117.508C102.49 117.425 102.76 117.436 103 117.539C107.49 119.538 111.74 122.027 115.68 124.959C115.83 125.369 115.93 125.679 116.07 126.099C115.04 129.669 113.68 134.449 111.48 137.849Z" fill="#78A494"/>
<path d="M155.58 197C153.58 197.08 145.86 197 131.83 196C131.65 195.98 131.47 195.92 131.32 195.82C131.16 195.71 131.04 195.57 130.96 195.4C130.88 195.23 130.85 195.05 130.86 194.86C130.87 194.68 130.94 194.5 131.04 194.35C132.09 192.82 133.04 191.23 133.88 189.59C133.98 189.38 134.01 189.13 133.96 188.9C133.91 188.67 133.79 188.46 133.61 188.31C133.43 188.16 133.2 188.07 132.96 188.06C132.72 188.06 132.49 188.13 132.3 188.27C128.89 190.68 125.3 192.82 121.57 194.7C121.37 194.8 121.14 194.84 120.92 194.81C112.47 193.54 103.24 190.99 94.9201 185.35C94.7901 185.26 94.68 185.14 94.6 184.99C94.52 184.85 94.47 184.7 94.47 184.53C94.46 184.37 94.4901 184.21 94.5501 184.06C94.6201 183.91 94.72 183.78 94.84 183.68C102.62 177.16 111.66 165.56 106.03 170.8L105.72 171.09C100.92 175.36 92.8101 178.52 88.5 179.68C88.3301 179.73 88.14 179.73 87.97 179.69C87.79 179.65 87.6301 179.57 87.5 179.45C85.68 177.78 83.87 175.96 82.08 174.03C80.49 172.32 78.96 170.61 77.48 168.92C77.31 168.74 77.22 168.5 77.22 168.25C77.22 168 77.31 167.76 77.48 167.58C79.05 165.51 80.4401 163.31 81.6401 161C81.7501 160.8 81.7901 160.56 81.75 160.34C81.7201 160.11 81.61 159.9 81.44 159.74C81.28 159.59 81.06 159.49 80.83 159.46C80.61 159.43 80.3801 159.48 80.1801 159.6C77.6801 160.99 74.9001 161.79 72.0501 161.96C71.8901 161.97 71.73 161.94 71.59 161.87C71.45 161.81 71.32 161.71 71.22 161.59C65.82 155.22 60.75 149.46 56.47 144.02C56.34 143.84 56.2701 143.62 56.2701 143.4C56.2701 143.18 56.34 142.96 56.47 142.78C57.78 140.88 61.54 133.949 59.34 136.319C57.84 137.929 54.6 139.7 53.22 139.26C53.04 139.12 52.8701 138.989 52.6801 138.859C50.4101 135.621 48.51 132.144 47 128.489C46.95 128.353 46.9301 128.207 46.9301 128.062C46.9401 127.916 46.9801 127.774 47.0401 127.644C47.1101 127.513 47.2001 127.398 47.3101 127.304C47.4201 127.21 47.55 127.14 47.69 127.099C48.37 126.858 48.9901 126.473 49.5101 125.969C49.6801 125.84 49.8 125.663 49.86 125.461C49.92 125.26 49.91 125.045 49.84 124.847C49.77 124.649 49.64 124.478 49.47 124.358C49.3 124.238 49.0901 124.175 48.8801 124.179C47.4701 123.878 46.1601 123.251 45.0401 122.349L44.9001 122.219C38.2801 115.219 36.78 108.869 36.33 106.699C36.29 106.493 36.3201 106.281 36.4001 106.089C36.4001 106.089 80.6701 137.529 93.1301 146.5C105.59 155.47 151.04 186.47 155.58 197Z" fill="#84B693"/>
<path d="M86.71 115.618C86.65 115.627 86.5901 115.647 86.5401 115.678C86.4901 115.709 86.4501 115.75 86.4101 115.798C86.3701 115.847 86.35 115.902 86.34 115.96C86.32 116.019 86.32 116.079 86.33 116.138C86.62 118.125 86.7801 120.13 86.8001 122.138C86.8301 124.143 86.73 126.147 86.5 128.138C86.26 130.104 85.8501 132.044 85.2701 133.938C84.7601 135.555 84.0901 137.117 83.2701 138.598L67.4101 127.348L52.0401 116.519L36.6 105.799C36.52 105.744 36.43 105.722 36.34 105.737C36.25 105.752 36.16 105.803 36.11 105.878C36.06 105.954 36.0301 106.048 36.0501 106.14C36.0601 106.232 36.11 106.314 36.19 106.368L51.37 117.458L66.59 128.458L75.11 134.549L73.8801 136.128C73.39 136.688 72.8801 137.278 72.4101 137.808C71.4001 138.907 70.3101 139.94 69.1701 140.9C68.0201 141.84 66.8101 142.7 65.5301 143.47C64.2701 144.23 62.9301 144.85 61.5301 145.31C61.4301 145.35 61.3401 145.43 61.2901 145.53C61.2501 145.63 61.2301 145.75 61.2601 145.85C61.2901 145.96 61.36 146.05 61.45 146.12C61.55 146.18 61.6601 146.2 61.7701 146.19C63.2801 145.77 64.74 145.18 66.11 144.41C67.47 143.66 68.77 142.81 70 141.87C71.22 140.91 72.38 139.89 73.48 138.788C74.04 138.248 74.54 137.658 75.08 137.098C75.62 136.538 75.99 136.008 76.45 135.458L82.96 140.12C83.03 140.2 83.11 140.28 83.21 140.33H83.3101L89.8001 144.96C88.7401 146.15 87.6101 147.27 86.4101 148.32C84.9801 149.55 83.4801 150.7 81.9201 151.76C78.7701 153.89 75.4201 155.71 71.9201 157.21C71.8301 157.25 71.75 157.33 71.71 157.42C71.67 157.52 71.67 157.62 71.71 157.72C71.73 157.77 71.7501 157.81 71.7901 157.85C71.8301 157.89 71.8701 157.92 71.9201 157.94C71.9601 157.96 72.01 157.97 72.07 157.98C72.12 157.98 72.17 157.97 72.22 157.95C75.82 156.55 79.2801 154.81 82.5501 152.75C84.1901 151.72 85.7701 150.6 87.2801 149.38C88.6201 148.3 89.8801 147.13 91.0501 145.88L97.19 150.27L99.98 152.27C100.01 152.31 100.05 152.34 100.09 152.37C100.09 152.37 100.09 152.37 100.16 152.37C102.66 154.13 105.16 155.9 107.66 157.67C106.54 159.16 105.27 160.53 103.88 161.77C102.29 163.2 100.58 164.48 98.75 165.59C96.92 166.73 95.0201 167.73 93.0401 168.59C91.0701 169.43 89.03 170.13 86.95 170.66C86.84 170.7 86.7401 170.78 86.6801 170.88C86.6301 170.99 86.6101 171.11 86.6401 171.22C86.6601 171.34 86.73 171.44 86.83 171.51C86.93 171.58 87.0501 171.6 87.1701 171.59C89.3201 171.09 91.43 170.42 93.48 169.59C95.53 168.78 97.5101 167.81 99.4201 166.7C101.34 165.59 103.16 164.31 104.85 162.87C106.35 161.58 107.73 160.15 108.96 158.6C112.73 161.27 116.49 163.97 120.24 166.72C120.29 166.83 120.37 166.92 120.47 167C120.57 167.07 120.68 167.12 120.8 167.14C123.11 168.82 125.41 170.52 127.7 172.22L129.62 173.68C128.48 175.31 127.18 176.82 125.73 178.19C124.2 179.63 122.52 180.92 120.73 182.02C118.94 183.14 117.06 184.11 115.1 184.91C113.16 185.72 111.15 186.35 109.1 186.8C109.05 186.81 109 186.83 108.96 186.86C108.92 186.88 108.88 186.92 108.86 186.96C108.83 187 108.81 187.05 108.8 187.1C108.79 187.15 108.79 187.2 108.8 187.25C108.81 187.3 108.83 187.34 108.86 187.39C108.88 187.43 108.92 187.46 108.96 187.49C109 187.52 109.05 187.54 109.1 187.55C109.15 187.56 109.2 187.56 109.25 187.55C111.39 187.16 113.49 186.57 115.52 185.81C117.56 185.05 119.53 184.11 121.41 183.02C123.31 181.93 125.08 180.65 126.72 179.2C128.28 177.82 129.7 176.29 130.94 174.62C134.86 177.62 138.74 180.62 142.51 183.79L143.64 184.79C143.64 184.93 143.67 185.07 143.74 185.19C143.81 185.32 143.91 185.42 144.03 185.49C144.19 185.57 144.37 185.6 144.55 185.57C146.24 187.02 147.92 188.49 149.55 190.03C150.67 191.11 151.77 192.22 152.78 193.39C153.82 194.51 154.7 195.77 155.4 197.14C155.44 197.22 155.51 197.29 155.59 197.32C155.68 197.36 155.77 197.36 155.86 197.32C155.94 197.28 156.01 197.21 156.05 197.13C156.08 197.04 156.08 196.94 156.05 196.86C155.35 195.41 154.45 194.06 153.39 192.86C152.39 191.64 151.29 190.5 150.18 189.38C148.62 187.81 146.99 186.29 145.34 184.82C146.2 183.33 146.87 181.74 147.34 180.09C147.85 178.33 148.15 176.51 148.24 174.68C148.33 172.87 148.26 171.05 148.03 169.25C147.81 167.45 147.42 165.67 146.87 163.95C146.85 163.88 146.8 163.83 146.74 163.79C146.68 163.76 146.61 163.75 146.54 163.77C146.47 163.79 146.41 163.84 146.38 163.9C146.34 163.96 146.33 164.04 146.35 164.11C146.74 165.83 146.97 167.58 147.04 169.35C147.19 171.1 147.19 172.87 147.04 174.62C146.87 176.35 146.49 178.06 145.93 179.71C145.45 181.14 144.8 182.5 144 183.78L143.12 183C138.37 178.89 133.43 175 128.46 171.19C126.31 169.53 124.13 167.9 121.95 166.27C123.1 164.62 124.1 162.87 124.95 161.05C125.85 159.02 126.63 156.93 127.29 154.81C127.93 152.69 128.46 150.54 128.92 148.38C129.38 146.22 129.74 144.05 129.99 141.84C130 141.72 129.97 141.59 129.9 141.49C129.82 141.39 129.71 141.33 129.59 141.31C129.46 141.29 129.34 141.33 129.24 141.41C129.14 141.48 129.07 141.59 129.05 141.72C128.75 143.86 128.33 146.01 127.84 148.13C127.35 150.25 126.76 152.35 126.08 154.41C125.39 156.45 124.58 158.46 123.66 160.41C122.82 162.12 121.84 163.76 120.73 165.3C117.01 162.55 113.27 159.84 109.5 157.15C109.45 157.05 109.37 156.96 109.28 156.9C109.18 156.82 109.07 156.78 108.95 156.76C106.49 154.99 104.02 153.23 101.55 151.48C102.66 149.62 103.67 147.69 104.55 145.71C105.51 143.52 106.36 141.28 107.09 139.01C107.82 136.742 108.46 134.445 108.99 132.118C109.52 129.788 109.99 127.458 110.29 125.118C110.3 125.02 110.28 124.92 110.22 124.841C110.16 124.761 110.07 124.708 109.97 124.693C109.88 124.679 109.78 124.704 109.7 124.763C109.62 124.822 109.56 124.91 109.55 125.008C108.76 129.65 107.56 134.214 105.98 138.648C105.2 140.86 104.31 143.03 103.3 145.15C102.41 147.02 101.41 148.84 100.3 150.59L98.0401 149.05L91.5201 144.43C91.4901 144.38 91.4601 144.33 91.4201 144.29C91.3201 144.21 91.22 144.16 91.1 144.13L84.5101 139.46C85.3901 137.815 86.1 136.082 86.61 134.288C87.15 132.3 87.52 130.27 87.72 128.218C87.9 126.177 87.95 124.126 87.86 122.079C87.78 120.032 87.56 117.994 87.2 115.978C87.18 115.867 87.1201 115.767 87.0301 115.7C86.9401 115.633 86.82 115.604 86.71 115.618Z" fill="#6D8994"/>
<path d="M247.21 126.669C246.61 130.729 248.95 136.669 246.3 140.19C242.74 144.88 239.24 135.849 237.56 133.409C235.62 130.599 229.27 126.569 228.39 132.299C227.51 138.029 235.49 140.71 237.75 145C241.17 151.48 233.13 157.29 227.99 158.85C221.42 160.85 212.24 161.7 206.99 155.85C196.14 143.71 198.24 125.749 192.61 123.179C192.19 122.983 191.74 122.874 191.28 122.859C183.97 122.559 182.6 127.179 181.16 130.049C179.25 134.142 177.67 138.383 176.44 142.73C174.63 148.39 169.6 151.27 163.73 151.23C154.67 151.16 146.12 147.31 140.92 139.61C137.92 135.099 134.78 126.689 138.77 121.919C142.76 117.149 154.14 123.619 155.86 115.699C156.86 111.099 153.43 109.529 150.11 107.699C148.43 106.782 146.98 105.475 145.91 103.889C144.83 102.303 144.14 100.483 143.91 98.579C143.06 92.809 145.6 85.639 147.91 80.419C150.55 74.419 153.52 68.419 158.06 63.569C160.19 61.309 163.17 58.269 166.33 57.629C168.73 57.139 171.1 58.029 173.47 58.349C178.47 59.029 182.47 56.009 180.84 50.999C179.37 46.499 180.65 43.569 182.29 39.209C183.43 36.209 185.8 33.209 187.85 30.729C190.25 27.819 193.72 26.729 196.85 24.619C199.11 22.992 201.04 20.957 202.55 18.619L202.87 18.749C207.87 20.799 218.96 24.389 218.47 30.939C218.2 34.529 215.34 41.459 221.21 42.139C223.7 42.429 224.99 40.139 227.21 39.909C233.35 39.339 239.98 50.069 242.8 54.169C248 61.719 256.32 72.279 248.05 80.309C245.39 82.899 242.33 87.049 242.77 91.039C243.16 94.569 247.41 96.509 249.63 98.899C257.04 106.799 248.47 117.949 247.21 126.669Z" fill="#78A494"/>
<path d="M200.85 60.649C190.36 78.879 189.12 112.499 191.7 119.539L192.7 123.189C192.28 122.993 191.83 122.884 191.37 122.869C184.06 122.569 182.69 127.189 181.25 130.059C179.34 134.152 177.76 138.393 176.53 142.74C174.72 148.4 169.69 151.28 163.82 151.24C154.76 151.17 146.21 147.32 141.01 139.62C138.01 135.109 134.87 126.699 138.86 121.929C142.85 117.159 154.23 123.629 155.95 115.709C156.95 111.109 153.52 109.539 150.2 107.709C148.52 106.791 147.07 105.485 146 103.899C144.92 102.313 144.23 100.493 144 98.589C143.15 92.819 145.69 85.649 148 80.429C150.64 74.429 153.61 68.429 158.15 63.579C160.28 61.319 163.26 58.279 166.42 57.639C168.82 57.149 171.19 58.039 173.56 58.359C178.56 59.039 182.56 56.019 180.93 51.009C179.46 46.509 180.74 43.579 182.38 39.219C183.52 36.219 185.89 33.219 187.94 30.739C190.34 27.829 193.81 26.739 196.94 24.629C199.2 23.001 201.13 20.966 202.64 18.629L202.96 18.759L203.74 20.479C203.74 20.479 211.34 42.419 200.85 60.649Z" fill="#84B693"/>
<path d="M242.44 61.618C242.4 61.568 242.36 61.526 242.31 61.494C242.25 61.462 242.19 61.441 242.13 61.433C242.07 61.424 242.01 61.428 241.95 61.445C241.89 61.461 241.84 61.49 241.79 61.528C238.31 64.138 234.63 66.478 230.79 68.528C227 70.615 223.08 72.443 219.04 73.998C214.99 75.562 210.83 76.799 206.59 77.698C202.84 78.516 199.03 79.031 195.2 79.238C195.96 76.027 196.89 72.857 197.97 69.738C198.29 68.738 198.69 67.738 199.1 66.818C199.51 65.898 199.86 64.818 200.37 63.958L202.67 59.438H203.08L204.14 59.278C204.84 59.178 205.53 59.028 206.23 58.888C207.6 58.568 208.96 58.218 210.3 57.788C212.97 56.95 215.57 55.914 218.09 54.688C220.6 53.464 223.03 52.067 225.35 50.508C227.66 48.954 229.88 47.26 231.99 45.438C232.06 45.377 232.1 45.291 232.11 45.198C232.12 45.106 232.1 45.013 232.04 44.938C232.01 44.901 231.97 44.871 231.93 44.848C231.89 44.826 231.84 44.812 231.79 44.807C231.75 44.802 231.7 44.807 231.65 44.821C231.61 44.835 231.57 44.858 231.53 44.888C229.4 46.631 227.17 48.237 224.84 49.698C222.52 51.168 220.1 52.471 217.6 53.598C215.11 54.727 212.53 55.666 209.9 56.408C208.59 56.788 207.26 57.088 205.9 57.408C205.24 57.518 204.57 57.648 203.9 57.728H203.49C205.15 53.933 206.26 49.919 206.78 45.808C207.78 37.224 206.84 28.524 204.04 20.348C204 20.245 203.93 20.158 203.83 20.108C203.74 20.057 203.62 20.047 203.52 20.078C203.47 20.093 203.42 20.119 203.37 20.153C203.33 20.188 203.29 20.23 203.27 20.279C203.24 20.327 203.23 20.381 203.22 20.436C203.22 20.491 203.22 20.546 203.24 20.598C204.38 24.648 205.1 28.808 205.36 33.008C205.68 37.186 205.52 41.385 204.91 45.528C204.28 49.615 203.08 53.593 201.35 57.348L199.84 60.348C196.58 57.851 193.97 54.598 192.25 50.868C191.24 48.835 190.37 46.733 189.65 44.578C188.91 42.425 188.31 40.227 187.84 37.998C187.81 37.876 187.74 37.77 187.63 37.699C187.53 37.629 187.4 37.6 187.28 37.618C187.22 37.629 187.15 37.653 187.1 37.687C187.04 37.722 187 37.767 186.96 37.82C186.92 37.873 186.9 37.933 186.88 37.996C186.87 38.059 186.87 38.125 186.88 38.188C187.3 40.475 187.86 42.732 188.56 44.948C189.24 47.178 190.07 49.357 191.06 51.468C192.82 55.542 195.57 59.111 199.06 61.848L198.41 63.098C197.87 64.038 197.52 65.098 197.07 66.048C196.62 66.998 196.21 68.048 195.87 69.048C195 71.378 194.27 73.758 193.62 76.148C191.47 75.82 189.34 75.349 187.25 74.738C184.85 74.036 182.5 73.137 180.25 72.048C177.97 70.971 175.79 69.703 173.73 68.258C171.66 66.827 169.76 65.181 168.04 63.348C167.94 63.256 167.81 63.204 167.68 63.204C167.55 63.204 167.42 63.256 167.32 63.348C167.22 63.444 167.17 63.573 167.17 63.708C167.17 63.843 167.22 63.973 167.32 64.068C169.06 65.997 171 67.73 173.12 69.238C175.2 70.772 177.42 72.127 179.73 73.288C182.05 74.449 184.45 75.426 186.92 76.208C189.02 76.875 191.15 77.402 193.32 77.788C192.23 82.22 191.4 86.711 190.83 91.238C188.02 91.065 185.23 90.61 182.51 89.878C179.46 89.088 176.5 87.996 173.67 86.618C170.82 85.259 168.08 83.67 165.49 81.868C162.89 80.084 160.44 78.077 158.19 75.868C158.11 75.79 158 75.746 157.88 75.746C157.77 75.746 157.66 75.79 157.58 75.868C157.54 75.908 157.51 75.956 157.49 76.008C157.46 76.061 157.45 76.117 157.45 76.173C157.45 76.23 157.46 76.286 157.49 76.339C157.51 76.391 157.54 76.438 157.58 76.478C159.83 78.793 162.27 80.905 164.89 82.788C167.5 84.675 170.25 86.347 173.13 87.788C176 89.267 179.02 90.453 182.13 91.328C184.91 92.14 187.76 92.669 190.64 92.908L190.49 94.178C190.28 96.278 190.12 98.385 190.03 100.498C184.3 101.691 178.45 102.195 172.6 101.998C166.44 101.834 160.31 101.283 154.22 100.348C154.06 100.323 153.89 100.363 153.76 100.458C153.63 100.554 153.54 100.698 153.52 100.858C153.49 101.019 153.53 101.183 153.63 101.314C153.72 101.445 153.87 101.533 154.03 101.558C160.13 102.544 166.28 103.142 172.45 103.348C178.28 103.609 184.12 103.193 189.86 102.108C189.86 102.388 189.86 102.668 189.86 102.948C189.84 103.024 189.84 103.102 189.86 103.178C189.86 104.378 189.78 105.588 189.78 106.798C187.48 109.922 184.92 112.84 182.12 115.518C179.25 118.249 176.18 120.763 172.94 123.038C169.69 125.324 166.31 127.414 162.81 129.298C159.32 131.205 155.7 132.876 151.99 134.298C151.96 134.305 151.93 134.318 151.9 134.337C151.87 134.356 151.85 134.381 151.83 134.41C151.82 134.438 151.81 134.47 151.8 134.503C151.8 134.536 151.81 134.569 151.82 134.6C151.83 134.631 151.84 134.659 151.87 134.683C151.89 134.707 151.92 134.726 151.95 134.738C151.98 134.75 152.01 134.755 152.04 134.754C152.08 134.752 152.11 134.744 152.14 134.728C155.91 133.39 159.58 131.806 163.14 129.988C166.72 128.179 170.18 126.155 173.52 123.928C176.87 121.705 180.05 119.231 183.03 116.528C185.45 114.347 187.7 111.98 189.76 109.448C189.76 109.578 189.76 109.708 189.85 109.838C189.9 110.998 189.96 112.158 190.06 113.318C190.21 115.488 190.63 117.631 191.31 119.698C191.33 119.75 191.35 119.799 191.39 119.84C191.42 119.882 191.46 119.917 191.51 119.943C191.56 119.968 191.61 119.984 191.66 119.989C191.72 119.995 191.77 119.989 191.82 119.973C191.88 119.958 191.92 119.932 191.97 119.897C192.01 119.863 192.04 119.821 192.07 119.773C192.09 119.725 192.11 119.673 192.12 119.619C192.12 119.565 192.12 119.51 192.1 119.458C191.65 117.441 191.41 115.384 191.36 113.318C191.62 113.768 191.89 114.218 192.17 114.648C193.25 116.26 194.43 117.806 195.69 119.278C198.19 122.194 200.84 124.981 203.63 127.628C209.15 132.938 214.94 137.938 220.92 142.72C220.97 142.76 221.03 142.79 221.09 142.81C221.15 142.83 221.21 142.83 221.28 142.83C221.34 142.82 221.41 142.8 221.46 142.77C221.52 142.74 221.57 142.7 221.61 142.65C221.69 142.54 221.73 142.41 221.71 142.28C221.7 142.15 221.63 142.03 221.53 141.95C215.66 137.108 209.96 132.028 204.53 126.678C201.82 124.024 199.24 121.233 196.81 118.318C195.61 116.874 194.5 115.362 193.48 113.788C192.46 112.306 191.73 110.648 191.31 108.898C191.31 108.408 191.31 107.898 191.31 107.418C191.34 107.27 191.34 107.116 191.31 106.968C191.31 106.148 191.41 105.338 191.45 104.518C195 106.204 198.72 107.518 202.55 108.438C206.78 109.528 211.05 110.378 215.35 111.058C223.94 112.448 232.57 113.348 241.25 113.888C241.32 113.894 241.38 113.886 241.45 113.865C241.51 113.845 241.57 113.812 241.62 113.768C241.67 113.724 241.72 113.671 241.75 113.611C241.78 113.551 241.79 113.485 241.8 113.418C241.81 113.281 241.76 113.146 241.67 113.041C241.58 112.937 241.46 112.871 241.32 112.858C232.71 112.208 224.09 111.198 215.58 109.718C211.33 108.988 207.1 108.098 202.95 106.978C199.01 105.994 195.19 104.565 191.57 102.718C191.75 100.278 191.96 97.848 192.24 95.418L197.35 95.488C199.35 95.418 201.41 95.428 203.44 95.288C207.5 95.067 211.55 94.63 215.56 93.978C219.57 93.317 223.54 92.401 227.44 91.238C231.37 90.095 235.17 88.529 238.77 86.568C238.91 86.489 239.01 86.357 239.06 86.202C239.1 86.047 239.09 85.881 239.01 85.738C238.93 85.598 238.8 85.495 238.64 85.452C238.49 85.409 238.32 85.429 238.18 85.508H238.13C234.61 87.377 230.9 88.863 227.06 89.938C223.21 91.052 219.29 91.917 215.33 92.528C211.35 93.133 207.35 93.527 203.33 93.708C201.33 93.828 199.33 93.798 197.33 93.848L192.43 93.738C192.98 89.448 193.71 85.188 194.67 80.978C198.75 80.725 202.81 80.133 206.8 79.208C211.1 78.234 215.31 76.916 219.4 75.268C223.49 73.648 227.47 71.75 231.3 69.588C235.14 67.445 238.82 65.015 242.3 62.318C242.36 62.287 242.41 62.242 242.45 62.187C242.49 62.132 242.52 62.069 242.54 62.002C242.55 61.935 242.55 61.865 242.53 61.799C242.51 61.733 242.48 61.671 242.44 61.618Z" fill="#6D8994"/>
<path d="M182.04 183.65C181.3 184.11 180.58 184.54 179.85 184.96C145.01 204.96 128.47 167.42 119.85 143.38C111.09 118.849 114.85 68.289 114.85 68.289C114.85 68.289 159.04 88.079 182.04 119.399C205.04 150.72 194.94 175.5 182.04 183.65Z" fill="#E3A411"/>
<path d="M115.62 68.188L180.62 184.85C145.77 204.85 129.24 167.32 120.62 143.28C111.86 118.738 115.62 68.188 115.62 68.188Z" fill="#EDC30D"/>
<path d="M157.19 99.988C157.08 100.003 156.98 100.061 156.91 100.149C156.84 100.236 156.81 100.347 156.82 100.458V100.508C157 102.742 156.78 104.989 156.19 107.148C155.62 109.332 154.81 111.448 153.78 113.458C152.75 115.467 151.55 117.387 150.2 119.198C149.53 120.108 148.78 120.968 148.08 121.848L146.72 123.348C143.12 116.935 139.51 110.528 135.9 104.128L136.76 102.608L137.76 100.418C138.39 98.917 138.86 97.351 139.15 95.748C139.45 94.139 139.49 92.491 139.27 90.868C139.06 89.219 138.46 87.645 137.51 86.278C137.45 86.198 137.36 86.143 137.26 86.125C137.16 86.106 137.06 86.125 136.97 86.178C136.88 86.237 136.82 86.328 136.8 86.431C136.78 86.534 136.8 86.641 136.86 86.728V86.778C137.64 88.06 138.11 89.504 138.24 90.998C138.38 92.513 138.27 94.039 137.92 95.518C137.57 97.006 137.07 98.451 136.41 99.828L135.33 101.828L134.92 102.488C133.92 100.658 132.86 98.828 131.81 97.008C126.33 87.315 120.78 77.668 115.16 68.068C115.13 68.018 115.1 67.974 115.05 67.938C115.01 67.902 114.96 67.875 114.9 67.86C114.85 67.844 114.79 67.839 114.73 67.846C114.67 67.852 114.62 67.87 114.57 67.898C114.52 67.925 114.47 67.961 114.43 68.006C114.39 68.051 114.37 68.103 114.35 68.158C114.33 68.214 114.32 68.273 114.33 68.332C114.33 68.39 114.35 68.447 114.38 68.498C119.38 77.878 124.42 87.232 129.5 96.558C128.82 96.789 128.11 96.908 127.4 96.908C126.37 96.92 125.35 96.726 124.4 96.338C122.4 95.487 120.66 94.137 119.34 92.418C119.27 92.342 119.18 92.294 119.08 92.283C118.98 92.272 118.87 92.299 118.79 92.359C118.71 92.419 118.65 92.507 118.63 92.607C118.61 92.707 118.63 92.811 118.68 92.898C119.34 93.865 120.12 94.748 120.99 95.528C121.87 96.328 122.86 97.001 123.93 97.528C125.03 98.053 126.22 98.352 127.44 98.408C128.43 98.458 129.41 98.339 130.36 98.058C132.88 102.725 135.43 107.392 138.01 112.058C136.61 112.66 135.14 113.086 133.64 113.328C131.79 113.65 129.89 113.656 128.04 113.348C126.18 113.085 124.37 112.546 122.67 111.748C120.96 110.977 119.37 109.967 117.95 108.748C117.86 108.687 117.75 108.659 117.64 108.672C117.53 108.684 117.43 108.735 117.36 108.816C117.29 108.897 117.25 109.001 117.24 109.11C117.24 109.219 117.28 109.325 117.35 109.408C120.28 112.124 123.93 113.951 127.86 114.678C129.84 115.049 131.87 115.093 133.86 114.808C135.57 114.59 137.25 114.156 138.86 113.518C141.39 118.098 143.92 122.675 146.45 127.248C147.95 129.968 149.45 132.668 150.99 135.378L148.51 136.288C147.32 136.678 146.11 136.988 144.92 137.338C143.73 137.688 142.48 137.868 141.26 138.078C140.03 138.251 138.8 138.355 137.56 138.388C135.09 138.505 132.62 138.166 130.28 137.388C127.96 136.65 125.9 135.262 124.35 133.388V133.338C124.27 133.228 124.15 133.154 124.02 133.133C123.88 133.111 123.74 133.144 123.63 133.223C123.52 133.303 123.45 133.423 123.43 133.557C123.41 133.691 123.44 133.828 123.52 133.938C124.31 135.026 125.29 135.961 126.42 136.698C127.51 137.434 128.69 138.035 129.93 138.488C132.4 139.35 135 139.76 137.62 139.69C138.91 139.69 140.21 139.6 141.49 139.44C142.77 139.26 144.04 139.02 145.3 138.758C146.56 138.498 147.8 138.128 149.03 137.758L151.84 136.758L160.91 152.92C159.91 153.4 158.96 153.92 157.98 154.37C156.66 154.83 155.39 155.43 154.04 155.78C151.37 156.57 148.6 156.97 145.82 156.96C143.04 156.87 140.3 156.29 137.73 155.24C135.16 154.2 132.83 152.65 130.88 150.69C130.77 150.58 130.63 150.53 130.48 150.53C130.34 150.53 130.19 150.58 130.09 150.69C129.99 150.79 129.93 150.94 129.93 151.08C129.93 151.23 129.99 151.37 130.09 151.48C132.12 153.63 134.58 155.33 137.31 156.48C140.01 157.65 142.91 158.32 145.85 158.48C148.78 158.53 151.7 158.16 154.53 157.38C155.95 157.03 157.28 156.43 158.67 155.96C159.67 155.49 160.75 154.96 161.79 154.48L162.88 156.43L168.61 166.43C168.63 166.47 168.65 166.51 168.67 166.55L173.04 174.25C172.04 174.7 171.04 175.18 169.93 175.55C168.62 176.01 167.29 176.38 165.93 176.65C160.51 177.82 154.86 177.26 149.77 175.05C147.22 173.97 144.86 172.5 142.77 170.68C142.73 170.63 142.67 170.6 142.62 170.57C142.56 170.55 142.5 170.54 142.43 170.54C142.37 170.54 142.31 170.55 142.25 170.57C142.2 170.6 142.14 170.63 142.1 170.68C142.06 170.72 142.02 170.77 142 170.83C141.97 170.89 141.96 170.95 141.96 171.01C141.96 171.08 141.97 171.14 142 171.2C142.02 171.25 142.06 171.3 142.1 171.35C146.41 175.24 151.81 177.71 157.57 178.42C160.44 178.77 163.36 178.67 166.2 178.11C167.62 177.85 169.02 177.49 170.39 177.04C171.56 176.65 172.69 176.15 173.83 175.68C175.67 178.85 177.5 182.02 179.37 185.17C179.43 185.25 179.53 185.31 179.63 185.34C179.74 185.36 179.85 185.34 179.95 185.29C180.04 185.24 180.11 185.15 180.15 185.05C180.19 184.95 180.19 184.84 180.15 184.74C178.43 181.43 176.66 178.14 174.9 174.84C174.95 174.65 174.93 174.44 174.83 174.27C174.74 174.1 174.59 173.96 174.4 173.9C173 171.28 171.61 168.67 170.2 166.06C172.13 164.13 173.86 162 175.35 159.71C176.99 157.25 178.33 154.6 179.35 151.82C180.38 149.06 181.11 146.2 181.53 143.29C181.97 140.37 182.09 137.418 181.86 134.478C181.84 134.327 181.77 134.188 181.66 134.089C181.54 133.99 181.39 133.94 181.24 133.948C181.16 133.954 181.09 133.974 181.02 134.008C180.95 134.041 180.89 134.089 180.84 134.146C180.79 134.204 180.75 134.271 180.73 134.343C180.7 134.416 180.69 134.492 180.7 134.568C180.88 137.406 180.73 140.25 180.26 143.06C179.82 145.89 179.07 148.67 178.04 151.35C177.04 154.01 175.72 156.53 174.11 158.88C172.74 160.93 171.17 162.83 169.42 164.56C167.75 161.48 166.09 158.4 164.42 155.33L159.04 145.58L161.28 143.35C162.21 142.35 163.08 141.35 163.98 140.35C164.88 139.35 165.66 138.228 166.48 137.168C167.3 136.108 168.05 134.958 168.68 133.758C170.09 131.425 171.14 128.898 171.82 126.258C172.15 124.934 172.34 123.575 172.36 122.208C172.42 120.808 172.21 119.408 171.74 118.088C171.7 117.984 171.62 117.899 171.52 117.852C171.42 117.805 171.3 117.8 171.2 117.838C171.09 117.877 171.01 117.955 170.96 118.057C170.92 118.158 170.91 118.274 170.95 118.378V118.428C171.33 119.639 171.49 120.911 171.4 122.178C171.34 123.471 171.13 124.753 170.78 125.998C170.07 128.514 168.99 130.91 167.58 133.108C166.95 134.258 166.1 135.268 165.37 136.358C164.64 137.448 163.73 138.408 162.86 139.36C161.99 140.31 161.08 141.29 160.14 142.22L158.2 144.05C154.89 138.048 151.58 132.048 148.2 126.048L147.49 124.788L149.21 122.788C149.91 121.848 150.64 120.948 151.31 119.988C152.65 118.091 153.83 116.084 154.84 113.988C155.85 111.872 156.62 109.652 157.15 107.368C157.7 105.079 157.85 102.71 157.59 100.368C157.58 100.268 157.53 100.175 157.46 100.106C157.39 100.036 157.29 99.995 157.19 99.988Z" fill="#B67D18"/>
</svg>
