<svg width="286" height="370" viewBox="0 0 286 370" fill="none" xmlns="http://www.w3.org/2000/svg">
<path d="M44.9165 20.349C50.4394 20.349 54.9165 15.871 54.9165 10.349C54.9165 4.826 50.4394 0.348999 44.9165 0.348999C39.3937 0.348999 34.9165 4.826 34.9165 10.349C34.9165 15.871 39.3937 20.349 44.9165 20.349Z" fill="#F8EDDD"/>
<path d="M-6.39336 129.209C9.98666 126.349 26.6966 123.349 43.1766 125.599C59.6566 127.849 76.1766 136.089 84.2666 150.649C89.6866 160.449 91.5266 173.119 100.847 179.319C106.657 183.179 114.027 183.499 120.977 184.059C138.077 185.439 156.807 190.199 166.197 204.549C175.137 218.209 172.777 235.999 174.857 252.199C176.569 264.772 181.079 276.802 188.055 287.402C195.031 298.002 204.296 306.903 215.167 313.449C224.257 318.829 235.567 323.989 237.467 334.379C239.367 344.769 231.337 358.47 239.977 364.61C159.295 385.55 75.1759 389.73 -7.18336 376.88C-10.5134 376.35 -14.0234 375.71 -16.5434 373.47C-18.5434 371.67 -19.6934 369.07 -20.6634 366.53C-32.2934 336.009 -31.9034 302.429 -31.3534 269.789C-30.5634 222.619 -21.3734 173.939 -6.39336 129.209Z" fill="#F8EDDD"/>
<path d="M35.3765 251.029L8.91654 246.469C5.5194 248.959 3.11689 252.575 2.1371 256.672C1.1573 260.769 1.66387 265.081 3.56654 268.839C5.15654 271.979 7.62654 274.559 9.66654 277.419C11.7065 280.279 13.3765 283.679 12.9665 287.169C12.7434 288.152 12.6893 289.167 12.8065 290.169C13.2665 292.109 15.6565 293.059 17.5965 292.619C19.5093 292.012 21.2002 290.854 22.4565 289.289C27.9389 283.443 32.1238 276.505 34.7365 268.929C36.6765 263.149 37.6765 256.679 35.3765 251.029Z" fill="#84B693"/>
<g style="mix-blend-mode:soft-light" opacity="0.5">
<path d="M31.8263 250.209L12.3363 246.849C9.82607 248.682 8.05154 251.351 7.33127 254.375C6.61101 257.399 6.99216 260.58 8.40632 263.349C9.56632 265.649 11.4063 267.549 12.8863 269.659C14.3663 271.769 15.6163 274.259 15.3163 276.829C15.1522 277.55 15.1116 278.294 15.1963 279.029C15.5363 280.449 17.2963 281.159 18.7263 280.829C20.1329 280.368 21.374 279.506 22.2963 278.349C26.32 274.039 29.387 268.927 31.2963 263.349C32.7763 259.119 33.5163 254.349 31.8263 250.209Z" fill="white"/>
</g>
<path d="M14.1064 224.879C14.1064 224.879 4.70638 219.239 -6.49362 227.619C-14.4936 233.619 -14.8236 242.689 -15.7236 248.249C-15.956 249.714 -16.75 251.032 -17.9371 251.922C-19.1243 252.813 -20.6115 253.206 -22.0836 253.019C-23.1692 252.876 -24.1904 252.422 -25.0243 251.713C-25.8581 251.003 -26.4691 250.067 -26.7836 249.019C-26.8836 248.709 -26.9836 248.389 -27.0836 248.019C-29.2836 240.589 -32.9236 225.629 -29.9036 216.019C-26.6136 205.609 -20.9036 195.509 -4.31362 192.209C0.419256 191.324 5.23374 190.952 10.0464 191.099L14.1064 224.879Z" fill="#E9B40F"/>
<g style="mix-blend-mode:multiply">
<path d="M14.1065 224.879C14.1065 224.879 4.7065 219.239 -6.4935 227.619C-14.4935 233.619 -14.8235 242.689 -15.7235 248.249C-15.9559 249.714 -16.7498 251.032 -17.937 251.922C-19.1242 252.813 -20.6114 253.206 -22.0835 253.019C-23.1691 252.876 -24.1903 252.422 -25.0242 251.713C-25.858 251.003 -26.469 250.068 -26.7835 249.019C-26.8835 248.709 -26.9835 248.389 -27.0835 248.019C-24.7035 248.359 -22.1835 246.829 -20.7535 244.769C-19.1235 242.389 -18.5435 239.469 -17.6335 236.769C-15.1318 229.133 -10.0329 222.615 -3.2235 218.349C-5.26999 209.808 -5.64691 200.952 -4.3335 192.269C0.399384 191.384 5.21386 191.012 10.0265 191.159L14.1065 224.879Z" fill="#DBBACF"/>
</g>
<path d="M66.7367 270.669C65.856 271.609 64.6825 272.224 63.4076 272.412C62.1327 272.601 60.8316 272.351 59.7166 271.705C58.6016 271.059 57.7386 270.054 57.2682 268.854C56.7978 267.654 56.7479 266.33 57.1267 265.099C58.7567 259.699 62.4567 251.419 57.8867 242.509C56.5084 239.718 54.5757 237.237 52.2067 235.219C48.9784 232.434 44.8396 230.932 40.5767 230.999L59.0367 202.519C62.7025 204.191 66.2215 206.168 69.5567 208.429C84.8767 219.039 85.6867 231.159 83.9967 242.429C82.4367 252.819 71.7367 265.349 66.7367 270.669Z" fill="#E9B40F"/>
<g style="mix-blend-mode:multiply">
<path d="M69.5567 208.429C64.9729 218.081 59.1395 227.088 52.2067 235.219C48.9784 232.434 44.8396 230.932 40.5767 230.999L59.0367 202.519C62.7025 204.191 66.2215 206.168 69.5567 208.429Z" fill="#DBBACF"/>
</g>
<path d="M77.8463 169.549C66.5363 216.399 38.0463 246.099 38.0463 246.099L9.75628 239.559C9.75628 239.559 -2.79372 200.349 7.60628 153.349C10.1889 141.454 14.8395 130.105 21.3463 119.819C36.0663 96.629 55.9163 86.559 59.8363 87.459C63.7563 88.359 77.1563 106.129 80.2263 133.399C81.554 145.495 80.7485 157.731 77.8463 169.549Z" fill="#DB4E19"/>
<path d="M64.8564 174.199C63.7667 178.908 61.305 183.189 57.7825 186.499C54.26 189.809 49.835 192.001 45.0671 192.796C40.2991 193.592 35.4024 192.955 30.9961 190.968C26.5898 188.98 22.8719 185.73 20.3125 181.63C17.753 177.529 16.4671 172.762 16.6173 167.93C16.7674 163.099 18.347 158.42 21.1561 154.486C23.9652 150.552 27.8778 147.54 32.399 145.83C36.9202 144.12 41.847 143.789 46.5564 144.879C49.6838 145.601 52.6381 146.933 55.2506 148.798C57.8631 150.662 60.0825 153.024 61.782 155.747C63.4815 158.47 64.6278 161.501 65.1553 164.667C65.6828 167.833 65.5812 171.072 64.8564 174.199Z" fill="#413E54"/>
<path d="M58.7194 169.225C59.0175 159.465 51.3474 151.311 41.5875 151.013C31.8277 150.715 23.674 158.385 23.3759 168.145C23.0777 177.905 30.7478 186.059 40.5077 186.357C50.2675 186.655 58.4212 178.985 58.7194 169.225Z" fill="#FEFCF5"/>
<path d="M45.0266 151.469C42.5926 150.903 40.0661 150.86 37.6145 151.345C35.1629 151.829 32.8423 152.829 30.8066 154.279C34.8222 152.908 39.1968 153.027 43.1318 154.615C47.0668 156.202 50.2997 159.151 52.2403 162.925C54.1809 166.698 54.6998 171.043 53.7023 175.167C52.7047 179.292 50.2572 182.919 46.8066 185.389C50.4321 184.134 53.5509 181.734 55.6918 178.551C57.8327 175.368 58.8795 171.574 58.6739 167.743C58.4684 163.912 57.0217 160.253 54.5524 157.317C52.0832 154.381 48.7255 152.328 44.9866 151.469H45.0266Z" fill="#E1E6F4"/>
<path d="M80.2267 133.399C69.9994 134.717 59.6169 134.144 49.5967 131.709C39.5278 129.499 29.9515 125.455 21.3467 119.779C36.0667 96.629 55.9167 86.559 59.8367 87.459C63.7567 88.359 77.1567 106.129 80.2267 133.399Z" fill="#E9B40F"/>
<path d="M50.6167 127.349C41.0722 125.238 31.9625 121.501 23.6867 116.299C22.8967 117.439 22.1167 118.599 21.3467 119.809C29.9515 125.485 39.5278 129.529 49.5967 131.739C59.6169 134.174 69.9994 134.747 80.2267 133.429C80.0667 131.999 79.8667 130.619 79.6567 129.249C69.9393 130.283 60.1165 129.64 50.6167 127.349Z" fill="white"/>
<g style="mix-blend-mode:multiply">
<path d="M80.2267 133.399C77.1567 106.129 63.7567 88.399 59.8367 87.459C58.4367 87.139 55.0167 88.219 50.5267 90.769C55.7867 98.489 62.0367 112.089 64.0167 129.649C65.3444 141.745 64.5388 153.981 61.6367 165.799C50.3267 212.649 21.8267 242.349 21.8267 242.349L38.0467 246.099C38.0467 246.099 66.5367 216.399 77.8467 169.549C80.7488 157.731 81.5544 145.495 80.2267 133.399Z" fill="#F5DEDC"/>
</g>
<path d="M38.0464 246.099L23.9064 242.829L9.76643 239.559L6.33643 246.859L22.1264 250.509L37.9164 254.159L38.0464 246.099Z" fill="#413E54"/>
<g style="mix-blend-mode:soft-light" opacity="0.5">
<path d="M51.3865 133.398C45.9965 143.688 36.3865 149.288 29.9565 145.908C23.5265 142.528 22.6565 131.459 28.0465 121.169C33.4365 110.879 43.0465 105.278 49.4765 108.648C55.9065 112.018 56.7765 123.108 51.3865 133.398Z" fill="white"/>
</g>
<path d="M34.5366 196.849L24.7366 194.589L15.3166 255.349C14.7666 258.839 16.5066 262.009 19.3166 262.659C22.1266 263.309 25.0766 261.229 26.1266 257.859L44.3166 199.149L34.5366 196.849Z" fill="#E9B40F"/>
<g style="mix-blend-mode:multiply">
<path d="M19.3266 262.629C20.304 262.85 21.3265 262.756 22.2466 262.359C21.4484 261.561 20.8579 260.579 20.5267 259.5C20.1955 258.421 20.1336 257.277 20.3466 256.169L29.7266 195.739L24.7266 194.589L15.3166 255.349C14.7666 258.809 16.5066 261.979 19.3266 262.629Z" fill="#DBBACF"/>
</g>
<path d="M137.006 280.159L93.4064 260.139L90.0664 258.609L92.6164 252.679L94.6864 247.859L103.866 226.469L114.316 202.109L148.156 215.239L162.076 220.639L153.016 242.149L149.446 250.619L146.816 256.859L137.006 280.159Z" fill="#EDC30D"/>
<path d="M129.336 259.349C126.796 258.289 125.596 257.299 125.736 256.349L126.656 250.109L119.706 247.189L116.166 252.079C115.62 252.912 114.033 252.779 111.406 251.679C110.354 251.271 109.348 250.751 108.406 250.129C107.796 249.689 107.516 249.429 107.556 249.339L127.706 222.989C127.806 222.755 129.85 223.479 133.836 225.159C137.823 226.839 139.77 227.792 139.676 228.019L134.806 260.819C134.726 261.029 133.986 260.909 132.596 260.459C131.206 260.009 130.116 259.659 129.336 259.349ZM123.136 242.149L127.726 244.079L129.546 234.199L129.286 234.089L123.136 242.149Z" fill="white"/>
<path d="M176.366 303.369L137.006 280.159L145.116 260.899L148.206 253.559L151.446 245.879L160.936 223.329L162.076 220.639L197.556 245.809L190.846 264.029L183.776 283.239L180.916 291.019L178.316 298.079L176.366 303.369Z" fill="#E3A411"/>
<path d="M90.0664 258.609L133.606 284.719L176.366 303.369L137.006 280.159L90.0664 258.609Z" fill="#B67D18"/>
<path d="M183.176 259.589C182.506 260.955 181.47 262.109 180.183 262.921C178.896 263.733 177.408 264.172 175.886 264.189C176.99 265.428 177.703 266.966 177.936 268.609C178.126 270.687 177.639 272.771 176.546 274.549C176.039 275.59 175.29 276.496 174.364 277.191C173.437 277.887 172.358 278.352 171.216 278.549C168.856 278.982 166.13 278.372 163.036 276.719L153.156 271.459C152.935 271.348 152.74 271.192 152.583 271.001C152.426 270.809 152.312 270.587 152.246 270.349C152.181 270.093 152.167 269.828 152.205 269.567C152.242 269.306 152.331 269.055 152.466 268.829L166.726 242.059C166.896 241.749 167.046 241.579 167.196 241.529C167.441 241.502 167.686 241.566 167.886 241.709L177.426 246.789C183.946 250.269 185.863 254.535 183.176 259.589ZM166.006 262.789L163.106 268.229L163.856 268.629C164.747 269.199 165.803 269.456 166.856 269.359C167.299 269.253 167.71 269.045 168.057 268.751C168.405 268.458 168.678 268.087 168.856 267.669C169.098 267.312 169.253 266.904 169.308 266.477C169.364 266.05 169.319 265.615 169.176 265.209C168.64 264.34 167.847 263.658 166.906 263.259L166.006 262.789ZM171.556 252.349L168.636 257.829L168.846 257.939C171.516 259.369 173.336 259.189 174.286 257.409C174.532 257.037 174.692 256.615 174.754 256.174C174.816 255.733 174.779 255.284 174.646 254.859C174.158 253.957 173.374 253.251 172.426 252.859L171.556 252.349Z" fill="white"/>
<g style="mix-blend-mode:soft-light" opacity="0.5">
<path d="M153.017 242.149L94.6865 247.859L103.867 226.469L148.157 215.239L162.077 220.639L153.017 242.149Z" fill="white"/>
<path d="M146.816 256.859L93.4064 260.139L90.0664 258.609L92.6164 252.679L149.446 250.619L146.816 256.859Z" fill="white"/>
</g>
<g style="mix-blend-mode:soft-light" opacity="0.5">
<path d="M145.116 260.899L178.306 298.079L180.906 291.019L148.206 253.559L145.116 260.899Z" fill="white"/>
</g>
<g style="mix-blend-mode:soft-light" opacity="0.5">
<path d="M183.776 283.239L151.446 245.879L160.916 223.349C164.616 228.289 181.176 250.839 190.826 264.039L183.776 283.239Z" fill="white"/>
</g>
<path d="M210.116 327.889L165.696 346.05L162.306 347.44L159.716 341.529L157.606 336.719L148.266 315.399L137.626 291.119L170.336 275.389L183.786 268.919L193.306 290.239L197.046 298.619L199.806 304.809L210.116 327.889Z" fill="#84B693"/>
<path d="M189.326 318.999C186.816 320.119 185.326 320.329 184.716 319.609L180.796 314.669L173.916 317.749L175.066 323.679C175.293 324.652 174.106 325.719 171.506 326.879C170.493 327.37 169.43 327.752 168.336 328.019C167.596 328.159 167.216 328.179 167.176 328.099L161.706 295.349C161.606 295.122 163.53 294.122 167.476 292.349C171.476 290.579 173.476 289.809 173.566 290.039L194.186 316.039C194.276 316.239 193.686 316.689 192.406 317.399C191.126 318.109 190.106 318.649 189.326 318.999ZM172.536 311.769L177.076 309.769L171.076 301.689L170.816 301.799L172.536 311.769Z" fill="white"/>
<path d="M253.696 314.759L209.856 327.629L201.336 308.549L198.086 301.279L194.686 293.669L184.716 271.329L183.526 268.659L226.156 259.958L234.866 277.299L244.056 295.589L247.786 302.999L251.166 309.729L253.696 314.759Z" fill="#7FAA94"/>
<path d="M226.287 279.809C226.825 281.232 226.959 282.777 226.673 284.272C226.387 285.768 225.693 287.154 224.667 288.279C226.327 288.314 227.938 288.843 229.297 289.799C230.941 291.084 232.126 292.866 232.677 294.879C233.093 295.961 233.244 297.128 233.119 298.281C232.994 299.434 232.595 300.541 231.957 301.509C230.657 303.509 228.35 305.082 225.037 306.229L214.447 309.839C214.216 309.928 213.97 309.967 213.723 309.954C213.476 309.94 213.235 309.873 213.017 309.759C212.778 309.636 212.566 309.466 212.395 309.26C212.223 309.054 212.094 308.816 212.017 308.559L202.217 279.849C202.107 279.629 202.082 279.376 202.147 279.139C202.217 278.999 202.417 278.879 202.747 278.759L212.977 275.269C220.003 272.889 224.44 274.402 226.287 279.809ZM213.077 283.349L215.077 289.219L215.307 289.149C218.18 288.169 219.287 286.722 218.627 284.809C218.523 284.377 218.325 283.974 218.046 283.628C217.768 283.282 217.416 283.002 217.017 282.809C216.021 282.534 214.961 282.612 214.017 283.029L213.077 283.349ZM216.917 294.539L218.917 300.369L219.727 300.089C220.747 299.825 221.653 299.235 222.307 298.409C222.524 298.015 222.647 297.576 222.666 297.127C222.685 296.677 222.6 296.23 222.417 295.819C222.325 295.396 222.134 295.001 221.859 294.668C221.584 294.334 221.234 294.07 220.837 293.899C219.828 293.689 218.778 293.8 217.837 294.219L216.917 294.539Z" fill="white"/>
<g style="mix-blend-mode:soft-light" opacity="0.5">
<path d="M193.036 289.979L157.346 336.459L148.006 315.139L170.076 275.129L183.526 268.659L193.036 289.979Z" fill="white"/>
<path d="M199.547 304.549L165.437 345.789L162.047 347.18L159.457 341.269L196.787 298.359L199.547 304.549Z" fill="white"/>
</g>
<g style="mix-blend-mode:soft-light" opacity="0.5">
<path d="M201.326 308.549L251.156 309.729L247.786 302.999L198.086 301.279L201.326 308.549Z" fill="white"/>
</g>
<g style="mix-blend-mode:soft-light" opacity="0.5">
<path d="M244.056 295.589L194.686 293.669L184.716 271.349C190.846 272.019 218.626 275.349 234.866 277.349L244.056 295.589Z" fill="white"/>
</g>
<path d="M122.476 307.289C129.74 319.822 131.781 334.71 128.158 348.74C124.535 362.76 115.538 374.8 103.113 382.25C90.6883 389.69 75.8318 391.95 61.7543 388.54C47.6768 385.12 35.5087 376.3 27.8793 363.99C20.2498 351.67 17.7718 336.853 20.9805 322.726C24.1892 308.6 32.8271 296.303 45.0276 288.494C57.2281 280.684 72.0117 277.988 86.1836 280.988C100.355 283.989 112.778 292.445 120.766 304.529C121.36 305.429 121.93 306.349 122.476 307.289Z" fill="#DB4E19"/>
<path d="M102.166 337.349L105.916 347.85C89.1246 366 66.0585 377.08 41.3964 378.85C30.6521 370.62 23.3026 358.74 20.7438 345.455C18.185 332.168 20.5951 318.405 27.5164 306.779C40.6764 306.179 59.7564 309.049 71.0064 313.779C83.1733 318.953 93.8761 327.049 102.166 337.349Z" fill="#EDC30D"/>
<path d="M120.847 304.669C119.904 313.247 117.605 321.621 114.037 329.479C113.677 330.292 113.307 331.082 112.927 331.849L102.697 331.069C102.07 329.449 101.403 327.845 100.697 326.259C92.4135 307.864 78.9341 292.292 61.9165 281.459C72.9337 278.804 84.5013 279.608 95.0455 283.761C105.59 287.914 114.599 295.214 120.847 304.669Z" fill="#EDC30D"/>
<path d="M127.156 352.14C124.633 359.8 120.46 366.82 114.931 372.69C109.402 378.57 102.652 383.16 95.1562 386.14C97.0064 382.7 98.7463 379.2 100.296 375.62C102.975 369.59 104.89 363.25 105.996 356.75C106.337 354.58 106.557 352.4 106.656 350.21C108.556 347.37 111.176 344.829 113.076 341.989C115.071 342.972 116.995 344.091 118.836 345.339C121.809 347.35 124.593 349.63 127.156 352.14Z" fill="#EDC30D"/>
<path d="M118.606 338.349C120.466 346.98 116.386 355.17 109.496 356.65C102.606 358.13 95.4964 352.34 93.6664 343.719C91.8364 335.099 95.9164 326.879 102.776 325.349C109.636 323.819 116.756 329.699 118.606 338.349Z" fill="white"/>
<g style="mix-blend-mode:soft-light" opacity="0.5">
<path d="M56.4563 331.819C56.9464 344.819 50.0962 355.65 41.1462 355.99C32.1962 356.33 24.5362 346.07 24.0462 333.059C23.5562 320.049 30.3963 309.229 39.3463 308.879C48.2962 308.529 55.9163 318.809 56.4563 331.819Z" fill="white"/>
</g>
<path d="M267.576 306.799L275.896 308.799L281.056 310.019C281.697 310.155 282.328 310.332 282.946 310.549C283.429 310.759 283.872 311.049 284.256 311.409C285.116 312.162 285.263 313.742 284.696 316.149C284.176 318.339 283.406 319.569 282.376 319.819C281.907 319.979 281.412 320.05 280.916 320.029C280.31 319.952 279.709 319.839 279.116 319.689L269.516 317.419C269.336 317.839 268.826 319.189 267.986 321.419C268.641 321.481 269.29 321.595 269.926 321.759C273.444 322.608 276.482 324.816 278.376 327.899C279.429 329.425 280.143 331.158 280.471 332.983C280.799 334.808 280.732 336.682 280.276 338.479C279.875 340.291 279.116 342.005 278.043 343.52C276.969 345.035 275.604 346.32 274.026 347.3C272.453 348.33 270.68 349.02 268.824 349.32C266.967 349.63 265.067 349.54 263.246 349.07C259.983 348.34 256.998 346.69 254.646 344.309C254.222 343.897 253.844 343.441 253.516 342.949L253.166 342.459C252.066 340.929 251.626 339.669 251.866 338.679C252.106 337.689 253.056 336.679 254.736 335.589C255.233 335.173 255.81 334.865 256.431 334.684C257.053 334.504 257.705 334.454 258.346 334.539C259.693 335.023 260.837 335.946 261.596 337.159C261.946 337.701 262.41 338.161 262.956 338.507C263.502 338.852 264.116 339.075 264.756 339.159C266.022 339.568 267.394 339.504 268.616 338.979C269.098 338.709 269.515 338.336 269.836 337.886C270.158 337.437 270.376 336.922 270.476 336.379C270.631 335.832 270.657 335.257 270.553 334.698C270.449 334.14 270.218 333.613 269.876 333.159C269.223 332.27 268.272 331.645 267.196 331.399C266.72 331.263 266.22 331.226 265.728 331.289C265.237 331.353 264.763 331.516 264.336 331.769C263.343 332.346 262.173 332.542 261.046 332.319C259.84 331.971 258.738 331.332 257.836 330.459C257.019 329.804 256.296 329.04 255.686 328.189C255.398 327.749 255.293 327.214 255.396 326.699C255.506 326.229 256.576 323.369 258.586 318.139C260.596 312.909 261.636 310.139 261.726 309.969C261.911 309.595 262.132 309.239 262.386 308.909C262.716 308.434 263.098 307.997 263.526 307.609C264.028 307.207 264.612 306.921 265.236 306.769C266.007 306.588 266.81 306.599 267.576 306.799Z" fill="#DB4E19"/>
<path d="M189.647 163.349C181.967 163.349 172.097 165.589 165.897 170.349C158.827 175.779 159.077 183.099 160.197 191.199C160.987 196.919 162.877 202.729 166.787 206.499C171.527 212.419 178.947 212.499 185.567 214.899C200.997 220.459 213.767 205.679 216.067 191.799C218.757 175.589 205.337 163.429 189.647 163.349Z" fill="#DB4E19"/>
<path d="M194.106 169.239C195.277 165.117 195.866 160.853 195.856 156.569C195.856 154.389 192.496 154.849 192.496 156.999C192.495 160.691 191.987 164.365 190.986 167.919C190.406 169.999 193.516 171.329 194.106 169.239Z" fill="#614645"/>
<path d="M192.756 161.709C193.316 158.109 189.276 154.529 186.516 152.889C181.786 150.069 176.206 149.779 170.846 149.419C170.266 149.419 169.576 149.979 169.926 150.609C173.926 157.759 181.046 164.249 191.496 162.429C192.526 162.239 192.776 161.729 192.756 161.709Z" fill="#84B693"/>
<path d="M174.597 152.249C177.477 154.069 180.737 155.089 183.597 156.979C186.007 158.559 188.337 160.369 191.127 161.249C191.163 161.256 191.201 161.25 191.233 161.233C191.266 161.215 191.291 161.187 191.306 161.153C191.32 161.119 191.322 161.081 191.311 161.045C191.3 161.01 191.277 160.979 191.247 160.959C188.247 159.429 185.417 157.719 182.537 155.959C180.007 154.449 177.247 153.469 174.647 152.099C174.587 152.099 174.517 152.179 174.577 152.219L174.597 152.249Z" fill="#727B24"/>
<path d="M182.916 160.039C184.512 160.381 186.177 160.169 187.636 159.438C187.746 159.368 187.636 159.219 187.556 159.229C186.776 159.279 186.026 159.579 185.256 159.699C184.486 159.819 183.686 159.799 182.916 159.919C182.901 159.919 182.885 159.925 182.874 159.936C182.863 159.947 182.856 159.963 182.856 159.979C182.856 159.994 182.863 160.01 182.874 160.021C182.885 160.032 182.901 160.039 182.916 160.039Z" fill="#727B24"/>
<path d="M181.677 153.689C182.015 154.107 182.319 154.552 182.587 155.019C182.787 155.466 182.954 155.927 183.087 156.399C183.107 156.443 183.143 156.478 183.187 156.499C183.231 156.52 183.28 156.525 183.328 156.514C183.375 156.502 183.417 156.474 183.446 156.435C183.475 156.395 183.489 156.347 183.487 156.299C183.407 155.75 183.21 155.225 182.91 154.76C182.61 154.294 182.213 153.898 181.747 153.599C181.697 153.599 181.647 153.649 181.677 153.689Z" fill="#727B24"/>
<path d="M176.146 155.279C177.284 155.453 178.448 155.256 179.466 154.719C179.596 154.639 179.466 154.449 179.366 154.459C178.827 154.548 178.292 154.668 177.766 154.819C177.226 154.929 176.676 154.979 176.146 155.119C176.125 155.119 176.105 155.127 176.09 155.142C176.075 155.157 176.066 155.177 176.066 155.199C176.066 155.22 176.075 155.24 176.09 155.255C176.105 155.27 176.125 155.279 176.146 155.279Z" fill="#727B24"/>
<path d="M213.916 180.679C213.146 178.229 211.916 174.409 208.716 175.039C208.373 175.093 208.064 175.277 207.852 175.552C207.64 175.827 207.541 176.173 207.576 176.519C208.033 178.555 208.625 180.56 209.346 182.519C209.986 184.729 210.046 187.109 210.996 189.219C211.055 189.345 211.143 189.456 211.252 189.543C211.362 189.63 211.49 189.69 211.626 189.719C212.396 190.619 213.246 190.819 213.976 189.719C215.506 187.349 214.666 183.129 213.916 180.679Z" fill="white"/>
<path d="M207.356 174.759C207.763 174.578 208.085 174.248 208.254 173.836C208.424 173.424 208.428 172.963 208.266 172.549C208.101 172.176 207.81 171.873 207.446 171.69C207.081 171.508 206.664 171.458 206.266 171.549C205.948 171.553 205.637 171.649 205.373 171.827C205.108 172.004 204.901 172.255 204.776 172.549C204.608 172.963 204.608 173.427 204.776 173.841C204.944 174.255 205.267 174.588 205.676 174.769C205.94 174.889 206.227 174.95 206.518 174.949C206.808 174.947 207.094 174.882 207.356 174.759Z" fill="white"/>
<path d="M212.177 193.439C212.177 192.949 211.437 192.869 211.177 193.299C210.52 194.34 210.027 195.477 209.717 196.669C209.662 196.87 209.664 197.083 209.721 197.284C209.779 197.484 209.891 197.665 210.045 197.807C210.199 197.948 210.389 198.044 210.593 198.085C210.798 198.126 211.01 198.11 211.207 198.039C211.603 197.857 211.949 197.578 212.211 197.229C212.472 196.88 212.643 196.471 212.707 196.039C212.897 195.229 212.987 193.969 212.177 193.469C212.197 193.439 212.187 193.439 212.177 193.439Z" fill="white"/>
<path d="M264.796 243.579C265.515 245.103 265.897 246.765 265.918 248.45C265.939 250.136 265.597 251.806 264.916 253.349C263.603 256.533 261.088 259.073 257.916 260.419C253.71 262.292 249.943 262.348 246.616 260.589C243.29 258.829 240.676 255.828 238.776 251.589C236.036 245.415 235.503 239.485 237.176 233.799C238.85 228.112 242.723 223.915 248.796 221.208C249.69 220.743 250.679 220.493 251.686 220.479C252.023 220.501 252.353 220.59 252.655 220.741C252.957 220.892 253.226 221.102 253.446 221.359C253.99 222.021 254.435 222.758 254.766 223.549C255.12 224.291 255.372 225.078 255.516 225.889C255.61 226.391 255.61 226.906 255.516 227.409C255.407 227.827 255.165 228.199 254.826 228.469C254.017 229.116 253.113 229.635 252.146 230.009C250.831 230.59 249.629 231.399 248.596 232.398C247.679 233.23 246.932 234.232 246.396 235.349C245.665 236.821 245.32 238.456 245.396 240.099L245.456 240.879C246.342 239.851 247.441 239.028 248.676 238.469C251.701 237.055 255.159 236.886 258.306 237.999C259.721 238.418 261.03 239.132 262.149 240.094C263.267 241.055 264.17 242.243 264.796 243.579ZM254.146 252.579C256.636 251.469 257.406 249.839 256.436 247.669C256.079 246.901 255.448 246.294 254.666 245.969C254.158 245.776 253.613 245.696 253.071 245.736C252.528 245.776 252.001 245.934 251.526 246.199C250.46 246.587 249.579 247.361 249.056 248.368C248.869 248.711 248.756 249.09 248.725 249.479C248.694 249.869 248.746 250.26 248.876 250.629C249.073 251.104 249.321 251.557 249.616 251.979C249.889 252.306 250.205 252.596 250.556 252.839C251.336 253.348 252.536 253.259 254.146 252.539V252.579Z" fill="#EDC30D"/>
<path d="M129.457 146.089C130.038 146.017 130.627 146.064 131.189 146.228C131.751 146.391 132.274 146.667 132.727 147.039C133.405 147.59 134.004 148.233 134.507 148.949C134.806 149.377 135.029 149.854 135.167 150.359C135.254 150.83 135.187 151.317 134.977 151.749C134.52 152.609 133.952 153.406 133.287 154.119L113.287 177.119C112.881 177.604 112.447 178.064 111.987 178.499C111.584 178.825 111.127 179.079 110.637 179.249C109.603 179.655 108.207 179.095 106.447 177.569C104.687 176.042 103.937 174.762 104.197 173.729C104.297 173.205 104.497 172.706 104.787 172.259C105.173 171.711 105.59 171.187 106.037 170.689L118.837 155.929H117.837C116.408 155.944 115.01 155.514 113.837 154.699C113.386 154.216 113.042 153.645 112.827 153.021C112.612 152.398 112.53 151.736 112.587 151.079C112.443 149.778 112.769 148.469 113.507 147.389C114.157 146.639 115.357 146.259 117.117 146.239L129.207 145.999L129.457 146.089Z" fill="#84B693"/>
</svg>
