<svg width="1920" height="180" viewBox="0 0 1920 180" fill="none" xmlns="http://www.w3.org/2000/svg">
<path d="M1920.51 241.66V137.375C1920.66 136.16 1920.66 134.93 1920.51 133.715C1920.51 133.615 1920.51 133.515 1920.51 133.415C1920.23 131.479 1919.51 129.634 1918.4 128.025C1916.74 125.712 1914.39 123.991 1911.69 123.115C1909.97 122.513 1908.15 122.259 1906.34 122.369C1904.52 122.479 1902.75 122.95 1901.12 123.755C1901.67 121.534 1901.85 119.235 1901.64 116.955C1901.19 111.891 1898.92 107.162 1895.25 103.645C1892.54 101.161 1889.22 99.433 1885.63 98.633C1882.04 97.832 1878.31 97.988 1874.8 99.085C1874.89 98.425 1874.95 97.765 1874.99 97.085C1874.99 96.855 1874.99 96.635 1874.99 96.415C1874.99 95.975 1874.99 95.525 1874.99 95.085C1874.99 94.825 1874.99 94.555 1874.99 94.295C1874.99 94.035 1874.99 93.4949 1874.99 93.0949C1874.99 92.6949 1874.99 92.535 1874.93 92.255C1874.87 91.975 1874.86 91.495 1874.82 91.105C1874.78 90.715 1874.75 90.545 1874.71 90.265L1874.53 89.135C1874.53 88.855 1874.43 88.575 1874.37 88.295C1874.31 88.015 1874.21 87.555 1874.13 87.195C1874.05 86.835 1874 86.635 1873.92 86.355C1873.84 86.075 1873.72 85.625 1873.61 85.255C1873.5 84.885 1873.46 84.715 1873.37 84.455C1873.28 84.195 1873.11 83.685 1872.97 83.305C1872.83 82.925 1872.7 82.565 1872.55 82.195C1872.4 81.825 1872.2 81.305 1872 80.865C1871.8 80.425 1871.7 80.235 1871.55 79.865C1871.4 79.495 1871.3 79.335 1871.17 79.085C1871.04 78.835 1870.81 78.425 1870.63 78.085C1870.45 77.745 1870.38 77.625 1870.25 77.395C1870.12 77.165 1869.85 76.725 1869.64 76.395C1869.43 76.065 1869.39 75.9849 1869.25 75.785C1869.11 75.585 1868.8 75.115 1868.57 74.785L1868.19 74.265C1867.94 73.918 1867.68 73.585 1867.41 73.265C1867.31 73.125 1867.19 72.995 1867.08 72.855C1866.79 72.495 1866.49 72.145 1866.19 71.855L1865.94 71.655C1859.58 64.655 1850.49 60.815 1840.73 63.355C1838.19 64.014 1835.76 65.024 1833.5 66.355C1831.94 56.295 1826.97 46.355 1818.5 40.725C1810.03 35.095 1797.89 34.495 1789.97 40.895C1789.73 29.845 1782.71 19.605 1773.3 13.805C1763.89 8.00497 1752.41 6.23495 1741.39 7.03495C1729.08 7.82395 1717.38 12.662 1708.11 20.795C1697.43 30.445 1695.57 43.215 1696.37 57.225C1694.01 56.755 1691.62 56.454 1689.22 56.325C1688.46 56.325 1687.7 56.325 1686.94 56.325H1686.12C1685.73 56.325 1685.33 56.325 1684.94 56.385C1684.55 56.445 1684.06 56.455 1683.62 56.505L1682.99 56.585C1682.41 56.665 1681.82 56.765 1681.25 56.885L1680.85 56.975C1680.21 57.115 1679.58 57.275 1678.96 57.475C1674.24 58.952 1670.22 62.089 1667.65 66.305C1664.47 71.305 1662.91 77.515 1662.59 83.735C1660.02 81.402 1656.97 79.667 1653.65 78.655C1645.11 76.095 1635.83 77.935 1627.54 81.195C1627.33 80.435 1627.09 79.685 1626.83 78.945C1626.75 78.735 1626.67 78.525 1626.6 78.315C1626.37 77.715 1626.13 77.1249 1625.86 76.535C1625.8 76.3849 1625.74 76.235 1625.67 76.085C1625.34 75.385 1624.99 74.705 1624.67 74.025C1624.56 73.815 1624.44 73.605 1624.32 73.405C1624.03 72.905 1623.74 72.405 1623.43 71.935L1623 71.265C1622.59 70.655 1622.16 70.045 1621.71 69.455C1621.54 69.225 1621.36 69.005 1621.18 68.775C1620.87 68.385 1620.55 68.005 1620.18 67.615C1619.81 67.225 1619.71 67.065 1619.46 66.795L1618.46 65.795C1618.03 65.345 1617.59 64.905 1617.15 64.475L1616.29 63.665L1615.29 62.755L1614.56 62.145C1613.71 61.435 1612.82 60.745 1611.91 60.085C1611.47 59.765 1611.02 59.465 1610.57 59.165C1610.38 59.035 1610.18 58.895 1609.98 58.775C1605.7 55.972 1601.04 53.803 1596.14 52.335C1587.44 49.735 1578.26 49.455 1570.33 52.335C1565.86 53.999 1561.8 56.58 1558.4 59.911C1554.99 63.242 1552.33 67.25 1550.57 71.675C1544.66 72.541 1539.02 74.688 1534.04 77.965C1533.87 77.635 1533.68 77.315 1533.5 76.965C1533.32 76.615 1532.99 76.035 1532.72 75.575C1532.45 75.115 1532.12 74.575 1531.81 74.035C1531.5 73.4949 1531.24 73.085 1530.94 72.615C1530.64 72.145 1530.33 71.675 1530.02 71.215C1529.71 70.755 1529.38 70.215 1529.02 69.755C1528.66 69.295 1528.44 68.945 1528.15 68.545C1527.86 68.145 1527.4 67.545 1527.01 66.985C1526.91 66.845 1526.79 66.705 1526.68 66.565C1525.58 65.135 1524.43 63.735 1523.23 62.385L1522.93 62.035C1522.39 61.435 1521.84 60.845 1521.28 60.255L1520.67 59.605C1520.12 59.045 1519.57 58.495 1519 57.945C1518.78 57.725 1518.56 57.505 1518.33 57.295C1517.76 56.745 1517.18 56.215 1516.59 55.695L1515.92 55.095C1515.31 54.565 1514.7 54.045 1514.08 53.535L1513.46 53.025C1512.81 52.495 1512.15 52.025 1511.46 51.475L1510.98 51.125C1493.36 37.975 1470.57 32.335 1448.15 39.205C1439.29 17.465 1417.37 1.66498 1393.94 0.12498C1370.51 -1.41502 1346.72 11.385 1335.09 31.785C1321.37 21.855 1300.75 26.045 1288.89 38.145C1286.56 40.532 1284.49 43.16 1282.73 45.985C1281.9 47.295 1281.14 48.645 1280.43 49.985L1280.22 50.385C1279.93 50.965 1279.65 51.565 1279.38 52.155C1279.26 52.405 1279.15 52.665 1279.04 52.915C1278.78 53.495 1278.54 54.075 1278.3 54.655C1278.19 54.925 1278.09 55.195 1277.99 55.465C1277.76 56.065 1277.53 56.655 1277.32 57.265L1277.17 57.705C1276.76 58.915 1276.38 60.145 1276.04 61.385C1275.96 61.705 1275.87 62.015 1275.78 62.325L1275.39 63.935C1275.3 64.345 1275.2 64.755 1275.12 65.165C1275.04 65.575 1274.9 66.165 1274.8 66.685C1274.7 67.205 1274.63 67.6249 1274.55 68.0949C1274.47 68.5649 1274.39 69.035 1274.32 69.505C1274.21 70.185 1274.12 70.865 1274.04 71.555C1273.98 72.035 1273.92 72.555 1273.87 72.995C1273.8 73.705 1273.73 74.415 1273.67 75.125C1273.67 75.505 1273.67 75.875 1273.59 76.255C1273.59 76.875 1273.52 77.485 1273.49 78.105C1273.49 78.485 1273.49 78.8549 1273.49 79.225C1273.49 79.892 1273.49 80.558 1273.49 81.225C1273.49 81.545 1273.49 81.8549 1273.49 82.225C1273.49 83.225 1273.49 84.165 1273.55 85.125C1270.73 83.84 1267.73 83.032 1264.65 82.735C1264.03 82.675 1263.42 82.635 1262.8 82.605C1260.32 82.518 1257.85 82.74 1255.43 83.265C1251.79 84.044 1248.35 85.536 1245.3 87.655C1241.34 90.309 1238.07 93.876 1235.78 98.055C1235.45 98.705 1235.16 99.365 1234.9 100.055C1234.86 100.15 1234.82 100.246 1234.8 100.345L1233.97 99.515L1233.32 98.885C1232.77 98.365 1232.21 97.8849 1231.65 97.3449L1231 96.765L1229.24 95.275L1228.63 94.775C1228.01 94.275 1227.38 93.775 1226.74 93.295L1226.28 92.945C1225.58 92.425 1224.88 91.945 1224.17 91.425C1207.55 79.885 1186.56 75.165 1165.9 81.505C1157.37 60.605 1136.31 45.415 1113.79 43.935C1091.27 42.455 1068.4 54.765 1057.22 74.365C1044.03 64.815 1024.22 68.8549 1012.81 80.475C1009.54 83.8559 1006.8 87.709 1004.68 91.905L1004.48 92.285C1004.2 92.8449 1003.93 93.415 1003.67 93.985L1003.34 94.715C1003.1 95.265 1002.86 95.825 1002.63 96.385L1002.33 97.165C1002.11 97.745 1001.89 98.315 1001.69 98.895C1001.69 99.035 1001.6 99.175 1001.55 99.305C1001.15 100.475 1000.79 101.655 1000.47 102.855C1000.38 103.155 1000.29 103.455 1000.21 103.765C1000.08 104.275 999.956 104.765 999.836 105.305L999.566 106.485L999.266 107.955L999.026 109.305C998.946 109.755 998.866 110.205 998.796 110.655C998.696 111.315 998.616 111.975 998.536 112.655C998.476 113.115 998.416 113.575 998.376 114.035C998.296 114.715 998.236 115.395 998.176 116.035C998.176 116.395 998.126 116.755 998.106 117.115C998.106 117.715 998.036 118.305 998.006 118.905C998.006 119.255 998.006 119.615 998.006 119.975C998.006 120.605 998.006 121.245 998.006 121.875C998.006 122.185 998.006 122.485 998.006 122.785C998.006 123.725 998.006 124.655 998.066 125.575C995.362 124.343 992.473 123.566 989.516 123.275C987.147 123.052 984.76 123.115 982.406 123.465C981.816 123.555 981.236 123.665 980.656 123.795C979.641 124.019 978.64 124.299 977.656 124.635C975.264 125.436 972.998 126.575 970.926 128.015C968.555 129.653 966.415 131.604 964.566 133.815H956.186C954.34 131.605 952.204 129.654 949.836 128.015C947.764 126.576 945.498 125.438 943.106 124.635C942.122 124.301 941.121 124.02 940.106 123.795C939.526 123.665 938.936 123.555 938.356 123.465C936.003 123.115 933.615 123.052 931.246 123.275C928.289 123.566 925.4 124.343 922.696 125.575C922.696 124.655 922.746 123.725 922.746 122.785V121.875C922.746 121.245 922.746 120.605 922.746 119.975V118.905C922.746 118.305 922.686 117.715 922.646 117.115C922.646 116.755 922.646 116.395 922.566 116.035C922.516 115.345 922.446 114.665 922.376 114.035C922.376 113.575 922.276 113.115 922.216 112.655C922.136 111.988 922.046 111.322 921.946 110.655C921.876 110.205 921.796 109.755 921.726 109.305C921.656 108.855 921.566 108.405 921.476 107.955C921.386 107.505 921.286 106.955 921.176 106.485C921.066 106.015 921.006 105.705 920.916 105.305C920.826 104.905 920.666 104.305 920.536 103.765C920.456 103.455 920.366 103.155 920.286 102.855C919.956 101.655 919.596 100.475 919.196 99.305C919.196 99.175 919.116 99.035 919.066 98.895C918.856 98.315 918.636 97.745 918.416 97.165C918.316 96.905 918.226 96.645 918.116 96.385C917.896 95.825 917.656 95.265 917.416 94.715C917.306 94.475 917.196 94.225 917.076 93.985C916.816 93.415 916.556 92.8449 916.266 92.285C916.206 92.155 916.136 92.025 916.066 91.905C913.951 87.705 911.21 83.851 907.936 80.475C896.536 68.8549 876.726 64.815 863.536 74.365C852.356 54.765 829.536 42.455 806.966 43.935C784.396 45.415 763.376 60.605 754.856 81.505C734.196 75.165 713.206 79.885 696.586 91.425C695.866 91.915 695.166 92.425 694.476 92.945L694.006 93.295C693.366 93.775 692.746 94.295 692.116 94.775L691.516 95.275C690.916 95.765 690.336 96.275 689.756 96.765L689.106 97.3449C688.536 97.8549 687.986 98.345 687.436 98.885L686.786 99.515L685.956 100.345C685.956 100.245 685.886 100.145 685.856 100.055C685.596 99.385 685.296 98.725 684.966 98.055C682.672 93.876 679.407 90.309 675.446 87.655C672.393 85.536 668.95 84.044 665.316 83.265C664.109 83.003 662.887 82.816 661.656 82.705C660.426 82.597 659.19 82.563 657.956 82.605C657.336 82.605 656.716 82.675 656.106 82.735C653.027 83.031 650.019 83.839 647.206 85.125C647.206 84.125 647.206 83.195 647.266 82.225C647.266 81.905 647.266 81.595 647.266 81.225C647.266 80.558 647.266 79.892 647.266 79.225C647.266 78.8549 647.266 78.485 647.266 78.105C647.266 77.485 647.196 76.875 647.156 76.255C647.156 75.875 647.156 75.505 647.086 75.125C647.026 74.415 646.956 73.705 646.886 72.995C646.836 72.515 646.776 71.995 646.716 71.555C646.626 70.865 646.536 70.185 646.436 69.505C646.366 69.035 646.286 68.5649 646.206 68.0949C646.126 67.6249 646.036 67.155 645.946 66.685C645.856 66.215 645.746 65.685 645.636 65.165C645.526 64.645 645.456 64.345 645.356 63.935C645.256 63.525 645.106 62.865 644.966 62.325C644.886 62.015 644.796 61.705 644.706 61.385C644.366 60.145 643.996 58.915 643.586 57.705C643.526 57.555 643.486 57.405 643.436 57.265C643.226 56.655 642.996 56.065 642.766 55.465C642.666 55.195 642.556 54.925 642.446 54.655C642.216 54.075 641.966 53.495 641.716 52.915L641.376 52.155C641.096 51.565 640.826 50.965 640.526 50.385C640.466 50.255 640.386 50.125 640.316 49.985C639.616 48.605 638.853 47.272 638.026 45.985C636.254 43.162 634.19 40.534 631.866 38.145C620.006 26.045 599.386 21.855 585.666 31.785C574.036 11.385 550.236 -1.40502 526.806 0.12498C503.376 1.65498 481.466 17.465 472.596 39.205C450.176 32.335 427.396 37.975 409.776 51.125L409.296 51.475C408.626 51.975 407.976 52.475 407.296 53.025L406.666 53.535C406.046 54.042 405.436 54.562 404.836 55.095L404.156 55.695C403.576 56.215 402.996 56.695 402.426 57.295L401.746 57.945C401.186 58.495 400.626 59.045 400.076 59.605C399.876 59.825 399.676 60.045 399.466 60.255C398.916 60.845 398.356 61.435 397.816 62.035C397.716 62.145 397.626 62.265 397.526 62.385C396.326 63.735 395.176 65.135 394.066 66.565L393.736 66.985C393.346 67.495 392.976 67.985 392.596 68.545L391.726 69.755C391.396 70.235 391.076 70.755 390.726 71.215C390.376 71.675 390.116 72.145 389.816 72.615C389.516 73.085 389.226 73.615 388.936 74.035C388.646 74.4549 388.326 75.035 388.026 75.575L387.246 76.965C387.066 77.295 386.886 77.615 386.716 77.965C381.664 74.621 375.933 72.439 369.936 71.575C368.177 67.15 365.509 63.142 362.106 59.811C358.702 56.48 354.638 53.899 350.176 52.235C342.246 49.405 333.066 49.685 324.366 52.235C319.466 53.703 314.805 55.872 310.526 58.675L309.926 59.065C309.476 59.365 309.036 59.665 308.596 59.985C307.686 60.645 306.806 61.335 305.946 62.045L305.226 62.655L304.226 63.565L303.366 64.375C302.916 64.805 302.476 65.245 302.056 65.695C301.636 66.145 301.406 66.375 301.056 66.695L300.346 67.515C300.016 67.905 299.706 68.285 299.396 68.675L298.856 69.355C298.416 69.945 297.986 70.555 297.576 71.165L297.146 71.835C296.836 72.325 296.536 72.835 296.256 73.305L295.896 73.925C295.526 74.605 295.176 75.285 294.896 75.985L294.696 76.435C294.436 77.025 294.196 77.615 293.966 78.215C293.886 78.425 293.806 78.6349 293.736 78.8449C293.476 79.5849 293.236 80.3349 293.026 81.0949C284.736 77.8349 275.456 75.995 266.926 78.555C263.585 79.557 260.511 81.293 257.926 83.635C257.616 77.415 256.046 71.155 252.926 66.205C250.348 61.991 246.33 58.854 241.616 57.375C240.986 57.175 240.356 57.015 239.726 56.875L239.326 56.785C238.746 56.665 238.166 56.565 237.586 56.485L236.956 56.405C236.516 56.355 236.076 56.315 235.626 56.285C235.176 56.255 234.846 56.235 234.456 56.225H233.636C232.876 56.225 232.116 56.225 231.356 56.225C228.951 56.355 226.559 56.656 224.196 57.125C224.996 43.125 223.136 30.345 212.456 20.695C203.189 12.562 191.491 7.72398 179.186 6.93498C168.186 6.13498 156.676 7.935 147.276 13.705C137.876 19.475 130.846 29.705 130.606 40.795C122.686 34.395 110.526 34.945 102.076 40.625C93.6263 46.305 88.6563 56.195 87.0763 66.255C84.8209 64.924 82.3908 63.914 79.8563 63.255C70.0763 60.785 60.9963 64.655 54.6363 71.655L54.4163 71.885C54.1063 72.225 53.8163 72.575 53.5163 72.885L53.1863 73.295L52.4063 74.295C52.2863 74.465 52.1563 74.635 52.0363 74.815L51.3463 75.815L50.9563 76.425C50.7563 76.755 50.5463 77.085 50.3563 77.425L49.9663 78.115C49.7863 78.445 49.6063 78.765 49.4363 79.115C49.2663 79.465 49.1863 79.635 49.0563 79.895C48.9263 80.155 48.7463 80.525 48.6063 80.895C48.4663 81.265 48.2263 81.775 48.0563 82.225C47.8863 82.6749 47.7663 82.965 47.6363 83.335C47.5063 83.705 47.3563 84.095 47.2263 84.485L46.9863 85.285C46.8863 85.655 46.7763 86.015 46.6763 86.385C46.5763 86.755 46.5463 86.945 46.4763 87.225C46.4063 87.505 46.3063 87.955 46.2363 88.325C46.1663 88.695 46.1263 88.885 46.0763 89.165C46.0263 89.445 45.9463 89.915 45.8963 90.295C45.8463 90.675 45.8163 90.855 45.7863 91.135C45.7563 91.415 45.7063 91.905 45.6763 92.285C45.6463 92.6649 45.6263 92.845 45.6063 93.125C45.5863 93.405 45.6063 93.925 45.6063 94.325C45.6063 94.725 45.6063 94.855 45.6063 95.115C45.6063 95.555 45.6063 96.005 45.6063 96.445C45.6063 96.665 45.6063 96.885 45.6063 97.115C45.6063 97.775 45.7063 98.435 45.7963 99.115C42.2913 98.02 38.5602 97.862 34.9754 98.659C31.3906 99.455 28.0774 101.178 25.3663 103.655C21.6829 107.163 19.398 111.889 18.9363 116.955C18.719 119.235 18.8949 121.535 19.4563 123.755C17.832 122.959 16.066 122.492 14.2603 122.382C12.4546 122.272 10.6451 122.521 8.93627 123.115C6.23169 123.991 3.87971 125.712 2.22627 128.025C1.12372 129.639 0.402229 131.482 0.116266 133.415C0.116266 133.515 0.116266 133.615 0.116266 133.715C-0.0387553 134.93 -0.0387553 136.16 0.116266 137.375V241.66H1920.51Z" fill="white"/>
</svg>
