<svg width="76" height="70" viewBox="0 0 76 70" fill="none" xmlns="http://www.w3.org/2000/svg">
<path d="M74.4751 49.0459H69.5918V54.6046H74.4751C74.9139 54.6046 75.2695 54.2563 75.2695 53.8269V49.8237C75.2695 49.3941 74.9139 49.0459 74.4751 49.0459ZM74.4751 59.1399H69.5918V64.6986H74.4751C74.9139 64.6986 75.2695 64.3504 75.2695 63.921V59.9178C75.2695 59.4882 74.9139 59.1399 74.4751 59.1399Z" fill="#FFF0AF"/>
<path d="M64.7656 49.0459H69.711V64.6988H64.7656V49.0459Z" fill="#FFC861"/>
<path d="M13.6077 28.6426V16.6778C13.6077 10.8623 18.3388 6.13112 24.1543 6.13112C29.9698 6.13112 34.701 10.8624 34.701 16.6778V28.6426H40.2393V16.6778C40.2393 7.79422 33.0379 0.592773 24.1543 0.592773C15.2708 0.592773 8.06934 7.79422 8.06934 16.6778V28.6426H13.6077Z" fill="#DBEDFF"/>
<path d="M25.76 0.672336C25.2264 0.619354 24.6905 0.592801 24.1543 0.592773C15.2708 0.592773 8.06934 7.79422 8.06934 16.6778V28.6426H11.2806V16.6778C11.2806 8.33616 17.6305 1.47805 25.76 0.672336ZM27.3656 6.13112C26.8198 6.13112 26.2837 6.17284 25.76 6.25314C30.8162 7.02873 34.701 11.4081 34.701 16.6778V28.6426H37.9123V16.6778C37.9124 10.8624 33.1811 6.13112 27.3656 6.13112Z" fill="#B5DCFF"/>
<path d="M64.6126 30.7056H59.7384L59.4238 31.0881V66.6274C59.4238 68.1624 60.6682 69.4068 62.2032 69.4068C63.7382 69.4068 64.9825 68.1624 64.9825 66.6274V31.0882L64.6126 30.7056Z" fill="#FFE07D"/>
<path d="M62.686 66.6279V31.0886L63.0006 30.7061H59.7384L59.4238 31.0886V66.6279C59.4238 68.1629 60.6682 69.4073 62.2032 69.4073C62.8134 69.4073 63.3758 69.2084 63.8344 68.8748C63.1395 68.3697 62.686 67.5527 62.686 66.6279Z" fill="#FFC861"/>
<path d="M66.2817 23.6079L65.1094 22.8306H59.1967L58.0243 23.6333L57.9033 24.0066V29.32C57.9033 30.3091 58.7052 31.111 59.6944 31.111H64.7117C65.7009 31.111 66.5027 30.3091 66.5027 29.32V24.0047L66.2817 23.6079Z" fill="#FFC861"/>
<path d="M62.203 29.32V22.8306H59.1967L58.0243 23.6333L57.9033 24.0066V29.32C57.9033 30.3091 58.7052 31.111 59.6944 31.111H63.9942C63.0048 31.111 62.203 30.3091 62.203 29.32Z" fill="#EBB044"/>
<path d="M70.6595 10.897C69.572 10.646 68.8659 9.60513 69.0279 8.5009C69.0952 8.0403 69.1164 7.57411 69.091 7.1093C68.9053 3.66495 66.1394 0.85043 62.6985 0.610109C58.6646 0.328375 55.3047 3.51741 55.3047 7.49108C55.3047 7.85668 55.3332 8.2156 55.3879 8.56577C55.5576 9.64936 54.8307 10.6494 53.7614 10.8937C50.6418 11.6067 48.2989 14.4492 48.41 17.8511C48.5286 21.4789 51.5099 24.43 55.1386 24.5152C56.5081 24.5473 57.7891 24.1796 58.8743 23.5211C59.2414 23.2985 59.6652 23.1873 60.0945 23.1873H64.3221C64.7538 23.1873 65.1792 23.3009 65.5482 23.5247C66.4538 24.0744 67.4935 24.4219 68.6045 24.4996C72.6391 24.7821 75.9997 21.5929 75.9997 17.6188C75.9997 14.328 73.7019 11.5992 70.6595 10.897ZM65.8031 18.3508C65.3158 18.2508 64.8197 18.2005 64.3223 18.2005H60.0946C59.5884 18.2005 59.0872 18.2524 58.5982 18.3534C56.4288 18.8019 55.3486 15.9407 57.1086 14.8185C58.6505 13.8356 59.7585 12.2907 60.1938 10.5332C60.7262 8.3823 63.6999 8.39774 64.2344 10.5216C64.6766 12.2785 65.7793 13.8234 67.3051 14.809C69.0577 15.9413 67.9781 18.7965 65.8031 18.3508Z" fill="#FFE07D"/>
<path d="M51.9271 19.2274C51.8159 15.8255 54.1587 12.983 57.2784 12.27C58.3476 12.0257 59.0745 11.0257 58.9049 9.94208C58.8493 9.58654 58.8215 9.22723 58.8216 8.86739C58.8216 4.89372 62.1815 1.70469 66.2154 1.98642C66.2665 1.98998 66.3168 1.99592 66.3676 2.00067C65.3316 1.21098 64.0689 0.705852 62.6983 0.610109C58.6644 0.328375 55.3045 3.51741 55.3045 7.49108C55.3045 7.85668 55.333 8.2156 55.3878 8.56577C55.5575 9.64936 54.8306 10.6494 53.7614 10.8937C50.6418 11.6067 48.2989 14.4492 48.41 17.8511C48.5235 21.3194 51.2537 24.1671 54.6643 24.4855C53.0607 23.2658 51.9972 21.3643 51.9271 19.2274Z" fill="#FFC861"/>
<path d="M45.018 28.0308H3.29086C1.47339 28.0308 0 29.5042 0 31.3216V66.1161C0 67.9336 1.47339 69.407 3.29086 69.407H45.0181C46.8356 69.407 48.309 67.9336 48.309 66.1161V31.3216C48.3088 29.5042 46.8354 28.0308 45.018 28.0308Z" fill="#FFE07D"/>
<path d="M7.68179 66.116V31.3216C7.68179 29.5042 9.15518 28.0308 10.9726 28.0308H3.29086C1.47339 28.0308 0 29.5042 0 31.3216V66.1161C0 67.9336 1.47339 69.4068 3.29086 69.4068H10.9726C9.15518 69.4068 7.68179 67.9334 7.68179 66.116Z" fill="#FFC861"/>
<path d="M26.4734 49.6768C26.2228 49.0035 26.4626 48.2414 27.0615 47.8448C28.4872 46.901 29.4276 45.2831 29.4276 43.4453C29.4276 40.4078 26.8595 37.9701 23.776 38.1851C21.196 38.365 19.0998 40.4413 18.8976 43.0197C18.7405 45.0214 19.7023 46.8105 21.2238 47.8292C21.828 48.2339 22.0914 48.9885 21.8377 49.6701L19.5074 55.9317C19.2331 56.6687 19.7781 57.453 20.5645 57.453H27.7442C28.5304 57.453 29.0755 56.6687 28.8013 55.9317L26.4734 49.6768Z" fill="#3F6D8E"/>
<path d="M24.0948 55.9317L26.4251 49.6702C26.4339 49.6466 26.4406 49.6227 26.4481 49.5989C26.3525 49.2957 26.3518 48.9705 26.4461 48.6669C26.3348 48.3241 26.1111 48.029 25.8112 47.8292C24.2899 46.8105 23.3281 45.0212 23.485 43.0197C23.6341 41.1205 24.8112 39.4946 26.452 38.6975C25.6519 38.3096 24.7392 38.1179 23.776 38.1851C21.1958 38.365 19.0997 40.4414 18.8976 43.0197C18.7407 45.0214 19.7024 46.8105 21.2237 47.8292C21.828 48.2339 22.0913 48.9885 21.8377 49.6702L19.5073 55.9317C19.233 56.6687 19.7781 57.453 20.5644 57.453H25.1518C24.3656 57.453 23.8206 56.6687 24.0948 55.9317Z" fill="#365E7D"/>
</svg>
