<svg width="76" height="76" viewBox="0 0 76 76" fill="none" xmlns="http://www.w3.org/2000/svg">
<g clip-path="url(#clip0_262_14425)">
<path d="M66.5436 45.1267C66.5438 45.104 66.5454 45.0817 66.5454 45.059C66.5454 38.0011 60.8239 32.2795 53.7659 32.2795C50.5998 32.2795 47.705 33.4333 45.4725 35.3401C43.7373 30.8913 39.946 27.4732 35.2662 26.2524C34.4772 28.5244 33.1043 30.5487 31.2854 32.1223C30.0328 33.2064 29.0742 34.6159 28.5134 36.1981L28.1236 37.2983H28.5625C28.7467 37.2985 28.9233 37.3717 29.0535 37.502C29.1837 37.6322 29.257 37.8088 29.2572 37.993V41.5004C29.257 41.6846 29.1837 41.8612 29.0535 41.9914C28.9233 42.1216 28.7467 42.1949 28.5625 42.1951H27.7226V44.7043C27.7226 46.1637 26.582 47.3901 25.126 47.4961L24.9884 47.5062V49.8246C24.9884 50.6378 24.3268 51.2993 23.5137 51.2993H21.1329C20.3198 51.2993 19.6582 50.6378 19.6582 49.8246V47.5062L19.5206 47.4961C18.1919 47.3993 17.129 46.3687 16.9526 45.0803C11.7926 45.4009 7.66992 49.7198 7.66992 54.9568C7.66992 60.4006 12.1239 64.8547 17.5677 64.8547H24.1431C24.4603 67.3147 26.5611 69.2159 29.1076 69.2159C31.654 69.2159 33.755 67.3147 34.0721 64.8547H65.4074C70.8512 64.8547 75.3052 60.4006 75.3052 54.9568C75.3052 49.8974 71.4572 45.6951 66.5436 45.1267Z" fill="#C4E2FF"/>
<path d="M19.5733 50.2736C19.5309 50.1277 19.5092 49.9764 19.5089 49.8244V47.644C18.11 47.5421 16.984 46.4671 16.803 45.0917C11.7128 45.4853 7.66895 49.7703 7.66895 54.9568C7.66895 59.0188 10.1493 62.5285 13.6698 64.0492C13.0038 62.6987 12.6577 61.2128 12.6585 59.707C12.6585 55.3018 15.5759 51.5469 19.5733 50.2736ZM35.4135 26.291C34.8097 28.0318 33.8643 29.6344 32.6329 31.0049C33.8801 30.6786 35.164 30.5139 36.4532 30.5147C39.2213 30.5147 41.8134 31.264 44.0401 32.5693C42.0526 29.5367 39.0001 27.2665 35.4135 26.291Z" fill="#B3DAFE"/>
<path d="M24.92 47.5041H19.7265C19.6533 47.5041 19.5815 47.4987 19.5098 47.4932V49.8244C19.5098 50.7208 20.2365 51.4475 21.1329 51.4475H23.5136C24.41 51.4475 25.1367 50.7208 25.1367 49.8244V47.4932C25.0649 47.4988 24.9932 47.5041 24.92 47.5041Z" fill="#647FA0"/>
<path d="M22.232 49.8244V47.5041H19.7265C19.6533 47.5041 19.5815 47.4987 19.5098 47.4932V49.8244C19.5098 50.7208 20.2365 51.4475 21.1329 51.4475H23.5136C23.5713 51.4475 23.6282 51.4443 23.6843 51.4385C22.8682 51.3531 22.232 50.6632 22.232 49.8244Z" fill="#5E6F90"/>
<path d="M22.1256 7.90909C14.6451 8.01329 8.54908 14.1341 8.47338 21.6149C8.43033 25.8761 10.3121 29.6985 13.3023 32.2674C14.5371 33.3281 15.4496 34.7141 15.9935 36.2483L16.3662 37.3002H28.28L28.6532 36.2473C29.2027 34.697 30.1389 33.3105 31.3825 32.2341C34.3168 29.6947 36.1736 25.9435 36.1736 21.7583C36.1736 14.0431 29.8654 7.80132 22.1256 7.90909Z" fill="#FED402"/>
<path d="M19.6034 32.2674C16.6132 29.6987 14.7314 25.8763 14.7744 21.615C14.8399 15.1452 19.4086 9.69365 25.4812 8.27058C24.3815 8.01436 23.2548 7.89298 22.1258 7.90914C14.6451 8.01349 8.54908 14.1343 8.47338 21.6151C8.43033 25.8763 10.3121 29.6987 13.3023 32.2676C14.5371 33.3283 15.4496 34.7143 15.9935 36.2485L16.3662 37.3004H22.6673L22.2945 36.2485C21.7507 34.7141 20.8381 33.3282 19.6034 32.2674Z" fill="#FAC600"/>
<path d="M27.213 18.2954C25.0649 18.2954 23.3174 20.043 23.3174 22.191V23.86H21.3283V22.191C21.3283 20.043 19.5807 18.2954 17.4327 18.2954C15.2847 18.2954 13.5371 20.043 13.5371 22.191C13.5371 24.339 15.2847 26.0866 17.4327 26.0866H19.1017V37.2978H21.3283V26.0866H23.3174V37.2978H25.5439V26.0866H27.213C29.361 26.0866 31.1085 24.339 31.1085 22.191C31.1084 20.043 29.3608 18.2954 27.213 18.2954ZM19.1016 23.86H17.4326C16.5122 23.86 15.7635 23.1113 15.7635 22.191C15.7635 21.2707 16.5122 20.522 17.4326 20.522C18.3529 20.522 19.1016 21.2707 19.1016 22.191V23.86ZM27.213 23.86H25.5439V22.191C25.5439 21.2707 26.2926 20.522 27.213 20.522C28.1333 20.522 28.882 21.2707 28.882 22.191C28.8818 23.1113 28.1331 23.86 27.213 23.86Z" fill="white"/>
<path d="M16.7754 42.1924V44.7038C16.7754 46.3335 18.0966 47.6547 19.7263 47.6547H24.92C26.5497 47.6547 27.8709 46.3335 27.8709 44.7038V42.1924H16.7754Z" fill="#8DB3DF"/>
<path d="M21.5303 44.7038V42.1924H16.7754V44.7038C16.7754 46.3335 18.0966 47.6547 19.7263 47.6547H24.4812C22.8514 47.6547 21.5303 46.3335 21.5303 44.7038Z" fill="#799FCA"/>
<path d="M28.5616 42.3431H16.0834C15.8597 42.3431 15.6453 42.2543 15.4872 42.0961C15.3291 41.938 15.2402 41.7236 15.2402 41.5V37.9925C15.2402 37.8818 15.262 37.7722 15.3044 37.6699C15.3468 37.5676 15.4089 37.4747 15.4872 37.3964C15.5655 37.3181 15.6584 37.256 15.7607 37.2136C15.863 37.1712 15.9726 37.1494 16.0834 37.1494H28.5616C28.6723 37.1494 28.782 37.1712 28.8843 37.2136C28.9866 37.256 29.0795 37.3181 29.1578 37.3964C29.2361 37.4747 29.2982 37.5676 29.3406 37.6699C29.3829 37.7722 29.4047 37.8818 29.4047 37.9925V41.5C29.4047 41.7236 29.3159 41.938 29.1578 42.0961C28.9997 42.2543 28.7852 42.3431 28.5616 42.3431Z" fill="#A2C7F8"/>
<path d="M20.0221 41.5V37.9925C20.0221 37.8818 20.044 37.7722 20.0863 37.6699C20.1287 37.5676 20.1908 37.4747 20.2691 37.3964C20.3474 37.3181 20.4403 37.256 20.5426 37.2136C20.6449 37.1712 20.7546 37.1494 20.8653 37.1494H16.0834C15.9726 37.1494 15.863 37.1712 15.7607 37.2136C15.6584 37.256 15.5655 37.3181 15.4872 37.3964C15.4089 37.4747 15.3468 37.5676 15.3044 37.6699C15.262 37.7722 15.2402 37.8818 15.2402 37.9925V41.5C15.2402 41.7236 15.3291 41.938 15.4872 42.0961C15.6453 42.2543 15.8597 42.3431 16.0834 42.3431H20.8653C20.7546 42.3431 20.6449 42.3213 20.5426 42.2789C20.4403 42.2365 20.3474 42.1744 20.2691 42.0961C20.1908 42.0179 20.1287 41.9249 20.0863 41.8226C20.044 41.7203 20.0221 41.6107 20.0221 41.5Z" fill="#8DB3DF"/>
<path d="M22.5842 4.57855C22.2889 4.57855 22.0058 4.46126 21.797 4.25248C21.5882 4.0437 21.4709 3.76053 21.4709 3.46527V1.11328C21.4709 0.818021 21.5882 0.534853 21.797 0.326073C22.0058 0.117292 22.2889 0 22.5842 0C22.8795 0 23.1626 0.117292 23.3714 0.326073C23.5802 0.534853 23.6975 0.818021 23.6975 1.11328V3.46527C23.6975 3.76053 23.5802 4.0437 23.3714 4.25248C23.1626 4.46126 22.8795 4.57855 22.5842 4.57855ZM35.3504 10.0829C35.2042 10.0831 35.0594 10.0544 34.9243 9.99844C34.7892 9.94247 34.6665 9.86035 34.5633 9.7568C34.3545 9.54802 34.2372 9.26487 34.2372 8.96963C34.2372 8.67439 34.3545 8.39125 34.5633 8.18247L36.2263 6.51937C36.4351 6.31062 36.7183 6.19335 37.0135 6.19335C37.3088 6.19335 37.5919 6.31062 37.8007 6.51937C38.0094 6.72815 38.1267 7.0113 38.1267 7.30654C38.1267 7.60178 38.0094 7.88493 37.8007 8.0937L36.1376 9.7568C36.0343 9.86035 35.9117 9.94247 35.7766 9.99844C35.6415 10.0544 35.4966 10.0831 35.3504 10.0829ZM42.8372 23.0022H40.4852C40.1899 23.0022 39.9067 22.8849 39.698 22.6761C39.4892 22.4673 39.3719 22.1842 39.3719 21.8889C39.3719 21.5936 39.4892 21.3105 39.698 21.1017C39.9067 20.8929 40.1899 20.7756 40.4852 20.7756H42.8372C43.1324 20.7756 43.4156 20.8929 43.6244 21.1017C43.8332 21.3105 43.9504 21.5936 43.9504 21.8889C43.9504 22.1842 43.8332 22.4673 43.6244 22.6761C43.4156 22.8849 43.1324 23.0022 42.8372 23.0022ZM36.6439 37.4315C36.4977 37.4317 36.3529 37.403 36.2178 37.347C36.0827 37.291 35.96 37.2089 35.8567 37.1054L34.1936 35.4423C33.9849 35.2335 33.8676 34.9503 33.8676 34.6551C33.8676 34.3599 33.9849 34.0767 34.1936 33.8679C34.4024 33.6592 34.6856 33.5419 34.9808 33.5419C35.2761 33.5419 35.5592 33.6592 35.768 33.8679L37.4311 35.531C37.6398 35.7398 37.7571 36.023 37.7571 36.3182C37.7571 36.6134 37.6398 36.8966 37.4311 37.1054C37.3278 37.2089 37.2051 37.2911 37.0701 37.347C36.935 37.403 36.7901 37.4317 36.6439 37.4315ZM7.63224 37.0619C7.48602 37.0621 7.34119 37.0334 7.2061 36.9774C7.07101 36.9214 6.94832 36.8393 6.84508 36.7358C6.63632 36.527 6.51905 36.2438 6.51905 35.9486C6.51905 35.6534 6.63632 35.3702 6.84508 35.1614L8.50817 33.4983C8.71695 33.2896 9.0001 33.1723 9.29534 33.1723C9.59057 33.1723 9.87372 33.2896 10.0825 33.4983C10.2913 33.7071 10.4085 33.9903 10.4085 34.2855C10.4085 34.5807 10.2913 34.8639 10.0825 35.0727L8.41941 36.7358C8.31617 36.8393 8.19348 36.9215 8.05839 36.9774C7.9233 37.0334 7.77847 37.0621 7.63224 37.0619ZM4.16059 22.4795H1.80859C1.51333 22.4795 1.23017 22.3622 1.02139 22.1535C0.812604 21.9447 0.695313 21.6615 0.695312 21.3662C0.695312 21.071 0.812604 20.7878 1.02139 20.579C1.23017 20.3703 1.51333 20.253 1.80859 20.253H4.16059C4.45585 20.253 4.73901 20.3703 4.94779 20.579C5.15658 20.7878 5.27387 21.071 5.27387 21.3662C5.27387 21.6615 5.15658 21.9447 4.94779 22.1535C4.73901 22.3622 4.45585 22.4795 4.16059 22.4795ZM9.66495 9.71345C9.51872 9.71365 9.3739 9.68494 9.23881 9.62898C9.10372 9.57301 8.98102 9.49089 8.87778 9.38734L7.21469 7.72424C7.00593 7.51546 6.88866 7.23232 6.88866 6.93708C6.88866 6.64184 7.00593 6.35869 7.21469 6.14991C7.42346 5.94116 7.70661 5.82389 8.00185 5.82389C8.29709 5.82389 8.58024 5.94116 8.78902 6.14991L10.4521 7.81301C10.6078 7.9687 10.7138 8.16706 10.7568 8.38301C10.7997 8.59895 10.7777 8.82278 10.6934 9.02619C10.6091 9.22961 10.4665 9.40347 10.2834 9.5258C10.1003 9.64813 9.88512 9.71344 9.66495 9.71345Z" fill="#FAC600"/>
<path d="M58.0207 46.0996H36.0527C35.7575 46.0996 35.4743 45.9823 35.2655 45.7735C35.0567 45.5648 34.9395 45.2816 34.9395 44.9863C34.9395 44.6911 35.0567 44.4079 35.2655 44.1991C35.4743 43.9903 35.7575 43.873 36.0527 43.873H58.0209C58.1671 43.8731 58.3119 43.9019 58.4469 43.9578C58.582 44.0138 58.7047 44.0958 58.8081 44.1992C58.9114 44.3026 58.9934 44.4253 59.0494 44.5604C59.1053 44.6954 59.1341 44.8402 59.1341 44.9864C59.1341 45.1326 59.1053 45.2774 59.0493 45.4124C58.9934 45.5475 58.9114 45.6702 58.808 45.7736C58.7046 45.877 58.5819 45.959 58.4468 46.0149C58.3117 46.0708 58.1669 46.0996 58.0207 46.0996ZM58.0207 50.9455H36.0527C35.7575 50.9455 35.4743 50.8282 35.2655 50.6194C35.0567 50.4106 34.9395 50.1275 34.9395 49.8322C34.9395 49.537 35.0567 49.2538 35.2655 49.045C35.4743 48.8362 35.7575 48.7189 36.0527 48.7189H58.0209C58.1671 48.7189 58.3119 48.7478 58.4469 48.8037C58.582 48.8597 58.7047 48.9417 58.8081 49.0451C58.9114 49.1484 58.9934 49.2712 59.0494 49.4063C59.1053 49.5413 59.1341 49.6861 59.1341 49.8323C59.1341 49.9785 59.1053 50.1233 59.0493 50.2583C58.9934 50.3934 58.9114 50.5161 58.808 50.6195C58.7046 50.7228 58.5819 50.8048 58.4468 50.8608C58.3117 50.9167 58.1669 50.9455 58.0207 50.9455ZM46.7137 55.7914H36.0527C35.7575 55.7914 35.4743 55.6741 35.2655 55.4653C35.0567 55.2565 34.9395 54.9734 34.9395 54.6781C34.9395 54.3828 35.0567 54.0997 35.2655 53.8909C35.4743 53.6821 35.7575 53.5648 36.0527 53.5648H46.7137C47.0089 53.5648 47.2921 53.6821 47.5009 53.8909C47.7097 54.0997 47.8269 54.3828 47.8269 54.6781C47.8269 54.9734 47.7097 55.2565 47.5009 55.4653C47.2921 55.6741 47.0089 55.7914 46.7137 55.7914Z" fill="white"/>
<path d="M38.7184 75.9999C40.2797 75.9999 41.5453 74.7343 41.5453 73.173C41.5453 71.6118 40.2797 70.3462 38.7184 70.3462C37.1572 70.3462 35.8916 71.6118 35.8916 73.173C35.8916 74.7343 37.1572 75.9999 38.7184 75.9999Z" fill="#C4E2FF"/>
<path d="M38.4063 73.173C38.4063 72.0642 39.0463 71.1071 39.9757 70.644C39.5854 70.4484 39.155 70.3465 38.7184 70.3462C37.1573 70.3462 35.8916 71.6118 35.8916 73.173C35.8916 74.7342 37.1572 75.9999 38.7184 75.9999C39.1707 75.9999 39.5966 75.8909 39.9757 75.7021C39.0463 75.2391 38.4063 74.282 38.4063 73.173Z" fill="#B3DAFE"/>
</g>
<defs>
<clipPath id="clip0_262_14425">
<rect width="76" height="76" fill="white"/>
</clipPath>
</defs>
</svg>
