<svg width="76" height="57" viewBox="0 0 76 57" fill="none" xmlns="http://www.w3.org/2000/svg">
<path fill-rule="evenodd" clip-rule="evenodd" d="M40.4159 9.2493C41.5675 8.71957 42.5886 8.20519 43.6404 7.75991C46.2102 6.70446 48.9801 6.22491 51.7552 6.35497C54.1505 6.43942 56.5382 6.5469 58.9258 6.69277C61.1059 6.94914 63.2253 7.58029 65.1904 8.55834C67.0023 9.32607 68.7757 10.2397 70.5645 11.0611C72.0665 11.7766 73.4492 12.7192 74.6642 13.8557C75.0257 14.1473 75.295 14.5374 75.4394 14.9789C75.5839 15.4203 75.5972 15.8942 75.478 16.3431C74.7103 20.4504 74.05 24.5654 73.3667 28.6805C72.4762 33.9701 71.6163 39.2751 70.7181 44.5647C70.1423 47.9504 69.5281 51.3284 68.9216 54.7141C68.8451 55.0692 68.7425 55.4182 68.6145 55.7582C68.5836 55.8976 68.5243 56.0291 68.4402 56.1445C68.3561 56.2599 68.2491 56.3567 68.1258 56.4288C68.0025 56.5009 67.8657 56.5467 67.7239 56.5634C67.5821 56.5801 67.4383 56.5674 67.3017 56.5259C64.0005 56.0806 60.6762 55.7582 57.3827 55.2361C52.8531 54.4684 48.3619 53.5625 43.8323 52.8485C39.6175 52.1882 35.3873 51.7199 31.1418 51.1672C30.6734 51.1058 30.2128 51.0367 29.7522 50.9445C25.9135 50.2459 22.0749 49.5089 18.2363 48.841C16.1327 48.4801 14.0061 48.2575 11.9025 47.912C8.55524 47.3746 5.22332 46.7835 1.88371 46.2307C-0.073994 45.9006 -0.219863 45.7163 0.179355 43.8124C0.724441 41.2098 1.34629 38.6225 1.79925 36.0122C2.56186 31.6516 3.26049 27.2832 3.89515 22.9072C4.39417 19.5138 4.81643 16.0974 5.22332 12.6887C5.5688 9.74065 5.87588 6.7849 6.12155 3.82147C6.10547 3.41846 6.2382 3.02361 6.49445 2.71214C6.7507 2.40067 7.11257 2.19435 7.51113 2.13248C9.55025 1.34344 11.6901 0.844664 13.8679 0.65076C17.9289 0.411726 22.0014 0.844923 25.9212 1.93286C28.0555 2.58543 30.2051 3.19961 32.3471 3.82915C32.5519 3.87005 32.7506 3.93713 32.9382 4.02876C35.4948 5.61027 38.4045 6.67741 40.4159 9.2493ZM74.1959 15.3911C73.0765 14.449 71.8884 13.5919 70.6413 12.8269C68.2076 11.5448 65.6741 10.4393 63.156 9.31072C60.9765 8.42304 58.6374 7.99442 56.2848 8.05165C55.448 8.05165 54.6112 8.12074 53.782 8.05165C49.4674 7.6294 45.3908 8.22822 41.6366 10.6082C41.3203 10.7645 41.0463 10.9947 40.8378 11.2793C40.6293 11.564 40.4925 11.8947 40.4389 12.2434C40.1319 14.2395 39.7787 16.2356 39.5484 18.2471C39.2413 20.9878 39.1108 23.744 38.7807 26.4771C38.32 30.3157 37.7442 34.1083 37.1991 37.9239C36.7692 40.9948 36.5926 44.0657 35.6637 47.0061C35.6337 47.1943 35.6337 47.386 35.6637 47.5742C36.5235 47.0368 37.2375 46.5224 38.0129 46.1155C40.6846 44.6799 43.6634 44.4649 46.5961 44.0887C49.0962 43.8857 51.6126 44.0985 54.0431 44.7183C58.6056 45.4893 62.7567 47.8268 65.7816 51.3284C66.319 51.9733 66.9101 52.5798 67.7009 53.4396C69.935 40.5342 72.0616 28.0202 74.2189 15.3911H74.1959ZM2.02958 42.131C2.36738 41.9161 2.65143 41.7088 2.95852 41.5476C4.49397 40.7798 5.95266 39.7511 7.56488 39.3135C10.3706 38.4946 13.3128 38.2507 16.215 38.5963C19.1173 38.942 21.9199 39.87 24.4549 41.3249C27.6672 43.1779 30.5263 45.5847 32.8999 48.4341C33.1225 48.6951 33.3835 48.9177 33.7904 49.3323C34.3048 47.1673 34.9036 45.225 35.203 43.2366C35.8326 39.1215 36.3086 34.9835 36.8229 30.8531C37.1223 28.4732 37.3911 26.1009 37.6598 23.7209C37.7442 22.9993 37.7289 22.2623 37.821 21.5406C38.2509 18.2854 38.6424 15.0303 39.1722 11.7905C39.293 11.2327 39.2475 10.6518 39.0415 10.1196C38.8354 9.5874 38.4778 9.12733 38.0129 8.79634C37.3214 8.24684 36.6013 7.73431 35.8556 7.26089C34.1436 6.17985 32.3118 5.30131 30.3971 4.64294C25.3964 2.818 20.0949 1.9583 14.7738 2.10944C12.1965 2.13084 9.66944 2.82415 7.44204 4.12088C6.16762 16.8344 4.53235 29.4712 2.06027 42.0926L2.02958 42.131ZM66.3727 54.9521C66.2488 54.5584 66.0922 54.1757 65.9044 53.8082C64.212 51.3554 61.9349 49.3632 59.2789 48.0118C56.7827 46.8125 54.0913 46.0714 51.333 45.8238C47.2847 45.3263 43.1761 45.8135 39.3564 47.2441C37.8999 47.7908 36.6859 48.8387 35.9324 50.1998C36.6464 50.3611 37.2375 50.53 37.844 50.6221C39.4409 50.8678 41.0454 51.0367 42.6346 51.313C48.0087 52.2343 53.2907 53.24 58.6417 54.1152C61.1215 54.4684 63.6089 54.6219 66.4034 54.9137L66.3727 54.9521ZM31.518 49.7853C31.5947 49.6394 31.6715 49.5012 31.7406 49.3553C30.0795 47.3677 28.1761 45.5958 26.0748 44.0811C22.7526 41.7058 18.815 40.3408 14.7354 40.1503C10.9889 39.9507 7.48042 40.5188 4.31739 42.6608C3.4946 43.2539 2.77157 43.9744 2.17545 44.795L31.518 49.7853Z" fill="#6255A4"/>
<path fill-rule="evenodd" clip-rule="evenodd" d="M74.2188 15.391C72.0615 28.0585 69.9349 40.5724 67.7546 53.4319C66.9868 52.572 66.3727 51.9655 65.8353 51.3206C62.8103 47.819 58.6593 45.4815 54.0967 44.7105C51.6662 44.0907 49.1498 43.878 46.6498 44.081C43.7171 44.4571 40.7383 44.6721 38.0666 46.1077C37.2989 46.5146 36.5772 47.029 35.7173 47.5664C35.6873 47.3782 35.6873 47.1865 35.7173 46.9983C36.6232 44.0349 36.7998 40.9563 37.2528 37.9161C37.7979 34.0775 38.3737 30.2926 38.8343 26.4693C39.1721 23.7362 39.3026 20.9801 39.602 18.2393C39.8324 16.2278 40.1855 14.2317 40.4926 12.2356C40.5461 11.8869 40.683 11.5562 40.8914 11.2716C41.0999 10.9869 41.3739 10.7567 41.6903 10.6004C45.4444 8.22044 49.5211 7.62161 53.8357 8.04386C54.6648 8.12063 55.5017 8.04386 56.3385 8.04386C58.677 7.97381 61.0051 8.38403 63.1789 9.24919C65.6971 10.3778 68.2306 11.4833 70.6643 12.7654C71.9134 13.5501 73.1016 14.4278 74.2188 15.391Z" fill="white"/>
<path fill-rule="evenodd" clip-rule="evenodd" d="M2.06055 42.0923C4.53263 29.4708 6.16788 16.8341 7.43463 4.10516C9.66203 2.80842 12.1892 2.11512 14.7664 2.09371C20.0911 1.94651 25.3953 2.81144 30.3973 4.64256C32.3186 5.28957 34.1582 6.15781 35.8789 7.2298C36.6246 7.70322 37.3447 8.21575 38.0362 8.76526C38.5011 9.09624 38.8587 9.55631 39.0648 10.0885C39.2708 10.6207 39.3163 11.2016 39.1955 11.7594C38.6658 14.9992 38.2742 18.2544 37.8443 21.5095C37.7522 22.2312 37.7675 22.9682 37.6831 23.6899C37.4144 26.0698 37.1456 28.4421 36.8462 30.822C36.3319 34.9524 35.8559 39.0905 35.2263 43.2055C34.9269 45.1939 34.3281 47.1362 33.8137 49.3012C33.4068 48.8866 33.1458 48.664 32.9232 48.403C30.5496 45.5536 27.6905 43.1468 24.4782 41.2938C21.9432 39.839 19.1406 38.9109 16.2383 38.5653C13.3361 38.2196 10.3939 38.4635 7.58819 39.2824C5.96828 39.72 4.51728 40.7487 2.98183 41.5165C2.68241 41.67 2.39835 41.8773 2.06055 42.0923Z" fill="white"/>
<path fill-rule="evenodd" clip-rule="evenodd" d="M66.4032 54.9134C63.6087 54.6217 61.1213 54.4681 58.6723 54.0766C53.2982 53.2014 48.0085 52.1957 42.6652 51.2744C41.076 50.998 39.4714 50.8291 37.8745 50.5834C37.268 50.4913 36.6769 50.3224 35.9629 50.1612C36.7164 48.8001 37.9304 47.7521 39.387 47.2054C43.2066 45.7748 47.3152 45.2876 51.3635 45.7852C54.1218 46.0328 56.8132 46.7739 59.3095 47.9732C61.9654 49.3246 64.2426 51.3167 65.9349 53.7695C66.1227 54.1371 66.2793 54.5197 66.4032 54.9134Z" fill="#CBD3DC"/>
<path fill-rule="evenodd" clip-rule="evenodd" d="M31.5486 49.747L2.20605 44.7568C2.80217 43.9361 3.52523 43.2157 4.34802 42.6225C7.51105 40.4805 11.0196 39.9124 14.7661 40.112C18.8456 40.3026 22.7832 41.6675 26.1054 44.0428C28.2067 45.5575 30.1101 47.3294 31.7712 49.3171C31.7021 49.4629 31.6253 49.6011 31.5486 49.747Z" fill="#CBD3DC"/>
<path fill-rule="evenodd" clip-rule="evenodd" d="M11.7036 7.96728C11.7036 10.7848 10.6826 13.8557 10.9359 16.5428C11.0664 18.2087 10.5521 17.6944 12.3409 18.2087C13.5281 18.3783 14.7301 18.4194 15.9261 18.3316C18.997 18.5926 19.6343 18.7154 19.6343 15.1378C19.6343 12.8347 19.7648 10.6543 19.8953 8.35114C17.2951 7.74831 14.62 7.53358 11.957 7.71393" fill="#E8A73F"/>
<path d="M22.7045 10.6235C27.0498 10.6235 31.564 10.9997 35.2645 13.5025C35.7712 13.8479 36.2548 13.0188 35.7481 12.6733C31.9095 10.0784 27.211 9.6715 22.6968 9.66382C22.58 9.67862 22.4726 9.73553 22.3947 9.82386C22.3169 9.9122 22.2739 10.0259 22.2739 10.1436C22.2739 10.2614 22.3169 10.3751 22.3947 10.4634C22.4726 10.5518 22.58 10.6087 22.6968 10.6235H22.7045Z" fill="#6255A4"/>
<path d="M22.3206 14.8461C26.5609 15.0914 30.7647 15.7732 34.8652 16.8805C34.9837 16.9009 35.1056 16.8764 35.207 16.8118C35.3084 16.7472 35.3821 16.6471 35.4138 16.5311C35.4454 16.4151 35.4327 16.2915 35.3781 16.1843C35.3235 16.0772 35.231 15.9942 35.1185 15.9516C30.9357 14.8161 26.6471 14.1137 22.3206 13.8557C21.7064 13.8019 21.7141 14.7616 22.3206 14.8153V14.8461Z" fill="#6255A4"/>
<path d="M21.9368 19.0685C25.9903 19.5892 30.0079 20.3584 33.9671 21.3717C34.0856 21.3921 34.2074 21.3676 34.3089 21.303C34.4103 21.2384 34.484 21.1383 34.5156 21.0223C34.5473 20.9063 34.5346 20.7827 34.48 20.6755C34.4254 20.5684 34.3329 20.4854 34.2204 20.4428C30.1766 19.4258 26.0744 18.6566 21.9368 18.1396C21.3303 18.0628 21.3303 19.0302 21.9368 19.0992V19.0685Z" fill="#6255A4"/>
<path d="M8.3789 23.5517C12.6354 23.4505 16.8942 23.5683 21.1385 23.9048C25.4224 24.3348 29.8522 25.2483 33.4682 27.7435C33.9826 28.0889 34.4663 27.2598 33.9519 26.9143C30.3589 24.4729 25.9829 23.521 21.722 23.0757C17.2858 22.6843 12.8309 22.5458 8.3789 22.6611C8.26209 22.6759 8.1547 22.7328 8.07686 22.8212C7.99901 22.9095 7.95605 23.0232 7.95605 23.1409C7.95605 23.2587 7.99901 23.3724 8.07686 23.4607C8.1547 23.5491 8.26209 23.606 8.3789 23.6208V23.5517Z" fill="#6255A4"/>
<path d="M8.11735 28.2659C12.2647 27.3465 16.5549 27.2733 20.7311 28.0509C24.8308 28.7035 29.084 29.9241 32.4466 32.4423C32.938 32.8108 33.4216 31.974 32.9303 31.6131C29.4371 28.9952 24.969 27.7745 20.7157 27.0759C16.4566 26.3135 12.0887 26.4022 7.86399 27.3369C7.75155 27.3795 7.65902 27.4625 7.60444 27.5696C7.54986 27.6768 7.53717 27.8004 7.5688 27.9164C7.60044 28.0324 7.67415 28.1325 7.77557 28.1971C7.87699 28.2617 7.99884 28.2862 8.11735 28.2659Z" fill="#6255A4"/>
<path d="M7.09546 32.3809C11.9859 32.949 16.9684 32.0738 21.8205 33.0488C23.4859 33.3766 25.1335 33.7892 26.7569 34.2849C28.5292 34.7161 30.1788 35.5488 31.5783 36.7186C32.0236 37.1408 32.7068 36.4652 32.2615 36.0353C29.7434 33.6323 25.7282 32.9106 22.45 32.1967C17.383 31.0988 12.2008 32.0124 7.09546 31.4289C6.48128 31.3522 6.48895 32.3118 7.09546 32.3886V32.3809Z" fill="#6255A4"/>
<path d="M7.34961 36.6033C11.4174 36.3571 15.4994 36.4959 19.5411 37.0179C23.5841 37.6179 27.432 39.1502 30.7806 41.4937C31.2873 41.8545 31.7633 41.0177 31.2643 40.6646C27.8494 38.2614 23.9229 36.6845 19.7944 36.0582C15.6691 35.5222 11.5027 35.3731 7.34961 35.6129C7.2328 35.6277 7.12541 35.6846 7.04756 35.773C6.96971 35.8613 6.92676 35.975 6.92676 36.0927C6.92676 36.2105 6.96971 36.3242 7.04756 36.4125C7.12541 36.5009 7.2328 36.5578 7.34961 36.5726V36.6033Z" fill="#6255A4"/>
<path fill-rule="evenodd" clip-rule="evenodd" d="M40.6229 36.1195C40.3618 37.9083 39.8551 39.4438 39.7246 41.1097C42.665 40.8564 45.8664 40.0887 49.1907 40.4725C51.8777 40.7259 54.3114 42.1308 56.7451 43.0291C57.3907 41.3758 57.8616 39.6596 58.15 37.9083C55.463 37.1406 52.1388 35.7357 49.4517 35.4823C46.5036 35.2213 44.2235 35.9736 40.6229 36.1195Z" fill="#90CBD3"/>
<path fill-rule="evenodd" clip-rule="evenodd" d="M61.9888 27.6748C61.4744 32.9184 60.5839 38.1696 59.939 43.2827C62.3727 44.0504 64.5453 44.5648 66.5951 45.9697C68.1306 43.5437 68.2611 39.1907 68.8983 36.3731C69.4788 33.9872 69.737 31.5343 69.666 29.0797C67.2579 28.5323 64.8237 28.1069 62.3726 27.8053" fill="#CBD3DC"/>
<path d="M44.2008 14.1934C52.5614 12.0438 61.966 12.7731 69.4207 17.3411C69.9504 17.6635 70.4341 16.8344 69.912 16.5119C62.2347 11.8135 52.5537 11.0534 43.9475 13.2645C43.835 13.3071 43.7425 13.3901 43.6879 13.4972C43.6334 13.6043 43.6207 13.728 43.6523 13.844C43.6839 13.96 43.7576 14.0601 43.8591 14.1247C43.9605 14.1893 44.0823 14.2138 44.2008 14.1934Z" fill="#6255A4"/>
<path d="M43.6941 18.3007C47.8935 18.0474 52.1391 17.6098 56.3616 18.0474C60.5841 18.485 64.4841 19.9744 68.3842 21.3563C68.9676 21.5636 69.221 20.6346 68.6452 20.4273C64.7528 19.0531 60.8374 17.6405 56.7224 17.1338C52.4154 16.5964 48.001 17.08 43.671 17.3411C43.0569 17.3411 43.0492 18.3391 43.671 18.3007H43.6941Z" fill="#6255A4"/>
<path d="M43.6939 23.1682C48.3793 22.5678 53.1251 22.6169 57.797 23.314C61.1366 23.79 64.8601 24.3428 67.7775 26.17C68.2995 26.5001 68.7832 25.6709 68.2611 25.3408C65.29 23.4752 61.5282 22.8841 58.1118 22.3928C53.3427 21.6637 48.4954 21.6017 43.7092 22.2085C43.1027 22.2853 43.095 23.2449 43.7092 23.1682H43.6939Z" fill="#6255A4"/>
<path d="M42.665 27.3906C48.1466 27.5057 53.7049 27.1602 59.0483 28.6496C59.1668 28.67 59.2887 28.6455 59.3901 28.5809C59.4915 28.5163 59.5652 28.4162 59.5969 28.3002C59.6285 28.1842 59.6158 28.0606 59.5612 27.9534C59.5067 27.8463 59.4141 27.7633 59.3017 27.7207C53.8815 26.1852 48.2387 26.5461 42.665 26.4309C42.5482 26.4457 42.4408 26.5026 42.363 26.591C42.2851 26.6793 42.2422 26.793 42.2422 26.9107C42.2422 27.0285 42.2851 27.1422 42.363 27.2305C42.4408 27.3189 42.5482 27.3758 42.665 27.3906Z" fill="#6255A4"/>
<path d="M42.0281 31.736C47.2716 31.2447 52.7763 31.214 57.5208 33.8473C58.0659 34.1467 58.5496 33.3176 58.0121 33.0181C53.1294 30.3004 47.4482 30.2697 42.0281 30.7764C41.4216 30.8378 41.4139 31.7975 42.0281 31.736Z" fill="#6255A4"/>
</svg>
