<svg width="53" height="65" viewBox="0 0 53 65" fill="none" xmlns="http://www.w3.org/2000/svg">
<path fill-rule="evenodd" clip-rule="evenodd" d="M44.3891 55.9679C43.1301 55.9679 42.086 55.9296 41.0726 55.9679C36.6658 56.1906 32.2514 56.3211 27.8523 56.6896C22.6932 57.1195 17.511 57.2654 12.4057 58.3325C10.0564 58.8239 7.62271 58.8853 5.21973 59.154C4.12956 59.2768 3.03939 59.4304 1.96457 59.5763C1.72285 59.2147 1.55734 58.8076 1.47814 58.38C1.39894 57.9523 1.40772 57.513 1.50393 57.0888C2.36379 49.9259 2.09508 42.74 2.0567 35.5925C2.0567 31.7538 1.94921 27.8231 1.71122 23.9537C1.45787 19.8464 0.989558 15.7467 0.605695 11.6701C0.413763 9.55887 0.191121 7.44762 0.0222208 5.33637C-0.100615 3.87769 0.260216 3.31725 1.74961 2.97177C3.17499 2.62266 4.62518 2.38395 6.08726 2.25779C8.72824 2.0505 11.3846 2.01979 14.0256 1.86624C18.962 1.58218 23.8908 1.24439 28.8273 0.937295C31.4146 0.776073 33.9941 0.653236 36.5814 0.468981C37.518 0.399886 38.4469 0.215633 39.3759 0.0927971C40.9113 -0.106812 40.9113 -0.106813 41.1033 1.3749C41.5409 5.17515 42.0936 8.96771 42.3777 12.7756C42.6771 16.8292 42.7309 20.8905 42.8921 24.9518C43.0763 29.6579 43.2683 34.3641 43.4218 39.0703C43.4832 40.836 43.4218 42.6018 43.4218 44.3676C43.4218 47.07 43.4218 49.7801 43.4986 52.4901C43.4986 53.3961 43.3066 54.3787 44.2279 55.0927C44.4429 55.1849 44.3584 55.6839 44.3891 55.9679ZM42.086 54.5169C42.1627 53.0736 42.324 51.7915 42.2856 50.5171C42.1525 45.6958 41.9887 40.8744 41.7942 36.0531C41.4488 27.5237 41.6714 18.9789 40.7808 10.4725C40.5121 7.96199 40.1974 5.45153 39.8519 2.94874C39.6983 1.83553 39.3298 1.50541 38.4316 1.55915C35.6831 1.69735 32.9347 1.83554 30.1939 2.03514C28.0826 2.18869 25.9791 2.4881 23.8755 2.63397C20.5896 2.86429 17.3114 3.03319 14.0256 3.20977C11.2157 3.36331 8.39044 3.44008 5.58056 3.65505C4.20633 3.76253 2.85513 4.10801 1.56535 4.33832C2.12579 10.5416 2.82442 16.4991 3.14687 22.4797C3.46931 28.4603 3.49235 34.3488 3.48467 40.2833C3.47699 46.2178 3.25435 52.2214 3.13152 58.2865C9.64952 57.5187 16.0447 56.6666 22.4706 56.0447C28.8964 55.4229 35.4528 55.0236 42.0783 54.5169H42.086Z" fill="#6255A4"/>
<path fill-rule="evenodd" clip-rule="evenodd" d="M42.0782 54.5169C35.4527 55.0236 28.9424 55.4228 22.4628 56.0523C15.9832 56.6819 9.64178 57.5264 3.12378 58.2941C3.24662 52.2291 3.46158 46.2638 3.47693 40.2909C3.49229 34.318 3.47693 28.4065 3.13913 22.4873C2.80133 16.5682 2.11806 10.5492 1.55762 4.34596C2.8474 4.11564 4.19859 3.77017 5.57282 3.66269C8.3827 3.44772 11.2079 3.37095 14.0178 3.21741C17.3037 3.04083 20.5819 2.87193 23.8678 2.64161C25.9713 2.49574 28.0749 2.19633 30.1861 2.04278C32.9269 1.84317 35.6754 1.70498 38.4239 1.56679C39.3221 1.51305 39.6906 1.84317 39.8441 2.95638C40.1896 5.45917 40.5044 7.96963 40.7731 10.4801C41.6637 18.9865 41.441 27.5313 41.7865 36.0607C41.981 40.8821 42.1448 45.7034 42.2778 50.5247C42.3162 51.7915 42.155 53.0736 42.0782 54.5169Z" fill="white"/>
<path fill-rule="evenodd" clip-rule="evenodd" d="M50.2855 60.5817C45.8787 60.8043 41.4643 60.9349 37.0652 61.3034C31.9061 61.7333 26.7239 61.8792 21.6185 62.9463C19.2693 63.4376 16.8356 63.4991 14.4326 63.7678C13.3425 63.8906 12.2523 64.0442 11.1775 64.19C10.9357 63.8284 10.7702 63.4214 10.691 62.9937C10.6118 62.5661 10.6206 62.1268 10.7168 61.7026C11.5767 54.5397 11.308 47.3538 11.2696 40.2062C11.2696 36.3676 11.1621 32.4369 10.9241 28.5675C10.6708 24.4602 10.2024 20.3605 9.81859 16.2839C9.62665 14.1726 9.40401 12.0614 9.23511 9.95014C9.11228 8.49146 9.47311 7.93102 10.9625 7.58554C12.3879 7.23643 13.8381 6.99772 15.3001 6.87156C17.9411 6.66427 20.5975 6.63356 23.2384 6.48002C28.1749 6.19596 33.1037 5.85816 38.0402 5.55107C40.6275 5.38984 43.207 5.26701 45.7942 5.08275C46.7309 5.01366 47.6598 4.8294 48.5888 4.70657C50.1242 4.50696 50.1242 4.50696 50.3162 5.98867C50.7538 9.8273 51.3065 13.5815 51.5906 17.3894C51.89 21.443 51.9437 25.5043 52.105 29.5656C52.2892 34.2717 52.4811 38.9779 52.6347 43.684C52.6961 45.4498 52.6347 47.2156 52.6347 48.9814C52.6347 51.6838 52.6347 54.3938 52.7115 57.1039C52.7115 58.0098 53.5253 60.5126 50.2547 60.6431M51.2605 59.1844C51.3372 57.7411 51.4985 56.459 51.4601 55.1846C51.327 50.3633 51.1632 45.5419 50.9687 40.7206C50.6233 32.1912 50.8459 23.6464 49.9553 15.14C49.6866 12.6295 49.3719 10.119 49.0264 7.61625C48.8728 6.50304 48.5043 6.17292 47.6061 6.22666C44.8576 6.36486 42.1092 6.50305 39.3684 6.70266C37.2571 6.8562 35.1536 7.15561 33.05 7.30148C29.7641 7.5318 26.4859 7.7007 23.2001 7.87728C20.3902 8.03082 17.5649 8.1076 14.7551 8.32256C13.3808 8.43004 12.0296 8.77552 10.7399 9.00584C11.3003 15.2091 11.9989 21.1666 12.3214 27.1472C12.6438 33.1278 12.6669 39.0163 12.6592 44.9508C12.6515 50.8853 12.4289 56.889 12.306 62.954C18.824 62.1863 25.2192 61.3341 31.6451 60.7122C38.0709 60.0904 44.6657 59.6297 51.2912 59.123L51.2605 59.1844Z" fill="#6255A4"/>
<path fill-rule="evenodd" clip-rule="evenodd" d="M51.2911 59.1233C44.6656 59.63 38.1553 60.0293 31.6757 60.6588C25.1961 61.2883 18.8547 62.1328 12.3367 62.9006C12.4595 56.8355 12.6745 50.8703 12.6898 44.8974C12.7052 38.9245 12.6898 33.013 12.352 27.0938C12.0142 21.1746 11.3309 15.1556 10.7705 8.95241C12.0603 8.72209 13.4115 8.37662 14.7857 8.26913C17.5956 8.05417 20.4208 7.9774 23.2307 7.82385C26.5166 7.64727 29.7948 7.47837 33.0806 7.24806C35.1842 7.10219 37.2878 6.80278 39.399 6.64923C42.1398 6.44962 44.8883 6.31143 47.6367 6.17324C48.535 6.1195 48.9035 6.44962 49.057 7.56282C49.4025 10.0656 49.7173 12.5761 49.986 15.0865C50.8765 23.593 50.6539 32.1378 50.9994 40.6672C51.1939 45.4885 51.3577 50.3098 51.4907 55.1312C51.5291 56.3979 51.3679 57.68 51.2911 59.1233Z" fill="white"/>
<path fill-rule="evenodd" clip-rule="evenodd" d="M36.9187 41.8953C36.8573 43.4308 37.1106 45.542 37.1797 47.0775C37.3026 48.7435 37.3026 50.3403 37.3717 52.0063C37.4331 52.513 37.1797 55.2 37.5636 55.653C38.0089 56.2902 40.312 55.5225 41.0184 55.392C42.6152 55.2 44.4731 55.4611 46.07 55.0772C46.9682 54.8853 46.8991 55.0772 47.0297 53.987C47.0911 52.774 46.9682 51.5533 47.0297 50.3403C47.0911 48.0372 47.2216 45.7954 47.2216 43.4922C47.2216 41.8339 47.6054 41.5115 45.8166 41.5115C42.8072 41.5115 39.8668 41.8953 36.9187 41.8953Z" fill="#E8A73F"/>
<path d="M17.4732 17.4739C21.7187 16.1227 26.1869 15.9384 30.5936 15.5085C32.8124 15.2935 35.0004 15.0325 37.2345 14.9865C39.6221 14.9404 42.0174 14.9865 44.405 14.9327C45.0269 14.9327 45.0269 13.95 44.405 13.9731C42.0174 14.0422 39.6221 13.9731 37.2345 14.0268C34.8469 14.0805 32.5821 14.3646 30.2482 14.5796C25.8721 14.9864 21.4347 15.2091 17.1968 16.5449C16.6057 16.7292 16.859 17.6581 17.4502 17.4739H17.4732Z" fill="#6255A4"/>
<path d="M18.2399 22.733C27.0457 22.4028 35.7748 20.8981 44.5959 20.8828C44.7128 20.8679 44.8202 20.811 44.898 20.7227C44.9759 20.6344 45.0188 20.5207 45.0188 20.4029C45.0188 20.2852 44.9759 20.1715 44.898 20.0831C44.8202 19.9948 44.7128 19.9379 44.5959 19.9231C35.7748 19.9231 27.0457 21.4585 18.2399 21.7733C17.6257 21.7733 17.618 22.756 18.2399 22.733Z" fill="#6255A4"/>
<path d="M18.5635 29.0514C27.1799 27.3512 35.9452 26.5204 44.7276 26.5716C44.8444 26.5568 44.9518 26.4999 45.0296 26.4116C45.1075 26.3232 45.1504 26.2095 45.1504 26.0918C45.1504 25.974 45.1075 25.8603 45.0296 25.772C44.9518 25.6837 44.8444 25.6268 44.7276 25.6119C35.857 25.5621 27.004 26.4058 18.3024 28.1301C17.7036 28.2529 17.957 29.1742 18.5635 29.0514Z" fill="#6255A4"/>
<path d="M19.1999 34.3178C23.5836 34.5712 27.8291 33.3352 32.1131 32.6212C36.7194 31.8534 41.3949 32.1989 46.0089 32.2066C46.1257 32.1918 46.2331 32.1349 46.311 32.0465C46.3888 31.9582 46.4318 31.8445 46.4318 31.7268C46.4318 31.609 46.3888 31.4953 46.311 31.407C46.2331 31.3186 46.1257 31.2617 46.0089 31.2469C41.5407 31.2469 36.9881 30.9245 32.5583 31.5847C28.1286 32.245 23.7448 33.6192 19.1999 33.3582C18.5857 33.3582 18.5857 34.2795 19.1999 34.3178Z" fill="#6255A4"/>
<path d="M19.4534 39.6074C23.8817 38.9975 28.3424 38.6514 32.8118 38.571C37.28 38.3791 41.7405 38.118 46.201 37.8033C46.8075 37.8033 46.8152 36.8052 46.201 36.8436C41.5946 37.1353 37.0343 37.404 32.451 37.6113C28.0165 37.7106 23.5918 38.0721 19.2 38.6938C18.5935 38.786 18.8469 39.7149 19.4534 39.6151V39.6074Z" fill="#6255A4"/>
<path d="M19.4529 45.2581C23.9901 44.8819 28.5658 45.2581 33.08 44.5979C33.6942 44.5134 33.4332 43.5922 32.8267 43.6766C28.3969 44.2985 23.9057 43.93 19.4529 44.2985C18.8464 44.3445 18.8387 45.3042 19.4529 45.2581Z" fill="#6255A4"/>
<path d="M19.3301 49.9874C23.9748 49.9874 28.6272 49.9874 33.272 49.7955C33.8862 49.7955 33.8939 48.8128 33.272 48.8358C28.6656 49.0278 23.9748 49.0278 19.3301 49.0278C19.2133 49.0426 19.1059 49.0995 19.028 49.1878C18.9502 49.2762 18.9072 49.3899 18.9072 49.5076C18.9072 49.6254 18.9502 49.7391 19.028 49.8274C19.1059 49.9157 19.2133 49.9726 19.3301 49.9874Z" fill="#6255A4"/>
<path d="M20.0977 55.8144C24.7885 55.6762 29.4716 55.3077 34.1701 55.3C34.2869 55.2852 34.3943 55.2283 34.4721 55.1399C34.55 55.0516 34.5929 54.9379 34.5929 54.8202C34.5929 54.7024 34.55 54.5887 34.4721 54.5004C34.3943 54.412 34.2869 54.3551 34.1701 54.3403C29.4716 54.3403 24.7885 54.7165 20.0977 54.8547C19.9808 54.8695 19.8735 54.9264 19.7956 55.0148C19.7178 55.1031 19.6748 55.2168 19.6748 55.3345C19.6748 55.4523 19.7178 55.566 19.7956 55.6543C19.8735 55.7427 19.9808 55.7996 20.0977 55.8144Z" fill="#6255A4"/>
</svg>
