<svg width="41" height="35" viewBox="0 0 41 35" fill="none" xmlns="http://www.w3.org/2000/svg">
<path fill-rule="evenodd" clip-rule="evenodd" d="M6.0296 26.5326C5.26187 26.5326 4.64002 26.5326 4.01816 26.5326C2.06045 26.4405 1.05472 25.6728 0.555702 23.7765C0.306877 22.87 0.167709 21.9369 0.141147 20.9973C0.0413423 16.4677 -0.212017 11.9228 0.371455 7.40087C0.509646 6.32605 0.678555 5.25122 0.908873 4.19176C1.24667 2.58721 2.4827 1.79645 3.84157 1.18994C5.73249 0.420404 7.78434 0.130316 9.81448 0.345462C10.8996 0.449199 11.9922 0.449199 13.0773 0.345462C16.2897 0.00150242 19.5244 -0.0858038 22.7507 0.0844145C25.0539 0.138155 27.357 0.0844145 29.6602 0.0844145C31.687 0.130478 33.7215 0.230294 35.7406 0.383839C38.5505 0.583448 40.0092 2.21102 40.1934 5.08232C40.37 7.67724 40.3777 10.2875 40.3316 12.8824C40.2779 15.7 40.0783 18.5099 39.9324 21.3274C39.9266 21.6419 39.8932 21.9554 39.8326 22.264C39.3182 24.5672 38.4353 26.0413 35.5717 26.2716C32.3626 26.5249 29.1459 26.6478 25.9291 26.832C25.1614 26.8781 24.3936 26.9856 23.5875 27.0009C21.0386 27.07 18.4821 27.1161 15.9102 27.1775C15.0888 27.1775 14.2673 27.2466 13.346 27.285C13.4614 28.7406 13.0103 30.1845 12.087 31.3156C11.1533 32.5259 9.81529 33.3598 8.31743 33.6648C7.29635 33.8567 6.27528 34.0563 5.24652 34.1715C4.21777 34.2867 3.98744 33.8644 4.39434 32.9892C4.70143 32.3289 5.06995 31.6994 5.39239 31.0468C6.02204 29.6311 6.24276 28.0673 6.0296 26.5326ZM6.40578 32.4518C7.69284 32.4639 8.95436 32.0924 10.0294 31.3846C11.4651 30.3175 12.5476 29.0815 12.0255 27.0316C11.8259 26.2639 12.1868 25.88 13.0389 25.88C14.6512 25.88 16.2711 25.9952 17.8756 25.9415C23.1269 25.7495 28.3781 25.619 33.614 25.1277C34.3817 25.0586 35.1495 25.0279 35.9172 24.9204C36.5192 24.8485 37.0843 24.5924 37.5351 24.1869C37.9859 23.7815 38.3003 23.2467 38.4353 22.6556C38.6148 22.114 38.7232 21.5514 38.7578 20.9819C38.9267 16.3756 39.0879 11.823 39.2107 7.23963C39.2146 6.35697 39.1219 5.47654 38.9344 4.61402C38.5889 2.84825 37.7597 2.06515 36.017 1.91161C34.2743 1.75806 32.378 1.61987 30.5585 1.59684C27.6948 1.55077 24.8235 1.59685 21.9599 1.63524C19.0963 1.67362 16.2404 1.76574 13.3844 1.81948C12.133 1.81948 10.8816 1.81948 9.63024 1.81948C8.44204 1.78092 7.25259 1.81168 6.06797 1.91161C3.61125 2.21102 2.1756 3.44707 1.75335 5.56599C1.47811 6.99509 1.30622 8.44218 1.23899 9.89598C1.13151 12.0149 1.10848 14.1492 1.12384 16.2758C1.12384 18.2028 1.21596 20.1144 1.3388 22.0491C1.46931 24.2908 2.34451 25.12 4.54021 25.2121C5.2158 25.2121 5.89909 25.1737 6.56701 25.2121C6.71292 25.2003 6.85953 25.224 6.99427 25.2812C7.12901 25.3384 7.24787 25.4275 7.34069 25.5407C7.43351 25.6539 7.49752 25.7879 7.52724 25.9312C7.55695 26.0745 7.55148 26.2229 7.5113 26.3637C7.20421 28.0911 6.86643 29.8185 6.54398 31.5459L6.40578 32.4518Z" fill="#6255A4"/>
<path fill-rule="evenodd" clip-rule="evenodd" d="M6.40603 32.4517L6.57493 31.5765C6.89738 29.8491 7.23519 28.1217 7.54228 26.3943C7.58245 26.2536 7.58792 26.1052 7.55821 25.9618C7.52849 25.8185 7.46449 25.6845 7.37167 25.5713C7.27884 25.4581 7.15996 25.3691 7.02522 25.3118C6.89048 25.2546 6.74387 25.2309 6.59796 25.2428C5.93004 25.1967 5.24678 25.2428 4.57118 25.2428C2.37548 25.1506 1.50026 24.3215 1.36975 22.0797C1.24691 20.1604 1.17014 18.2411 1.15479 16.3064C1.15479 14.1798 1.15478 12.0455 1.26994 9.9266C1.33717 8.4728 1.50908 7.02573 1.78433 5.59664C2.20658 3.447 3.64222 2.24166 6.09895 1.94225C7.28356 1.84232 8.47301 1.81156 9.66121 1.85013C10.9126 1.85013 12.164 1.85013 13.4154 1.85013C16.2713 1.79639 19.135 1.71194 21.9909 1.66588C24.8468 1.61982 27.7258 1.58142 30.5894 1.62748C32.4089 1.62748 34.2285 1.78103 36.048 1.94225C37.8675 2.10347 38.6198 2.87887 38.9653 4.64464C39.1529 5.50716 39.2456 6.38761 39.2417 7.27028C39.1189 11.8766 38.9577 16.4369 38.7888 21.0126C38.7542 21.5821 38.6458 22.1447 38.4663 22.6862C38.3313 23.2773 38.0168 23.8121 37.5661 24.2176C37.1153 24.623 36.5502 24.8792 35.9482 24.951C35.1804 25.0585 34.4127 25.0892 33.645 25.1583C28.4091 25.6496 23.1578 25.7802 17.9066 25.9721C16.302 26.0258 14.6821 25.9107 13.0699 25.9107C12.2177 25.9107 11.8569 26.2792 12.0565 27.0623C12.5786 29.0891 11.4961 30.3481 10.0604 31.4153C8.97318 32.1181 7.70034 32.479 6.40603 32.4517Z" fill="#90CBD3"/>
<path d="M7.32715 9.31244C16.2405 9.31244 25.1537 9.56578 34.0671 9.56578C34.1839 9.55098 34.2913 9.49407 34.3691 9.40574C34.447 9.3174 34.4899 9.2037 34.4899 9.08595C34.4899 8.96821 34.447 8.8545 34.3691 8.76617C34.2913 8.67783 34.1839 8.62093 34.0671 8.60612C25.1537 8.60612 16.2405 8.35278 7.32715 8.35278C7.21034 8.36759 7.10295 8.42449 7.0251 8.51283C6.94725 8.60116 6.9043 8.71487 6.9043 8.83261C6.9043 8.95036 6.94725 9.06406 7.0251 9.1524C7.10295 9.24073 7.21034 9.29764 7.32715 9.31244Z" fill="#6255A4"/>
<path d="M7.4497 13.5351C16.2786 13.5351 25.1074 13.2818 33.9363 13.2741C34.0531 13.2593 34.1605 13.2024 34.2383 13.1141C34.3162 13.0257 34.3591 12.912 34.3591 12.7943C34.3591 12.6765 34.3162 12.5628 34.2383 12.4745C34.1605 12.3862 34.0531 12.3293 33.9363 12.3145C25.1074 12.3145 16.2786 12.5678 7.4497 12.5755C7.3329 12.5903 7.2255 12.6472 7.14766 12.7355C7.06981 12.8239 7.02686 12.9376 7.02686 13.0553C7.02686 13.1731 7.06981 13.2868 7.14766 13.3751C7.2255 13.4634 7.3329 13.5203 7.4497 13.5351Z" fill="#6255A4"/>
<path d="M7.4497 17.7575C16.4091 17.7575 25.3684 17.5042 34.3201 17.4965C34.4369 17.4817 34.5443 17.4248 34.6222 17.3365C34.7 17.2481 34.743 17.1344 34.743 17.0167C34.743 16.899 34.7 16.7852 34.6222 16.6969C34.5443 16.6086 34.4369 16.5517 34.3201 16.5369C25.3684 16.5369 16.4091 16.7902 7.4497 16.7979C7.3329 16.8127 7.2255 16.8696 7.14766 16.9579C7.06981 17.0463 7.02686 17.16 7.02686 17.2777C7.02686 17.3955 7.06981 17.5092 7.14766 17.5975C7.2255 17.6858 7.3329 17.7427 7.4497 17.7575Z" fill="#6255A4"/>
</svg>
