<svg width="63" height="61" viewBox="0 0 63 61" fill="none" xmlns="http://www.w3.org/2000/svg">
<path fill-rule="evenodd" clip-rule="evenodd" d="M40.3443 45.8743C41.8337 49.0527 43.2079 51.97 44.5668 54.8874C44.8585 55.5016 45.1503 56.1081 45.3806 56.7453C45.8028 57.9122 45.3806 58.6953 44.1599 58.8565C42.6244 59.0561 41.089 59.1636 39.4998 59.2941C34.1257 59.7317 28.8054 60.0619 23.4773 60.63C21.0888 60.7566 18.6953 60.7566 16.3068 60.63C15.1245 60.63 14.9479 60.2 15.3932 59.1559C16.6753 56.085 18.2107 53.1369 18.9708 49.8664C19.2548 48.6611 19.7385 47.5095 20.1147 46.3579C19.9842 46.2428 19.8921 46.1123 19.8306 46.1276C18.18 46.4577 16.5217 46.1967 14.8711 46.2197C12.4835 46.2581 10.0959 46.5652 7.70823 46.7034C5.88872 46.8109 4.06921 46.8263 2.24202 46.9107C1.32842 46.9568 1.03669 46.3656 0.96759 45.6516C0.898495 44.9376 0.96759 43.9857 0.96759 43.1565C0.867786 40.8533 0.714243 38.4811 0.622115 36.1395C0.489043 33.2528 0.371325 30.3457 0.268962 27.4181C0.16148 23.9787 -0.00742443 20.5086 0.000252839 17.1076C0.000252839 12.7852 0.161478 8.46294 0.261283 4.14064C0.287003 3.92245 0.330654 3.70676 0.391795 3.49575C1.99634 2.85086 3.68534 3.06583 5.3206 2.92764C8.80096 2.6359 12.2788 2.37999 15.754 2.15991C21.4736 1.78373 27.1778 1.27701 32.928 1.35379C35.523 1.39217 38.1256 1.07742 40.7205 0.93923C43.4766 0.793362 46.2328 0.685865 48.9812 0.539997C50.7009 0.44787 52.413 0.332716 54.125 0.232911C54.6394 0.232911 55.1614 0.179173 55.6604 0.163819C57.1959 0.117755 58.6776 0.163817 60.1823 0.0179488C61.6871 -0.127919 62.6084 0.616773 62.6314 2.19829C62.7005 6.41311 62.8848 10.6433 62.9001 14.8274C62.9155 19.0115 62.7696 23.1572 62.7005 27.326C62.7005 28.777 62.6007 30.2357 62.6237 31.6867C62.6775 34.4966 62.7849 37.3064 62.854 40.1317C62.854 41.0683 62.854 42.0049 62.854 42.9339C62.8716 43.2523 62.7766 43.5667 62.5858 43.8221C62.3949 44.0776 62.1203 44.2578 61.8099 44.3311C61.1061 44.519 60.3865 44.6424 59.6603 44.6996C57.5337 44.8302 55.4071 44.8992 53.2805 44.9991C53.0195 44.9991 52.7508 44.9991 52.5128 45.0451C50.3554 45.2908 48.2135 45.6133 46.0562 45.7591C44.6666 45.8589 43.254 45.69 41.849 45.6823C41.3438 45.7129 40.8411 45.777 40.3443 45.8743ZM61.0729 1.52269C60.3896 1.52269 59.6833 1.52269 58.977 1.52269C57.9406 1.52269 56.9118 1.59948 55.9061 1.61483C55.5453 1.61483 55.1768 1.5227 54.8159 1.56109C52.2859 1.88488 49.7313 1.97483 47.1847 1.8298C46.4584 1.84125 45.7342 1.91315 45.0197 2.04476C44.3595 2.10618 43.6916 2.17527 43.0237 2.19063C42.206 2.12537 41.3845 2.12537 40.5669 2.19063C39.4018 2.41943 38.2144 2.51473 37.0277 2.47468C35.6919 2.42094 34.3407 2.75105 32.9971 2.72034C27.4796 2.69706 21.9647 2.96615 16.4757 3.52647C13.113 3.80285 9.74271 4.01781 6.37239 4.29419L1.76603 4.66271C0.668177 18.2591 1.95028 31.7251 2.43395 45.3522H4.06153C9.26672 45.3906 14.4565 44.5845 19.6694 44.93C19.8799 44.9261 20.0901 44.9107 20.2989 44.8839C21.75 44.8302 23.2086 44.7227 24.6596 44.7303C27.3697 44.7303 30.0798 44.8993 32.7822 44.8378C36.7897 44.7534 40.7972 44.5307 44.8048 44.3542C46.2635 44.2927 47.7145 44.2083 49.1731 44.1085C51.1999 43.9626 53.2267 43.8168 55.2459 43.6479C57.265 43.479 59.2534 43.287 61.4261 43.0874C61.38 29.1378 61.9404 15.4185 61.0268 1.52269H61.0729ZM17.2204 59.1636C17.6049 59.2127 17.992 59.2384 18.3796 59.2404C20.56 59.1124 22.7378 58.9717 24.913 58.8181C26.9935 58.6723 29.0894 58.6492 31.1316 58.3345C34.8633 57.6432 38.6456 57.2606 42.4402 57.1906C42.7703 57.1906 43.1004 57.1445 43.5764 57.1138C43.2924 56.4766 43.0851 56.0082 42.8701 55.5783C41.8644 53.4133 40.7742 51.2791 39.8606 49.0757C38.4557 45.6977 38.4787 45.8589 34.7399 46.0508C34.6324 46.0508 34.5326 46.0969 34.4328 46.0969C33.1353 46.143 31.8379 46.2274 30.5404 46.2121C27.6998 46.166 24.8592 46.0739 21.9035 46.0048C20.3834 50.2887 18.8479 54.6264 17.2204 59.1636Z" fill="#6255A4"/>
<path fill-rule="evenodd" clip-rule="evenodd" d="M61.0265 1.52271C61.9401 15.4186 61.3796 29.1609 61.3335 43.0491C59.1609 43.2487 57.1648 43.4406 55.1533 43.6095C53.1419 43.7784 51.1074 43.9243 49.0806 44.0701C47.622 44.1699 46.171 44.2544 44.7123 44.3158C40.7047 44.4924 36.6972 44.715 32.6897 44.7995C29.9873 44.8609 27.3156 44.6997 24.5671 44.692C23.1161 44.692 21.6574 44.7918 20.2064 44.8455C20.0098 44.8607 19.8125 44.8658 19.6153 44.8609C14.4024 44.5384 9.21259 45.3215 4.0074 45.2831H2.34144C1.85777 31.679 0.575665 18.2131 1.67351 4.59361L6.27987 4.22512C9.65019 3.97177 13.0205 3.75681 16.3832 3.45739C21.8722 2.89708 27.3871 2.62798 32.9046 2.65126C34.2482 2.65126 35.5994 2.35187 36.9352 2.40561C38.1219 2.44566 39.3093 2.35034 40.4744 2.12153C41.292 2.05627 42.1135 2.05627 42.9311 2.12153C43.5991 2.12153 44.267 2.0371 44.9272 1.97569C45.6417 1.84408 46.3658 1.77215 47.0922 1.7607C49.6388 1.90573 52.1933 1.8158 54.7234 1.49201C55.0843 1.45363 55.4528 1.55341 55.8136 1.54574C56.85 1.54574 57.8788 1.47665 58.8845 1.45361C59.6369 1.51503 60.3432 1.52271 61.0265 1.52271Z" fill="#CBD3DC"/>
<path fill-rule="evenodd" clip-rule="evenodd" d="M55.6984 6.9201C56.4661 17.3919 55.9901 27.7332 55.9517 38.2203C54.1706 38.3662 52.5277 38.5121 50.8847 38.6349C49.2418 38.7577 47.5682 38.8806 45.9022 38.9804C44.7122 39.0571 43.5146 39.1262 42.3246 39.1723C39.0387 39.3028 35.7528 39.4717 32.467 39.5331C30.2482 39.5792 28.0218 39.464 25.8031 39.4564C24.6131 39.4564 23.4155 39.5254 22.2255 39.5715C22.0566 39.5715 21.88 39.6099 21.7111 39.5715C17.4349 39.3335 13.1817 39.917 8.91312 39.894H7.56959C7.17038 29.6371 6.12627 19.4878 7.02451 9.23865L10.8094 8.96225C13.5732 8.77032 16.337 8.60143 19.0932 8.39414C23.6074 8.05634 28.114 7.6955 32.6435 7.78763C33.7414 7.78763 34.8546 7.565 35.9524 7.60338C36.9221 7.63234 37.8921 7.5603 38.8468 7.38842C39.519 7.34234 40.1936 7.34234 40.8659 7.38842C41.411 7.38842 41.9637 7.32699 42.5088 7.28093C43.095 7.18192 43.6879 7.12802 44.2823 7.11971C46.3698 7.22992 48.463 7.16314 50.5393 6.9201C50.831 6.9201 51.1304 6.96617 51.4298 6.9585L53.971 6.8894C54.5545 6.90476 55.1379 6.9201 55.6984 6.9201Z" fill="#6255A4"/>
<path fill-rule="evenodd" clip-rule="evenodd" d="M17.2207 59.1635C18.8329 54.6262 20.3684 50.2885 21.9038 45.9739C24.8596 46.043 27.7002 46.1351 30.5408 46.1812C31.8382 46.1812 33.1357 46.1121 34.4331 46.066C34.5329 46.066 34.6327 46.02 34.7402 46.02C38.4791 45.8281 38.456 45.6668 39.861 49.0448C40.7746 51.2482 41.8647 53.3825 42.8705 55.5475C43.0854 56.0081 43.2927 56.4764 43.5768 57.0829C43.1008 57.0829 42.809 57.1597 42.4405 57.1597C38.6451 57.2399 34.8628 57.6328 31.1319 58.3343C29.0898 58.6491 26.9939 58.6721 24.9133 58.818C22.8328 58.9638 20.5603 59.1097 18.38 59.2402C17.9923 59.2382 17.6052 59.2126 17.2207 59.1635Z" fill="#CBD3DC"/>
<path d="M30.8776 6.15198C31.1321 6.15198 31.3762 6.0509 31.5562 5.87093C31.7362 5.69096 31.8373 5.44684 31.8373 5.19232C31.8373 4.93781 31.7362 4.69372 31.5562 4.51375C31.3762 4.33377 31.1321 4.23267 30.8776 4.23267C30.6231 4.23267 30.379 4.33377 30.199 4.51375C30.0191 4.69372 29.918 4.93781 29.918 5.19232C29.918 5.44684 30.0191 5.69096 30.199 5.87093C30.379 6.0509 30.6231 6.15198 30.8776 6.15198Z" fill="#6255A4"/>
<path d="M36.3135 12.4933C36.3135 12.4933 36.6897 12.3014 37.3499 12.0404C38.2621 11.6759 39.1922 11.3582 40.1368 11.0884C40.7202 10.9195 41.3574 10.7583 42.0484 10.6201C42.7759 10.4663 43.5116 10.3535 44.2518 10.2823C45.0916 10.1976 45.9378 10.1976 46.7776 10.2823C47.784 10.3715 48.7561 10.692 49.6182 11.2189C50.5205 11.8041 51.2266 12.6465 51.645 13.6372C51.9971 14.4578 52.2198 15.328 52.3052 16.2168C52.442 17.6325 52.4214 19.0589 52.2438 20.47C52.1211 21.4464 51.9443 22.4153 51.7141 23.372C51.5452 24.0707 51.4147 24.4622 51.4147 24.4622C51.4147 24.4622 51.2765 24.063 51.1076 23.372C50.9387 22.6811 50.7083 21.6984 50.4627 20.5391C50.3475 19.9633 50.217 19.3415 50.0865 18.6889C49.956 18.0363 49.8024 17.3761 49.6259 16.7158C49.4704 16.0966 49.2464 15.4966 48.9579 14.927C48.733 14.4698 48.388 14.0824 47.9599 13.8061C47.4691 13.5085 46.9234 13.3127 46.3553 13.2304C45.6802 13.112 44.998 13.0377 44.3132 13.0077C42.9082 12.9233 41.534 12.9079 40.344 12.8542C39.1541 12.8004 38.1483 12.7237 37.4344 12.6469C36.7204 12.5701 36.3135 12.4933 36.3135 12.4933Z" fill="white"/>
</svg>
