<svg width="76" height="66" viewBox="0 0 76 66" fill="none" xmlns="http://www.w3.org/2000/svg">
<path d="M71.0031 6.08787V42.8664C71.0031 43.7977 70.2506 44.55 69.321 44.55H4.66991C3.74009 44.55 2.98633 43.7975 2.98633 42.8664V6.08787C2.98633 5.15806 3.74024 4.4043 4.66991 4.4043H69.321C70.2506 4.4043 71.0031 5.15806 71.0031 6.08787Z" fill="#FCB043"/>
<path d="M67.7688 39.7667C67.3166 39.7676 66.865 39.7987 66.4169 39.8599C67.1998 39.2239 67.6999 38.2543 67.6999 37.1701V4.4043H6.28936V37.1702C6.28936 38.5143 7.05856 39.6812 8.17941 40.2561H2.98633V42.8664C2.98633 43.7977 3.74024 44.55 4.66991 44.55H57.9698V43.64C57.9698 42.3356 57.2266 41.2025 56.1424 40.6367H63.6904C61.8539 41.4618 60.3123 42.8268 59.271 44.55H69.3208C70.2506 44.55 71.0029 43.7975 71.0029 42.8664V40.302C69.9618 39.9462 68.869 39.7653 67.7688 39.7667Z" fill="#DF781B"/>
<path d="M8.27832 2.3997V37.1695C8.27832 37.9867 8.9408 38.6492 9.75795 38.6492H35.5159C36.333 38.6492 36.9955 37.9867 36.9955 37.1695V7.75695C36.9955 3.981 33.9344 0.919922 30.1585 0.919922H9.75809C8.9408 0.92007 8.27832 1.58255 8.27832 2.3997Z" fill="#DEF2FC"/>
<path d="M65.7124 2.3997V37.1695C65.7124 37.9867 65.05 38.6492 64.2328 38.6492H38.4747C37.6576 38.6492 36.9951 37.9867 36.9951 37.1695V7.75695C36.9951 3.981 40.0562 0.919922 43.8321 0.919922H64.2328C65.05 0.92007 65.7124 1.58255 65.7124 2.3997Z" fill="#BCCED5"/>
<path d="M60.5794 8.92867H45.9898C45.8392 8.92868 45.6901 8.89903 45.5509 8.84141C45.4118 8.78378 45.2853 8.69931 45.1788 8.59281C45.0723 8.48631 44.9879 8.35988 44.9303 8.22073C44.8726 8.08158 44.843 7.93245 44.843 7.78184C44.843 7.63123 44.8726 7.48209 44.9303 7.34294C44.9879 7.20379 45.0723 7.07736 45.1788 6.97086C45.2853 6.86437 45.4118 6.77989 45.5509 6.72227C45.6901 6.66464 45.8392 6.63499 45.9898 6.63501H60.5794C61.213 6.63501 61.7263 7.14845 61.7263 7.78184C61.7263 8.41522 61.213 8.92867 60.5794 8.92867ZM60.5794 13.2259H45.9898C45.8392 13.226 45.6901 13.1963 45.5509 13.1387C45.4118 13.081 45.2853 12.9966 45.1788 12.8901C45.0723 12.7836 44.9879 12.6571 44.9303 12.518C44.8726 12.3788 44.843 12.2297 44.843 12.0791C44.843 11.9285 44.8726 11.7794 44.9303 11.6402C44.9879 11.5011 45.0723 11.3746 45.1788 11.2681C45.2853 11.1616 45.4118 11.0772 45.5509 11.0195C45.6901 10.9619 45.8392 10.9323 45.9898 10.9323H60.5794C61.213 10.9323 61.7263 11.4457 61.7263 12.0791C61.7263 12.7125 61.213 13.2259 60.5794 13.2259ZM60.5794 17.5232H53.2101C52.906 17.5232 52.6143 17.4024 52.3992 17.1873C52.1841 16.9722 52.0633 16.6805 52.0633 16.3764C52.0633 16.0722 52.1841 15.7805 52.3992 15.5654C52.6143 15.3504 52.906 15.2295 53.2101 15.2295H60.5794C61.213 15.2295 61.7263 15.743 61.7263 16.3764C61.7263 17.0098 61.213 17.5232 60.5794 17.5232ZM48.7095 17.5232H45.99C45.6858 17.5232 45.3941 17.4024 45.179 17.1873C44.964 16.9722 44.8431 16.6805 44.8431 16.3764C44.8431 16.0722 44.964 15.7805 45.179 15.5654C45.3941 15.3504 45.6858 15.2295 45.99 15.2295H48.7095C49.0136 15.2295 49.3054 15.3504 49.5204 15.5654C49.7355 15.7805 49.8563 16.0722 49.8563 16.3764C49.8563 16.6805 49.7355 16.9722 49.5204 17.1873C49.3054 17.4024 49.0136 17.5232 48.7095 17.5232ZM60.5794 21.8203H45.9898C45.8392 21.8203 45.6901 21.7907 45.5509 21.7331C45.4118 21.6754 45.2853 21.591 45.1788 21.4845C45.0723 21.378 44.9879 21.2515 44.9303 21.1124C44.8726 20.9732 44.843 20.8241 44.843 20.6735C44.843 20.5229 44.8726 20.3737 44.9303 20.2346C44.9879 20.0954 45.0723 19.969 45.1788 19.8625C45.2853 19.756 45.4118 19.6715 45.5509 19.6139C45.6901 19.5563 45.8392 19.5266 45.9898 19.5267H60.5794C60.7301 19.5266 60.8792 19.5563 61.0183 19.6139C61.1575 19.6715 61.2839 19.756 61.3904 19.8625C61.4969 19.969 61.5814 20.0954 61.639 20.2346C61.6966 20.3737 61.7263 20.5229 61.7263 20.6735C61.7263 20.8241 61.6966 20.9732 61.639 21.1124C61.5814 21.2515 61.4969 21.378 61.3904 21.4845C61.2839 21.591 61.1575 21.6754 61.0183 21.7331C60.8792 21.7907 60.7301 21.8203 60.5794 21.8203ZM60.5794 26.1176H45.9898C45.6857 26.1176 45.394 25.9968 45.1789 25.7817C44.9638 25.5666 44.843 25.2749 44.843 24.9708C44.843 24.6666 44.9638 24.3749 45.1789 24.1598C45.394 23.9447 45.6857 23.8239 45.9898 23.8239H60.5794C61.213 23.8239 61.7263 24.3374 61.7263 24.9708C61.7263 25.6041 61.213 26.1176 60.5794 26.1176ZM60.5794 30.4147H45.9898C45.6857 30.4147 45.394 30.2939 45.1789 30.0788C44.9638 29.8637 44.843 29.572 44.843 29.2679C44.843 28.9637 44.9638 28.672 45.1789 28.4569C45.394 28.2419 45.6857 28.121 45.9898 28.121H60.5794C61.213 28.121 61.7263 28.6345 61.7263 29.2679C61.7263 29.9013 61.213 30.4147 60.5794 30.4147ZM26.4556 19.7014C26.2241 19.7014 25.998 19.6313 25.8071 19.5004C25.6161 19.3695 25.4693 19.1839 25.3858 18.9679L22.7058 12.042L20.026 18.9679C19.9126 19.2465 19.6944 19.4694 19.4183 19.5887C19.1421 19.7079 18.8302 19.7139 18.5497 19.6054C18.2692 19.4969 18.0425 19.2825 17.9185 19.0085C17.7945 18.7345 17.783 18.4228 17.8866 18.1404L21.6361 8.4501C21.7197 8.23433 21.8666 8.04888 22.0574 7.91811C22.2483 7.78734 22.4743 7.71735 22.7057 7.71735C22.9371 7.71735 23.1631 7.78734 23.3539 7.91811C23.5448 8.04888 23.6917 8.23433 23.7753 8.4501L27.5249 18.1403C27.5923 18.314 27.6162 18.5016 27.5947 18.6867C27.5733 18.8718 27.507 19.0489 27.4017 19.2026C27.2964 19.3564 27.1552 19.4821 26.9903 19.569C26.8255 19.6559 26.6419 19.7014 26.4556 19.7014Z" fill="#99A9AD"/>
<path d="M25.0177 16.3281H20.8607C20.5565 16.3281 20.2648 16.2073 20.0497 15.9922C19.8347 15.7771 19.7139 15.4854 19.7139 15.1813C19.7139 14.8771 19.8347 14.5854 20.0497 14.3703C20.2648 14.1553 20.5565 14.0344 20.8607 14.0344H25.0177C25.3218 14.0344 25.6135 14.1553 25.8286 14.3703C26.0437 14.5854 26.1645 14.8771 26.1645 15.1813C26.1645 15.4854 26.0437 15.7771 25.8286 15.9922C25.6135 16.2073 25.3218 16.3281 25.0177 16.3281ZM30.0001 26.1175H15.4105C15.1063 26.1175 14.8146 25.9967 14.5996 25.7816C14.3845 25.5666 14.2637 25.2749 14.2637 24.9707C14.2637 24.6665 14.3845 24.3748 14.5996 24.1598C14.8146 23.9447 15.1063 23.8239 15.4105 23.8239H30.0001C30.6337 23.8239 31.147 24.3373 31.147 24.9707C31.147 25.6041 30.6337 26.1175 30.0001 26.1175ZM30.0001 30.4146H15.4105C15.1063 30.4146 14.8146 30.2938 14.5996 30.0788C14.3845 29.8637 14.2637 29.572 14.2637 29.2678C14.2637 28.9637 14.3845 28.672 14.5996 28.4569C14.8146 28.2418 15.1063 28.121 15.4105 28.121H30.0001C30.6337 28.121 31.147 28.6344 31.147 29.2678C31.147 29.9012 30.6337 30.4146 30.0001 30.4146Z" fill="#99A9AD"/>
<path d="M67.769 65.0794C63.0928 65.0794 59.3554 61.1876 59.545 56.5144L59.7867 50.5827L59.8356 49.373C59.8509 49.0045 59.8907 48.6421 59.955 48.2889C60.5575 44.914 63.284 42.2945 66.6819 41.8296C67.0366 41.7791 67.4006 41.7546 67.769 41.7546C68.1789 41.7546 68.5826 41.7852 68.9755 41.8464C70.627 42.0987 72.115 42.8602 73.2695 43.9674C74.45 45.1021 75.2835 46.6022 75.5847 48.2889C75.649 48.6421 75.6886 49.0045 75.704 49.373L75.753 50.5827L75.9931 56.5144C76.1841 61.1876 72.4469 65.0794 67.769 65.0794Z" fill="#DEF2FC"/>
<path d="M75.7524 50.5827H59.7861L59.8351 49.373C59.8504 49.0045 59.8902 48.6421 59.9545 48.2889H66.6814V41.8296C67.0361 41.7791 67.4001 41.7546 67.7685 41.7546C68.1783 41.7546 68.5821 41.7852 68.975 41.8464V48.2889H75.5842C75.6485 48.6421 75.6881 49.0045 75.7035 49.373L75.7524 50.5827Z" fill="#BCCED5"/>
<path d="M54.5845 65.0801H1.39695C1.02645 65.0801 0.671134 64.9329 0.409156 64.671C0.147178 64.409 0 64.0537 0 63.6832L0 43.6408C0 43.2704 0.147178 42.915 0.409156 42.6531C0.671134 42.3911 1.02645 42.2439 1.39695 42.2439H54.5845C54.955 42.2439 55.3103 42.3911 55.5723 42.6531C55.8342 42.915 55.9814 43.2704 55.9814 43.6408V63.6833C55.9814 64.4548 55.3559 65.0801 54.5845 65.0801Z" fill="#DEF2FC"/>
<path d="M6.40363 49.6872H6.20933C5.90517 49.6872 5.61347 49.5664 5.3984 49.3513C5.18333 49.1362 5.0625 48.8445 5.0625 48.5404C5.0625 48.2362 5.18333 47.9445 5.3984 47.7295C5.61347 47.5144 5.90517 47.3936 6.20933 47.3936H6.40363C7.03716 47.3936 7.55046 47.907 7.55046 48.5404C7.55046 49.1738 7.03716 49.6872 6.40363 49.6872ZM11.8249 49.6872H11.6306C11.3264 49.6872 11.0347 49.5664 10.8196 49.3513C10.6046 49.1362 10.4837 48.8445 10.4837 48.5404C10.4837 48.2362 10.6046 47.9445 10.8196 47.7295C11.0347 47.5144 11.3264 47.3936 11.6306 47.3936H11.8249C12.129 47.3936 12.4207 47.5144 12.6358 47.7295C12.8509 47.9445 12.9717 48.2362 12.9717 48.5404C12.9717 48.8445 12.8509 49.1362 12.6358 49.3513C12.4207 49.5664 12.129 49.6872 11.8249 49.6872ZM17.2458 49.6872H17.0515C16.7473 49.6872 16.4556 49.5664 16.2406 49.3513C16.0255 49.1362 15.9047 48.8445 15.9047 48.5404C15.9047 48.2362 16.0255 47.9445 16.2406 47.7295C16.4556 47.5144 16.7473 47.3936 17.0515 47.3936H17.2458C17.8793 47.3936 18.3926 47.907 18.3926 48.5404C18.3926 49.1738 17.8793 49.6872 17.2458 49.6872ZM22.6669 49.6872H22.4726C22.1684 49.6872 21.8767 49.5664 21.6617 49.3513C21.4466 49.1362 21.3258 48.8445 21.3258 48.5404C21.3258 48.2362 21.4466 47.9445 21.6617 47.7295C21.8767 47.5144 22.1684 47.3936 22.4726 47.3936H22.6669C23.3004 47.3936 23.8137 47.907 23.8137 48.5404C23.8137 49.1738 23.3004 49.6872 22.6669 49.6872ZM28.088 49.6872H27.8937C27.5895 49.6872 27.2978 49.5664 27.0827 49.3513C26.8677 49.1362 26.7468 48.8445 26.7468 48.5404C26.7468 48.2362 26.8677 47.9445 27.0827 47.7295C27.2978 47.5144 27.5895 47.3936 27.8937 47.3936H28.088C28.7215 47.3936 29.2348 47.907 29.2348 48.5404C29.2348 49.1738 28.7215 49.6872 28.088 49.6872ZM33.5091 49.6872H33.3148C33.0106 49.6872 32.7189 49.5664 32.5038 49.3513C32.2888 49.1362 32.1679 48.8445 32.1679 48.5404C32.1679 48.2362 32.2888 47.9445 32.5038 47.7295C32.7189 47.5144 33.0106 47.3936 33.3148 47.3936H33.5091C34.1426 47.3936 34.6559 47.907 34.6559 48.5404C34.6559 49.1738 34.1426 49.6872 33.5091 49.6872ZM38.9301 49.6872H38.7358C38.4317 49.6872 38.14 49.5664 37.9249 49.3513C37.7098 49.1362 37.589 48.8445 37.589 48.5404C37.589 48.2362 37.7098 47.9445 37.9249 47.7295C38.14 47.5144 38.4317 47.3936 38.7358 47.3936H38.9301C39.2343 47.3936 39.526 47.5144 39.7411 47.7295C39.9562 47.9445 40.077 48.2362 40.077 48.5404C40.077 48.8445 39.9562 49.1362 39.7411 49.3513C39.526 49.5664 39.2343 49.6872 38.9301 49.6872ZM44.3512 49.6872H44.1569C43.8528 49.6872 43.5611 49.5664 43.346 49.3513C43.1309 49.1362 43.0101 48.8445 43.0101 48.5404C43.0101 48.2362 43.1309 47.9445 43.346 47.7295C43.5611 47.5144 43.8528 47.3936 44.1569 47.3936H44.3512C44.9848 47.3936 45.4981 47.907 45.4981 48.5404C45.4981 49.1738 44.9848 49.6872 44.3512 49.6872ZM49.7723 49.6872H49.578C49.2739 49.6872 48.9822 49.5664 48.7671 49.3513C48.552 49.1362 48.4312 48.8445 48.4312 48.5404C48.4312 48.2362 48.552 47.9445 48.7671 47.7295C48.9822 47.5144 49.2739 47.3936 49.578 47.3936H49.7723C50.0765 47.3936 50.3682 47.5144 50.5833 47.7295C50.7983 47.9445 50.9191 48.2362 50.9191 48.5404C50.9191 48.8445 50.7983 49.1362 50.5833 49.3513C50.3682 49.5664 50.0765 49.6872 49.7723 49.6872ZM6.40363 54.5644H6.20933C5.90517 54.5644 5.61347 54.4436 5.3984 54.2285C5.18333 54.0135 5.0625 53.7218 5.0625 53.4176C5.0625 53.1134 5.18333 52.8217 5.3984 52.6067C5.61347 52.3916 5.90517 52.2708 6.20933 52.2708H6.40363C7.03716 52.2708 7.55046 52.7842 7.55046 53.4176C7.55046 54.051 7.03716 54.5644 6.40363 54.5644ZM11.8249 54.5644H11.6306C11.3264 54.5644 11.0347 54.4436 10.8196 54.2285C10.6046 54.0135 10.4837 53.7218 10.4837 53.4176C10.4837 53.1134 10.6046 52.8217 10.8196 52.6067C11.0347 52.3916 11.3264 52.2708 11.6306 52.2708H11.8249C12.129 52.2708 12.4207 52.3916 12.6358 52.6067C12.8509 52.8217 12.9717 53.1134 12.9717 53.4176C12.9717 53.7218 12.8509 54.0135 12.6358 54.2285C12.4207 54.4436 12.129 54.5644 11.8249 54.5644ZM17.2458 54.5644H17.0515C16.7473 54.5644 16.4556 54.4436 16.2406 54.2285C16.0255 54.0135 15.9047 53.7218 15.9047 53.4176C15.9047 53.1134 16.0255 52.8217 16.2406 52.6067C16.4556 52.3916 16.7473 52.2708 17.0515 52.2708H17.2458C17.8793 52.2708 18.3926 52.7842 18.3926 53.4176C18.3926 54.051 17.8793 54.5644 17.2458 54.5644ZM22.6669 54.5644H22.4726C22.1684 54.5644 21.8767 54.4436 21.6617 54.2285C21.4466 54.0135 21.3258 53.7218 21.3258 53.4176C21.3258 53.1134 21.4466 52.8217 21.6617 52.6067C21.8767 52.3916 22.1684 52.2708 22.4726 52.2708H22.6669C23.3004 52.2708 23.8137 52.7842 23.8137 53.4176C23.8137 54.051 23.3004 54.5644 22.6669 54.5644ZM28.088 54.5644H27.8937C27.5895 54.5644 27.2978 54.4436 27.0827 54.2285C26.8677 54.0135 26.7468 53.7218 26.7468 53.4176C26.7468 53.1134 26.8677 52.8217 27.0827 52.6067C27.2978 52.3916 27.5895 52.2708 27.8937 52.2708H28.088C28.7215 52.2708 29.2348 52.7842 29.2348 53.4176C29.2348 54.051 28.7215 54.5644 28.088 54.5644ZM33.5091 54.5644H33.3148C33.0106 54.5644 32.7189 54.4436 32.5038 54.2285C32.2888 54.0135 32.1679 53.7218 32.1679 53.4176C32.1679 53.1134 32.2888 52.8217 32.5038 52.6067C32.7189 52.3916 33.0106 52.2708 33.3148 52.2708H33.5091C34.1426 52.2708 34.6559 52.7842 34.6559 53.4176C34.6559 54.051 34.1426 54.5644 33.5091 54.5644ZM38.9301 54.5644H38.7358C38.4317 54.5644 38.14 54.4436 37.9249 54.2285C37.7098 54.0135 37.589 53.7218 37.589 53.4176C37.589 53.1134 37.7098 52.8217 37.9249 52.6067C38.14 52.3916 38.4317 52.2708 38.7358 52.2708H38.9301C39.2343 52.2708 39.526 52.3916 39.7411 52.6067C39.9562 52.8217 40.077 53.1134 40.077 53.4176C40.077 53.7218 39.9562 54.0135 39.7411 54.2285C39.526 54.4436 39.2343 54.5644 38.9301 54.5644ZM44.3512 54.5644H44.1569C43.8528 54.5644 43.5611 54.4436 43.346 54.2285C43.1309 54.0135 43.0101 53.7218 43.0101 53.4176C43.0101 53.1134 43.1309 52.8217 43.346 52.6067C43.5611 52.3916 43.8528 52.2708 44.1569 52.2708H44.3512C44.9848 52.2708 45.4981 52.7842 45.4981 53.4176C45.4981 54.051 44.9848 54.5644 44.3512 54.5644ZM49.7723 54.5644H49.578C49.2739 54.5644 48.9822 54.4436 48.7671 54.2285C48.552 54.0135 48.4312 53.7218 48.4312 53.4176C48.4312 53.1134 48.552 52.8217 48.7671 52.6067C48.9822 52.3916 49.2739 52.2708 49.578 52.2708H49.7723C50.0765 52.2708 50.3682 52.3916 50.5833 52.6067C50.7983 52.8217 50.9191 53.1134 50.9191 53.4176C50.9191 53.7218 50.7983 54.0135 50.5833 54.2285C50.3682 54.4436 50.0765 54.5644 49.7723 54.5644ZM6.40363 59.4416H6.20933C5.90517 59.4416 5.61347 59.3208 5.3984 59.1057C5.18333 58.8907 5.0625 58.599 5.0625 58.2948C5.0625 57.9906 5.18333 57.6989 5.3984 57.4839C5.61347 57.2688 5.90517 57.148 6.20933 57.148H6.40363C7.03716 57.148 7.55046 57.6614 7.55046 58.2948C7.55046 58.9282 7.03716 59.4416 6.40363 59.4416ZM11.8249 59.4416H11.6306C11.3264 59.4416 11.0347 59.3208 10.8196 59.1057C10.6046 58.8907 10.4837 58.599 10.4837 58.2948C10.4837 57.9906 10.6046 57.6989 10.8196 57.4839C11.0347 57.2688 11.3264 57.148 11.6306 57.148H11.8249C12.129 57.148 12.4207 57.2688 12.6358 57.4839C12.8509 57.6989 12.9717 57.9906 12.9717 58.2948C12.9717 58.599 12.8509 58.8907 12.6358 59.1057C12.4207 59.3208 12.129 59.4416 11.8249 59.4416ZM38.9301 59.4416H17.0515C16.7473 59.4416 16.4556 59.3208 16.2406 59.1057C16.0255 58.8907 15.9047 58.599 15.9047 58.2948C15.9047 57.9906 16.0255 57.6989 16.2406 57.4839C16.4556 57.2688 16.7473 57.148 17.0515 57.148H38.9301C39.2343 57.148 39.526 57.2688 39.7411 57.4839C39.9562 57.6989 40.077 57.9906 40.077 58.2948C40.077 58.599 39.9562 58.8907 39.7411 59.1057C39.526 59.3208 39.2343 59.4416 38.9301 59.4416ZM44.3512 59.4416H44.1569C43.8528 59.4416 43.5611 59.3208 43.346 59.1057C43.1309 58.8907 43.0101 58.599 43.0101 58.2948C43.0101 57.9906 43.1309 57.6989 43.346 57.4839C43.5611 57.2688 43.8528 57.148 44.1569 57.148H44.3512C44.9848 57.148 45.4981 57.6614 45.4981 58.2948C45.4981 58.9282 44.9848 59.4416 44.3512 59.4416ZM49.7723 59.4416H49.578C49.2739 59.4416 48.9822 59.3208 48.7671 59.1057C48.552 58.8907 48.4312 58.599 48.4312 58.2948C48.4312 57.9906 48.552 57.6989 48.7671 57.4839C48.9822 57.2688 49.2739 57.148 49.578 57.148H49.7723C50.0765 57.148 50.3682 57.2688 50.5833 57.4839C50.7983 57.6989 50.9191 57.9906 50.9191 58.2948C50.9191 58.599 50.7983 58.8907 50.5833 59.1057C50.3682 59.3208 50.0765 59.4416 49.7723 59.4416Z" fill="#BCCED5"/>
<path d="M50.0106 32.1438V25.4218C50.0106 25.3022 49.963 25.1874 49.8784 25.1028C49.7938 25.0182 49.6791 24.9707 49.5595 24.9707H42.8375C42.4356 24.9707 42.2344 25.4565 42.5185 25.7406L43.7244 26.9466L40.5462 30.1248C40.5043 30.1666 40.4711 30.2163 40.4484 30.2711C40.4257 30.3258 40.4141 30.3844 40.4141 30.4437C40.4141 30.5029 40.4257 30.5615 40.4484 30.6163C40.4711 30.671 40.5043 30.7207 40.5462 30.7626L44.0696 34.286C44.1115 34.3279 44.1612 34.3612 44.216 34.3838C44.2707 34.4065 44.3293 34.4182 44.3886 34.4182C44.4478 34.4182 44.5065 34.4065 44.5612 34.3838C44.6159 34.3612 44.6656 34.3279 44.7075 34.286L47.8857 31.1079L49.2405 32.4626C49.5247 32.7469 50.0106 32.5456 50.0106 32.1438Z" fill="#FCB043"/>
</svg>
