<svg width="34" height="34" viewBox="0 0 34 34" fill="none" xmlns="http://www.w3.org/2000/svg">
<path d="M17 0C7.61115 0 0 7.61115 0 17.0001C0 26.3888 7.61115 34 16.9999 34C26.3887 34 33.9999 26.3888 33.9999 17.0001C34 7.61115 26.3888 0 17 0Z" fill="#62B263"/>
<path d="M3.81125 17.0001C3.81125 8.25556 10.414 1.0544 18.9056 0.10698C18.2729 0.0360047 17.6367 0.000289325 17 0C7.61115 0 0 7.61115 0 17.0001C0 26.3888 7.61115 34 16.9999 34C17.6443 34 18.2799 33.9629 18.9056 33.893C10.414 32.9457 3.81125 25.7445 3.81125 17.0001Z" fill="#4A9A4B"/>
<path d="M25.978 19.8456H19.2638V23.7812L7.62402 16.9998L19.2638 10.2183V14.1538H25.978V19.8456Z" fill="white"/>
</svg>
