<svg width="11" height="20" viewBox="0 0 11 20" fill="none" xmlns="http://www.w3.org/2000/svg">
<g style="mix-blend-mode:screen" opacity="0.9">
<path d="M3.65026 13.0365C4.67965 13.5247 5.71014 13.436 6.61661 12.781C7.20541 12.4373 7.82946 11.5656 7.32081 10.3331C6.45578 8.39306 4.49704 7.7409 3.3817 7.2387C2.55866 6.68404 1.71105 6.53137 0.91972 6.79522C0.10889 7.34308 0.327146 8.8551 0.972121 10.1003C1.73639 11.5387 2.66971 12.5619 3.65026 13.0365Z" fill="white" fill-opacity="0.8"/>
</g>
<g style="mix-blend-mode:screen" opacity="0.9">
<path d="M8.85215 11.4155C8.79747 11.3624 8.74742 11.2885 8.70543 11.1989C8.66344 11.1093 8.63048 11.006 8.60887 10.8963C8.58725 10.7865 8.57748 10.6729 8.58019 10.5631C8.5829 10.4533 8.59805 10.35 8.6246 10.2602C8.83929 9.51389 9.50428 9.39178 9.92991 9.61527C10.0405 9.64728 10.1492 9.74256 10.2418 9.88873C10.3345 10.0349 10.4068 10.2253 10.4495 10.4351C10.4922 10.645 10.5033 10.8646 10.4813 11.0657C10.4593 11.2667 10.4053 11.4399 10.3262 11.5628C10.1183 11.7876 9.86751 11.8644 9.60984 11.7822C9.3578 11.8336 9.08933 11.7037 8.85215 11.4155C8.86915 11.4375 8.85215 11.4155 8.85215 11.4155Z" fill="white" fill-opacity="0.8"/>
</g>
</svg>
