<svg width="16" height="16" viewBox="0 0 16 16" fill="none" xmlns="http://www.w3.org/2000/svg">
<path fill-rule="evenodd" clip-rule="evenodd" d="M11.1202 4.17739C11.1845 4.23689 11.2365 4.30849 11.2731 4.38809C11.3097 4.46768 11.3303 4.55371 11.3336 4.64126C11.337 4.72881 11.323 4.81616 11.2926 4.89831C11.2621 4.98047 11.2158 5.05582 11.1562 5.12006L5.15156 11.6021C5.03723 11.7274 4.89803 11.8275 4.74283 11.896C4.58764 11.9645 4.41986 11.9999 4.25022 11.9999C4.08058 11.9999 3.91281 11.9645 3.75761 11.896C3.60242 11.8275 3.46321 11.7274 3.34889 11.6021L0.844223 8.89872C0.723992 8.76894 0.660239 8.59672 0.66699 8.41993C0.673742 8.24315 0.750444 8.07629 0.880223 7.95606C1.01 7.83582 1.18223 7.77207 1.35901 7.77882C1.5358 7.78557 1.70266 7.86228 1.82289 7.99206L4.25022 10.6134L10.1776 4.21339C10.2371 4.14908 10.3087 4.09714 10.3883 4.06052C10.4678 4.02391 10.5539 4.00334 10.6414 4C10.729 3.99665 10.8163 4.0106 10.8985 4.04104C10.9806 4.07148 11.056 4.11781 11.1202 4.17739ZM14.4536 4.17739C14.5179 4.23689 14.5698 4.30849 14.6064 4.38809C14.643 4.46768 14.6636 4.55371 14.6669 4.64126C14.6703 4.72881 14.6563 4.81616 14.6259 4.89831C14.5955 4.98047 14.5491 5.05582 14.4896 5.12006L8.48556 11.6021C8.36532 11.7318 8.19846 11.8085 8.02168 11.8153C7.84489 11.822 7.67267 11.7583 7.54289 11.6381C7.41311 11.5178 7.33641 11.351 7.32966 11.1742C7.32291 10.9974 7.38666 10.8252 7.50689 10.6954L13.5116 4.21339C13.6317 4.08372 13.7984 4.00708 13.9751 4.00033C14.1518 3.99358 14.3239 4.05727 14.4536 4.17739Z" fill="#1F1F1F" fill-opacity="0.18"/>
</svg>
