<svg width="76" height="76" viewBox="0 0 76 76" fill="none" xmlns="http://www.w3.org/2000/svg">
<g clip-path="url(#clip0_329_1754)">
<path d="M75.9912 27.5005V68.7046C75.9912 70.818 75.092 72.721 73.6557 74.0535C72.3529 75.2612 70.6098 75.9995 68.6947 75.9995H7.29524C5.37996 75.9995 3.63701 75.2612 2.33596 74.0547C0.899233 72.721 0 70.818 0 68.7046V27.5005H75.9912Z" fill="#FEC970"/>
<path d="M75.9911 27.5006L46.7821 3.17941C41.6911 -1.0598 34.3 -1.0598 29.209 3.17941L0 27.5006H0.000593749L8.60936 34.6684L29.209 51.8204C34.3006 56.0608 41.6917 56.0608 46.7815 51.8204L67.3831 34.6684L75.9917 27.5004" fill="#FBA028"/>
<path d="M67.3832 12.3223V34.6686L46.7816 51.8205C41.6918 56.0609 34.3006 56.0609 29.2091 51.8205L8.60938 34.6686V12.3223C8.60938 7.66333 12.3871 3.88574 17.0472 3.88574H58.9466C63.6067 3.88574 67.3831 7.66333 67.3831 12.3223H67.3832Z" fill="#BFDADD"/>
<path d="M67.3832 12.3223V29.5503L46.7816 46.7031C41.6918 50.9428 34.3006 50.9428 29.2091 46.7031L8.60938 29.5503V12.3223C8.60938 7.66333 12.3871 3.88574 17.0472 3.88574H58.9466C63.6067 3.88574 67.3831 7.66333 67.3831 12.3223H67.3832Z" fill="#E4F5F7"/>
<path d="M55.0555 33.3842H20.9376C20.7848 33.3842 20.6336 33.3542 20.4924 33.2957C20.3513 33.2373 20.2231 33.1516 20.1151 33.0436C20.007 32.9356 19.9214 32.8073 19.8629 32.6662C19.8045 32.5251 19.7744 32.3738 19.7744 32.221C19.7745 31.9126 19.8971 31.6168 20.1152 31.3987C20.3333 31.1805 20.6291 31.058 20.9376 31.0579H55.0555C55.3639 31.058 55.6598 31.1805 55.8779 31.3987C56.096 31.6168 56.2186 31.9126 56.2186 32.221C56.2187 32.3738 56.1886 32.5251 56.1301 32.6662C56.0717 32.8073 55.986 32.9356 55.878 33.0436C55.77 33.1516 55.6418 33.2373 55.5006 33.2957C55.3595 33.3542 55.2082 33.3842 55.0555 33.3842ZM55.0555 40.1399H20.9376C20.2951 40.1399 19.7744 39.6192 19.7744 38.9767C19.7744 38.3343 20.2951 37.8136 20.9376 37.8136H55.0555C55.6981 37.8136 56.2186 38.3343 56.2186 38.9767C56.2186 39.6192 55.6981 40.1399 55.0555 40.1399ZM55.0555 19.8742H20.9376C20.2951 19.8742 19.7744 19.3534 19.7744 18.711C19.7744 18.0686 20.2951 17.5479 20.9376 17.5479H55.0555C55.6981 17.5479 56.2186 18.0686 56.2186 18.711C56.2186 19.3534 55.6981 19.8742 55.0555 19.8742ZM55.0555 26.6293H20.9376C20.2951 26.6293 19.7744 26.1085 19.7744 25.4661C19.7744 24.8237 20.2951 24.3029 20.9376 24.3029H55.0555C55.6981 24.3029 56.2186 24.8235 56.2186 25.4661C56.2186 26.1087 55.6981 26.6293 55.0555 26.6293Z" fill="#4B5051"/>
<path d="M74.4406 16.284C74.4406 25.2348 67.1845 32.491 58.2342 32.491C49.2834 32.491 42.0273 25.235 42.0273 16.284C42.0273 7.33371 49.2834 0.0776367 58.2342 0.0776367C67.1845 0.0776367 74.4406 7.33371 74.4406 16.284Z" fill="#26BF64"/>
<path d="M74.4412 16.2842C74.4412 24.7659 67.9279 31.7247 59.6311 32.432C51.3324 31.7247 44.8203 24.7661 44.8203 16.2842C44.8203 7.80413 51.3324 0.845531 59.6311 0.138672C67.9279 0.845531 74.4412 7.80413 74.4412 16.2842Z" fill="#49D685"/>
<path d="M58.1565 26.2551C57.9869 26.2549 57.8193 26.2177 57.6656 26.146C57.5118 26.0743 57.3756 25.9698 57.2665 25.8399L50.5212 17.8075C50.1086 17.3151 50.1722 16.5817 50.6639 16.1687C50.7808 16.0705 50.916 15.9962 51.0617 15.9502C51.2073 15.9042 51.3606 15.8874 51.5128 15.9006C51.665 15.9139 51.8131 15.957 51.9486 16.0275C52.0841 16.098 52.2044 16.1945 52.3026 16.3115L57.8323 22.8967L64.0667 8.34979C64.1269 8.20939 64.2141 8.08221 64.3235 7.97554C64.4328 7.86887 64.5621 7.78478 64.7039 7.72808C64.8458 7.67139 64.9974 7.64319 65.1502 7.64511C65.3029 7.64703 65.4538 7.67902 65.5941 7.73927C65.7346 7.79941 65.8617 7.88663 65.9684 7.99596C66.0751 8.10528 66.1592 8.23455 66.2159 8.37639C66.2726 8.51822 66.3008 8.66984 66.2989 8.82258C66.2969 8.97532 66.2649 9.12618 66.2047 9.26654L59.2257 25.55C59.1477 25.7327 59.0241 25.8922 58.8667 26.0135C58.7093 26.1347 58.5235 26.2135 58.3269 26.2423C58.2705 26.2509 58.2136 26.2551 58.1565 26.2551Z" fill="white"/>
<path d="M68.9091 71.2654C68.6374 71.2656 68.3743 71.1703 68.1657 70.9962L49.6184 55.5541C49.3816 55.3566 49.2328 55.0732 49.2047 54.7661C49.1767 54.4589 49.2717 54.1532 49.469 53.9161C49.8801 53.4226 50.6134 53.3553 51.107 53.7665L69.6535 69.208C69.771 69.3057 69.868 69.4255 69.9391 69.5607C70.0103 69.6959 70.0541 69.8438 70.068 69.9959C70.082 70.148 70.0658 70.3014 70.0204 70.4473C69.9751 70.5931 69.9015 70.7286 69.8037 70.846C69.6946 70.9774 69.5579 71.0831 69.4032 71.1556C69.2486 71.2281 69.0799 71.2656 68.9091 71.2654ZM26.3376 55.5849L11.0955 68.6039C8.99599 70.3979 9.93471 73.8264 12.6559 74.2996C17.033 75.0603 22.1477 75.9138 23.523 76.0002H7.29653C5.3808 76.0002 3.63784 75.262 2.33664 74.0554C0.90036 72.7218 0.000976562 70.8189 0.000976562 68.7053V27.5005H5.50816V55.5883C5.561 61.266 12.2169 64.3131 16.5813 60.681L24.8856 53.7659C25.3884 53.3489 26.1405 53.4249 26.5469 53.9445C26.9394 54.4449 26.8259 55.1784 26.3376 55.5847V55.5849Z" fill="#FBA028"/>
</g>
<defs>
<clipPath id="clip0_329_1754">
<rect width="76" height="76" fill="white"/>
</clipPath>
</defs>
</svg>
