<svg width="308" height="773" viewBox="0 0 308 773" fill="none" xmlns="http://www.w3.org/2000/svg">
<path d="M116.186 107C116.186 107 245.22 163.429 282.973 306.654C282.973 306.654 410.743 613.671 77 772" stroke="#D6D6D6" stroke-width="2" stroke-linecap="round" stroke-linejoin="round" stroke-dasharray="8 8"/>
<path d="M169.367 123.498C185.647 136.568 191.127 156.778 191.127 156.778C191.127 156.778 170.216 155.778 153.926 142.778C137.636 129.778 127.926 114.778 132.166 109.508C136.406 104.238 153.087 110.428 169.367 123.498Z" fill="#DE5642"/>
<path d="M161.937 125.129C168.986 130.96 174.635 138.301 178.467 146.609C169.526 144.665 161.133 140.742 153.907 135.129C142.567 126.019 135.167 116.399 137.377 113.639C139.587 110.879 150.597 116.019 161.937 125.129Z" fill="#EBB32A"/>
<path d="M132.197 86.1384C132.197 86.1384 146.117 70.3283 164.527 85.5783C164.527 85.5783 165.307 61.6483 138.887 51.7483C127.117 47.3383 109.287 51.6684 99.7969 60.1384L132.197 86.1384Z" fill="#C00143"/>
<path d="M108.797 115.239C108.797 115.239 96.3769 132.239 115.247 146.929C115.247 146.929 92.0568 152.869 76.6768 129.219C69.8168 118.679 70.1868 100.339 76.4068 89.2188L108.797 115.239Z" fill="#C00143"/>
<path d="M28.6861 0.198704C6.01612 -0.961296 1.21615 3.96871 1.21615 3.96871C1.21615 3.96871 -2.57386 9.70871 3.33614 31.6687C9.56614 54.8687 25.6062 68.3587 36.7262 77.5187C51.1262 89.3787 82.6661 107.459 109.266 115.129L121.116 100.369L132.966 85.5987C119.886 61.1487 95.0361 34.8787 80.4361 23.2687C69.1961 14.2987 52.6261 1.4287 28.6861 0.198704Z" fill="url(#paint0_linear_250_10967)"/>
<path d="M1.19662 3.96831C1.19662 3.96831 -2.59339 9.70831 3.31661 31.6683C5.09059 38.2788 7.8121 44.5976 11.3966 50.4283L48.6666 4.16831C42.2267 1.88126 35.4908 0.534081 28.6666 0.168308C6.01659 -0.961692 1.19662 3.96831 1.19662 3.96831Z" fill="#C00143"/>
<path d="M140.044 88.1238L113.254 121.503L119.15 126.235L145.94 92.8558L140.044 88.1238Z" fill="url(#paint1_linear_250_10967)"/>
<path d="M147.584 90.2879L116.995 128.401L122.891 133.133L153.479 95.0199L147.584 90.2879Z" fill="url(#paint2_linear_250_10967)"/>
<path d="M132.985 85.6093L109.282 115.144L114.803 119.575L138.507 90.0409L132.985 85.6093Z" fill="url(#paint3_linear_250_10967)"/>
<path d="M112.047 92.3788C112.047 92.3788 109.427 94.7188 121.627 105.179C133.827 115.639 145.767 124.039 147.127 122.449C148.487 120.859 138.347 110.329 126.127 99.8788C113.907 89.4288 112.047 92.3788 112.047 92.3788Z" fill="#C00143"/>
<path d="M31.5022 26.5996L30.8262 27.4419L111.934 92.5379L112.61 91.6956L31.5022 26.5996Z" fill="url(#paint4_linear_250_10967)"/>
<path d="M85.1391 58.5538C88.1351 47.1095 81.2863 35.4033 69.842 32.4074C58.3977 29.4114 46.6916 36.2602 43.6957 47.7045C40.6997 59.1488 47.5484 70.855 58.9927 73.8509C70.437 76.8469 82.1432 69.9981 85.1391 58.5538Z" fill="url(#paint5_linear_250_10967)"/>
<path d="M75.2567 39.6887C77.9184 41.8256 79.8866 44.7037 80.9127 47.9592C81.9388 51.2147 81.9765 54.7013 81.0212 57.9782C80.0659 61.2552 78.1605 64.1753 75.5458 66.3694C72.931 68.5635 69.7244 69.9331 66.3314 70.3049C62.9384 70.6768 59.5113 70.0343 56.4834 68.4586C53.4555 66.883 50.9628 64.4449 49.3204 61.4526C47.678 58.4604 46.9596 55.0484 47.2562 51.648C47.5528 48.2475 48.8511 45.0114 50.9867 42.3487C52.4053 40.5799 54.1584 39.108 56.146 38.0171C58.1336 36.9261 60.3167 36.2375 62.5705 35.9904C64.8244 35.7434 67.1047 35.9429 69.2815 36.5774C71.4582 37.212 73.4887 38.2692 75.2567 39.6887Z" fill="url(#paint6_linear_250_10967)"/>
<mask id="mask0_250_10967" style="mask-type:luminance" maskUnits="userSpaceOnUse" x="46" y="35" width="36" height="35">
<path d="M65.7348 69.9051C75.1823 69.027 82.1293 60.6565 81.2512 51.2089C80.3731 41.7614 72.0025 34.8145 62.5549 35.6926C53.1074 36.5706 46.1606 44.9412 47.0386 54.3888C47.9167 63.8363 56.2872 70.7832 65.7348 69.9051Z" fill="white"/>
</mask>
<g mask="url(#mask0_250_10967)">
<path d="M49.5203 38.0788L69.1157 74.8086L75.08 71.6266L55.4846 34.8969L49.5203 38.0788Z" fill="url(#paint7_linear_250_10967)"/>
<path d="M58.7723 33.5888L78.3677 70.3186L81.3675 68.7182L61.7721 31.9884L58.7723 33.5888Z" fill="url(#paint8_linear_250_10967)"/>
</g>
<defs>
<linearGradient id="paint0_linear_250_10967" x1="38.7093" y1="68.5179" x2="124.946" y2="21.1374" gradientUnits="userSpaceOnUse">
<stop stop-color="#EFF4FA"/>
<stop offset="1" stop-color="#CEDAE9"/>
</linearGradient>
<linearGradient id="paint1_linear_250_10967" x1="167.054" y1="80.2717" x2="100.802" y2="127.896" gradientUnits="userSpaceOnUse">
<stop stop-color="#5F6265"/>
<stop offset="1" stop-color="#A2A2A2"/>
</linearGradient>
<linearGradient id="paint2_linear_250_10967" x1="177.761" y1="81.1571" x2="102.555" y2="135.225" gradientUnits="userSpaceOnUse">
<stop stop-color="#4B4D4F"/>
<stop offset="1" stop-color="#A2A2A2"/>
</linearGradient>
<linearGradient id="paint3_linear_250_10967" x1="157.12" y1="78.7194" x2="98.3466" y2="120.972" gradientUnits="userSpaceOnUse">
<stop stop-color="#787B7F"/>
<stop offset="1" stop-color="#A2A2A2"/>
</linearGradient>
<linearGradient id="paint4_linear_250_10967" x1="71.3754" y1="60.0118" x2="72.0515" y2="59.1694" gradientUnits="userSpaceOnUse">
<stop stop-color="#C6C6C6"/>
<stop offset="1" stop-color="#A2A2A2"/>
</linearGradient>
<linearGradient id="paint5_linear_250_10967" x1="51.0039" y1="69.9245" x2="77.8185" y2="36.5142" gradientUnits="userSpaceOnUse">
<stop stop-color="#C6C6C6"/>
<stop offset="1" stop-color="#A2A2A2"/>
</linearGradient>
<linearGradient id="paint6_linear_250_10967" x1="56.8472" y1="72.217" x2="78.6011" y2="45.2836" gradientUnits="userSpaceOnUse">
<stop stop-color="#BEE4FE"/>
<stop offset="1" stop-color="#93C8EE"/>
</linearGradient>
<linearGradient id="paint7_linear_250_10967" x1="48.8307" y1="37.4334" x2="75.4619" y2="71.8143" gradientUnits="userSpaceOnUse">
<stop stop-color="#F9FBFC"/>
<stop offset="1" stop-color="#F9FBFC" stop-opacity="0"/>
</linearGradient>
<linearGradient id="paint8_linear_250_10967" x1="55.4764" y1="32.2854" x2="82.1076" y2="66.6664" gradientUnits="userSpaceOnUse">
<stop stop-color="#F9FBFC"/>
<stop offset="1" stop-color="#F9FBFC" stop-opacity="0"/>
</linearGradient>
</defs>
</svg>
