<svg width="694" height="52" viewBox="0 0 694 52" fill="none" xmlns="http://www.w3.org/2000/svg">
<path d="M23.4887 22.53H15.3379V43.3341H23.4887V22.53Z" fill="#E0940D"/>
<path d="M13.9011 51.3293C15.8142 51.337 17.6866 50.7767 19.281 49.7194C20.8754 48.6621 22.1202 47.1554 22.8576 45.3902C23.5951 43.6249 23.792 41.6805 23.4235 39.8032C23.055 37.9259 22.1376 36.2002 20.7876 34.8447C19.4375 33.4892 17.7155 32.5649 15.8397 32.1888C13.9639 31.8127 12.0187 32.0019 10.2505 32.7322C8.48227 33.4625 6.97058 34.7012 5.9069 36.2914C4.84322 37.8815 4.27541 39.7516 4.27539 41.6647C4.28552 44.2181 5.30168 46.6646 7.10357 48.4737C8.90545 50.2829 11.3478 51.3089 13.9011 51.3293Z" fill="url(#paint0_linear_219_3552)"/>
<path d="M3.88779 38.7929C1.23633 34.1537 -0.105212 28.8814 0.00644222 23.5392C0.00644222 11.1965 5.47914 -0.525205 15.7259 0.0181843C23.4886 0.406319 29.3882 9.72156 29.3882 22.5688H25.1576C25.1576 12.6326 20.8105 6.42241 15.6871 6.42241C10.5637 6.42241 5.6344 12.3609 5.6344 21.9478C5.59501 26.0608 6.51182 30.1267 8.31253 33.8247C8.88425 35.3924 9.87335 36.7741 11.173 37.8207C12.4727 38.8673 14.0336 39.5389 15.6871 39.7632C16.6511 39.7056 17.5939 39.4563 18.4603 39.0298C19.3268 38.6032 20.0994 38.008 20.7328 37.2791L21.5867 35.8042C22.6148 37.121 23.2715 38.689 23.4886 40.3454C22.5225 41.8488 21.1881 43.0803 19.612 43.9226C18.0359 44.765 16.2706 45.1904 14.4839 45.1583C12.3207 45.092 10.2108 44.472 8.35564 43.3575C6.5005 42.2431 4.96221 40.6715 3.88779 38.7929Z" fill="#004169"/>
<path d="M11.1854 1.84205C11.1854 1.84205 3.4227 3.23934 1.1327 17.3674C-1.1573 31.4956 5.63507 41.6259 11.3407 42.3245C17.0462 43.0232 2.52999 41.0825 4.58711 18.0273C4.58711 18.0273 5.98439 4.40374 15.843 4.17086C24.1879 4.09323 16.1923 -0.758453 11.1854 1.84205Z" fill="url(#paint1_radial_219_3552)"/>
<path d="M1.90841 15.3881C2.59346 11.0215 4.77507 7.02873 8.07975 4.09342C13.1643 0.56139 4.19841 5.7624 2.41299 17.3676C2.25773 17.3676 1.17095 21.6759 1.90841 15.3881Z" fill="white"/>
<path d="M26.205 21.5982C26.205 21.5982 26.7484 10.2647 19.7231 6.65503C19.7231 6.65503 27.253 7.04317 28.1845 20.9384V21.7147L26.205 21.5982Z" fill="url(#paint2_radial_219_3552)"/>
<path d="M7.88428 37.9005C9.20212 39.5838 11.0408 40.7826 13.1127 41.3093C15.1845 41.836 17.3725 41.661 19.3343 40.8116C26.0878 37.7065 14.1333 51.757 5.28378 39.7636C4.10816 38.062 3.3502 36.1073 3.0714 34.058C2.7609 31.3022 5.28378 35.4165 7.88428 37.9005Z" fill="url(#paint3_radial_219_3552)"/>
<path d="M70.9575 22.53H62.8066V43.3341H70.9575V22.53Z" fill="#E0940D"/>
<path d="M61.4087 51.3294C63.3202 51.3294 65.1887 50.7625 66.778 49.7006C68.3674 48.6386 69.6061 47.1292 70.3376 45.3633C71.0691 43.5973 71.2605 41.6541 70.8876 39.7793C70.5146 37.9046 69.5942 36.1825 68.2426 34.8309C66.891 33.4793 65.1689 32.5589 63.2942 32.186C61.4194 31.813 59.4762 32.0044 57.7102 32.7359C55.9443 33.4674 54.4349 34.7061 53.3729 36.2955C52.311 37.8848 51.7441 39.7533 51.7441 41.6648C51.7441 42.934 51.9941 44.1907 52.4798 45.3633C52.9655 46.5358 53.6774 47.6012 54.5748 48.4987C55.4723 49.3961 56.5377 50.108 57.7102 50.5937C58.8828 51.0794 60.1395 51.3294 61.4087 51.3294Z" fill="url(#paint4_linear_219_3552)"/>
<path d="M51.3567 38.7929C48.6886 34.1604 47.3459 28.8834 47.4753 23.5392C47.4753 11.1965 52.948 -0.525205 63.0007 0.0181843C70.7634 0.406319 76.6631 9.72156 76.6631 22.5688H72.6265C72.6265 12.6326 68.2794 6.42241 63.1172 6.42241C57.955 6.42241 53.0645 12.3609 53.0645 21.9478C53.0251 26.0608 53.9419 30.1267 55.7426 33.8247C56.3217 35.3879 57.3129 36.7652 58.6112 37.8106C59.9095 38.8561 61.4665 39.5308 63.1172 39.7632C64.083 39.7145 65.0287 39.469 65.8964 39.0418C66.764 38.6147 67.5353 38.0149 68.1629 37.2791L69.0556 35.8042C70.0571 37.1324 70.6988 38.6966 70.9187 40.3454C69.9526 41.8488 68.6182 43.0803 67.0421 43.9226C65.466 44.765 63.7007 45.1904 61.914 45.1583C59.755 45.0966 57.6485 44.4781 55.7989 43.3629C53.9492 42.2476 52.419 40.6734 51.3567 38.7929Z" fill="#004169"/>
<path d="M58.614 1.84205C58.614 1.84205 50.8513 3.23934 48.5613 17.3674C46.2713 31.4956 53.0637 41.6259 58.8081 42.3245C64.5525 43.0232 49.9586 41.0825 52.0545 18.0273C52.0545 18.0273 53.413 4.40374 63.3104 4.17086C71.6165 4.09323 63.6598 -0.758453 58.614 1.84205Z" fill="url(#paint5_radial_219_3552)"/>
<path d="M49.3384 15.3881C50.0508 11.0308 52.2277 7.0467 55.5097 4.09342C60.6331 0.56139 51.6284 5.7624 49.843 17.3676C49.843 17.3676 48.6009 21.6759 49.3384 15.3881Z" fill="white"/>
<path d="M73.6361 21.5982C73.6361 21.5982 74.1795 10.2647 67.1543 6.65503C67.1543 6.65503 74.6841 7.04317 75.6156 20.9384V21.7147L73.6361 21.5982Z" fill="url(#paint6_radial_219_3552)"/>
<path d="M55.3542 37.9005C56.6656 39.5806 58.4975 40.7779 60.5626 41.3047C62.6278 41.8316 64.8094 41.6581 66.7653 40.8116C73.5189 37.7065 61.5643 51.757 52.7149 39.7636C51.5606 38.0545 50.8168 36.1019 50.5413 34.058C50.192 31.3022 52.7149 35.4165 55.3542 37.9005Z" fill="url(#paint7_radial_219_3552)"/>
<path d="M118.387 22.53H110.236V43.3341H118.387V22.53Z" fill="#E0940D"/>
<path d="M108.839 51.3296C110.755 51.3527 112.635 50.8056 114.24 49.7578C115.844 48.7099 117.101 47.2087 117.851 45.4449C118.6 43.6811 118.808 41.7344 118.448 39.852C118.089 37.9697 117.178 36.2367 115.831 34.8734C114.484 33.5102 112.762 32.5781 110.884 32.1956C109.006 31.8132 107.057 31.9977 105.285 32.7256C103.512 33.4535 101.995 34.6921 100.928 36.2838C99.861 37.8756 99.2912 39.7487 99.291 41.6651C99.3009 44.2052 100.306 46.6401 102.092 48.4471C103.877 50.2541 106.299 51.289 108.839 51.3296Z" fill="url(#paint8_linear_219_3552)"/>
<path d="M98.7861 38.7929C96.1162 34.1612 94.7734 28.8837 94.9048 23.5392C94.9048 11.1965 100.339 -0.525205 110.43 0.0181843C118.193 0.406319 124.054 9.72156 124.054 22.5688H120.056C120.056 12.6326 115.709 6.42241 110.585 6.42241C105.462 6.42241 100.533 12.3609 100.533 21.9478C100.469 26.0839 101.373 30.1775 103.172 33.9024C103.74 35.4723 104.728 36.8563 106.028 37.9034C107.329 38.9506 108.892 39.6207 110.547 39.8408C111.511 39.7833 112.453 39.5339 113.32 39.1074C114.186 38.6808 114.959 38.0857 115.592 37.3568L116.446 35.8819C117.479 37.1918 118.125 38.765 118.309 40.423C117.355 41.9286 116.028 43.1626 114.458 44.0057C112.887 44.8488 111.126 45.2725 109.343 45.2359C107.179 45.1551 105.072 44.5203 103.224 43.3922C101.375 42.2641 99.8475 40.6805 98.7861 38.7929Z" fill="#004169"/>
<path d="M106.083 1.84205C106.083 1.84205 98.3202 3.23934 96.0302 17.3674C93.7402 31.4956 100.533 41.6259 106.238 42.3245C111.944 43.0232 97.4274 41.0825 99.4846 18.0273C99.4846 18.0273 100.882 4.40374 110.74 4.17086C119.085 4.09323 110.935 -0.758453 106.083 1.84205Z" fill="url(#paint9_radial_219_3552)"/>
<path d="M96.8068 15.3881C97.5434 10.995 99.7956 6.9987 103.172 4.09342C108.257 0.56139 99.2909 5.7624 97.5055 17.3676C97.3114 17.3676 96.0694 21.6759 96.8068 15.3881Z" fill="white"/>
<path d="M121.105 21.5982C121.105 21.5982 121.609 10.2647 114.623 6.65503C114.623 6.65503 122.153 7.04317 123.046 20.9384V21.7147L121.105 21.5982Z" fill="url(#paint10_radial_219_3552)"/>
<path d="M102.784 37.9005C104.112 39.6272 105.985 40.8543 108.099 41.3827C110.213 41.9111 112.443 41.7098 114.428 40.8116C121.181 37.7065 109.227 51.757 100.377 39.7636C99.2016 38.062 98.4436 36.1073 98.1648 34.058C97.6214 31.3022 100.183 35.4165 102.784 37.9005Z" fill="url(#paint11_radial_219_3552)"/>
<path d="M165.894 22.53H157.705V43.3341H165.894V22.53Z" fill="#E0940D"/>
<path d="M156.27 51.3293C158.183 51.337 160.055 50.7767 161.65 49.7194C163.244 48.6621 164.489 47.1554 165.226 45.3902C165.964 43.6249 166.161 41.6805 165.792 39.8032C165.424 37.9259 164.506 36.2002 163.156 34.8447C161.806 33.4892 160.084 32.5649 158.208 32.1888C156.333 31.8127 154.387 32.0019 152.619 32.7322C150.851 33.4625 149.339 34.7012 148.276 36.2914C147.212 37.8815 146.644 39.7516 146.644 41.6647C146.644 44.2212 147.657 46.6736 149.461 48.4849C151.265 50.2963 153.713 51.319 156.27 51.3293Z" fill="url(#paint12_linear_219_3552)"/>
<path d="M146.255 38.7929C143.587 34.1604 142.244 28.8834 142.373 23.5392C142.373 11.1965 147.807 -0.525205 158.093 0.0181843C165.855 0.406319 171.755 9.72156 171.755 22.5688H167.524C167.524 12.6326 163.177 6.42241 158.015 6.42241C152.853 6.42241 147.962 12.3609 147.962 21.9478C147.923 26.0608 148.84 30.1267 150.641 33.8247C151.22 35.3879 152.211 36.7652 153.509 37.8106C154.807 38.8561 156.364 39.5308 158.015 39.7632C158.98 39.71 159.924 39.4626 160.791 39.0357C161.658 38.6089 162.43 38.0114 163.061 37.2791L163.954 35.8042C164.955 37.1324 165.597 38.6966 165.817 40.3454C164.851 41.8488 163.516 43.0803 161.94 43.9226C160.364 44.765 158.599 45.1904 156.812 45.1583C154.653 45.0966 152.547 44.4781 150.697 43.3629C148.847 42.2476 147.317 40.6734 146.255 38.7929Z" fill="#004169"/>
<path d="M153.63 1.84242C153.63 1.84242 145.867 3.2397 143.577 17.3678C141.287 31.4959 147.963 41.7039 153.63 42.2861C159.297 42.8683 144.819 41.044 146.915 17.9888C146.915 17.9888 148.274 4.36529 158.171 4.13241C166.516 4.0936 158.52 -0.758088 153.63 1.84242Z" fill="url(#paint13_radial_219_3552)"/>
<path d="M144.236 15.3881C144.921 11.0215 147.102 7.02873 150.407 4.09342C155.531 0.56139 146.526 5.7624 144.74 17.3676C144.74 17.3676 143.498 21.6759 144.236 15.3881Z" fill="white"/>
<path d="M168.534 21.5982C168.534 21.5982 169.077 10.2647 162.052 6.65503C162.052 6.65503 169.582 7.04317 170.513 20.9384V21.7147L168.534 21.5982Z" fill="url(#paint14_radial_219_3552)"/>
<path d="M150.213 37.9005C151.542 39.6272 153.415 40.8543 155.529 41.3827C157.642 41.9111 159.873 41.7098 161.858 40.8116C168.611 37.7065 156.657 51.757 147.807 39.7636C146.631 38.062 145.873 36.1073 145.595 34.058C145.09 31.3022 147.613 35.4165 150.213 37.9005Z" fill="url(#paint15_radial_219_3552)"/>
<path d="M213.286 22.53H205.135V43.3341H213.286V22.53Z" fill="#E0940D"/>
<path d="M203.739 51.3293C205.652 51.337 207.524 50.7767 209.118 49.7194C210.713 48.6621 211.958 47.1554 212.695 45.3902C213.432 43.6249 213.629 41.6805 213.261 39.8032C212.892 37.9259 211.975 36.2002 210.625 34.8447C209.275 33.4892 207.553 32.5649 205.677 32.1888C203.801 31.8127 201.856 32.0019 200.088 32.7322C198.32 33.4625 196.808 34.7012 195.744 36.2914C194.681 37.8815 194.113 39.7516 194.113 41.6647C194.113 44.2212 195.126 46.6736 196.93 48.4849C198.734 50.2963 201.182 51.319 203.739 51.3293Z" fill="url(#paint16_linear_219_3552)"/>
<path d="M193.686 38.7929C191.016 34.1612 189.673 28.8837 189.805 23.5392C189.805 11.1965 195.239 -0.525205 205.33 0.0181842C213.093 0.406319 218.954 9.72156 218.954 22.5688H214.956C214.956 12.6326 210.609 6.42241 205.485 6.42241C200.362 6.42241 195.433 12.3609 195.433 21.9478C195.381 26.0577 196.285 30.1234 198.072 33.8247C198.65 35.3954 199.647 36.7784 200.953 37.8248C202.259 38.8713 203.826 39.5415 205.485 39.7632C206.445 39.7093 207.383 39.4613 208.243 39.0344C209.104 38.6074 209.869 38.0103 210.492 37.2791L211.385 35.8042C212.402 37.1232 213.046 38.6918 213.248 40.3454C212.291 41.8484 210.964 43.0803 209.394 43.9231C207.824 44.7658 206.064 45.1911 204.282 45.1583C202.117 45.0994 200.004 44.4825 198.148 43.3673C196.292 42.2521 194.755 40.6764 193.686 38.7929Z" fill="#004169"/>
<path d="M200.983 1.8423C200.983 1.8423 193.22 3.23958 190.93 17.3677C188.64 31.4958 195.432 41.6261 201.138 42.3248C206.844 43.0234 192.444 41.1604 194.384 18.1052C194.384 18.1052 195.743 4.48162 205.64 4.24874C213.985 4.09348 205.99 -0.758204 200.983 1.8423Z" fill="url(#paint17_radial_219_3552)"/>
<path d="M191.666 15.3881C192.379 11.0308 194.556 7.0467 197.838 4.09342C202.961 0.56139 193.956 5.7624 192.171 17.3676C192.171 17.3676 190.968 21.6759 191.666 15.3881Z" fill="white"/>
<path d="M216.004 21.5982C216.004 21.5982 216.508 10.2647 209.483 6.65503C209.483 6.65503 217.246 7.04317 217.944 20.9384V21.7147L216.004 21.5982Z" fill="url(#paint18_radial_219_3552)"/>
<path d="M197.683 37.9005C198.994 39.5806 200.826 40.7779 202.891 41.3047C204.956 41.8316 207.138 41.6581 209.094 40.8116C215.847 37.7065 203.893 51.757 195.082 39.7636C193.907 38.062 193.149 36.1073 192.87 34.058C192.443 31.3022 195.082 35.4165 197.683 37.9005Z" fill="url(#paint19_radial_219_3552)"/>
<path d="M260.755 22.53H252.604V43.3341H260.755V22.53Z" fill="#E0940D"/>
<path d="M251.168 51.3293C253.081 51.337 254.953 50.7767 256.548 49.7194C258.142 48.6621 259.387 47.1554 260.124 45.3902C260.862 43.6249 261.059 41.6805 260.69 39.8032C260.322 37.9259 259.404 36.2002 258.054 34.8447C256.704 33.4892 254.982 32.5649 253.106 32.1888C251.231 31.8127 249.285 32.0019 247.517 32.7322C245.749 33.4625 244.237 34.7012 243.173 36.2914C242.11 37.8815 241.542 39.7516 241.542 41.6647C241.542 44.2212 242.555 46.6736 244.359 48.4849C246.163 50.2963 248.611 51.319 251.168 51.3293Z" fill="url(#paint20_linear_219_3552)"/>
<path d="M241.116 38.7929C238.465 34.1537 237.123 28.8814 237.235 23.5392C237.235 11.1965 242.708 -0.525205 252.76 0.0181843C260.523 0.406319 266.423 9.72156 266.423 22.5688H262.308C262.308 12.6326 257.961 6.42241 252.838 6.42241C247.715 6.42241 242.902 12.3609 242.902 22.0254C242.862 26.1384 243.779 30.2043 245.58 33.9024C246.152 35.47 247.141 36.8517 248.44 37.8983C249.74 38.9449 251.301 39.6166 252.954 39.8408C253.918 39.7833 254.861 39.5339 255.728 39.1074C256.594 38.6808 257.367 38.0857 258 37.3568L258.893 35.8819C259.898 37.204 260.528 38.7728 260.717 40.423C259.763 41.9286 258.436 43.1626 256.866 44.0057C255.295 44.8488 253.533 45.2725 251.751 45.2359C249.574 45.1683 247.451 44.5396 245.588 43.4109C243.725 42.2821 242.184 40.6914 241.116 38.7929Z" fill="#004169"/>
<path d="M248.412 1.84242C248.412 1.84242 240.649 3.2397 238.359 17.3678C236.069 31.4959 242.901 41.7039 248.567 42.2861C254.234 42.8683 239.757 41.044 241.814 17.9888C241.814 17.9888 243.211 4.36529 253.07 4.13241C261.415 4.0936 253.419 -0.758088 248.412 1.84242Z" fill="url(#paint21_radial_219_3552)"/>
<path d="M239.02 15.3881C239.705 11.0215 241.887 7.02873 245.191 4.09342C250.276 0.56139 241.31 5.7624 239.525 17.3676C239.641 17.3676 238.399 21.6759 239.02 15.3881Z" fill="white"/>
<path d="M263.434 21.5982C263.434 21.5982 263.977 10.2647 256.952 6.65503C256.952 6.65503 264.481 7.04317 265.413 20.9384V21.7147L263.434 21.5982Z" fill="url(#paint22_radial_219_3552)"/>
<path d="M245.113 37.9005C246.442 39.6272 248.315 40.8543 250.429 41.3827C252.542 41.9111 254.773 41.7098 256.757 40.8116C263.511 37.7065 251.556 51.757 242.707 39.7636C241.531 38.062 240.773 36.1073 240.495 34.058C239.99 31.3022 242.513 35.4165 245.113 37.9005Z" fill="url(#paint23_radial_219_3552)"/>
<path d="M355.655 22.53H347.504V43.3341H355.655V22.53Z" fill="#E0940D"/>
<path d="M346.067 51.3293C347.98 51.337 349.853 50.7767 351.447 49.7194C353.041 48.6621 354.286 47.1554 355.024 45.3902C355.761 43.6249 355.958 41.6805 355.59 39.8032C355.221 37.9259 354.304 36.2002 352.954 34.8447C351.604 33.4892 349.882 32.5649 348.006 32.1888C346.13 31.8127 344.185 32.0019 342.417 32.7322C340.648 33.4625 339.137 34.7012 338.073 36.2914C337.009 37.8815 336.441 39.7516 336.441 41.6647C336.441 44.2212 337.454 46.6736 339.258 48.4849C341.062 50.2963 343.511 51.319 346.067 51.3293Z" fill="url(#paint24_linear_219_3552)"/>
<path d="M336.052 38.7929C333.382 34.1612 332.039 28.8837 332.171 23.5392C332.171 11.1965 337.605 -0.525205 347.696 0.0181843C355.459 0.406319 361.32 9.72156 361.32 22.5688H357.167C357.167 12.6326 352.82 6.42241 347.696 6.42241C342.573 6.42241 337.644 12.3609 337.644 21.9478C337.592 26.0577 338.496 30.1234 340.283 33.8247C340.85 35.4099 341.841 36.8091 343.148 37.8699C344.455 38.9307 346.028 39.6124 347.696 39.8408C348.66 39.7833 349.603 39.5339 350.47 39.1074C351.336 38.6808 352.109 38.0857 352.742 37.3568L353.596 35.8819C354.629 37.1918 355.275 38.765 355.459 40.423C354.505 41.9286 353.178 43.1626 351.607 44.0057C350.037 44.8488 348.275 45.2725 346.493 45.2359C344.347 45.1429 342.261 44.5019 340.434 43.374C338.606 42.2461 337.098 40.669 336.052 38.7929Z" fill="#004169"/>
<path d="M343.311 1.84205C343.311 1.84205 335.549 3.23934 333.259 17.3674C330.969 31.4956 337.761 41.6259 343.467 42.3245C349.172 43.0232 334.617 41.0825 336.713 18.0273C336.713 18.0273 338.11 4.40374 347.969 4.17086C356.314 4.09323 348.318 -0.758453 343.311 1.84205Z" fill="url(#paint25_radial_219_3552)"/>
<path d="M334.036 15.3881C334.721 11.0215 336.902 7.02873 340.207 4.09342C345.292 0.56139 336.326 5.7624 334.54 17.3676C334.54 17.3676 333.298 21.6759 334.036 15.3881Z" fill="white"/>
<path d="M358.331 21.5982C358.331 21.5982 358.875 10.2647 351.85 6.65503C351.85 6.65503 359.379 7.04317 360.272 20.9384V21.7147L358.331 21.5982Z" fill="url(#paint26_radial_219_3552)"/>
<path d="M339.935 37.9005C341.264 39.6272 343.137 40.8543 345.25 41.3827C347.364 41.9111 349.594 41.7098 351.579 40.8116C358.332 37.7065 346.378 51.757 337.528 39.7636C336.353 38.062 335.595 36.1073 335.316 34.058C334.889 31.3022 337.412 35.4165 339.935 37.9005Z" fill="url(#paint27_radial_219_3552)"/>
<path d="M450.553 22.53H442.402V43.3341H450.553V22.53Z" fill="#E0940D"/>
<path d="M440.849 51.3293C442.762 51.337 444.635 50.7767 446.229 49.7194C447.824 48.6621 449.068 47.1554 449.806 45.3902C450.543 43.6249 450.74 41.6805 450.372 39.8032C450.003 37.9259 449.086 36.2002 447.736 34.8447C446.386 33.4892 444.664 32.5649 442.788 32.1888C440.912 31.8127 438.967 32.0019 437.199 32.7322C435.431 33.4625 433.919 34.7012 432.855 36.2914C431.791 37.8815 431.224 39.7516 431.224 41.6647C431.224 44.2212 432.236 46.6736 434.041 48.4849C435.845 50.2963 438.293 51.319 440.849 51.3293Z" fill="url(#paint28_linear_219_3552)"/>
<path d="M430.913 38.7929C428.243 34.1612 426.9 28.8837 427.031 23.5392C427.031 11.1965 432.465 -0.525205 442.557 0.0181843C450.319 0.406319 456.18 9.72156 456.18 22.5688H452.027C452.027 12.6326 447.68 6.42241 442.557 6.42241C437.433 6.42241 432.504 12.3609 432.504 21.9478C432.452 26.0577 433.356 30.1234 435.143 33.8247C435.722 35.3879 436.714 36.7652 438.012 37.8106C439.31 38.8561 440.867 39.5308 442.518 39.7632C443.488 39.7107 444.439 39.4638 445.312 39.0371C446.186 38.6104 446.964 38.0126 447.602 37.2791L448.456 35.8042C449.474 37.1232 450.117 38.6918 450.319 40.3454C449.365 41.851 448.038 43.085 446.468 43.9281C444.897 44.7712 443.136 45.1949 441.353 45.1583C439.216 45.0696 437.137 44.4388 435.31 43.3253C433.484 42.2118 431.97 40.6521 430.913 38.7929Z" fill="#004169"/>
<path d="M438.209 1.84205C438.209 1.84205 430.447 3.23934 428.157 17.3674C425.867 31.4956 432.659 41.6259 438.365 42.3245C444.07 43.0232 429.515 41.0825 431.611 18.0273C431.611 18.0273 432.97 4.40374 442.867 4.17086C451.212 4.09323 443.216 -0.758453 438.209 1.84205Z" fill="url(#paint29_radial_219_3552)"/>
<path d="M428.933 15.3881C429.618 11.0215 431.8 7.02873 435.104 4.09342C440.189 0.56139 431.223 5.7624 429.399 17.3676C429.399 17.3676 428.196 21.6759 428.933 15.3881Z" fill="white"/>
<path d="M453.23 21.5982C453.23 21.5982 453.735 10.2647 446.709 6.65503C446.709 6.65503 454.472 7.04317 455.171 20.9384V21.7147L453.23 21.5982Z" fill="url(#paint30_radial_219_3552)"/>
<path d="M434.911 37.9005C436.222 39.5806 438.054 40.7779 440.119 41.3047C442.185 41.8316 444.366 41.6581 446.322 40.8116C453.076 37.7065 441.16 51.757 432.31 39.7636C431.135 38.062 430.377 36.1073 430.098 34.058C429.749 31.3022 432.31 35.4165 434.911 37.9005Z" fill="url(#paint31_radial_219_3552)"/>
<path d="M545.452 22.53H537.301V43.3341H545.452V22.53Z" fill="#E0940D"/>
<path d="M535.865 51.3293C537.778 51.337 539.65 50.7767 541.245 49.7194C542.839 48.6621 544.084 47.1554 544.822 45.3902C545.559 43.6249 545.756 41.6805 545.387 39.8032C545.019 37.9259 544.102 36.2002 542.751 34.8447C541.401 33.4892 539.679 32.5649 537.804 32.1888C535.928 31.8127 533.983 32.0019 532.214 32.7322C530.446 33.4625 528.934 34.7012 527.871 36.2914C526.807 37.8815 526.239 39.7516 526.239 41.6647C526.239 44.2212 527.252 46.6736 529.056 48.4849C530.86 50.2963 533.309 51.319 535.865 51.3293Z" fill="url(#paint32_linear_219_3552)"/>
<path d="M525.812 38.7929C523.144 34.1604 521.801 28.8834 521.93 23.5392C521.93 11.1965 527.403 -0.525205 537.456 0.0181843C545.219 0.406319 551.118 9.72156 551.118 22.5688H546.965C546.965 12.6326 542.618 6.42241 537.456 6.42241C532.294 6.42241 527.403 12.3609 527.403 21.9478C527.364 26.0608 528.281 30.1267 530.081 33.8247C530.66 35.3879 531.652 36.7652 532.95 37.8106C534.248 38.8561 535.805 39.5308 537.456 39.7632C538.422 39.7145 539.367 39.469 540.235 39.0418C541.103 38.6147 541.874 38.0149 542.502 37.2791L543.394 35.8042C544.412 37.1232 545.055 38.6918 545.257 40.3454C544.291 41.8488 542.957 43.0803 541.381 43.9226C539.805 44.765 538.039 45.1904 536.253 45.1583C534.114 45.0768 532.031 44.4491 530.203 43.3349C528.376 42.2206 526.864 40.657 525.812 38.7929Z" fill="#004169"/>
<path d="M533.071 1.84205C533.071 1.84205 525.308 3.23934 523.018 17.3674C520.728 31.4956 527.521 41.6259 533.265 42.3245C539.009 43.0232 524.416 41.0825 526.512 18.0273C526.512 18.0273 527.87 4.40374 537.767 4.17086C546.074 4.09323 538.117 -0.758453 533.071 1.84205Z" fill="url(#paint33_radial_219_3552)"/>
<path d="M523.795 15.3881C524.548 11.0101 526.782 7.02322 530.121 4.09342C535.244 0.56139 526.24 5.7624 524.454 17.3676C524.299 17.3676 523.096 21.6759 523.795 15.3881Z" fill="white"/>
<path d="M548.13 21.5982C548.13 21.5982 548.635 10.2647 541.609 6.65503C541.609 6.65503 549.139 7.04317 550.071 20.9384V21.7147L548.13 21.5982Z" fill="url(#paint34_radial_219_3552)"/>
<path d="M529.772 37.9005C531.1 39.6272 532.973 40.8543 535.087 41.3827C537.201 41.9111 539.431 41.7098 541.416 40.8116C548.169 37.7065 536.215 51.757 527.365 39.7636C526.193 38.064 525.447 36.1069 525.192 34.058C524.648 31.3022 527.171 35.4165 529.772 37.9005Z" fill="url(#paint35_radial_219_3552)"/>
<path d="M640.35 22.53H632.199V43.3341H640.35V22.53Z" fill="#E0940D"/>
<path d="M630.725 51.3293C632.638 51.337 634.51 50.7767 636.105 49.7194C637.699 48.6621 638.944 47.1554 639.681 45.3902C640.419 43.6249 640.616 41.6805 640.247 39.8032C639.879 37.9259 638.961 36.2002 637.611 34.8447C636.261 33.4892 634.539 32.5649 632.663 32.1888C630.788 31.8127 628.842 32.0019 627.074 32.7322C625.306 33.4625 623.794 34.7012 622.731 36.2914C621.667 37.8815 621.099 39.7516 621.099 41.6647C621.099 44.2212 622.112 46.6736 623.916 48.4849C625.72 50.2963 628.168 51.319 630.725 51.3293Z" fill="url(#paint36_linear_219_3552)"/>
<path d="M620.671 38.7929C618.02 34.1537 616.678 28.8814 616.79 23.5392C616.79 11.1965 622.224 -0.525205 632.51 0.0181843C640.272 0.406319 646.172 9.72156 646.172 22.5688H641.98C641.98 12.6326 637.672 6.42241 632.51 6.42241C627.347 6.42241 622.457 12.3609 622.457 21.9478C622.417 26.0608 623.334 30.1267 625.135 33.8247C625.707 35.3924 626.696 36.7741 627.996 37.8207C629.295 38.8673 630.856 39.5389 632.51 39.7632C633.474 39.7056 634.416 39.4563 635.283 39.0298C636.149 38.6032 636.922 38.008 637.555 37.2791L638.448 35.8042C639.45 37.1324 640.091 38.6966 640.311 40.3454C639.345 41.8488 638.011 43.0803 636.434 43.9226C634.858 44.765 633.093 45.1904 631.306 45.1583C629.137 45.0985 627.019 44.4816 625.156 43.3669C623.294 42.2521 621.749 40.677 620.671 38.7929Z" fill="#004169"/>
<path d="M627.969 1.84205C627.969 1.84205 620.206 3.23934 617.916 17.3674C615.626 31.4956 622.419 41.6259 628.124 42.3245C633.83 43.0232 619.275 41.0825 621.371 18.0273C621.371 18.0273 622.768 4.40374 632.666 4.17086C640.972 4.09323 633.015 -0.758453 627.969 1.84205Z" fill="url(#paint37_radial_219_3552)"/>
<path d="M618.692 15.3881C619.377 11.0215 621.559 7.02873 624.864 4.09342C629.987 0.56139 620.982 5.7624 619.197 17.3676C619.391 17.3676 617.955 21.6759 618.692 15.3881Z" fill="white"/>
<path d="M642.991 21.5982C642.991 21.5982 643.534 10.2647 636.509 6.65503C636.509 6.65503 644.039 7.04317 644.97 20.9384V21.7147L642.991 21.5982Z" fill="url(#paint38_radial_219_3552)"/>
<path d="M624.671 37.9005C625.989 39.5838 627.827 40.7826 629.899 41.3093C631.971 41.836 634.159 41.661 636.121 40.8116C642.874 37.7065 630.92 51.757 622.07 39.7636C620.895 38.062 620.137 36.1073 619.858 34.058C619.392 31.3022 622.07 35.4165 624.671 37.9005Z" fill="url(#paint39_radial_219_3552)"/>
<path d="M687.819 22.53H679.668V43.3341H687.819V22.53Z" fill="#E0940D"/>
<path d="M678.195 51.3294C680.106 51.3294 681.975 50.7625 683.564 49.7006C685.153 48.6386 686.392 47.1292 687.124 45.3633C687.855 43.5973 688.047 41.6541 687.674 39.7793C687.301 37.9046 686.38 36.1825 685.029 34.8309C683.677 33.4793 681.955 32.5589 680.08 32.186C678.206 31.813 676.262 32.0044 674.496 32.7359C672.73 33.4674 671.221 34.7061 670.159 36.2955C669.097 37.8848 668.53 39.7533 668.53 41.6648C668.53 42.934 668.78 44.1907 669.266 45.3633C669.752 46.5358 670.463 47.6012 671.361 48.4987C672.258 49.3961 673.324 50.108 674.496 50.5937C675.669 51.0794 676.926 51.3294 678.195 51.3294Z" fill="url(#paint40_linear_219_3552)"/>
<path d="M668.141 38.7929C665.471 34.1612 664.128 28.8837 664.26 23.5392C664.26 11.1965 669.694 -0.525205 679.785 0.0181842C687.548 0.406319 693.409 9.72156 693.409 22.5688H689.256C689.256 12.6326 684.909 6.42241 679.785 6.42241C674.662 6.42241 669.694 12.3609 669.694 21.9478C669.654 26.0608 670.571 30.1267 672.372 33.8247C672.951 35.3878 673.942 36.7652 675.24 37.8106C676.539 38.8561 678.096 39.5308 679.746 39.7632C680.712 39.7145 681.658 39.469 682.526 39.0418C683.393 38.6147 684.165 38.0149 684.792 37.2791L685.685 35.8042C686.702 37.1232 687.346 38.6918 687.548 40.3454C686.588 41.8458 685.26 43.0757 683.691 43.9181C682.122 44.7605 680.363 45.1874 678.582 45.1583C676.444 45.0732 674.363 44.4439 672.536 43.33C670.709 42.2162 669.196 40.6545 668.141 38.7929Z" fill="#004169"/>
<path d="M675.4 1.84242C675.4 1.84242 667.637 3.2397 665.347 17.3678C663.057 31.4959 669.849 41.7039 675.594 42.2861C681.338 42.8683 666.744 41.044 668.84 17.9888C668.84 17.9888 670.199 4.36529 680.096 4.13241C688.402 4.0936 680.445 -0.758088 675.4 1.84242Z" fill="url(#paint41_radial_219_3552)"/>
<path d="M665.968 15.3881C666.69 11.0257 668.881 7.04086 672.178 4.09342C677.262 0.56139 668.296 5.7624 666.472 17.3676C666.627 17.3676 665.424 21.6759 665.968 15.3881Z" fill="white"/>
<path d="M690.459 21.5982C690.459 21.5982 690.963 10.2647 683.938 6.65503C683.938 6.65503 691.468 7.04317 692.399 20.9384V21.7147L690.459 21.5982Z" fill="url(#paint42_radial_219_3552)"/>
<path d="M672.139 37.9005C673.451 39.5806 675.283 40.7779 677.348 41.3047C679.413 41.8316 681.595 41.6581 683.551 40.8116C690.304 37.7065 678.35 51.757 669.539 39.7636C668.363 38.062 667.605 36.1073 667.327 34.058C666.977 31.3022 669.539 35.4165 672.139 37.9005Z" fill="url(#paint43_radial_219_3552)"/>
<path d="M592.921 22.53H584.771V43.3341H592.921V22.53Z" fill="#E0940D"/>
<path d="M583.296 51.3293C585.209 51.337 587.081 50.7767 588.676 49.7194C590.27 48.6621 591.515 47.1554 592.252 45.3902C592.99 43.6249 593.187 41.6805 592.818 39.8032C592.45 37.9259 591.532 36.2002 590.182 34.8447C588.832 33.4892 587.11 32.5649 585.234 32.1888C583.358 31.8127 581.413 32.0019 579.645 32.7322C577.877 33.4625 576.365 34.7012 575.301 36.2914C574.238 37.8815 573.67 39.7516 573.67 41.6647C573.67 44.2212 574.683 46.6736 576.487 48.4849C578.291 50.2963 580.739 51.319 583.296 51.3293Z" fill="url(#paint44_linear_219_3552)"/>
<path d="M573.243 38.7929C570.573 34.1612 569.23 28.8837 569.362 23.5392C569.362 11.1965 574.796 -0.525205 585.081 0.0181842C592.844 0.406319 598.705 9.72156 598.705 22.5688H594.552C594.552 12.6326 590.205 6.42241 585.081 6.42241C579.958 6.42241 575.029 12.3609 575.029 21.9478C574.977 26.0577 575.881 30.1234 577.668 33.8247C578.246 35.3954 579.242 36.7784 580.549 37.8248C581.855 38.8713 583.422 39.5415 585.081 39.7632C586.045 39.7056 586.988 39.4563 587.855 39.0298C588.721 38.6032 589.494 38.008 590.127 37.2791L590.981 35.8042C591.998 37.1232 592.642 38.6918 592.844 40.3454C591.887 41.8484 590.56 43.0803 588.99 43.9231C587.42 44.7658 585.66 45.1911 583.878 45.1583C581.707 45.106 579.586 44.4923 577.722 43.3767C575.858 42.2612 574.315 40.682 573.243 38.7929Z" fill="#004169"/>
<path d="M580.578 1.84242C580.578 1.84242 572.816 3.2397 570.526 17.3678C568.236 31.4959 574.989 41.7039 580.578 42.2861C586.167 42.8683 571.729 41.044 573.825 17.9888C573.825 17.9888 575.222 4.36529 585.081 4.13241C593.503 4.0936 585.546 -0.758088 580.578 1.84242Z" fill="url(#paint45_radial_219_3552)"/>
<path d="M571.224 15.3881C571.947 11.0257 574.138 7.04086 577.435 4.09342C582.519 0.56139 573.553 5.7624 571.768 17.3676C571.768 17.3676 570.526 21.6759 571.224 15.3881Z" fill="white"/>
<path d="M595.56 21.5982C595.56 21.5982 596.065 10.2647 589.078 6.65503C589.078 6.65503 596.608 7.04317 597.501 20.9384V21.7147L595.56 21.5982Z" fill="url(#paint46_radial_219_3552)"/>
<path d="M577.24 37.9005C578.551 39.5806 580.383 40.7779 582.448 41.3047C584.513 41.8316 586.695 41.6581 588.651 40.8116C595.443 37.7065 583.488 51.757 574.639 39.7636C573.463 38.062 572.705 36.1073 572.427 34.058C572.077 31.3022 574.639 35.4165 577.24 37.9005Z" fill="url(#paint47_radial_219_3552)"/>
<path d="M498.021 22.53H489.871V43.3341H498.021V22.53Z" fill="#E0940D"/>
<path d="M488.396 51.3293C490.309 51.337 492.182 50.7767 493.776 49.7194C495.371 48.6621 496.615 47.1554 497.353 45.3902C498.09 43.6249 498.287 41.6805 497.919 39.8032C497.55 37.9259 496.633 36.2002 495.283 34.8447C493.933 33.4892 492.211 32.5649 490.335 32.1888C488.459 31.8127 486.514 32.0019 484.746 32.7322C482.977 33.4625 481.466 34.7012 480.402 36.2914C479.338 37.8815 478.771 39.7516 478.771 41.6647C478.77 44.2212 479.783 46.6736 481.587 48.4849C483.391 50.2963 485.84 51.319 488.396 51.3293Z" fill="url(#paint48_linear_219_3552)"/>
<path d="M478.343 38.7929C475.673 34.1612 474.33 28.8837 474.462 23.5392C474.462 11.1965 479.896 -0.525205 489.987 0.0181843C497.75 0.406319 503.611 9.72156 503.611 22.5688H499.458C499.458 12.6326 495.111 6.42241 489.987 6.42241C484.864 6.42241 479.935 12.3609 479.935 21.9478C479.895 26.0608 480.812 30.1267 482.613 33.8247C483.184 35.3924 484.174 36.7741 485.473 37.8207C486.773 38.8673 488.334 39.5389 489.987 39.7632C490.951 39.7056 491.894 39.4563 492.761 39.0298C493.627 38.6032 494.4 38.008 495.033 37.2791L495.926 35.8042C496.931 37.1264 497.561 38.6952 497.75 40.3454C496.796 41.851 495.469 43.085 493.898 43.9281C492.328 44.7712 490.566 45.1949 488.784 45.1583C486.647 45.0696 484.567 44.4388 482.741 43.3253C480.914 42.2118 479.401 40.6521 478.343 38.7929Z" fill="#004169"/>
<path d="M485.64 1.84205C485.64 1.84205 477.878 3.23934 475.588 17.3674C473.298 31.4956 480.09 41.6259 485.796 42.3245C491.501 43.0232 476.985 41.0825 479.042 18.0273C479.042 18.0273 480.439 4.40374 490.298 4.17086C498.643 4.09323 490.647 -0.758453 485.64 1.84205Z" fill="url(#paint49_radial_219_3552)"/>
<path d="M476.364 15.3881C477.049 11.0215 479.231 7.02873 482.536 4.09342C487.62 0.56139 478.654 5.7624 476.869 17.3676C476.869 17.3676 475.782 21.6759 476.364 15.3881Z" fill="white"/>
<path d="M500.662 21.5982C500.662 21.5982 501.205 10.2647 494.18 6.65503C494.18 6.65503 501.71 7.04317 502.603 20.9384V21.7147L500.662 21.5982Z" fill="url(#paint50_radial_219_3552)"/>
<path d="M482.342 37.9005C483.66 39.5838 485.499 40.7826 487.57 41.3093C489.642 41.836 491.83 41.661 493.792 40.8116C500.546 37.7065 488.591 51.757 479.742 39.7636C478.566 38.062 477.808 36.1073 477.529 34.058C477.219 31.3022 479.664 35.4165 482.342 37.9005Z" fill="url(#paint51_radial_219_3552)"/>
<path d="M403.123 22.53H394.973V43.3341H403.123V22.53Z" fill="#E0940D"/>
<path d="M393.496 51.3293C395.409 51.337 397.282 50.7767 398.876 49.7194C400.471 48.6621 401.715 47.1554 402.453 45.3902C403.19 43.6249 403.387 41.6805 403.019 39.8032C402.65 37.9259 401.733 36.2002 400.383 34.8447C399.033 33.4892 397.311 32.5649 395.435 32.1888C393.559 31.8127 391.614 32.0019 389.846 32.7322C388.077 33.4625 386.566 34.7012 385.502 36.2914C384.438 37.8815 383.871 39.7516 383.871 41.6647C383.871 44.2212 384.883 46.6736 386.688 48.4849C388.492 50.2963 390.94 51.319 393.496 51.3293Z" fill="url(#paint52_linear_219_3552)"/>
<path d="M383.483 38.7929C380.815 34.1604 379.472 28.8834 379.602 23.5392C379.602 11.1965 385.036 -0.525205 395.127 0.0181843C402.89 0.406319 408.79 9.72156 408.79 22.5688H404.598C404.598 12.6326 400.289 6.42241 395.127 6.42241C389.965 6.42241 385.074 12.3609 385.074 21.9478C385.035 26.0608 385.952 30.1267 387.753 33.8247C388.324 35.3924 389.313 36.7741 390.613 37.8207C391.913 38.8673 393.474 39.5389 395.127 39.7632C396.092 39.71 397.036 39.4626 397.903 39.0357C398.77 38.6089 399.542 38.0114 400.173 37.2791L401.066 35.8042C402.071 37.1264 402.701 38.6952 402.89 40.3454C401.936 41.851 400.609 43.085 399.038 43.9281C397.468 44.7712 395.706 45.1949 393.924 45.1583C391.785 45.0768 389.702 44.4491 387.875 43.3349C386.047 42.2206 384.535 40.657 383.483 38.7929Z" fill="#004169"/>
<path d="M390.74 1.84205C390.74 1.84205 382.978 3.23934 380.688 17.3674C378.398 31.4956 385.19 41.6259 390.935 42.3245C396.679 43.0232 382.085 41.0825 384.142 18.0273C384.142 18.0273 385.539 4.40374 395.437 4.17086C403.743 4.09323 395.747 -0.758453 390.74 1.84205Z" fill="url(#paint53_radial_219_3552)"/>
<path d="M381.464 15.3881C382.149 11.0215 384.331 7.02873 387.636 4.09342C392.72 0.56139 383.754 5.7624 381.969 17.3676C381.969 17.3676 380.727 21.6759 381.464 15.3881Z" fill="white"/>
<path d="M405.918 21.5982C405.918 21.5982 406.461 10.2647 399.436 6.65503C399.436 6.65503 406.966 7.04317 407.859 20.9384V21.7147L405.918 21.5982Z" fill="url(#paint54_radial_219_3552)"/>
<path d="M387.442 37.9005C388.771 39.6272 390.644 40.8543 392.757 41.3827C394.871 41.9111 397.101 41.7098 399.086 40.8116C405.84 37.7065 393.885 51.757 385.036 39.7636C383.86 38.062 383.102 36.1073 382.823 34.058C382.319 31.3022 384.841 35.4165 387.442 37.9005Z" fill="url(#paint55_radial_219_3552)"/>
<path d="M308.186 22.53H300.035V43.3341H308.186V22.53Z" fill="#E0940D"/>
<path d="M298.637 51.3294C300.549 51.3294 302.417 50.7625 304.007 49.7006C305.596 48.6386 306.835 47.1292 307.566 45.3633C308.298 43.5973 308.489 41.6541 308.116 39.7793C307.743 37.9046 306.823 36.1825 305.471 34.8309C304.119 33.4793 302.397 32.5589 300.523 32.186C298.648 31.813 296.705 32.0044 294.939 32.7359C293.173 33.4674 291.663 34.7061 290.601 36.2955C289.539 37.8848 288.973 39.7533 288.973 41.6648C288.973 42.934 289.223 44.1907 289.708 45.3633C290.194 46.5358 290.906 47.6012 291.803 48.4987C292.701 49.3961 293.766 50.108 294.939 50.5937C296.111 51.0794 297.368 51.3294 298.637 51.3294Z" fill="url(#paint56_linear_219_3552)"/>
<path d="M288.583 38.7929C285.915 34.1604 284.572 28.8834 284.702 23.5392C284.702 11.1965 290.175 -0.525205 300.227 0.0181843C307.99 0.406319 313.89 9.72156 313.89 22.5688H309.737C309.737 12.6326 305.389 6.42241 300.227 6.42241C295.065 6.42241 290.175 12.3609 290.175 21.9478C290.135 26.0608 291.052 30.1267 292.853 33.8247C293.432 35.3879 294.423 36.7652 295.721 37.8106C297.02 38.8561 298.577 39.5308 300.227 39.7632C301.192 39.71 302.137 39.4626 303.004 39.0357C303.871 38.6089 304.642 38.0114 305.273 37.2791L306.166 35.8042C307.167 37.1324 307.809 38.6966 308.029 40.3454C307.063 41.8488 305.728 43.0803 304.152 43.9226C302.576 44.765 300.811 45.1904 299.024 45.1583C296.885 45.0768 294.803 44.4491 292.975 43.3349C291.147 42.2206 289.635 40.657 288.583 38.7929Z" fill="#004169"/>
<path d="M295.843 1.84205C295.843 1.84205 288.08 3.23934 285.79 17.3674C283.5 31.4956 290.292 41.6259 296.037 42.3245C301.781 43.0232 287.187 41.0825 289.244 18.0273C289.244 18.0273 290.641 4.40374 300.539 4.17086C308.884 4.09323 300.888 -0.758453 295.843 1.84205Z" fill="url(#paint57_radial_219_3552)"/>
<path d="M286.567 15.3881C287.279 11.0308 289.456 7.0467 292.738 4.09342C297.862 0.56139 288.857 5.7624 287.071 17.3676C287.071 17.3676 285.829 21.6759 286.567 15.3881Z" fill="white"/>
<path d="M310.902 21.5982C310.902 21.5982 311.406 10.2647 304.381 6.65503C304.381 6.65503 311.911 7.04317 312.842 20.9384V21.7147L310.902 21.5982Z" fill="url(#paint58_radial_219_3552)"/>
<path d="M292.544 37.9005C293.861 39.5838 295.7 40.7826 297.772 41.3093C299.844 41.836 302.032 41.661 303.994 40.8116C310.747 37.7065 298.793 51.757 289.982 39.7636C288.786 38.0692 288.014 36.1126 287.731 34.058C287.42 31.3022 289.982 35.4165 292.544 37.9005Z" fill="url(#paint59_radial_219_3552)"/>
<defs>
<linearGradient id="paint0_linear_219_3552" x1="13.9399" y1="32.039" x2="13.9399" y2="51.2905" gradientUnits="userSpaceOnUse">
<stop stop-color="#898988"/>
<stop offset="1"/>
</linearGradient>
<radialGradient id="paint1_radial_219_3552" cx="0" cy="0" r="1" gradientUnits="userSpaceOnUse" gradientTransform="translate(3.46151 18.3766) rotate(90) scale(25.384 25.384)">
<stop stop-color="white"/>
<stop offset="0.06" stop-color="#F9FBFC"/>
<stop offset="0.13" stop-color="#E8EEF2"/>
<stop offset="0.21" stop-color="#CDDAE2"/>
<stop offset="0.3" stop-color="#A7BDCB"/>
<stop offset="0.4" stop-color="#7699AE"/>
<stop offset="0.5" stop-color="#3B6D8B"/>
<stop offset="0.59" stop-color="#004169"/>
</radialGradient>
<radialGradient id="paint2_radial_219_3552" cx="0" cy="0" r="1" gradientUnits="userSpaceOnUse" gradientTransform="translate(24.2255 14.6894) rotate(90) scale(11.8381 11.8381)">
<stop stop-color="white"/>
<stop offset="0.06" stop-color="#F9FBFC"/>
<stop offset="0.13" stop-color="#E8EEF2"/>
<stop offset="0.21" stop-color="#CDDAE2"/>
<stop offset="0.3" stop-color="#A7BDCB"/>
<stop offset="0.4" stop-color="#7699AE"/>
<stop offset="0.5" stop-color="#3B6D8B"/>
<stop offset="0.59" stop-color="#004169"/>
</radialGradient>
<radialGradient id="paint3_radial_219_3552" cx="0" cy="0" r="1" gradientUnits="userSpaceOnUse" gradientTransform="translate(10.8341 44.0719) rotate(90) scale(15.1761 15.1761)">
<stop stop-color="white"/>
<stop offset="0.05" stop-color="#F7F9FA"/>
<stop offset="0.14" stop-color="#E0E8ED"/>
<stop offset="0.25" stop-color="#BACCD7"/>
<stop offset="0.37" stop-color="#86A5B8"/>
<stop offset="0.51" stop-color="#457492"/>
<stop offset="0.58" stop-color="#20597C"/>
<stop offset="0.64" stop-color="#1B5679"/>
<stop offset="0.72" stop-color="#0E4C71"/>
<stop offset="0.77" stop-color="#004169"/>
</radialGradient>
<linearGradient id="paint4_linear_219_3552" x1="61.3699" y1="32.0391" x2="61.3699" y2="51.2906" gradientUnits="userSpaceOnUse">
<stop stop-color="#898988"/>
<stop offset="1"/>
</linearGradient>
<radialGradient id="paint5_radial_219_3552" cx="0" cy="0" r="1" gradientUnits="userSpaceOnUse" gradientTransform="translate(50.8901 18.3766) rotate(90) scale(25.384 25.384)">
<stop stop-color="white"/>
<stop offset="0.06" stop-color="#F9FBFC"/>
<stop offset="0.13" stop-color="#E8EEF2"/>
<stop offset="0.21" stop-color="#CDDAE2"/>
<stop offset="0.3" stop-color="#A7BDCB"/>
<stop offset="0.4" stop-color="#7699AE"/>
<stop offset="0.5" stop-color="#3B6D8B"/>
<stop offset="0.59" stop-color="#004169"/>
</radialGradient>
<radialGradient id="paint6_radial_219_3552" cx="0" cy="0" r="1" gradientUnits="userSpaceOnUse" gradientTransform="translate(71.6955 14.6894) rotate(90) scale(11.8381 11.8381)">
<stop stop-color="white"/>
<stop offset="0.06" stop-color="#F9FBFC"/>
<stop offset="0.13" stop-color="#E8EEF2"/>
<stop offset="0.21" stop-color="#CDDAE2"/>
<stop offset="0.3" stop-color="#A7BDCB"/>
<stop offset="0.4" stop-color="#7699AE"/>
<stop offset="0.5" stop-color="#3B6D8B"/>
<stop offset="0.59" stop-color="#004169"/>
</radialGradient>
<radialGradient id="paint7_radial_219_3552" cx="0" cy="0" r="1" gradientUnits="userSpaceOnUse" gradientTransform="translate(58.2652 44.0719) rotate(90) scale(15.1761 15.1761)">
<stop stop-color="white"/>
<stop offset="0.05" stop-color="#F7F9FA"/>
<stop offset="0.14" stop-color="#E0E8ED"/>
<stop offset="0.25" stop-color="#BACCD7"/>
<stop offset="0.37" stop-color="#86A5B8"/>
<stop offset="0.51" stop-color="#457492"/>
<stop offset="0.58" stop-color="#20597C"/>
<stop offset="0.64" stop-color="#1B5679"/>
<stop offset="0.72" stop-color="#0E4C71"/>
<stop offset="0.77" stop-color="#004169"/>
</radialGradient>
<linearGradient id="paint8_linear_219_3552" x1="108.839" y1="32.0393" x2="108.839" y2="51.2908" gradientUnits="userSpaceOnUse">
<stop stop-color="#898988"/>
<stop offset="1"/>
</linearGradient>
<radialGradient id="paint9_radial_219_3552" cx="0" cy="0" r="1" gradientUnits="userSpaceOnUse" gradientTransform="translate(98.359 18.3766) rotate(90) scale(25.384)">
<stop stop-color="white"/>
<stop offset="0.06" stop-color="#F9FBFC"/>
<stop offset="0.13" stop-color="#E8EEF2"/>
<stop offset="0.21" stop-color="#CDDAE2"/>
<stop offset="0.3" stop-color="#A7BDCB"/>
<stop offset="0.4" stop-color="#7699AE"/>
<stop offset="0.5" stop-color="#3B6D8B"/>
<stop offset="0.59" stop-color="#004169"/>
</radialGradient>
<radialGradient id="paint10_radial_219_3552" cx="0" cy="0" r="1" gradientUnits="userSpaceOnUse" gradientTransform="translate(119.164 14.6894) rotate(90) scale(11.8381 11.8381)">
<stop stop-color="white"/>
<stop offset="0.06" stop-color="#F9FBFC"/>
<stop offset="0.13" stop-color="#E8EEF2"/>
<stop offset="0.21" stop-color="#CDDAE2"/>
<stop offset="0.3" stop-color="#A7BDCB"/>
<stop offset="0.4" stop-color="#7699AE"/>
<stop offset="0.5" stop-color="#3B6D8B"/>
<stop offset="0.59" stop-color="#004169"/>
</radialGradient>
<radialGradient id="paint11_radial_219_3552" cx="0" cy="0" r="1" gradientUnits="userSpaceOnUse" gradientTransform="translate(105.733 44.0719) rotate(90) scale(15.1761 15.1761)">
<stop stop-color="white"/>
<stop offset="0.05" stop-color="#F7F9FA"/>
<stop offset="0.14" stop-color="#E0E8ED"/>
<stop offset="0.25" stop-color="#BACCD7"/>
<stop offset="0.37" stop-color="#86A5B8"/>
<stop offset="0.51" stop-color="#457492"/>
<stop offset="0.58" stop-color="#20597C"/>
<stop offset="0.64" stop-color="#1B5679"/>
<stop offset="0.72" stop-color="#0E4C71"/>
<stop offset="0.77" stop-color="#004169"/>
</radialGradient>
<linearGradient id="paint12_linear_219_3552" x1="156.27" y1="32.039" x2="156.27" y2="51.2905" gradientUnits="userSpaceOnUse">
<stop stop-color="#898988"/>
<stop offset="1"/>
</linearGradient>
<radialGradient id="paint13_radial_219_3552" cx="0" cy="0" r="1" gradientUnits="userSpaceOnUse" gradientTransform="translate(145.79 18.377) rotate(90) scale(25.384 25.384)">
<stop stop-color="white"/>
<stop offset="0.06" stop-color="#F9FBFC"/>
<stop offset="0.13" stop-color="#E8EEF2"/>
<stop offset="0.21" stop-color="#CDDAE2"/>
<stop offset="0.3" stop-color="#A7BDCB"/>
<stop offset="0.4" stop-color="#7699AE"/>
<stop offset="0.5" stop-color="#3B6D8B"/>
<stop offset="0.59" stop-color="#004169"/>
</radialGradient>
<radialGradient id="paint14_radial_219_3552" cx="0" cy="0" r="1" gradientUnits="userSpaceOnUse" gradientTransform="translate(166.593 14.6894) rotate(90) scale(11.8381 11.8381)">
<stop stop-color="white"/>
<stop offset="0.06" stop-color="#F9FBFC"/>
<stop offset="0.13" stop-color="#E8EEF2"/>
<stop offset="0.21" stop-color="#CDDAE2"/>
<stop offset="0.3" stop-color="#A7BDCB"/>
<stop offset="0.4" stop-color="#7699AE"/>
<stop offset="0.5" stop-color="#3B6D8B"/>
<stop offset="0.59" stop-color="#004169"/>
</radialGradient>
<radialGradient id="paint15_radial_219_3552" cx="0" cy="0" r="1" gradientUnits="userSpaceOnUse" gradientTransform="translate(153.163 44.0719) rotate(90) scale(15.1761 15.1761)">
<stop stop-color="white"/>
<stop offset="0.05" stop-color="#F7F9FA"/>
<stop offset="0.14" stop-color="#E0E8ED"/>
<stop offset="0.25" stop-color="#BACCD7"/>
<stop offset="0.37" stop-color="#86A5B8"/>
<stop offset="0.51" stop-color="#457492"/>
<stop offset="0.58" stop-color="#20597C"/>
<stop offset="0.64" stop-color="#1B5679"/>
<stop offset="0.72" stop-color="#0E4C71"/>
<stop offset="0.77" stop-color="#004169"/>
</radialGradient>
<linearGradient id="paint16_linear_219_3552" x1="203.739" y1="32.039" x2="203.739" y2="51.2905" gradientUnits="userSpaceOnUse">
<stop stop-color="#898988"/>
<stop offset="1"/>
</linearGradient>
<radialGradient id="paint17_radial_219_3552" cx="0" cy="0" r="1" gradientUnits="userSpaceOnUse" gradientTransform="translate(193.22 18.3768) rotate(90) scale(25.384 25.384)">
<stop stop-color="white"/>
<stop offset="0.06" stop-color="#F9FBFC"/>
<stop offset="0.13" stop-color="#E8EEF2"/>
<stop offset="0.21" stop-color="#CDDAE2"/>
<stop offset="0.3" stop-color="#A7BDCB"/>
<stop offset="0.4" stop-color="#7699AE"/>
<stop offset="0.5" stop-color="#3B6D8B"/>
<stop offset="0.59" stop-color="#004169"/>
</radialGradient>
<radialGradient id="paint18_radial_219_3552" cx="0" cy="0" r="1" gradientUnits="userSpaceOnUse" gradientTransform="translate(214.024 14.6894) rotate(90) scale(11.8381 11.8381)">
<stop stop-color="white"/>
<stop offset="0.06" stop-color="#F9FBFC"/>
<stop offset="0.13" stop-color="#E8EEF2"/>
<stop offset="0.21" stop-color="#CDDAE2"/>
<stop offset="0.3" stop-color="#A7BDCB"/>
<stop offset="0.4" stop-color="#7699AE"/>
<stop offset="0.5" stop-color="#3B6D8B"/>
<stop offset="0.59" stop-color="#004169"/>
</radialGradient>
<radialGradient id="paint19_radial_219_3552" cx="0" cy="0" r="1" gradientUnits="userSpaceOnUse" gradientTransform="translate(200.594 44.0719) rotate(90) scale(15.1761 15.1761)">
<stop stop-color="white"/>
<stop offset="0.05" stop-color="#F7F9FA"/>
<stop offset="0.14" stop-color="#E0E8ED"/>
<stop offset="0.25" stop-color="#BACCD7"/>
<stop offset="0.37" stop-color="#86A5B8"/>
<stop offset="0.51" stop-color="#457492"/>
<stop offset="0.58" stop-color="#20597C"/>
<stop offset="0.64" stop-color="#1B5679"/>
<stop offset="0.72" stop-color="#0E4C71"/>
<stop offset="0.77" stop-color="#004169"/>
</radialGradient>
<linearGradient id="paint20_linear_219_3552" x1="251.168" y1="32.039" x2="251.168" y2="51.2905" gradientUnits="userSpaceOnUse">
<stop stop-color="#898988"/>
<stop offset="1"/>
</linearGradient>
<radialGradient id="paint21_radial_219_3552" cx="0" cy="0" r="1" gradientUnits="userSpaceOnUse" gradientTransform="translate(240.688 18.377) rotate(90) scale(25.384)">
<stop stop-color="white"/>
<stop offset="0.06" stop-color="#F9FBFC"/>
<stop offset="0.13" stop-color="#E8EEF2"/>
<stop offset="0.21" stop-color="#CDDAE2"/>
<stop offset="0.3" stop-color="#A7BDCB"/>
<stop offset="0.4" stop-color="#7699AE"/>
<stop offset="0.5" stop-color="#3B6D8B"/>
<stop offset="0.59" stop-color="#004169"/>
</radialGradient>
<radialGradient id="paint22_radial_219_3552" cx="0" cy="0" r="1" gradientUnits="userSpaceOnUse" gradientTransform="translate(261.493 14.6894) rotate(90) scale(11.8381 11.8381)">
<stop stop-color="white"/>
<stop offset="0.06" stop-color="#F9FBFC"/>
<stop offset="0.13" stop-color="#E8EEF2"/>
<stop offset="0.21" stop-color="#CDDAE2"/>
<stop offset="0.3" stop-color="#A7BDCB"/>
<stop offset="0.4" stop-color="#7699AE"/>
<stop offset="0.5" stop-color="#3B6D8B"/>
<stop offset="0.59" stop-color="#004169"/>
</radialGradient>
<radialGradient id="paint23_radial_219_3552" cx="0" cy="0" r="1" gradientUnits="userSpaceOnUse" gradientTransform="translate(248.063 44.0719) rotate(90) scale(15.1761)">
<stop stop-color="white"/>
<stop offset="0.05" stop-color="#F7F9FA"/>
<stop offset="0.14" stop-color="#E0E8ED"/>
<stop offset="0.25" stop-color="#BACCD7"/>
<stop offset="0.37" stop-color="#86A5B8"/>
<stop offset="0.51" stop-color="#457492"/>
<stop offset="0.58" stop-color="#20597C"/>
<stop offset="0.64" stop-color="#1B5679"/>
<stop offset="0.72" stop-color="#0E4C71"/>
<stop offset="0.77" stop-color="#004169"/>
</radialGradient>
<linearGradient id="paint24_linear_219_3552" x1="346.067" y1="32.039" x2="346.067" y2="51.2905" gradientUnits="userSpaceOnUse">
<stop stop-color="#898988"/>
<stop offset="1"/>
</linearGradient>
<radialGradient id="paint25_radial_219_3552" cx="0" cy="0" r="1" gradientUnits="userSpaceOnUse" gradientTransform="translate(335.587 18.3766) rotate(90) scale(25.384 25.384)">
<stop stop-color="white"/>
<stop offset="0.06" stop-color="#F9FBFC"/>
<stop offset="0.13" stop-color="#E8EEF2"/>
<stop offset="0.21" stop-color="#CDDAE2"/>
<stop offset="0.3" stop-color="#A7BDCB"/>
<stop offset="0.4" stop-color="#7699AE"/>
<stop offset="0.5" stop-color="#3B6D8B"/>
<stop offset="0.59" stop-color="#004169"/>
</radialGradient>
<radialGradient id="paint26_radial_219_3552" cx="0" cy="0" r="1" gradientUnits="userSpaceOnUse" gradientTransform="translate(356.352 14.6894) rotate(90) scale(11.8381 11.8381)">
<stop stop-color="white"/>
<stop offset="0.06" stop-color="#F9FBFC"/>
<stop offset="0.13" stop-color="#E8EEF2"/>
<stop offset="0.21" stop-color="#CDDAE2"/>
<stop offset="0.3" stop-color="#A7BDCB"/>
<stop offset="0.4" stop-color="#7699AE"/>
<stop offset="0.5" stop-color="#3B6D8B"/>
<stop offset="0.59" stop-color="#004169"/>
</radialGradient>
<radialGradient id="paint27_radial_219_3552" cx="0" cy="0" r="1" gradientUnits="userSpaceOnUse" gradientTransform="translate(342.962 44.0719) rotate(90) scale(15.1761)">
<stop stop-color="white"/>
<stop offset="0.05" stop-color="#F7F9FA"/>
<stop offset="0.14" stop-color="#E0E8ED"/>
<stop offset="0.25" stop-color="#BACCD7"/>
<stop offset="0.37" stop-color="#86A5B8"/>
<stop offset="0.51" stop-color="#457492"/>
<stop offset="0.58" stop-color="#20597C"/>
<stop offset="0.64" stop-color="#1B5679"/>
<stop offset="0.72" stop-color="#0E4C71"/>
<stop offset="0.77" stop-color="#004169"/>
</radialGradient>
<linearGradient id="paint28_linear_219_3552" x1="440.966" y1="32.039" x2="440.966" y2="51.2905" gradientUnits="userSpaceOnUse">
<stop stop-color="#898988"/>
<stop offset="1"/>
</linearGradient>
<radialGradient id="paint29_radial_219_3552" cx="0" cy="0" r="1" gradientUnits="userSpaceOnUse" gradientTransform="translate(430.485 18.3766) rotate(90) scale(25.384 25.3841)">
<stop stop-color="white"/>
<stop offset="0.06" stop-color="#F9FBFC"/>
<stop offset="0.13" stop-color="#E8EEF2"/>
<stop offset="0.21" stop-color="#CDDAE2"/>
<stop offset="0.3" stop-color="#A7BDCB"/>
<stop offset="0.4" stop-color="#7699AE"/>
<stop offset="0.5" stop-color="#3B6D8B"/>
<stop offset="0.59" stop-color="#004169"/>
</radialGradient>
<radialGradient id="paint30_radial_219_3552" cx="0" cy="0" r="1" gradientUnits="userSpaceOnUse" gradientTransform="translate(451.251 14.6894) rotate(90) scale(11.8381 11.8382)">
<stop stop-color="white"/>
<stop offset="0.06" stop-color="#F9FBFC"/>
<stop offset="0.13" stop-color="#E8EEF2"/>
<stop offset="0.21" stop-color="#CDDAE2"/>
<stop offset="0.3" stop-color="#A7BDCB"/>
<stop offset="0.4" stop-color="#7699AE"/>
<stop offset="0.5" stop-color="#3B6D8B"/>
<stop offset="0.59" stop-color="#004169"/>
</radialGradient>
<radialGradient id="paint31_radial_219_3552" cx="0" cy="0" r="1" gradientUnits="userSpaceOnUse" gradientTransform="translate(437.822 44.0719) rotate(90) scale(15.1761 15.1761)">
<stop stop-color="white"/>
<stop offset="0.05" stop-color="#F7F9FA"/>
<stop offset="0.14" stop-color="#E0E8ED"/>
<stop offset="0.25" stop-color="#BACCD7"/>
<stop offset="0.37" stop-color="#86A5B8"/>
<stop offset="0.51" stop-color="#457492"/>
<stop offset="0.58" stop-color="#20597C"/>
<stop offset="0.64" stop-color="#1B5679"/>
<stop offset="0.72" stop-color="#0E4C71"/>
<stop offset="0.77" stop-color="#004169"/>
</radialGradient>
<linearGradient id="paint32_linear_219_3552" x1="535.826" y1="32.039" x2="535.826" y2="51.2905" gradientUnits="userSpaceOnUse">
<stop stop-color="#898988"/>
<stop offset="1"/>
</linearGradient>
<radialGradient id="paint33_radial_219_3552" cx="0" cy="0" r="1" gradientUnits="userSpaceOnUse" gradientTransform="translate(525.347 18.3766) rotate(90) scale(25.384 25.384)">
<stop stop-color="white"/>
<stop offset="0.06" stop-color="#F9FBFC"/>
<stop offset="0.13" stop-color="#E8EEF2"/>
<stop offset="0.21" stop-color="#CDDAE2"/>
<stop offset="0.3" stop-color="#A7BDCB"/>
<stop offset="0.4" stop-color="#7699AE"/>
<stop offset="0.5" stop-color="#3B6D8B"/>
<stop offset="0.59" stop-color="#004169"/>
</radialGradient>
<radialGradient id="paint34_radial_219_3552" cx="0" cy="0" r="1" gradientUnits="userSpaceOnUse" gradientTransform="translate(546.151 14.6894) rotate(90) scale(11.8381 11.8381)">
<stop stop-color="white"/>
<stop offset="0.06" stop-color="#F9FBFC"/>
<stop offset="0.13" stop-color="#E8EEF2"/>
<stop offset="0.21" stop-color="#CDDAE2"/>
<stop offset="0.3" stop-color="#A7BDCB"/>
<stop offset="0.4" stop-color="#7699AE"/>
<stop offset="0.5" stop-color="#3B6D8B"/>
<stop offset="0.59" stop-color="#004169"/>
</radialGradient>
<radialGradient id="paint35_radial_219_3552" cx="0" cy="0" r="1" gradientUnits="userSpaceOnUse" gradientTransform="translate(532.721 44.0719) rotate(90) scale(15.1761 15.1761)">
<stop stop-color="white"/>
<stop offset="0.05" stop-color="#F7F9FA"/>
<stop offset="0.14" stop-color="#E0E8ED"/>
<stop offset="0.25" stop-color="#BACCD7"/>
<stop offset="0.37" stop-color="#86A5B8"/>
<stop offset="0.51" stop-color="#457492"/>
<stop offset="0.58" stop-color="#20597C"/>
<stop offset="0.64" stop-color="#1B5679"/>
<stop offset="0.72" stop-color="#0E4C71"/>
<stop offset="0.77" stop-color="#004169"/>
</radialGradient>
<linearGradient id="paint36_linear_219_3552" x1="630.725" y1="32.039" x2="630.725" y2="51.2905" gradientUnits="userSpaceOnUse">
<stop stop-color="#898988"/>
<stop offset="1"/>
</linearGradient>
<radialGradient id="paint37_radial_219_3552" cx="0" cy="0" r="1" gradientUnits="userSpaceOnUse" gradientTransform="translate(620.245 18.3766) rotate(90) scale(25.384 25.384)">
<stop stop-color="white"/>
<stop offset="0.06" stop-color="#F9FBFC"/>
<stop offset="0.13" stop-color="#E8EEF2"/>
<stop offset="0.21" stop-color="#CDDAE2"/>
<stop offset="0.3" stop-color="#A7BDCB"/>
<stop offset="0.4" stop-color="#7699AE"/>
<stop offset="0.5" stop-color="#3B6D8B"/>
<stop offset="0.59" stop-color="#004169"/>
</radialGradient>
<radialGradient id="paint38_radial_219_3552" cx="0" cy="0" r="1" gradientUnits="userSpaceOnUse" gradientTransform="translate(641.05 14.6894) rotate(90) scale(11.8381 11.8381)">
<stop stop-color="white"/>
<stop offset="0.06" stop-color="#F9FBFC"/>
<stop offset="0.13" stop-color="#E8EEF2"/>
<stop offset="0.21" stop-color="#CDDAE2"/>
<stop offset="0.3" stop-color="#A7BDCB"/>
<stop offset="0.4" stop-color="#7699AE"/>
<stop offset="0.5" stop-color="#3B6D8B"/>
<stop offset="0.59" stop-color="#004169"/>
</radialGradient>
<radialGradient id="paint39_radial_219_3552" cx="0" cy="0" r="1" gradientUnits="userSpaceOnUse" gradientTransform="translate(627.621 44.0719) rotate(90) scale(15.1761 15.1761)">
<stop stop-color="white"/>
<stop offset="0.05" stop-color="#F7F9FA"/>
<stop offset="0.14" stop-color="#E0E8ED"/>
<stop offset="0.25" stop-color="#BACCD7"/>
<stop offset="0.37" stop-color="#86A5B8"/>
<stop offset="0.51" stop-color="#457492"/>
<stop offset="0.58" stop-color="#20597C"/>
<stop offset="0.64" stop-color="#1B5679"/>
<stop offset="0.72" stop-color="#0E4C71"/>
<stop offset="0.77" stop-color="#004169"/>
</radialGradient>
<linearGradient id="paint40_linear_219_3552" x1="678.156" y1="32.0391" x2="678.156" y2="51.2906" gradientUnits="userSpaceOnUse">
<stop stop-color="#898988"/>
<stop offset="1"/>
</linearGradient>
<radialGradient id="paint41_radial_219_3552" cx="0" cy="0" r="1" gradientUnits="userSpaceOnUse" gradientTransform="translate(667.676 18.377) rotate(90) scale(25.384 25.384)">
<stop stop-color="white"/>
<stop offset="0.06" stop-color="#F9FBFC"/>
<stop offset="0.13" stop-color="#E8EEF2"/>
<stop offset="0.21" stop-color="#CDDAE2"/>
<stop offset="0.3" stop-color="#A7BDCB"/>
<stop offset="0.4" stop-color="#7699AE"/>
<stop offset="0.5" stop-color="#3B6D8B"/>
<stop offset="0.59" stop-color="#004169"/>
</radialGradient>
<radialGradient id="paint42_radial_219_3552" cx="0" cy="0" r="1" gradientUnits="userSpaceOnUse" gradientTransform="translate(688.479 14.6894) rotate(90) scale(11.8381 11.8381)">
<stop stop-color="white"/>
<stop offset="0.06" stop-color="#F9FBFC"/>
<stop offset="0.13" stop-color="#E8EEF2"/>
<stop offset="0.21" stop-color="#CDDAE2"/>
<stop offset="0.3" stop-color="#A7BDCB"/>
<stop offset="0.4" stop-color="#7699AE"/>
<stop offset="0.5" stop-color="#3B6D8B"/>
<stop offset="0.59" stop-color="#004169"/>
</radialGradient>
<radialGradient id="paint43_radial_219_3552" cx="0" cy="0" r="1" gradientUnits="userSpaceOnUse" gradientTransform="translate(675.05 44.0719) rotate(90) scale(15.1761 15.176)">
<stop stop-color="white"/>
<stop offset="0.05" stop-color="#F7F9FA"/>
<stop offset="0.14" stop-color="#E0E8ED"/>
<stop offset="0.25" stop-color="#BACCD7"/>
<stop offset="0.37" stop-color="#86A5B8"/>
<stop offset="0.51" stop-color="#457492"/>
<stop offset="0.58" stop-color="#20597C"/>
<stop offset="0.64" stop-color="#1B5679"/>
<stop offset="0.72" stop-color="#0E4C71"/>
<stop offset="0.77" stop-color="#004169"/>
</radialGradient>
<linearGradient id="paint44_linear_219_3552" x1="583.296" y1="32.039" x2="583.296" y2="51.2905" gradientUnits="userSpaceOnUse">
<stop stop-color="#898988"/>
<stop offset="1"/>
</linearGradient>
<radialGradient id="paint45_radial_219_3552" cx="0" cy="0" r="1" gradientUnits="userSpaceOnUse" gradientTransform="translate(572.816 18.377) rotate(90) scale(25.384 25.384)">
<stop stop-color="white"/>
<stop offset="0.06" stop-color="#F9FBFC"/>
<stop offset="0.13" stop-color="#E8EEF2"/>
<stop offset="0.21" stop-color="#CDDAE2"/>
<stop offset="0.3" stop-color="#A7BDCB"/>
<stop offset="0.4" stop-color="#7699AE"/>
<stop offset="0.5" stop-color="#3B6D8B"/>
<stop offset="0.59" stop-color="#004169"/>
</radialGradient>
<radialGradient id="paint46_radial_219_3552" cx="0" cy="0" r="1" gradientUnits="userSpaceOnUse" gradientTransform="translate(593.58 14.6894) rotate(90) scale(11.8381 11.8381)">
<stop stop-color="white"/>
<stop offset="0.06" stop-color="#F9FBFC"/>
<stop offset="0.13" stop-color="#E8EEF2"/>
<stop offset="0.21" stop-color="#CDDAE2"/>
<stop offset="0.3" stop-color="#A7BDCB"/>
<stop offset="0.4" stop-color="#7699AE"/>
<stop offset="0.5" stop-color="#3B6D8B"/>
<stop offset="0.59" stop-color="#004169"/>
</radialGradient>
<radialGradient id="paint47_radial_219_3552" cx="0" cy="0" r="1" gradientUnits="userSpaceOnUse" gradientTransform="translate(580.151 44.0719) rotate(90) scale(15.1761 15.1761)">
<stop stop-color="white"/>
<stop offset="0.05" stop-color="#F7F9FA"/>
<stop offset="0.14" stop-color="#E0E8ED"/>
<stop offset="0.25" stop-color="#BACCD7"/>
<stop offset="0.37" stop-color="#86A5B8"/>
<stop offset="0.51" stop-color="#457492"/>
<stop offset="0.58" stop-color="#20597C"/>
<stop offset="0.64" stop-color="#1B5679"/>
<stop offset="0.72" stop-color="#0E4C71"/>
<stop offset="0.77" stop-color="#004169"/>
</radialGradient>
<linearGradient id="paint48_linear_219_3552" x1="488.396" y1="32.039" x2="488.396" y2="51.2905" gradientUnits="userSpaceOnUse">
<stop stop-color="#898988"/>
<stop offset="1"/>
</linearGradient>
<radialGradient id="paint49_radial_219_3552" cx="0" cy="0" r="1" gradientUnits="userSpaceOnUse" gradientTransform="translate(477.917 18.3766) rotate(90) scale(25.384 25.384)">
<stop stop-color="white"/>
<stop offset="0.06" stop-color="#F9FBFC"/>
<stop offset="0.13" stop-color="#E8EEF2"/>
<stop offset="0.21" stop-color="#CDDAE2"/>
<stop offset="0.3" stop-color="#A7BDCB"/>
<stop offset="0.4" stop-color="#7699AE"/>
<stop offset="0.5" stop-color="#3B6D8B"/>
<stop offset="0.59" stop-color="#004169"/>
</radialGradient>
<radialGradient id="paint50_radial_219_3552" cx="0" cy="0" r="1" gradientUnits="userSpaceOnUse" gradientTransform="translate(498.683 14.6894) rotate(90) scale(11.8381 11.8381)">
<stop stop-color="white"/>
<stop offset="0.06" stop-color="#F9FBFC"/>
<stop offset="0.13" stop-color="#E8EEF2"/>
<stop offset="0.21" stop-color="#CDDAE2"/>
<stop offset="0.3" stop-color="#A7BDCB"/>
<stop offset="0.4" stop-color="#7699AE"/>
<stop offset="0.5" stop-color="#3B6D8B"/>
<stop offset="0.59" stop-color="#004169"/>
</radialGradient>
<radialGradient id="paint51_radial_219_3552" cx="0" cy="0" r="1" gradientUnits="userSpaceOnUse" gradientTransform="translate(485.292 44.0719) rotate(90) scale(15.1761 15.1761)">
<stop stop-color="white"/>
<stop offset="0.05" stop-color="#F7F9FA"/>
<stop offset="0.14" stop-color="#E0E8ED"/>
<stop offset="0.25" stop-color="#BACCD7"/>
<stop offset="0.37" stop-color="#86A5B8"/>
<stop offset="0.51" stop-color="#457492"/>
<stop offset="0.58" stop-color="#20597C"/>
<stop offset="0.64" stop-color="#1B5679"/>
<stop offset="0.72" stop-color="#0E4C71"/>
<stop offset="0.77" stop-color="#004169"/>
</radialGradient>
<linearGradient id="paint52_linear_219_3552" x1="393.496" y1="32.039" x2="393.496" y2="51.2905" gradientUnits="userSpaceOnUse">
<stop stop-color="#898988"/>
<stop offset="1"/>
</linearGradient>
<radialGradient id="paint53_radial_219_3552" cx="0" cy="0" r="1" gradientUnits="userSpaceOnUse" gradientTransform="translate(383.017 18.3766) rotate(90) scale(25.384 25.384)">
<stop stop-color="white"/>
<stop offset="0.06" stop-color="#F9FBFC"/>
<stop offset="0.13" stop-color="#E8EEF2"/>
<stop offset="0.21" stop-color="#CDDAE2"/>
<stop offset="0.3" stop-color="#A7BDCB"/>
<stop offset="0.4" stop-color="#7699AE"/>
<stop offset="0.5" stop-color="#3B6D8B"/>
<stop offset="0.59" stop-color="#004169"/>
</radialGradient>
<radialGradient id="paint54_radial_219_3552" cx="0" cy="0" r="1" gradientUnits="userSpaceOnUse" gradientTransform="translate(403.822 14.6894) rotate(90) scale(11.8381 11.8381)">
<stop stop-color="white"/>
<stop offset="0.06" stop-color="#F9FBFC"/>
<stop offset="0.13" stop-color="#E8EEF2"/>
<stop offset="0.21" stop-color="#CDDAE2"/>
<stop offset="0.3" stop-color="#A7BDCB"/>
<stop offset="0.4" stop-color="#7699AE"/>
<stop offset="0.5" stop-color="#3B6D8B"/>
<stop offset="0.59" stop-color="#004169"/>
</radialGradient>
<radialGradient id="paint55_radial_219_3552" cx="0" cy="0" r="1" gradientUnits="userSpaceOnUse" gradientTransform="translate(390.392 44.0719) rotate(90) scale(15.1761 15.1761)">
<stop stop-color="white"/>
<stop offset="0.05" stop-color="#F7F9FA"/>
<stop offset="0.14" stop-color="#E0E8ED"/>
<stop offset="0.25" stop-color="#BACCD7"/>
<stop offset="0.37" stop-color="#86A5B8"/>
<stop offset="0.51" stop-color="#457492"/>
<stop offset="0.58" stop-color="#20597C"/>
<stop offset="0.64" stop-color="#1B5679"/>
<stop offset="0.72" stop-color="#0E4C71"/>
<stop offset="0.77" stop-color="#004169"/>
</radialGradient>
<linearGradient id="paint56_linear_219_3552" x1="298.598" y1="32.0391" x2="298.598" y2="51.2906" gradientUnits="userSpaceOnUse">
<stop stop-color="#898988"/>
<stop offset="1"/>
</linearGradient>
<radialGradient id="paint57_radial_219_3552" cx="0" cy="0" r="1" gradientUnits="userSpaceOnUse" gradientTransform="translate(288.119 18.3766) rotate(90) scale(25.384 25.384)">
<stop stop-color="white"/>
<stop offset="0.06" stop-color="#F9FBFC"/>
<stop offset="0.13" stop-color="#E8EEF2"/>
<stop offset="0.21" stop-color="#CDDAE2"/>
<stop offset="0.3" stop-color="#A7BDCB"/>
<stop offset="0.4" stop-color="#7699AE"/>
<stop offset="0.5" stop-color="#3B6D8B"/>
<stop offset="0.59" stop-color="#004169"/>
</radialGradient>
<radialGradient id="paint58_radial_219_3552" cx="0" cy="0" r="1" gradientUnits="userSpaceOnUse" gradientTransform="translate(308.922 14.6894) rotate(90) scale(11.8381 11.8381)">
<stop stop-color="white"/>
<stop offset="0.06" stop-color="#F9FBFC"/>
<stop offset="0.13" stop-color="#E8EEF2"/>
<stop offset="0.21" stop-color="#CDDAE2"/>
<stop offset="0.3" stop-color="#A7BDCB"/>
<stop offset="0.4" stop-color="#7699AE"/>
<stop offset="0.5" stop-color="#3B6D8B"/>
<stop offset="0.59" stop-color="#004169"/>
</radialGradient>
<radialGradient id="paint59_radial_219_3552" cx="0" cy="0" r="1" gradientUnits="userSpaceOnUse" gradientTransform="translate(295.493 44.0719) rotate(90) scale(15.1761 15.1761)">
<stop stop-color="white"/>
<stop offset="0.05" stop-color="#F7F9FA"/>
<stop offset="0.14" stop-color="#E0E8ED"/>
<stop offset="0.25" stop-color="#BACCD7"/>
<stop offset="0.37" stop-color="#86A5B8"/>
<stop offset="0.51" stop-color="#457492"/>
<stop offset="0.58" stop-color="#20597C"/>
<stop offset="0.64" stop-color="#1B5679"/>
<stop offset="0.72" stop-color="#0E4C71"/>
<stop offset="0.77" stop-color="#004169"/>
</radialGradient>
</defs>
</svg>
