<svg width="1920" height="1024" viewBox="0 0 1920 1024" fill="none" xmlns="http://www.w3.org/2000/svg">
<mask id="mask0_2_61" style="mask-type:luminance" maskUnits="userSpaceOnUse" x="0" y="0" width="1920" height="1024">
<path d="M1920 0H0V1024H1920V0Z" fill="white"/>
</mask>
<g mask="url(#mask0_2_61)">
<path d="M1920 0H0V1024H1920V0Z" fill="url(#paint0_radial_2_61)"/>
<path d="M838.576 611.617H943.397L1048.22 1347.24H733.754L838.576 611.617Z" fill="url(#paint1_radial_2_61)"/>
<path d="M838.576 375.168H943.397L1048.22 -360.452H733.754L838.576 375.168Z" fill="url(#paint2_radial_2_61)"/>
<path d="M759.959 532.801V427.712L26.2058 322.624V637.89L759.959 532.801Z" fill="url(#paint3_radial_2_61)"/>
<path d="M1179.25 532.801V427.712L1913 322.624V637.89L1179.25 532.801Z" fill="url(#paint4_radial_2_61)"/>
<path d="M682.507 657.367L772.764 755.66L323.183 1352.18L52.4125 1057.3L682.507 657.367Z" fill="url(#paint5_radial_2_61)"/>
<path d="M1089.58 199.541L1183.35 294.473L1798.49 -128.203L1517.18 -413L1089.58 199.541Z" fill="url(#paint6_radial_2_61)"/>
<path d="M664.602 322.624L716.708 188.863L274.262 -412.993L0 -121.374L664.602 322.624Z" fill="url(#paint7_radial_2_61)"/>
<path d="M1202.73 709.818L1112.37 808.018L1561.34 1405L1832.41 1110.4L1202.73 709.818Z" fill="url(#paint8_radial_2_61)"/>
<path d="M1920.51 1085.66V981.375C1920.66 980.16 1920.66 978.93 1920.51 977.715C1920.51 977.615 1920.51 977.515 1920.51 977.415C1920.23 975.479 1919.51 973.634 1918.4 972.025C1916.74 969.712 1914.39 967.991 1911.69 967.115C1909.97 966.513 1908.15 966.259 1906.34 966.369C1904.52 966.479 1902.75 966.95 1901.12 967.755C1901.67 965.534 1901.85 963.235 1901.64 960.955C1901.19 955.891 1898.92 951.162 1895.25 947.645C1892.54 945.161 1889.22 943.433 1885.63 942.633C1882.04 941.832 1878.31 941.988 1874.8 943.085C1874.89 942.425 1874.95 941.765 1874.99 941.085C1874.99 940.855 1874.99 940.635 1874.99 940.415C1874.99 939.975 1874.99 939.525 1874.99 939.085C1874.99 938.825 1874.99 938.555 1874.99 938.295C1874.99 938.035 1874.99 937.495 1874.99 937.095C1874.99 936.695 1874.99 936.535 1874.93 936.255C1874.87 935.975 1874.86 935.495 1874.82 935.105C1874.78 934.715 1874.75 934.545 1874.71 934.265L1874.53 933.135C1874.53 932.855 1874.43 932.575 1874.37 932.295C1874.31 932.015 1874.21 931.555 1874.13 931.195C1874.05 930.835 1874 930.635 1873.92 930.355C1873.84 930.075 1873.72 929.625 1873.61 929.255C1873.5 928.885 1873.46 928.715 1873.37 928.455C1873.28 928.195 1873.11 927.685 1872.97 927.305C1872.83 926.925 1872.7 926.565 1872.55 926.195C1872.4 925.825 1872.2 925.305 1872 924.865C1871.8 924.425 1871.7 924.235 1871.55 923.865C1871.4 923.495 1871.3 923.335 1871.17 923.085C1871.04 922.835 1870.81 922.425 1870.63 922.085C1870.45 921.745 1870.38 921.625 1870.25 921.395C1870.12 921.165 1869.85 920.725 1869.64 920.395C1869.43 920.065 1869.39 919.985 1869.25 919.785C1869.11 919.585 1868.8 919.115 1868.57 918.785L1868.19 918.265C1867.94 917.918 1867.68 917.585 1867.41 917.265C1867.31 917.125 1867.19 916.995 1867.08 916.855C1866.79 916.495 1866.49 916.145 1866.19 915.855L1865.94 915.655C1859.58 908.655 1850.49 904.815 1840.73 907.355C1838.19 908.014 1835.76 909.024 1833.5 910.355C1831.94 900.295 1826.97 890.355 1818.5 884.725C1810.03 879.095 1797.89 878.495 1789.97 884.895C1789.73 873.845 1782.71 863.605 1773.3 857.805C1763.89 852.005 1752.41 850.235 1741.39 851.035C1729.08 851.824 1717.38 856.662 1708.11 864.795C1697.43 874.445 1695.57 887.215 1696.37 901.225C1694.01 900.755 1691.62 900.454 1689.22 900.325C1688.46 900.325 1687.7 900.325 1686.94 900.325H1686.12C1685.73 900.325 1685.33 900.325 1684.94 900.385C1684.55 900.445 1684.06 900.455 1683.62 900.505L1682.99 900.585C1682.41 900.665 1681.82 900.765 1681.25 900.885L1680.85 900.975C1680.21 901.115 1679.58 901.275 1678.96 901.475C1674.24 902.952 1670.22 906.089 1667.65 910.305C1664.47 915.305 1662.91 921.515 1662.59 927.735C1660.02 925.402 1656.97 923.667 1653.65 922.655C1645.11 920.095 1635.83 921.935 1627.54 925.195C1627.33 924.435 1627.09 923.685 1626.83 922.945C1626.75 922.735 1626.67 922.525 1626.6 922.315C1626.37 921.715 1626.13 921.125 1625.86 920.535C1625.8 920.385 1625.74 920.235 1625.67 920.085C1625.34 919.385 1624.99 918.705 1624.67 918.025C1624.56 917.815 1624.44 917.605 1624.32 917.405C1624.03 916.905 1623.74 916.405 1623.43 915.935L1623 915.265C1622.59 914.655 1622.16 914.045 1621.71 913.455C1621.54 913.225 1621.36 913.005 1621.18 912.775C1620.87 912.385 1620.55 912.005 1620.18 911.615C1619.81 911.225 1619.71 911.065 1619.46 910.795L1618.46 909.795C1618.03 909.345 1617.59 908.905 1617.15 908.475L1616.29 907.665L1615.29 906.755L1614.56 906.145C1613.71 905.435 1612.82 904.745 1611.91 904.085C1611.47 903.765 1611.02 903.465 1610.57 903.165C1610.38 903.035 1610.18 902.895 1609.98 902.775C1605.7 899.972 1601.04 897.803 1596.14 896.335C1587.44 893.735 1578.26 893.455 1570.33 896.335C1565.86 897.999 1561.8 900.58 1558.4 903.911C1554.99 907.242 1552.33 911.25 1550.57 915.675C1544.66 916.541 1539.02 918.688 1534.04 921.965C1533.87 921.635 1533.68 921.315 1533.5 920.965C1533.32 920.615 1532.99 920.035 1532.72 919.575C1532.45 919.115 1532.12 918.575 1531.81 918.035C1531.5 917.495 1531.24 917.085 1530.94 916.615C1530.64 916.145 1530.33 915.675 1530.02 915.215C1529.71 914.755 1529.38 914.215 1529.02 913.755C1528.66 913.295 1528.44 912.945 1528.15 912.545C1527.86 912.145 1527.4 911.545 1527.01 910.985C1526.91 910.845 1526.79 910.705 1526.68 910.565C1525.58 909.135 1524.43 907.735 1523.23 906.385L1522.93 906.035C1522.39 905.435 1521.84 904.845 1521.28 904.255L1520.67 903.605C1520.12 903.045 1519.57 902.495 1519 901.945C1518.78 901.725 1518.56 901.505 1518.33 901.295C1517.76 900.745 1517.18 900.215 1516.59 899.695L1515.92 899.095C1515.31 898.565 1514.7 898.045 1514.08 897.535L1513.46 897.025C1512.81 896.495 1512.15 896.025 1511.46 895.475L1510.98 895.125C1493.36 881.975 1470.57 876.335 1448.15 883.205C1439.29 861.465 1417.37 845.665 1393.94 844.125C1370.51 842.585 1346.72 855.385 1335.09 875.785C1321.37 865.855 1300.75 870.045 1288.89 882.145C1286.56 884.532 1284.49 887.16 1282.73 889.985C1281.9 891.295 1281.14 892.645 1280.43 893.985L1280.22 894.385C1279.93 894.965 1279.65 895.565 1279.38 896.155C1279.26 896.405 1279.15 896.665 1279.04 896.915C1278.78 897.495 1278.54 898.075 1278.3 898.655C1278.19 898.925 1278.09 899.195 1277.99 899.465C1277.76 900.065 1277.53 900.655 1277.32 901.265L1277.17 901.705C1276.76 902.915 1276.38 904.145 1276.04 905.385C1275.96 905.705 1275.87 906.015 1275.78 906.325L1275.39 907.935C1275.3 908.345 1275.2 908.755 1275.12 909.165C1275.04 909.575 1274.9 910.165 1274.8 910.685C1274.7 911.205 1274.63 911.625 1274.55 912.095C1274.47 912.565 1274.39 913.035 1274.32 913.505C1274.21 914.185 1274.12 914.865 1274.04 915.555C1273.98 916.035 1273.92 916.555 1273.87 916.995C1273.8 917.705 1273.73 918.415 1273.67 919.125C1273.67 919.505 1273.67 919.875 1273.59 920.255C1273.59 920.875 1273.52 921.485 1273.49 922.105C1273.49 922.485 1273.49 922.855 1273.49 923.225C1273.49 923.892 1273.49 924.558 1273.49 925.225C1273.49 925.545 1273.49 925.855 1273.49 926.225C1273.49 927.225 1273.49 928.165 1273.55 929.125C1270.73 927.84 1267.73 927.032 1264.65 926.735C1264.03 926.675 1263.42 926.635 1262.8 926.605C1260.32 926.518 1257.85 926.74 1255.43 927.265C1251.79 928.044 1248.35 929.536 1245.3 931.655C1241.34 934.309 1238.07 937.876 1235.78 942.055C1235.45 942.705 1235.16 943.365 1234.9 944.055C1234.86 944.15 1234.82 944.246 1234.8 944.345L1233.97 943.515L1233.32 942.885C1232.77 942.365 1232.21 941.885 1231.65 941.345L1231 940.765L1229.24 939.275L1228.63 938.775C1228.01 938.275 1227.38 937.775 1226.74 937.295L1226.28 936.945C1225.58 936.425 1224.88 935.945 1224.17 935.425C1207.55 923.885 1186.56 919.165 1165.9 925.505C1157.37 904.605 1136.31 889.415 1113.79 887.935C1091.27 886.455 1068.4 898.765 1057.22 918.365C1044.03 908.815 1024.22 912.855 1012.81 924.475C1009.54 927.856 1006.8 931.709 1004.68 935.905L1004.48 936.285C1004.2 936.845 1003.93 937.415 1003.67 937.985L1003.34 938.715C1003.1 939.265 1002.86 939.825 1002.63 940.385L1002.33 941.165C1002.11 941.745 1001.89 942.315 1001.69 942.895C1001.69 943.035 1001.6 943.175 1001.55 943.305C1001.15 944.475 1000.79 945.655 1000.47 946.855C1000.38 947.155 1000.29 947.455 1000.21 947.765C1000.08 948.275 999.956 948.765 999.836 949.305L999.566 950.485L999.266 951.955L999.026 953.305C998.946 953.755 998.866 954.205 998.796 954.655C998.696 955.315 998.616 955.975 998.536 956.655C998.476 957.115 998.416 957.575 998.376 958.035C998.296 958.715 998.236 959.395 998.176 960.035C998.176 960.395 998.126 960.755 998.106 961.115C998.106 961.715 998.036 962.305 998.006 962.905C998.006 963.255 998.006 963.615 998.006 963.975C998.006 964.605 998.006 965.245 998.006 965.875C998.006 966.185 998.006 966.485 998.006 966.785C998.006 967.725 998.006 968.655 998.066 969.575C995.362 968.343 992.473 967.566 989.516 967.275C987.147 967.052 984.76 967.115 982.406 967.465C981.816 967.555 981.236 967.665 980.656 967.795C979.641 968.019 978.64 968.299 977.656 968.635C975.264 969.436 972.998 970.575 970.926 972.015C968.555 973.653 966.415 975.604 964.566 977.815H956.186C954.34 975.605 952.204 973.654 949.836 972.015C947.764 970.576 945.498 969.438 943.106 968.635C942.122 968.301 941.121 968.02 940.106 967.795C939.526 967.665 938.936 967.555 938.356 967.465C936.003 967.115 933.615 967.052 931.246 967.275C928.289 967.566 925.4 968.343 922.696 969.575C922.696 968.655 922.746 967.725 922.746 966.785V965.875C922.746 965.245 922.746 964.605 922.746 963.975V962.905C922.746 962.305 922.686 961.715 922.646 961.115C922.646 960.755 922.646 960.395 922.566 960.035C922.516 959.345 922.446 958.665 922.376 958.035C922.376 957.575 922.276 957.115 922.216 956.655C922.136 955.988 922.046 955.322 921.946 954.655C921.876 954.205 921.796 953.755 921.726 953.305C921.656 952.855 921.566 952.405 921.476 951.955C921.386 951.505 921.286 950.955 921.176 950.485C921.066 950.015 921.006 949.705 920.916 949.305C920.826 948.905 920.666 948.305 920.536 947.765C920.456 947.455 920.366 947.155 920.286 946.855C919.956 945.655 919.596 944.475 919.196 943.305C919.196 943.175 919.116 943.035 919.066 942.895C918.856 942.315 918.636 941.745 918.416 941.165C918.316 940.905 918.226 940.645 918.116 940.385C917.896 939.825 917.656 939.265 917.416 938.715C917.306 938.475 917.196 938.225 917.076 937.985C916.816 937.415 916.556 936.845 916.266 936.285C916.206 936.155 916.136 936.025 916.066 935.905C913.951 931.705 911.21 927.851 907.936 924.475C896.536 912.855 876.726 908.815 863.536 918.365C852.356 898.765 829.536 886.455 806.966 887.935C784.396 889.415 763.376 904.605 754.856 925.505C734.196 919.165 713.206 923.885 696.586 935.425C695.866 935.915 695.166 936.425 694.476 936.945L694.006 937.295C693.366 937.775 692.746 938.295 692.116 938.775L691.516 939.275C690.916 939.765 690.336 940.275 689.756 940.765L689.106 941.345C688.536 941.855 687.986 942.345 687.436 942.885L686.786 943.515L685.956 944.345C685.956 944.245 685.886 944.145 685.856 944.055C685.596 943.385 685.296 942.725 684.966 942.055C682.672 937.876 679.407 934.309 675.446 931.655C672.393 929.536 668.95 928.044 665.316 927.265C664.109 927.003 662.887 926.816 661.656 926.705C660.426 926.597 659.19 926.563 657.956 926.605C657.336 926.605 656.716 926.675 656.106 926.735C653.027 927.031 650.019 927.839 647.206 929.125C647.206 928.125 647.206 927.195 647.266 926.225C647.266 925.905 647.266 925.595 647.266 925.225C647.266 924.558 647.266 923.892 647.266 923.225C647.266 922.855 647.266 922.485 647.266 922.105C647.266 921.485 647.196 920.875 647.156 920.255C647.156 919.875 647.156 919.505 647.086 919.125C647.026 918.415 646.956 917.705 646.886 916.995C646.836 916.515 646.776 915.995 646.716 915.555C646.626 914.865 646.536 914.185 646.436 913.505C646.366 913.035 646.286 912.565 646.206 912.095C646.126 911.625 646.036 911.155 645.946 910.685C645.856 910.215 645.746 909.685 645.636 909.165C645.526 908.645 645.456 908.345 645.356 907.935C645.256 907.525 645.106 906.865 644.966 906.325C644.886 906.015 644.796 905.705 644.706 905.385C644.366 904.145 643.996 902.915 643.586 901.705C643.526 901.555 643.486 901.405 643.436 901.265C643.226 900.655 642.996 900.065 642.766 899.465C642.666 899.195 642.556 898.925 642.446 898.655C642.216 898.075 641.966 897.495 641.716 896.915L641.376 896.155C641.096 895.565 640.826 894.965 640.526 894.385C640.466 894.255 640.386 894.125 640.316 893.985C639.616 892.605 638.853 891.272 638.026 889.985C636.254 887.162 634.19 884.534 631.866 882.145C620.006 870.045 599.386 865.855 585.666 875.785C574.036 855.385 550.236 842.595 526.806 844.125C503.376 845.655 481.466 861.465 472.596 883.205C450.176 876.335 427.396 881.975 409.776 895.125L409.296 895.475C408.626 895.975 407.976 896.475 407.296 897.025L406.666 897.535C406.046 898.042 405.436 898.562 404.836 899.095L404.156 899.695C403.576 900.215 402.996 900.695 402.426 901.295L401.746 901.945C401.186 902.495 400.626 903.045 400.076 903.605C399.876 903.825 399.676 904.045 399.466 904.255C398.916 904.845 398.356 905.435 397.816 906.035C397.716 906.145 397.626 906.265 397.526 906.385C396.326 907.735 395.176 909.135 394.066 910.565L393.736 910.985C393.346 911.495 392.976 911.985 392.596 912.545L391.726 913.755C391.396 914.235 391.076 914.755 390.726 915.215C390.376 915.675 390.116 916.145 389.816 916.615C389.516 917.085 389.226 917.615 388.936 918.035C388.646 918.455 388.326 919.035 388.026 919.575L387.246 920.965C387.066 921.295 386.886 921.615 386.716 921.965C381.664 918.621 375.933 916.439 369.936 915.575C368.177 911.15 365.509 907.142 362.106 903.811C358.702 900.48 354.638 897.899 350.176 896.235C342.246 893.405 333.066 893.685 324.366 896.235C319.466 897.703 314.805 899.872 310.526 902.675L309.926 903.065C309.476 903.365 309.036 903.665 308.596 903.985C307.686 904.645 306.806 905.335 305.946 906.045L305.226 906.655L304.226 907.565L303.366 908.375C302.916 908.805 302.476 909.245 302.056 909.695C301.636 910.145 301.406 910.375 301.056 910.695L300.346 911.515C300.016 911.905 299.706 912.285 299.396 912.675L298.856 913.355C298.416 913.945 297.986 914.555 297.576 915.165L297.146 915.835C296.836 916.325 296.536 916.835 296.256 917.305L295.896 917.925C295.526 918.605 295.176 919.285 294.896 919.985L294.696 920.435C294.436 921.025 294.196 921.615 293.966 922.215C293.886 922.425 293.806 922.635 293.736 922.845C293.476 923.585 293.236 924.335 293.026 925.095C284.736 921.835 275.456 919.995 266.926 922.555C263.585 923.557 260.511 925.293 257.926 927.635C257.616 921.415 256.046 915.155 252.926 910.205C250.348 905.991 246.33 902.854 241.616 901.375C240.986 901.175 240.356 901.015 239.726 900.875L239.326 900.785C238.746 900.665 238.166 900.565 237.586 900.485L236.956 900.405C236.516 900.355 236.076 900.315 235.626 900.285C235.176 900.255 234.846 900.235 234.456 900.225H233.636C232.876 900.225 232.116 900.225 231.356 900.225C228.951 900.355 226.559 900.656 224.196 901.125C224.996 887.125 223.136 874.345 212.456 864.695C203.189 856.562 191.491 851.724 179.186 850.935C168.186 850.135 156.676 851.935 147.276 857.705C137.876 863.475 130.846 873.705 130.606 884.795C122.686 878.395 110.526 878.945 102.076 884.625C93.6263 890.305 88.6563 900.195 87.0763 910.255C84.8209 908.924 82.3908 907.914 79.8563 907.255C70.0763 904.785 60.9963 908.655 54.6363 915.655L54.4163 915.885C54.1063 916.225 53.8163 916.575 53.5163 916.885L53.1863 917.295L52.4063 918.295C52.2863 918.465 52.1563 918.635 52.0363 918.815L51.3463 919.815L50.9563 920.425C50.7563 920.755 50.5463 921.085 50.3563 921.425L49.9663 922.115C49.7863 922.445 49.6063 922.765 49.4363 923.115C49.2663 923.465 49.1863 923.635 49.0563 923.895C48.9263 924.155 48.7463 924.525 48.6063 924.895C48.4663 925.265 48.2263 925.775 48.0563 926.225C47.8863 926.675 47.7663 926.965 47.6363 927.335C47.5063 927.705 47.3563 928.095 47.2263 928.485L46.9863 929.285C46.8863 929.655 46.7763 930.015 46.6763 930.385C46.5763 930.755 46.5463 930.945 46.4763 931.225C46.4063 931.505 46.3063 931.955 46.2363 932.325C46.1663 932.695 46.1263 932.885 46.0763 933.165C46.0263 933.445 45.9463 933.915 45.8963 934.295C45.8463 934.675 45.8163 934.855 45.7863 935.135C45.7563 935.415 45.7063 935.905 45.6763 936.285C45.6463 936.665 45.6263 936.845 45.6063 937.125C45.5863 937.405 45.6063 937.925 45.6063 938.325C45.6063 938.725 45.6063 938.855 45.6063 939.115C45.6063 939.555 45.6063 940.005 45.6063 940.445C45.6063 940.665 45.6063 940.885 45.6063 941.115C45.6063 941.775 45.7063 942.435 45.7963 943.115C42.2913 942.02 38.5602 941.862 34.9754 942.659C31.3906 943.455 28.0774 945.178 25.3663 947.655C21.6829 951.163 19.398 955.889 18.9363 960.955C18.719 963.235 18.8949 965.535 19.4563 967.755C17.832 966.959 16.066 966.492 14.2603 966.382C12.4546 966.272 10.6451 966.521 8.93627 967.115C6.23169 967.991 3.87971 969.712 2.22627 972.025C1.12372 973.639 0.402229 975.482 0.116266 977.415C0.116266 977.515 0.116266 977.615 0.116266 977.715C-0.0387553 978.93 -0.0387553 980.16 0.116266 981.375V1085.66H1920.51Z" fill="white"/>
<path d="M1794.2 538.499L1792.44 542.499L1794.73 546.189C1794.75 546.23 1794.76 546.277 1794.76 546.325C1794.76 546.373 1794.75 546.42 1794.72 546.46C1794.7 546.501 1794.66 546.533 1794.62 546.554C1794.57 546.575 1794.52 546.584 1794.48 546.579L1790.13 546.139L1787.3 549.449C1787.27 549.485 1787.22 549.512 1787.18 549.526C1787.13 549.54 1787.08 549.541 1787.03 549.528C1786.99 549.516 1786.95 549.491 1786.91 549.455C1786.88 549.42 1786.86 549.376 1786.85 549.329L1785.93 545.099L1781.79 543.419C1781.75 543.402 1781.72 543.375 1781.7 543.341C1781.68 543.308 1781.67 543.269 1781.67 543.229C1781.67 543.189 1781.68 543.15 1781.7 543.116C1781.72 543.083 1781.75 543.056 1781.79 543.039L1785.65 540.809L1785.98 536.489C1785.98 536.441 1786 536.396 1786.03 536.358C1786.06 536.32 1786.1 536.29 1786.14 536.273C1786.18 536.255 1786.23 536.25 1786.28 536.258C1786.33 536.266 1786.37 536.287 1786.41 536.319L1789.67 539.209L1793.92 538.209C1793.96 538.206 1793.99 538.211 1794.03 538.225C1794.07 538.238 1794.1 538.26 1794.13 538.287C1794.15 538.315 1794.17 538.348 1794.19 538.385C1794.2 538.422 1794.2 538.46 1794.2 538.499Z" fill="white"/>
<path d="M1674.44 202.864L1667.44 207.984L1667.71 216.644C1667.71 216.739 1667.69 216.834 1667.64 216.916C1667.59 216.998 1667.52 217.065 1667.43 217.109C1667.35 217.154 1667.25 217.174 1667.16 217.168C1667.06 217.162 1666.97 217.129 1666.89 217.074L1659.79 212.024L1651.57 214.954C1651.48 214.985 1651.38 214.991 1651.29 214.971C1651.19 214.951 1651.11 214.905 1651.04 214.839C1650.97 214.773 1650.92 214.689 1650.9 214.596C1650.87 214.503 1650.87 214.406 1650.9 214.314L1653.55 206.064L1648.08 199.064C1648.03 199 1648.01 198.925 1648 198.847C1648 198.769 1648.01 198.691 1648.05 198.621C1648.08 198.551 1648.13 198.492 1648.2 198.45C1648.27 198.409 1648.34 198.385 1648.42 198.384H1657.35L1662.27 191.224C1662.33 191.144 1662.4 191.082 1662.49 191.044C1662.58 191.005 1662.67 190.992 1662.77 191.005C1662.87 191.019 1662.96 191.058 1663.03 191.12C1663.1 191.181 1663.16 191.262 1663.19 191.354L1665.93 199.574L1674.33 201.994C1674.41 202.029 1674.48 202.085 1674.53 202.156C1674.59 202.226 1674.62 202.31 1674.63 202.397C1674.64 202.485 1674.63 202.574 1674.6 202.656C1674.56 202.738 1674.51 202.809 1674.44 202.864Z" fill="white"/>
<path d="M1918.77 715.189C1965.52 711.321 2000.28 670.285 1996.41 623.534C1992.55 576.783 1951.51 542.019 1904.76 545.887C1858.01 549.756 1823.24 590.791 1827.11 637.542C1830.98 684.294 1872.02 719.057 1918.77 715.189Z" fill="#E3E3E4"/>
<path d="M1854.85 652.058C1854.85 651.121 1854.57 650.204 1854.05 649.425C1853.53 648.645 1852.79 648.038 1851.92 647.679C1851.05 647.32 1850.1 647.227 1849.18 647.409C1848.26 647.592 1847.42 648.044 1846.76 648.707C1846.09 649.37 1845.64 650.214 1845.46 651.134C1845.27 652.053 1845.37 653.006 1845.73 653.872C1846.09 654.738 1846.69 655.479 1847.47 656C1848.25 656.52 1849.17 656.798 1850.11 656.798C1850.73 656.798 1851.35 656.676 1851.92 656.438C1852.5 656.199 1853.02 655.85 1853.46 655.41C1853.9 654.97 1854.25 654.447 1854.49 653.872C1854.72 653.297 1854.85 652.681 1854.85 652.058Z" fill="#CDCFD0"/>
<path d="M1859.76 673.368C1859.76 675.694 1860.45 677.968 1861.74 679.902C1863.03 681.836 1864.87 683.343 1867.02 684.233C1869.17 685.123 1871.53 685.356 1873.81 684.902C1876.09 684.449 1878.19 683.329 1879.83 681.684C1881.48 680.039 1882.6 677.944 1883.05 675.663C1883.5 673.381 1883.27 671.017 1882.38 668.868C1881.49 666.719 1879.98 664.883 1878.05 663.59C1876.12 662.298 1873.84 661.608 1871.52 661.608C1868.4 661.608 1865.41 662.847 1863.2 665.053C1861 667.258 1859.76 670.249 1859.76 673.368Z" fill="#CDCFD0"/>
<path d="M1905 573.649C1905 575.134 1905.44 576.586 1906.26 577.821C1907.09 579.056 1908.26 580.019 1909.63 580.587C1911 581.155 1912.51 581.304 1913.97 581.014C1915.43 580.725 1916.77 580.009 1917.82 578.959C1918.87 577.909 1919.58 576.571 1919.87 575.114C1920.16 573.657 1920.01 572.147 1919.44 570.775C1918.88 569.402 1917.91 568.23 1916.68 567.404C1915.44 566.579 1913.99 566.139 1912.51 566.139C1910.51 566.139 1908.6 566.93 1907.2 568.338C1905.79 569.747 1905 571.657 1905 573.649Z" fill="#CDCFD0"/>
<path d="M1939.58 710.758C1938.35 703.933 1934.8 697.743 1929.53 693.24C1924.26 688.737 1917.59 686.199 1910.65 686.059C1903.72 685.919 1896.95 688.184 1891.5 692.47C1886.05 696.756 1882.26 702.798 1880.76 709.568C1899.6 716.95 1920.45 717.372 1939.58 710.758Z" fill="#A3A4A7"/>
<path d="M1863.76 628.499C1866.92 628.499 1870.01 627.56 1872.65 625.802C1875.28 624.044 1877.33 621.545 1878.54 618.621C1879.75 615.698 1880.07 612.481 1879.45 609.377C1878.83 606.273 1877.31 603.422 1875.07 601.185C1872.83 598.947 1869.98 597.423 1866.88 596.806C1863.77 596.189 1860.56 596.505 1857.63 597.716C1854.71 598.927 1852.21 600.978 1850.45 603.609C1848.7 606.241 1847.76 609.334 1847.76 612.499C1847.76 616.742 1849.44 620.812 1852.44 623.812C1855.44 626.813 1859.51 628.499 1863.76 628.499Z" fill="#A3A4A7"/>
<path d="M1913.34 614.328C1913.34 613.391 1913.06 612.474 1912.54 611.695C1912.02 610.915 1911.28 610.308 1910.41 609.949C1909.54 609.59 1908.59 609.497 1907.67 609.679C1906.75 609.862 1905.91 610.314 1905.25 610.977C1904.58 611.64 1904.13 612.484 1903.95 613.404C1903.77 614.323 1903.86 615.276 1904.22 616.142C1904.58 617.008 1905.18 617.749 1905.96 618.27C1906.74 618.79 1907.66 619.068 1908.6 619.068C1909.85 619.068 1911.06 618.569 1911.95 617.68C1912.84 616.791 1913.34 615.586 1913.34 614.328Z" fill="#CDCFD0"/>
<path d="M1898.3 647.979C1896.81 647.979 1895.36 648.419 1894.12 649.244C1892.89 650.069 1891.93 651.242 1891.36 652.615C1890.79 653.987 1890.64 655.497 1890.93 656.954C1891.22 658.41 1891.94 659.749 1892.99 660.799C1894.04 661.849 1895.37 662.564 1896.83 662.854C1898.29 663.144 1899.8 662.995 1901.17 662.427C1902.54 661.858 1903.72 660.896 1904.54 659.661C1905.37 658.426 1905.81 656.974 1905.81 655.489C1905.81 653.497 1905.02 651.587 1903.61 650.178C1902.2 648.77 1900.29 647.979 1898.3 647.979Z" fill="#CDCFD0"/>
<path d="M288.82 401.41C288.82 421.073 282.989 440.294 272.064 456.642C261.14 472.991 245.612 485.732 227.446 493.256C209.279 500.779 189.29 502.746 170.005 498.908C150.721 495.069 133.007 485.599 119.106 471.693C105.204 457.787 95.7389 440.071 91.9065 420.786C88.0742 401.5 90.0471 381.511 97.5758 363.347C105.104 345.182 117.851 329.659 134.203 318.739C150.554 307.819 169.777 301.994 189.44 302C215.801 302.005 241.08 312.481 259.717 331.124C278.354 349.767 288.823 375.049 288.82 401.41Z" fill="#6CACDE"/>
<path d="M195.72 465.78C198.77 460.36 195.39 449.17 195.39 446.46C195.39 443.75 180.13 436.27 176.44 434.94C172.75 433.61 171.02 435.62 171.02 435.62C171.02 435.62 149.02 442.06 146.27 446.46C143.52 450.86 126.27 442.06 125.6 437.99C124.93 433.92 120.86 421.72 120.52 420.37C120.18 419.02 102.22 406.47 100.18 406.13C99.1799 405.97 95.0599 407.46 90.4199 409.78C92.3411 432.482 102.003 453.836 117.788 470.265C133.573 486.694 154.523 497.202 177.13 500.03C177.47 494.19 176.59 488.75 177.13 481.71C177.81 472.56 178.83 476.63 185.61 473.24C192.39 469.85 192.68 471.2 195.72 465.78Z" fill="#B4DB3F"/>
<path d="M241.13 316.5C235.45 324.78 230.73 335.5 235.04 344.79C243.51 363.09 257.04 355.64 245.54 382.07C234.04 408.5 225.54 396.98 226.9 423.07C228.26 449.16 233 464.75 241.82 464.42C250.64 464.09 253 428.83 276.04 432.22C278.519 432.579 280.955 433.188 283.31 434.04C290.77 412.576 290.653 389.205 282.978 367.817C275.303 346.429 260.534 328.315 241.13 316.49V316.5Z" fill="#B4DB3F"/>
<path d="M124.221 340.39C132.351 345.13 134.041 344.79 144.551 359.39C155.061 373.99 141.161 377.39 137.771 389.89C134.381 402.39 135.061 411.24 139.771 415.3C144.481 419.36 173.671 417.68 171.631 407.85C169.591 398.02 169.261 384.8 169.261 373.28C169.261 361.76 177.731 369.21 188.921 364.47C200.111 359.73 198.071 339.73 198.071 336C198.071 332.27 188.921 318 182.141 314C179.281 312.29 174.501 308.16 169.921 304C147.171 308.541 126.729 320.902 112.141 338.94C115.441 339.73 119.791 337.8 124.221 340.39Z" fill="#B4DB3F"/>
<path d="M230.01 366.52C229.014 365.264 227.731 364.267 226.269 363.611C224.808 362.955 223.209 362.659 221.61 362.75C220.489 362.77 219.378 362.952 218.31 363.29C213.57 364.8 210.65 369.7 210.07 374.5C209.57 378.6 211.77 393.14 212.07 394.5C212.566 397.059 212.69 399.676 212.44 402.27C212.26 403.74 216.36 401.71 216.79 401.5C219.41 400.23 221.96 398.84 223.5 396.27C225.21 393.42 225.56 389.96 226.84 386.93C229.44 380.79 234.73 372.98 230.01 366.52Z" fill="#B4DB3F"/>
<path d="M277.75 650.7L275.99 654.7L278.29 658.39C278.314 658.431 278.327 658.479 278.326 658.526C278.325 658.574 278.31 658.621 278.285 658.661C278.259 658.702 278.222 658.734 278.179 658.755C278.136 658.776 278.088 658.785 278.04 658.78L273.69 658.34L270.86 661.65C270.828 661.686 270.787 661.713 270.74 661.727C270.694 661.741 270.645 661.742 270.598 661.729C270.551 661.717 270.509 661.692 270.476 661.656C270.442 661.621 270.42 661.577 270.41 661.53L269.48 657.3L265.35 655.62C265.314 655.603 265.284 655.576 265.262 655.542C265.241 655.509 265.229 655.47 265.229 655.43C265.229 655.39 265.241 655.351 265.262 655.317C265.284 655.284 265.314 655.257 265.35 655.24L269.21 653.01L269.54 648.69C269.547 648.642 269.566 648.597 269.596 648.56C269.626 648.522 269.665 648.493 269.71 648.476C269.755 648.458 269.804 648.453 269.851 648.461C269.899 648.469 269.943 648.489 269.98 648.52L273.24 651.41L277.49 650.41C277.527 650.41 277.563 650.417 277.597 650.432C277.631 650.447 277.661 650.469 277.685 650.496C277.71 650.524 277.728 650.556 277.74 650.591C277.751 650.626 277.754 650.663 277.75 650.7Z" fill="white"/>
<path d="M1655.15 807L1648.1 812.13L1648.37 820.79C1648.37 820.886 1648.35 820.98 1648.3 821.062C1648.25 821.144 1648.18 821.211 1648.09 821.256C1648.01 821.3 1647.91 821.321 1647.82 821.314C1647.72 821.308 1647.63 821.275 1647.55 821.22L1640.45 816.16L1632.22 819.09C1632.13 819.122 1632.03 819.128 1631.94 819.108C1631.84 819.087 1631.76 819.042 1631.69 818.975C1631.62 818.909 1631.57 818.825 1631.55 818.732C1631.52 818.64 1631.52 818.542 1631.55 818.45L1634.21 810.2L1628.74 803.2C1628.69 803.138 1628.66 803.064 1628.65 802.985C1628.64 802.907 1628.66 802.828 1628.69 802.757C1628.73 802.686 1628.78 802.626 1628.85 802.584C1628.91 802.542 1628.99 802.52 1629.07 802.52H1638.01L1642.93 795.37C1642.98 795.291 1643.06 795.228 1643.15 795.189C1643.23 795.149 1643.33 795.135 1643.43 795.147C1643.52 795.16 1643.61 795.198 1643.69 795.259C1643.76 795.319 1643.82 795.399 1643.85 795.49L1646.59 803.71L1654.98 806.14C1655.06 806.17 1655.14 806.22 1655.2 806.287C1655.25 806.354 1655.29 806.435 1655.31 806.522C1655.33 806.608 1655.32 806.698 1655.29 806.782C1655.26 806.866 1655.22 806.941 1655.15 807Z" fill="white"/>
<path d="M85.049 798.93C77.369 798.93 67.499 801.17 61.299 805.93C54.229 811.36 54.479 818.68 55.599 826.78C56.389 832.5 58.279 838.31 62.189 842.08C66.929 848 74.349 848.08 80.969 850.48C96.399 856.04 109.169 841.26 111.469 827.38C114.159 811.17 100.739 799.01 85.049 798.93Z" fill="#DB4E19"/>
<path d="M89.5091 804.819C90.6796 800.698 91.2686 796.434 91.2591 792.149C91.2591 789.969 87.8991 790.429 87.8991 792.579C87.8982 796.271 87.3902 799.946 86.3891 803.499C85.8091 805.579 88.9191 806.909 89.5091 804.819Z" fill="#614645"/>
<path d="M88.1591 797.29C88.7191 793.69 84.6792 790.11 81.9192 788.47C77.1892 785.65 71.6091 785.36 66.2491 785C65.6691 785 64.9791 785.56 65.3291 786.19C69.3291 793.34 76.4492 799.83 86.8992 798.01C87.9292 797.82 88.1791 797.31 88.1591 797.29Z" fill="#84B693"/>
<path d="M69.9999 787.83C72.8799 789.65 76.1399 790.67 78.9999 792.56C81.4099 794.14 83.74 795.95 86.53 796.83C86.5663 796.837 86.6039 796.831 86.6366 796.814C86.6692 796.796 86.6948 796.768 86.7089 796.734C86.7231 796.7 86.725 796.662 86.7142 796.626C86.7034 796.591 86.6807 796.56 86.65 796.54C83.65 795.01 80.8199 793.3 77.9399 791.54C75.4099 790.03 72.6499 789.05 70.0499 787.68C69.9899 787.68 69.92 787.76 69.98 787.8L69.9999 787.83Z" fill="#727B24"/>
<path d="M78.3198 795.62C79.9156 795.962 81.5804 795.75 83.0398 795.02C83.1498 794.95 83.0398 794.8 82.9598 794.81C82.1798 794.86 81.4298 795.16 80.6598 795.28C79.8898 795.4 79.0898 795.38 78.3198 795.5C78.3039 795.5 78.2886 795.506 78.2773 795.517C78.2661 795.528 78.2598 795.544 78.2598 795.56C78.2598 795.575 78.2661 795.591 78.2773 795.602C78.2886 795.613 78.3039 795.62 78.3198 795.62Z" fill="#727B24"/>
<path d="M77.0794 789.27C77.4177 789.688 77.722 790.133 77.9894 790.6C78.19 791.047 78.3571 791.508 78.4894 791.98C78.51 792.024 78.5453 792.06 78.5893 792.08C78.6334 792.101 78.6833 792.106 78.7306 792.095C78.7779 792.083 78.8196 792.055 78.8486 792.016C78.8775 791.976 78.892 791.928 78.8894 791.88C78.8096 791.331 78.6129 790.806 78.3127 790.341C78.0125 789.875 77.6158 789.479 77.1494 789.18C77.0994 789.18 77.0494 789.23 77.0794 789.27Z" fill="#727B24"/>
<path d="M109.32 816.26C108.55 813.81 107.32 809.99 104.12 810.62C103.776 810.674 103.467 810.858 103.255 811.133C103.043 811.408 102.945 811.754 102.98 812.1C103.437 814.137 104.028 816.141 104.75 818.1C105.39 820.31 105.45 822.69 106.4 824.8C106.459 824.926 106.546 825.037 106.656 825.124C106.765 825.211 106.893 825.271 107.03 825.3C107.8 826.2 108.65 826.4 109.38 825.3C110.91 822.93 110.07 818.71 109.32 816.26Z" fill="white"/>
<path d="M102.759 810.34C103.166 810.159 103.487 809.829 103.657 809.417C103.826 809.005 103.831 808.544 103.669 808.13C103.503 807.757 103.213 807.454 102.848 807.271C102.483 807.089 102.066 807.039 101.669 807.13C101.35 807.134 101.039 807.23 100.775 807.408C100.51 807.585 100.303 807.836 100.179 808.13C100.011 808.544 100.011 809.008 100.179 809.422C100.347 809.837 100.67 810.169 101.079 810.35C101.343 810.47 101.63 810.531 101.92 810.53C102.21 810.528 102.496 810.463 102.759 810.34Z" fill="white"/>
<path d="M107.58 829.02C107.58 828.53 106.84 828.45 106.58 828.88C105.923 829.921 105.431 831.058 105.12 832.25C105.065 832.451 105.067 832.664 105.125 832.864C105.183 833.065 105.295 833.246 105.448 833.387C105.602 833.529 105.792 833.625 105.997 833.666C106.202 833.707 106.414 833.691 106.61 833.62C107.007 833.438 107.352 833.159 107.614 832.81C107.876 832.461 108.046 832.051 108.11 831.62C108.3 830.81 108.39 829.55 107.58 829.05C107.6 829.02 107.59 829.02 107.58 829.02Z" fill="white"/>
<path d="M221.619 163.499C221.712 161.987 222.162 160.519 222.933 159.215C223.703 157.911 224.772 156.808 226.052 155.997C227.331 155.186 228.785 154.69 230.293 154.549C231.802 154.409 233.322 154.628 234.729 155.189C235.555 152.12 237.418 149.431 240.002 147.579C242.585 145.727 245.73 144.825 248.902 145.028C252.075 145.231 255.079 146.524 257.406 148.69C259.733 150.856 261.239 153.76 261.669 156.909C262.986 156.234 264.449 155.891 265.929 155.909C268.134 155.91 270.265 156.7 271.938 158.136C273.611 159.572 274.714 161.56 275.049 163.739C276.09 164.072 276.978 164.765 277.556 165.692C278.134 166.62 278.364 167.723 278.204 168.804C278.044 169.885 277.506 170.874 276.684 171.595C275.862 172.316 274.812 172.721 273.719 172.739C273.026 172.737 272.343 172.579 271.719 172.279C270.075 173.589 268.031 174.295 265.929 174.279C265.115 174.276 264.305 174.168 263.519 173.959C262.91 175.577 261.86 176.991 260.487 178.041C259.114 179.091 257.474 179.734 255.754 179.897C254.033 180.061 252.302 179.738 250.756 178.966C249.209 178.194 247.911 177.003 247.009 175.529C244.868 176.599 242.441 176.956 240.083 176.55C237.725 176.143 235.558 174.994 233.899 173.269C233.018 173.527 232.106 173.658 231.189 173.659C228.884 173.664 226.657 172.832 224.919 171.319C224.389 171.866 223.731 172.273 223.006 172.503C222.28 172.734 221.508 172.781 220.76 172.64C220.012 172.5 219.31 172.176 218.717 171.698C218.124 171.22 217.659 170.603 217.363 169.902C217.067 169.2 216.949 168.436 217.02 167.678C217.091 166.92 217.349 166.191 217.771 165.557C218.192 164.923 218.764 164.403 219.436 164.044C220.107 163.685 220.857 163.498 221.619 163.499Z" fill="white" fill-opacity="0.3"/>
<path d="M1719.96 149.893C1720.19 146.221 1721.81 142.775 1724.49 140.259C1727.18 137.743 1730.72 136.346 1734.4 136.353C1736.24 136.334 1738.07 136.673 1739.79 137.353C1741.04 132.728 1743.84 128.678 1747.74 125.887C1751.63 123.097 1756.37 121.738 1761.15 122.042C1765.93 122.345 1770.46 124.293 1773.96 127.553C1777.47 130.814 1779.75 135.188 1780.4 139.933C1782.36 138.912 1784.54 138.374 1786.75 138.363C1788.96 138.351 1791.14 138.867 1793.11 139.867C1795.09 140.867 1796.79 142.322 1798.09 144.113C1799.39 145.903 1800.24 147.977 1800.58 150.163C1801.56 150.386 1802.48 150.818 1803.27 151.429C1804.07 152.04 1804.73 152.815 1805.2 153.702C1805.67 154.589 1805.95 155.567 1806.01 156.57C1806.07 157.573 1805.91 158.577 1805.55 159.513C1805.18 160.45 1804.62 161.298 1803.91 161.999C1803.19 162.7 1802.32 163.239 1801.38 163.577C1800.43 163.916 1799.43 164.047 1798.42 163.962C1797.42 163.876 1796.45 163.577 1795.58 163.083C1793.09 165.1 1789.99 166.195 1786.79 166.183C1785.56 166.182 1784.34 166.021 1783.16 165.703C1782.25 168.146 1780.66 170.283 1778.59 171.869C1776.52 173.456 1774.05 174.428 1771.45 174.676C1768.86 174.923 1766.24 174.435 1763.91 173.267C1761.58 172.1 1759.62 170.3 1758.27 168.073C1755.03 169.686 1751.36 170.222 1747.8 169.601C1744.24 168.981 1740.97 167.236 1738.47 164.623C1736.15 165.308 1733.69 165.398 1731.33 164.884C1728.96 164.37 1726.76 163.269 1724.94 161.683C1724.14 162.506 1723.15 163.118 1722.06 163.466C1720.96 163.813 1719.8 163.885 1718.67 163.675C1717.55 163.464 1716.49 162.978 1715.6 162.259C1714.7 161.541 1714 160.612 1713.55 159.556C1713.1 158.5 1712.92 157.35 1713.03 156.208C1713.13 155.066 1713.52 153.968 1714.15 153.011C1714.78 152.054 1715.64 151.269 1716.65 150.725C1717.66 150.181 1718.79 149.895 1719.94 149.893H1719.96Z" fill="white" fill-opacity="0.3"/>
<path d="M273.671 570.004C273.849 567.142 274.703 564.363 276.165 561.897C277.626 559.43 279.652 557.345 282.076 555.814C284.5 554.283 287.254 553.35 290.109 553.091C292.964 552.832 295.841 553.254 298.501 554.324C300.058 548.506 303.581 543.407 308.473 539.894C313.365 536.38 319.322 534.67 325.332 535.053C331.343 535.436 337.035 537.889 341.441 541.994C345.847 546.1 348.695 551.605 349.501 557.574C351.96 556.289 354.69 555.611 357.465 555.594C360.239 555.578 362.978 556.224 365.452 557.478C367.927 558.733 370.066 560.561 371.692 562.809C373.318 565.057 374.384 567.661 374.801 570.404C376.803 571.006 378.523 572.309 379.645 574.074C380.768 575.838 381.219 577.948 380.916 580.017C380.613 582.087 379.576 583.978 377.994 585.347C376.413 586.716 374.392 587.47 372.301 587.474C370.991 587.477 369.697 587.18 368.521 586.604C366.378 588.339 363.853 589.541 361.155 590.11C358.457 590.678 355.662 590.597 353.001 589.874C351.857 592.938 349.876 595.619 347.281 597.611C344.687 599.603 341.585 600.825 338.329 601.138C335.073 601.451 331.795 600.842 328.869 599.38C325.943 597.919 323.487 595.664 321.781 592.874C317.722 594.903 313.12 595.578 308.65 594.8C304.18 594.023 300.076 591.834 296.941 588.554C295.281 589.04 293.56 589.289 291.831 589.294C287.473 589.295 283.261 587.722 279.971 584.864C278.968 585.895 277.725 586.662 276.353 587.096C274.982 587.531 273.524 587.619 272.11 587.354C270.696 587.088 269.37 586.477 268.249 585.574C267.129 584.671 266.249 583.506 265.689 582.181C265.128 580.855 264.905 579.412 265.037 577.98C265.17 576.547 265.655 575.17 266.449 573.97C267.243 572.77 268.322 571.786 269.589 571.104C270.856 570.423 272.272 570.065 273.711 570.064L273.671 570.004Z" fill="white" fill-opacity="0.3"/>
<path d="M1547.11 674.52C1547.32 670.876 1548.39 667.335 1550.25 664.19C1552.1 661.044 1554.67 658.384 1557.75 656.43C1560.84 654.476 1564.34 653.284 1567.97 652.951C1571.61 652.619 1575.27 653.157 1578.66 654.52C1580.65 647.134 1585.13 640.664 1591.35 636.207C1597.57 631.75 1605.14 629.581 1612.77 630.067C1620.4 630.553 1627.64 633.665 1633.24 638.874C1638.84 644.084 1642.47 651.071 1643.51 658.65C1646.64 657.008 1650.12 656.139 1653.65 656.115C1657.19 656.091 1660.68 656.913 1663.84 658.512C1666.99 660.111 1669.72 662.44 1671.79 665.307C1673.86 668.173 1675.22 671.493 1675.75 674.99C1677.22 675.421 1678.59 676.154 1679.77 677.142C1680.95 678.131 1681.91 679.354 1682.59 680.733C1683.27 682.113 1683.66 683.619 1683.73 685.156C1683.79 686.692 1683.54 688.226 1682.99 689.66C1682.43 691.095 1681.58 692.397 1680.49 693.486C1679.41 694.575 1678.11 695.426 1676.67 695.986C1675.24 696.545 1673.71 696.8 1672.17 696.736C1670.63 696.671 1669.13 696.288 1667.75 695.61C1665.02 697.814 1661.8 699.34 1658.37 700.063C1654.94 700.786 1651.38 700.685 1648 699.77C1646.54 703.668 1644.01 707.077 1640.71 709.608C1637.4 712.14 1633.45 713.691 1629.31 714.085C1625.16 714.479 1620.99 713.7 1617.27 711.838C1613.55 709.975 1610.42 707.103 1608.26 703.55C1603.09 706.124 1597.23 706.979 1591.55 705.99C1585.86 705 1580.64 702.218 1576.65 698.05C1574.53 698.67 1572.34 698.987 1570.14 698.99C1564.6 699.002 1559.25 697.013 1555.07 693.39C1553.79 694.704 1552.21 695.682 1550.47 696.237C1548.72 696.792 1546.87 696.907 1545.07 696.572C1543.27 696.236 1541.58 695.46 1540.15 694.314C1538.72 693.167 1537.6 691.685 1536.88 690C1536.17 688.315 1535.88 686.479 1536.05 684.655C1536.21 682.832 1536.83 681.077 1537.83 679.549C1538.84 678.02 1540.21 676.765 1541.82 675.894C1543.43 675.024 1545.23 674.565 1547.07 674.56L1547.11 674.52Z" fill="white" fill-opacity="0.3"/>
<g style="mix-blend-mode:screen" opacity="0.9">
<path d="M1339.65 580.037C1340.68 580.525 1341.71 580.436 1342.62 579.781C1343.21 579.437 1343.83 578.566 1343.32 577.333C1342.46 575.393 1340.5 574.741 1339.38 574.239C1338.56 573.684 1337.71 573.531 1336.92 573.795C1336.11 574.343 1336.33 575.855 1336.97 577.1C1337.74 578.539 1338.67 579.562 1339.65 580.037Z" fill="white" fill-opacity="0.8"/>
</g>
<g style="mix-blend-mode:screen" opacity="0.9">
<path d="M1344.85 578.415C1344.8 578.362 1344.75 578.289 1344.71 578.199C1344.66 578.109 1344.63 578.006 1344.61 577.896C1344.59 577.787 1344.58 577.673 1344.58 577.563C1344.58 577.453 1344.6 577.35 1344.62 577.26C1344.84 576.514 1345.5 576.392 1345.93 576.615C1346.04 576.647 1346.15 576.743 1346.24 576.889C1346.33 577.035 1346.41 577.225 1346.45 577.435C1346.49 577.645 1346.5 577.865 1346.48 578.066C1346.46 578.267 1346.41 578.44 1346.33 578.563C1346.12 578.788 1345.87 578.864 1345.61 578.782C1345.36 578.834 1345.09 578.704 1344.85 578.415Z" fill="white" fill-opacity="0.8"/>
</g>
<path d="M1464.9 494.368L1463.14 498.368L1465.43 502.058C1465.45 502.099 1465.46 502.145 1465.46 502.192C1465.46 502.239 1465.45 502.285 1465.42 502.325C1465.4 502.365 1465.36 502.398 1465.32 502.419C1465.28 502.441 1465.23 502.451 1465.19 502.448L1460.83 502.008L1458 505.308C1457.97 505.345 1457.92 505.372 1457.88 505.386C1457.83 505.401 1457.78 505.403 1457.74 505.391C1457.69 505.38 1457.65 505.356 1457.62 505.322C1457.58 505.288 1457.56 505.245 1457.55 505.198L1456.63 500.968L1452.49 499.288C1452.45 499.271 1452.42 499.245 1452.4 499.211C1452.38 499.177 1452.37 499.138 1452.37 499.098C1452.37 499.059 1452.38 499.02 1452.4 498.986C1452.42 498.952 1452.45 498.925 1452.49 498.908L1456.35 496.678L1456.68 492.358C1456.68 492.311 1456.7 492.266 1456.73 492.227C1456.76 492.189 1456.8 492.16 1456.84 492.142C1456.88 492.125 1456.93 492.12 1456.98 492.128C1457.03 492.136 1457.07 492.157 1457.11 492.188L1460.37 495.078L1464.62 494.078C1464.66 494.075 1464.69 494.081 1464.73 494.094C1464.77 494.108 1464.8 494.129 1464.83 494.157C1464.85 494.185 1464.87 494.218 1464.89 494.255C1464.9 494.291 1464.9 494.33 1464.9 494.368Z" fill="#EDC33E"/>
<path d="M1549.5 799.857L1542.45 804.987L1542.72 813.647C1542.72 813.743 1542.7 813.837 1542.65 813.919C1542.6 814.001 1542.53 814.068 1542.44 814.113C1542.36 814.157 1542.26 814.177 1542.17 814.171C1542.07 814.165 1541.98 814.132 1541.9 814.077L1534.8 809.017L1526.57 811.947C1526.48 811.979 1526.38 811.985 1526.29 811.965C1526.19 811.944 1526.11 811.898 1526.04 811.832C1525.97 811.766 1525.92 811.682 1525.9 811.589C1525.87 811.497 1525.87 811.399 1525.9 811.307L1528.56 803.057L1523.09 796.057C1523.04 795.995 1523.01 795.921 1523 795.842C1522.99 795.764 1523.01 795.685 1523.04 795.614C1523.08 795.543 1523.13 795.483 1523.2 795.441C1523.26 795.399 1523.34 795.377 1523.42 795.377H1532.36L1537.28 788.227C1537.33 788.148 1537.41 788.085 1537.5 788.045C1537.58 788.006 1537.68 787.992 1537.78 788.004C1537.87 788.017 1537.96 788.055 1538.04 788.116C1538.11 788.176 1538.17 788.256 1538.2 788.347L1540.94 796.567L1549.33 798.997C1549.41 799.027 1549.49 799.077 1549.55 799.144C1549.6 799.211 1549.64 799.292 1549.66 799.379C1549.68 799.465 1549.67 799.555 1549.64 799.639C1549.62 799.723 1549.57 799.798 1549.5 799.857Z" fill="#EDC33E"/>
<path d="M1172 208.08L1168.48 216.01L1173.07 223.38C1173.12 223.463 1173.14 223.557 1173.14 223.653C1173.14 223.749 1173.11 223.842 1173.06 223.923C1173.01 224.004 1172.93 224.069 1172.85 224.11C1172.76 224.152 1172.67 224.169 1172.57 224.16L1163.88 223.28L1158.22 229.89C1158.16 229.963 1158.07 230.016 1157.98 230.045C1157.89 230.074 1157.79 230.076 1157.7 230.052C1157.61 230.028 1157.52 229.979 1157.45 229.91C1157.39 229.841 1157.34 229.754 1157.32 229.66L1155.47 221.2L1147.21 217.84C1147.14 217.809 1147.08 217.759 1147.03 217.695C1146.98 217.632 1146.96 217.557 1146.95 217.478C1146.94 217.4 1146.96 217.321 1146.99 217.251C1147.03 217.181 1147.08 217.122 1147.15 217.08L1154.87 212.63L1155.53 204C1155.54 203.904 1155.57 203.812 1155.63 203.735C1155.69 203.657 1155.76 203.597 1155.85 203.56C1155.94 203.524 1156.04 203.513 1156.13 203.529C1156.23 203.545 1156.32 203.587 1156.39 203.65L1162.91 209.42L1171.41 207.42C1171.5 207.401 1171.59 207.406 1171.67 207.434C1171.76 207.462 1171.84 207.512 1171.9 207.579C1171.96 207.646 1172 207.728 1172.02 207.816C1172.03 207.904 1172.03 207.995 1172 208.08Z" fill="#EDC33E"/>
<path d="M1569.7 569.87L1567.94 573.87L1570.23 577.56C1570.25 577.6 1570.27 577.647 1570.27 577.694C1570.26 577.741 1570.25 577.787 1570.23 577.827C1570.2 577.867 1570.17 577.899 1570.13 577.921C1570.08 577.943 1570.04 577.953 1569.99 577.95L1565.63 577.51L1562.8 580.81C1562.77 580.846 1562.73 580.873 1562.68 580.888C1562.64 580.902 1562.59 580.904 1562.54 580.893C1562.49 580.881 1562.45 580.857 1562.42 580.823C1562.38 580.789 1562.36 580.747 1562.35 580.7L1561.43 576.47L1557.29 574.79C1557.25 574.773 1557.22 574.746 1557.2 574.712C1557.18 574.679 1557.17 574.64 1557.17 574.6C1557.17 574.56 1557.18 574.521 1557.2 574.487C1557.22 574.454 1557.25 574.427 1557.29 574.41L1561.15 572.18L1561.48 567.86C1561.48 567.812 1561.5 567.767 1561.53 567.729C1561.56 567.691 1561.6 567.661 1561.64 567.644C1561.69 567.626 1561.74 567.621 1561.78 567.629C1561.83 567.637 1561.87 567.658 1561.91 567.69L1565.17 570.58L1569.42 569.58C1569.46 569.577 1569.5 569.582 1569.53 569.596C1569.57 569.609 1569.6 569.631 1569.63 569.658C1569.66 569.686 1569.68 569.719 1569.69 569.756C1569.7 569.793 1569.7 569.832 1569.7 569.87Z" fill="#EDC33E"/>
<path d="M525.369 220.33L518.319 225.46L518.589 234.11C518.59 234.206 518.565 234.3 518.516 234.382C518.467 234.465 518.396 234.532 518.311 234.576C518.226 234.621 518.131 234.641 518.035 234.634C517.94 234.628 517.848 234.595 517.769 234.54L510.669 229.54L502.439 232.47C502.349 232.502 502.251 232.508 502.158 232.488C502.064 232.467 501.978 232.422 501.908 232.355C501.839 232.289 501.789 232.205 501.765 232.112C501.74 232.02 501.742 231.922 501.769 231.83L504.429 223.58L498.959 216.58C498.913 216.518 498.885 216.443 498.878 216.365C498.872 216.288 498.887 216.21 498.922 216.14C498.958 216.071 499.012 216.012 499.078 215.972C499.145 215.931 499.221 215.91 499.299 215.91L508.229 215.86L513.149 208.7C513.204 208.621 513.28 208.559 513.369 208.52C513.457 208.481 513.554 208.468 513.65 208.482C513.745 208.495 513.835 208.535 513.909 208.596C513.983 208.658 514.039 208.739 514.069 208.83L516.809 217.05L525.209 219.47C525.292 219.501 525.365 219.553 525.422 219.62C525.479 219.687 525.517 219.768 525.533 219.855C525.549 219.942 525.542 220.031 525.514 220.114C525.485 220.197 525.435 220.272 525.369 220.33Z" fill="#EDC33E"/>
<path d="M434.56 722.13L427.56 727.25L427.83 735.91C427.831 736.006 427.805 736.1 427.756 736.182C427.707 736.265 427.636 736.332 427.551 736.376C427.466 736.42 427.371 736.441 427.275 736.434C427.18 736.428 427.088 736.395 427.01 736.34L419.91 731.29L411.68 734.21C411.589 734.246 411.49 734.255 411.394 734.237C411.298 734.218 411.21 734.172 411.14 734.105C411.069 734.037 411.019 733.951 410.996 733.857C410.973 733.762 410.978 733.662 411.01 733.57L413.67 725.33L408.2 718.33C408.151 718.268 408.12 718.194 408.112 718.115C408.103 718.037 408.117 717.958 408.152 717.887C408.186 717.816 408.24 717.756 408.307 717.714C408.373 717.672 408.451 717.65 408.53 717.65H417.46L422.38 710.49C422.434 710.411 422.509 710.348 422.596 710.309C422.684 710.269 422.781 710.255 422.876 710.268C422.972 710.28 423.062 710.319 423.136 710.379C423.211 710.44 423.268 710.52 423.3 710.61L426 718.8L434.39 721.22C434.484 721.244 434.569 721.295 434.636 721.366C434.703 721.437 434.748 721.525 434.765 721.621C434.783 721.717 434.773 721.815 434.737 721.906C434.7 721.996 434.639 722.074 434.56 722.13Z" fill="#EDC33E"/>
</g>
<defs>
<radialGradient id="paint0_radial_2_61" cx="0" cy="0" r="1" gradientUnits="userSpaceOnUse" gradientTransform="translate(960 512) rotate(90) scale(512 960)">
<stop stop-color="#FFFF97"/>
<stop offset="1" stop-color="#FF9B0B"/>
</radialGradient>
<radialGradient id="paint1_radial_2_61" cx="0" cy="0" r="1" gradientUnits="userSpaceOnUse" gradientTransform="translate(904.089 506.525) rotate(100.036) scale(827.091 1060.54)">
<stop stop-color="white" stop-opacity="0.5"/>
<stop offset="1" stop-color="white" stop-opacity="0"/>
</radialGradient>
<radialGradient id="paint2_radial_2_61" cx="0" cy="0" r="1" gradientUnits="userSpaceOnUse" gradientTransform="translate(904.089 506.525) rotate(100.036) scale(827.091 1060.54)">
<stop stop-color="white" stop-opacity="0.5"/>
<stop offset="1" stop-color="white" stop-opacity="0"/>
</radialGradient>
<radialGradient id="paint3_radial_2_61" cx="0" cy="0" r="1" gradientUnits="userSpaceOnUse" gradientTransform="translate(904.089 506.525) rotate(100.036) scale(827.091 1060.54)">
<stop stop-color="white" stop-opacity="0.5"/>
<stop offset="1" stop-color="white" stop-opacity="0"/>
</radialGradient>
<radialGradient id="paint4_radial_2_61" cx="0" cy="0" r="1" gradientUnits="userSpaceOnUse" gradientTransform="translate(904.089 506.525) rotate(100.036) scale(827.091 1060.54)">
<stop stop-color="white" stop-opacity="0.5"/>
<stop offset="1" stop-color="white" stop-opacity="0"/>
</radialGradient>
<radialGradient id="paint5_radial_2_61" cx="0" cy="0" r="1" gradientUnits="userSpaceOnUse" gradientTransform="translate(904.089 506.525) rotate(100.036) scale(827.091 1060.54)">
<stop stop-color="white" stop-opacity="0.5"/>
<stop offset="1" stop-color="white" stop-opacity="0"/>
</radialGradient>
<radialGradient id="paint6_radial_2_61" cx="0" cy="0" r="1" gradientUnits="userSpaceOnUse" gradientTransform="translate(904.089 506.525) rotate(100.036) scale(827.091 1060.54)">
<stop stop-color="white" stop-opacity="0.5"/>
<stop offset="1" stop-color="white" stop-opacity="0"/>
</radialGradient>
<radialGradient id="paint7_radial_2_61" cx="0" cy="0" r="1" gradientUnits="userSpaceOnUse" gradientTransform="translate(904.089 506.525) rotate(100.036) scale(827.091 1060.54)">
<stop stop-color="white" stop-opacity="0.5"/>
<stop offset="1" stop-color="white" stop-opacity="0"/>
</radialGradient>
<radialGradient id="paint8_radial_2_61" cx="0" cy="0" r="1" gradientUnits="userSpaceOnUse" gradientTransform="translate(904.089 506.525) rotate(100.036) scale(827.091 1060.54)">
<stop stop-color="white" stop-opacity="0.5"/>
<stop offset="1" stop-color="white" stop-opacity="0"/>
</radialGradient>
</defs>
</svg>
