<svg width="35" height="20" viewBox="0 0 35 20" fill="none" xmlns="http://www.w3.org/2000/svg">
<path fill-rule="evenodd" clip-rule="evenodd" d="M26.1331 0.444674C26.2939 0.593431 26.4237 0.772415 26.5153 0.971393C26.6068 1.17037 26.6582 1.38544 26.6666 1.6043C26.675 1.82317 26.6401 2.04153 26.564 2.24691C26.4879 2.45229 26.3721 2.64065 26.2231 2.80124L11.2121 19.0055C10.9263 19.3188 10.5783 19.5691 10.1904 19.7403C9.8024 19.9116 9.38298 20 8.9589 20C8.53482 20 8.1154 19.9116 7.72743 19.7403C7.33946 19.5691 6.99146 19.3188 6.70567 19.0055L0.444278 12.2475C0.143713 11.9231 -0.0156615 11.4925 0.001216 11.0506C0.0180935 10.6086 0.20984 10.1915 0.534274 9.89092C0.858708 9.59036 1.28925 9.43098 1.73119 9.44786C2.17313 9.46474 2.59027 9.65649 2.89084 9.98092L8.9589 16.534L23.7766 0.534671C23.9253 0.373916 24.1043 0.244058 24.3033 0.152523C24.5023 0.0609882 24.7173 0.00957231 24.9362 0.00121404C25.1551 -0.00714422 25.3734 0.0277197 25.5788 0.103812C25.7842 0.179905 25.9726 0.295733 26.1331 0.444674ZM34.4661 0.444674C34.6269 0.593431 34.7567 0.772415 34.8482 0.971393C34.9398 1.17037 34.9912 1.38544 34.9996 1.6043C35.0079 1.82317 34.973 2.04153 34.897 2.24691C34.8209 2.45229 34.705 2.64065 34.5561 2.80124L19.5468 19.0055C19.2462 19.33 18.8291 19.5217 18.3871 19.5386C17.9452 19.5555 17.5146 19.3961 17.1902 19.0955C16.8658 18.795 16.674 18.3778 16.6571 17.9359C16.6403 17.4939 16.7996 17.0634 17.1002 16.739L32.1112 0.534671C32.4116 0.21051 32.8284 0.0189237 33.27 0.00204688C33.7116 -0.01483 34.1419 0.144384 34.4661 0.444674Z" fill="white"/>
</svg>
